%TF.GenerationSoftware,KiCad,Pcbnew,8.0.8*%
%TF.CreationDate,2025-03-09T11:47:17+01:00*%
%TF.ProjectId,01-2x30w_audio_amp,30312d32-7833-4307-975f-617564696f5f,rev?*%
%TF.SameCoordinates,Original*%
%TF.FileFunction,Legend,Bot*%
%TF.FilePolarity,Positive*%
%FSLAX46Y46*%
G04 Gerber Fmt 4.6, Leading zero omitted, Abs format (unit mm)*
G04 Created by KiCad (PCBNEW 8.0.8) date 2025-03-09 11:47:17*
%MOMM*%
%LPD*%
G01*
G04 APERTURE LIST*
G04 Aperture macros list*
%AMRoundRect*
0 Rectangle with rounded corners*
0 $1 Rounding radius*
0 $2 $3 $4 $5 $6 $7 $8 $9 X,Y pos of 4 corners*
0 Add a 4 corners polygon primitive as box body*
4,1,4,$2,$3,$4,$5,$6,$7,$8,$9,$2,$3,0*
0 Add four circle primitives for the rounded corners*
1,1,$1+$1,$2,$3*
1,1,$1+$1,$4,$5*
1,1,$1+$1,$6,$7*
1,1,$1+$1,$8,$9*
0 Add four rect primitives between the rounded corners*
20,1,$1+$1,$2,$3,$4,$5,0*
20,1,$1+$1,$4,$5,$6,$7,0*
20,1,$1+$1,$6,$7,$8,$9,0*
20,1,$1+$1,$8,$9,$2,$3,0*%
%AMRotRect*
0 Rectangle, with rotation*
0 The origin of the aperture is its center*
0 $1 length*
0 $2 width*
0 $3 Rotation angle, in degrees counterclockwise*
0 Add horizontal line*
21,1,$1,$2,0,0,$3*%
%AMFreePoly0*
4,1,19,0.500000,-0.750000,0.000000,-0.750000,0.000000,-0.744911,-0.071157,-0.744911,-0.207708,-0.704816,-0.327430,-0.627875,-0.420627,-0.520320,-0.479746,-0.390866,-0.500000,-0.250000,-0.500000,0.250000,-0.479746,0.390866,-0.420627,0.520320,-0.327430,0.627875,-0.207708,0.704816,-0.071157,0.744911,0.000000,0.744911,0.000000,0.750000,0.500000,0.750000,0.500000,-0.750000,0.500000,-0.750000,
$1*%
%AMFreePoly1*
4,1,19,0.000000,0.744911,0.071157,0.744911,0.207708,0.704816,0.327430,0.627875,0.420627,0.520320,0.479746,0.390866,0.500000,0.250000,0.500000,-0.250000,0.479746,-0.390866,0.420627,-0.520320,0.327430,-0.627875,0.207708,-0.704816,0.071157,-0.744911,0.000000,-0.744911,0.000000,-0.750000,-0.500000,-0.750000,-0.500000,0.750000,0.000000,0.750000,0.000000,0.744911,0.000000,0.744911,
$1*%
%AMFreePoly2*
4,1,19,0.550000,-0.750000,0.000000,-0.750000,0.000000,-0.744911,-0.071157,-0.744911,-0.207708,-0.704816,-0.327430,-0.627875,-0.420627,-0.520320,-0.479746,-0.390866,-0.500000,-0.250000,-0.500000,0.250000,-0.479746,0.390866,-0.420627,0.520320,-0.327430,0.627875,-0.207708,0.704816,-0.071157,0.744911,0.000000,0.744911,0.000000,0.750000,0.550000,0.750000,0.550000,-0.750000,0.550000,-0.750000,
$1*%
%AMFreePoly3*
4,1,19,0.000000,0.744911,0.071157,0.744911,0.207708,0.704816,0.327430,0.627875,0.420627,0.520320,0.479746,0.390866,0.500000,0.250000,0.500000,-0.250000,0.479746,-0.390866,0.420627,-0.520320,0.327430,-0.627875,0.207708,-0.704816,0.071157,-0.744911,0.000000,-0.744911,0.000000,-0.750000,-0.550000,-0.750000,-0.550000,0.750000,0.000000,0.750000,0.000000,0.744911,0.000000,0.744911,
$1*%
%AMFreePoly4*
4,1,9,3.862500,-0.866500,0.737500,-0.866500,0.737500,-0.450000,-0.737500,-0.450000,-0.737500,0.450000,0.737500,0.450000,0.737500,0.866500,3.862500,0.866500,3.862500,-0.866500,3.862500,-0.866500,$1*%
G04 Aperture macros list end*
%ADD10C,0.200000*%
%ADD11C,0.120000*%
%ADD12C,0.150000*%
%ADD13RoundRect,0.200000X0.200000X0.275000X-0.200000X0.275000X-0.200000X-0.275000X0.200000X-0.275000X0*%
%ADD14C,1.800000*%
%ADD15C,2.600000*%
%ADD16C,1.600000*%
%ADD17RotRect,1.600000X1.600000X225.000000*%
%ADD18C,1.620000*%
%ADD19RoundRect,0.102000X-1.050000X-1.050000X1.050000X-1.050000X1.050000X1.050000X-1.050000X1.050000X0*%
%ADD20C,2.304000*%
%ADD21R,1.700000X1.700000*%
%ADD22O,1.700000X1.700000*%
%ADD23C,5.600000*%
%ADD24RotRect,1.600000X1.600000X315.000000*%
%ADD25RoundRect,0.150000X0.512500X0.150000X-0.512500X0.150000X-0.512500X-0.150000X0.512500X-0.150000X0*%
%ADD26RoundRect,0.225000X-0.225000X-0.250000X0.225000X-0.250000X0.225000X0.250000X-0.225000X0.250000X0*%
%ADD27RoundRect,0.200000X-0.275000X0.200000X-0.275000X-0.200000X0.275000X-0.200000X0.275000X0.200000X0*%
%ADD28RoundRect,0.200000X0.275000X-0.200000X0.275000X0.200000X-0.275000X0.200000X-0.275000X-0.200000X0*%
%ADD29RoundRect,0.225000X-0.250000X0.225000X-0.250000X-0.225000X0.250000X-0.225000X0.250000X0.225000X0*%
%ADD30RoundRect,0.225000X0.250000X-0.225000X0.250000X0.225000X-0.250000X0.225000X-0.250000X-0.225000X0*%
%ADD31FreePoly0,180.000000*%
%ADD32FreePoly1,180.000000*%
%ADD33RoundRect,0.200000X-0.200000X-0.275000X0.200000X-0.275000X0.200000X0.275000X-0.200000X0.275000X0*%
%ADD34FreePoly2,90.000000*%
%ADD35R,1.500000X1.000000*%
%ADD36FreePoly3,90.000000*%
%ADD37RoundRect,0.112500X0.112500X-0.187500X0.112500X0.187500X-0.112500X0.187500X-0.112500X-0.187500X0*%
%ADD38RoundRect,0.225000X0.225000X0.250000X-0.225000X0.250000X-0.225000X-0.250000X0.225000X-0.250000X0*%
%ADD39RoundRect,0.150000X0.587500X0.150000X-0.587500X0.150000X-0.587500X-0.150000X0.587500X-0.150000X0*%
%ADD40RoundRect,0.150000X-0.512500X-0.150000X0.512500X-0.150000X0.512500X0.150000X-0.512500X0.150000X0*%
%ADD41R,4.360000X4.110000*%
%ADD42R,0.400000X1.200000*%
%ADD43RoundRect,0.225000X0.425000X0.225000X-0.425000X0.225000X-0.425000X-0.225000X0.425000X-0.225000X0*%
%ADD44FreePoly4,180.000000*%
%ADD45RoundRect,0.112500X-0.112500X0.187500X-0.112500X-0.187500X0.112500X-0.187500X0.112500X0.187500X0*%
%ADD46FreePoly0,0.000000*%
%ADD47FreePoly1,0.000000*%
%ADD48RoundRect,0.250000X1.000000X0.900000X-1.000000X0.900000X-1.000000X-0.900000X1.000000X-0.900000X0*%
G04 APERTURE END LIST*
D10*
X195614285Y-110147331D02*
X195614285Y-109147331D01*
X195614285Y-109147331D02*
X195376190Y-109147331D01*
X195376190Y-109147331D02*
X195233333Y-109194950D01*
X195233333Y-109194950D02*
X195138095Y-109290188D01*
X195138095Y-109290188D02*
X195090476Y-109385426D01*
X195090476Y-109385426D02*
X195042857Y-109575902D01*
X195042857Y-109575902D02*
X195042857Y-109718759D01*
X195042857Y-109718759D02*
X195090476Y-109909235D01*
X195090476Y-109909235D02*
X195138095Y-110004473D01*
X195138095Y-110004473D02*
X195233333Y-110099712D01*
X195233333Y-110099712D02*
X195376190Y-110147331D01*
X195376190Y-110147331D02*
X195614285Y-110147331D01*
X194233333Y-110099712D02*
X194328571Y-110147331D01*
X194328571Y-110147331D02*
X194519047Y-110147331D01*
X194519047Y-110147331D02*
X194614285Y-110099712D01*
X194614285Y-110099712D02*
X194661904Y-110004473D01*
X194661904Y-110004473D02*
X194661904Y-109623521D01*
X194661904Y-109623521D02*
X194614285Y-109528283D01*
X194614285Y-109528283D02*
X194519047Y-109480664D01*
X194519047Y-109480664D02*
X194328571Y-109480664D01*
X194328571Y-109480664D02*
X194233333Y-109528283D01*
X194233333Y-109528283D02*
X194185714Y-109623521D01*
X194185714Y-109623521D02*
X194185714Y-109718759D01*
X194185714Y-109718759D02*
X194661904Y-109813997D01*
X193804761Y-110099712D02*
X193709523Y-110147331D01*
X193709523Y-110147331D02*
X193519047Y-110147331D01*
X193519047Y-110147331D02*
X193423809Y-110099712D01*
X193423809Y-110099712D02*
X193376190Y-110004473D01*
X193376190Y-110004473D02*
X193376190Y-109956854D01*
X193376190Y-109956854D02*
X193423809Y-109861616D01*
X193423809Y-109861616D02*
X193519047Y-109813997D01*
X193519047Y-109813997D02*
X193661904Y-109813997D01*
X193661904Y-109813997D02*
X193757142Y-109766378D01*
X193757142Y-109766378D02*
X193804761Y-109671140D01*
X193804761Y-109671140D02*
X193804761Y-109623521D01*
X193804761Y-109623521D02*
X193757142Y-109528283D01*
X193757142Y-109528283D02*
X193661904Y-109480664D01*
X193661904Y-109480664D02*
X193519047Y-109480664D01*
X193519047Y-109480664D02*
X193423809Y-109528283D01*
X192947618Y-110147331D02*
X192947618Y-109480664D01*
X192947618Y-109147331D02*
X192995237Y-109194950D01*
X192995237Y-109194950D02*
X192947618Y-109242569D01*
X192947618Y-109242569D02*
X192899999Y-109194950D01*
X192899999Y-109194950D02*
X192947618Y-109147331D01*
X192947618Y-109147331D02*
X192947618Y-109242569D01*
X192042857Y-109480664D02*
X192042857Y-110290188D01*
X192042857Y-110290188D02*
X192090476Y-110385426D01*
X192090476Y-110385426D02*
X192138095Y-110433045D01*
X192138095Y-110433045D02*
X192233333Y-110480664D01*
X192233333Y-110480664D02*
X192376190Y-110480664D01*
X192376190Y-110480664D02*
X192471428Y-110433045D01*
X192042857Y-110099712D02*
X192138095Y-110147331D01*
X192138095Y-110147331D02*
X192328571Y-110147331D01*
X192328571Y-110147331D02*
X192423809Y-110099712D01*
X192423809Y-110099712D02*
X192471428Y-110052092D01*
X192471428Y-110052092D02*
X192519047Y-109956854D01*
X192519047Y-109956854D02*
X192519047Y-109671140D01*
X192519047Y-109671140D02*
X192471428Y-109575902D01*
X192471428Y-109575902D02*
X192423809Y-109528283D01*
X192423809Y-109528283D02*
X192328571Y-109480664D01*
X192328571Y-109480664D02*
X192138095Y-109480664D01*
X192138095Y-109480664D02*
X192042857Y-109528283D01*
X191566666Y-109480664D02*
X191566666Y-110147331D01*
X191566666Y-109575902D02*
X191519047Y-109528283D01*
X191519047Y-109528283D02*
X191423809Y-109480664D01*
X191423809Y-109480664D02*
X191280952Y-109480664D01*
X191280952Y-109480664D02*
X191185714Y-109528283D01*
X191185714Y-109528283D02*
X191138095Y-109623521D01*
X191138095Y-109623521D02*
X191138095Y-110147331D01*
X190280952Y-110099712D02*
X190376190Y-110147331D01*
X190376190Y-110147331D02*
X190566666Y-110147331D01*
X190566666Y-110147331D02*
X190661904Y-110099712D01*
X190661904Y-110099712D02*
X190709523Y-110004473D01*
X190709523Y-110004473D02*
X190709523Y-109623521D01*
X190709523Y-109623521D02*
X190661904Y-109528283D01*
X190661904Y-109528283D02*
X190566666Y-109480664D01*
X190566666Y-109480664D02*
X190376190Y-109480664D01*
X190376190Y-109480664D02*
X190280952Y-109528283D01*
X190280952Y-109528283D02*
X190233333Y-109623521D01*
X190233333Y-109623521D02*
X190233333Y-109718759D01*
X190233333Y-109718759D02*
X190709523Y-109813997D01*
X189376190Y-110147331D02*
X189376190Y-109147331D01*
X189376190Y-110099712D02*
X189471428Y-110147331D01*
X189471428Y-110147331D02*
X189661904Y-110147331D01*
X189661904Y-110147331D02*
X189757142Y-110099712D01*
X189757142Y-110099712D02*
X189804761Y-110052092D01*
X189804761Y-110052092D02*
X189852380Y-109956854D01*
X189852380Y-109956854D02*
X189852380Y-109671140D01*
X189852380Y-109671140D02*
X189804761Y-109575902D01*
X189804761Y-109575902D02*
X189757142Y-109528283D01*
X189757142Y-109528283D02*
X189661904Y-109480664D01*
X189661904Y-109480664D02*
X189471428Y-109480664D01*
X189471428Y-109480664D02*
X189376190Y-109528283D01*
X188138094Y-110147331D02*
X188138094Y-109147331D01*
X188138094Y-109528283D02*
X188042856Y-109480664D01*
X188042856Y-109480664D02*
X187852380Y-109480664D01*
X187852380Y-109480664D02*
X187757142Y-109528283D01*
X187757142Y-109528283D02*
X187709523Y-109575902D01*
X187709523Y-109575902D02*
X187661904Y-109671140D01*
X187661904Y-109671140D02*
X187661904Y-109956854D01*
X187661904Y-109956854D02*
X187709523Y-110052092D01*
X187709523Y-110052092D02*
X187757142Y-110099712D01*
X187757142Y-110099712D02*
X187852380Y-110147331D01*
X187852380Y-110147331D02*
X188042856Y-110147331D01*
X188042856Y-110147331D02*
X188138094Y-110099712D01*
X187328570Y-109480664D02*
X187090475Y-110147331D01*
X186852380Y-109480664D02*
X187090475Y-110147331D01*
X187090475Y-110147331D02*
X187185713Y-110385426D01*
X187185713Y-110385426D02*
X187233332Y-110433045D01*
X187233332Y-110433045D02*
X187328570Y-110480664D01*
X198542857Y-110757275D02*
X197971429Y-110757275D01*
X198257143Y-111757275D02*
X198257143Y-110757275D01*
X197638095Y-111662036D02*
X197590476Y-111709656D01*
X197590476Y-111709656D02*
X197638095Y-111757275D01*
X197638095Y-111757275D02*
X197685714Y-111709656D01*
X197685714Y-111709656D02*
X197638095Y-111662036D01*
X197638095Y-111662036D02*
X197638095Y-111757275D01*
X196447619Y-111709656D02*
X196304762Y-111757275D01*
X196304762Y-111757275D02*
X196066667Y-111757275D01*
X196066667Y-111757275D02*
X195971429Y-111709656D01*
X195971429Y-111709656D02*
X195923810Y-111662036D01*
X195923810Y-111662036D02*
X195876191Y-111566798D01*
X195876191Y-111566798D02*
X195876191Y-111471560D01*
X195876191Y-111471560D02*
X195923810Y-111376322D01*
X195923810Y-111376322D02*
X195971429Y-111328703D01*
X195971429Y-111328703D02*
X196066667Y-111281084D01*
X196066667Y-111281084D02*
X196257143Y-111233465D01*
X196257143Y-111233465D02*
X196352381Y-111185846D01*
X196352381Y-111185846D02*
X196400000Y-111138227D01*
X196400000Y-111138227D02*
X196447619Y-111042989D01*
X196447619Y-111042989D02*
X196447619Y-110947751D01*
X196447619Y-110947751D02*
X196400000Y-110852513D01*
X196400000Y-110852513D02*
X196352381Y-110804894D01*
X196352381Y-110804894D02*
X196257143Y-110757275D01*
X196257143Y-110757275D02*
X196019048Y-110757275D01*
X196019048Y-110757275D02*
X195876191Y-110804894D01*
X195542857Y-111090608D02*
X195019048Y-111090608D01*
X195019048Y-111090608D02*
X195542857Y-111757275D01*
X195542857Y-111757275D02*
X195019048Y-111757275D01*
X194209524Y-111709656D02*
X194304762Y-111757275D01*
X194304762Y-111757275D02*
X194495238Y-111757275D01*
X194495238Y-111757275D02*
X194590476Y-111709656D01*
X194590476Y-111709656D02*
X194638095Y-111662036D01*
X194638095Y-111662036D02*
X194685714Y-111566798D01*
X194685714Y-111566798D02*
X194685714Y-111281084D01*
X194685714Y-111281084D02*
X194638095Y-111185846D01*
X194638095Y-111185846D02*
X194590476Y-111138227D01*
X194590476Y-111138227D02*
X194495238Y-111090608D01*
X194495238Y-111090608D02*
X194304762Y-111090608D01*
X194304762Y-111090608D02*
X194209524Y-111138227D01*
X193876190Y-111090608D02*
X193352381Y-111090608D01*
X193352381Y-111090608D02*
X193876190Y-111757275D01*
X193876190Y-111757275D02*
X193352381Y-111757275D01*
X192590476Y-111709656D02*
X192685714Y-111757275D01*
X192685714Y-111757275D02*
X192876190Y-111757275D01*
X192876190Y-111757275D02*
X192971428Y-111709656D01*
X192971428Y-111709656D02*
X193019047Y-111614417D01*
X193019047Y-111614417D02*
X193019047Y-111233465D01*
X193019047Y-111233465D02*
X192971428Y-111138227D01*
X192971428Y-111138227D02*
X192876190Y-111090608D01*
X192876190Y-111090608D02*
X192685714Y-111090608D01*
X192685714Y-111090608D02*
X192590476Y-111138227D01*
X192590476Y-111138227D02*
X192542857Y-111233465D01*
X192542857Y-111233465D02*
X192542857Y-111328703D01*
X192542857Y-111328703D02*
X193019047Y-111423941D01*
X192780952Y-111757275D02*
X192876190Y-111852513D01*
X192876190Y-111852513D02*
X192923809Y-111947751D01*
X192923809Y-111947751D02*
X192876190Y-112042989D01*
X192876190Y-112042989D02*
X192780952Y-112090608D01*
X192780952Y-112090608D02*
X192685714Y-112090608D01*
X192161904Y-111709656D02*
X192066666Y-111757275D01*
X192066666Y-111757275D02*
X191876190Y-111757275D01*
X191876190Y-111757275D02*
X191780952Y-111709656D01*
X191780952Y-111709656D02*
X191733333Y-111614417D01*
X191733333Y-111614417D02*
X191733333Y-111566798D01*
X191733333Y-111566798D02*
X191780952Y-111471560D01*
X191780952Y-111471560D02*
X191876190Y-111423941D01*
X191876190Y-111423941D02*
X192019047Y-111423941D01*
X192019047Y-111423941D02*
X192114285Y-111376322D01*
X192114285Y-111376322D02*
X192161904Y-111281084D01*
X192161904Y-111281084D02*
X192161904Y-111233465D01*
X192161904Y-111233465D02*
X192114285Y-111138227D01*
X192114285Y-111138227D02*
X192019047Y-111090608D01*
X192019047Y-111090608D02*
X191876190Y-111090608D01*
X191876190Y-111090608D02*
X191780952Y-111138227D01*
X191304761Y-111090608D02*
X191304761Y-111757275D01*
X191304761Y-111185846D02*
X191257142Y-111138227D01*
X191257142Y-111138227D02*
X191161904Y-111090608D01*
X191161904Y-111090608D02*
X191019047Y-111090608D01*
X191019047Y-111090608D02*
X190923809Y-111138227D01*
X190923809Y-111138227D02*
X190876190Y-111233465D01*
X190876190Y-111233465D02*
X190876190Y-111757275D01*
X190495237Y-111090608D02*
X190257142Y-111757275D01*
X190019047Y-111090608D02*
X190257142Y-111757275D01*
X190257142Y-111757275D02*
X190352380Y-111995370D01*
X190352380Y-111995370D02*
X190399999Y-112042989D01*
X190399999Y-112042989D02*
X190495237Y-112090608D01*
X188876189Y-111757275D02*
X188876189Y-111090608D01*
X188876189Y-110757275D02*
X188923808Y-110804894D01*
X188923808Y-110804894D02*
X188876189Y-110852513D01*
X188876189Y-110852513D02*
X188828570Y-110804894D01*
X188828570Y-110804894D02*
X188876189Y-110757275D01*
X188876189Y-110757275D02*
X188876189Y-110852513D01*
X188399999Y-111090608D02*
X188399999Y-111757275D01*
X188399999Y-111185846D02*
X188352380Y-111138227D01*
X188352380Y-111138227D02*
X188257142Y-111090608D01*
X188257142Y-111090608D02*
X188114285Y-111090608D01*
X188114285Y-111090608D02*
X188019047Y-111138227D01*
X188019047Y-111138227D02*
X187971428Y-111233465D01*
X187971428Y-111233465D02*
X187971428Y-111757275D01*
X186780951Y-110852513D02*
X186733332Y-110804894D01*
X186733332Y-110804894D02*
X186638094Y-110757275D01*
X186638094Y-110757275D02*
X186399999Y-110757275D01*
X186399999Y-110757275D02*
X186304761Y-110804894D01*
X186304761Y-110804894D02*
X186257142Y-110852513D01*
X186257142Y-110852513D02*
X186209523Y-110947751D01*
X186209523Y-110947751D02*
X186209523Y-111042989D01*
X186209523Y-111042989D02*
X186257142Y-111185846D01*
X186257142Y-111185846D02*
X186828570Y-111757275D01*
X186828570Y-111757275D02*
X186209523Y-111757275D01*
X185590475Y-110757275D02*
X185495237Y-110757275D01*
X185495237Y-110757275D02*
X185399999Y-110804894D01*
X185399999Y-110804894D02*
X185352380Y-110852513D01*
X185352380Y-110852513D02*
X185304761Y-110947751D01*
X185304761Y-110947751D02*
X185257142Y-111138227D01*
X185257142Y-111138227D02*
X185257142Y-111376322D01*
X185257142Y-111376322D02*
X185304761Y-111566798D01*
X185304761Y-111566798D02*
X185352380Y-111662036D01*
X185352380Y-111662036D02*
X185399999Y-111709656D01*
X185399999Y-111709656D02*
X185495237Y-111757275D01*
X185495237Y-111757275D02*
X185590475Y-111757275D01*
X185590475Y-111757275D02*
X185685713Y-111709656D01*
X185685713Y-111709656D02*
X185733332Y-111662036D01*
X185733332Y-111662036D02*
X185780951Y-111566798D01*
X185780951Y-111566798D02*
X185828570Y-111376322D01*
X185828570Y-111376322D02*
X185828570Y-111138227D01*
X185828570Y-111138227D02*
X185780951Y-110947751D01*
X185780951Y-110947751D02*
X185733332Y-110852513D01*
X185733332Y-110852513D02*
X185685713Y-110804894D01*
X185685713Y-110804894D02*
X185590475Y-110757275D01*
X184876189Y-110852513D02*
X184828570Y-110804894D01*
X184828570Y-110804894D02*
X184733332Y-110757275D01*
X184733332Y-110757275D02*
X184495237Y-110757275D01*
X184495237Y-110757275D02*
X184399999Y-110804894D01*
X184399999Y-110804894D02*
X184352380Y-110852513D01*
X184352380Y-110852513D02*
X184304761Y-110947751D01*
X184304761Y-110947751D02*
X184304761Y-111042989D01*
X184304761Y-111042989D02*
X184352380Y-111185846D01*
X184352380Y-111185846D02*
X184923808Y-111757275D01*
X184923808Y-111757275D02*
X184304761Y-111757275D01*
X183399999Y-110757275D02*
X183876189Y-110757275D01*
X183876189Y-110757275D02*
X183923808Y-111233465D01*
X183923808Y-111233465D02*
X183876189Y-111185846D01*
X183876189Y-111185846D02*
X183780951Y-111138227D01*
X183780951Y-111138227D02*
X183542856Y-111138227D01*
X183542856Y-111138227D02*
X183447618Y-111185846D01*
X183447618Y-111185846D02*
X183399999Y-111233465D01*
X183399999Y-111233465D02*
X183352380Y-111328703D01*
X183352380Y-111328703D02*
X183352380Y-111566798D01*
X183352380Y-111566798D02*
X183399999Y-111662036D01*
X183399999Y-111662036D02*
X183447618Y-111709656D01*
X183447618Y-111709656D02*
X183542856Y-111757275D01*
X183542856Y-111757275D02*
X183780951Y-111757275D01*
X183780951Y-111757275D02*
X183876189Y-111709656D01*
X183876189Y-111709656D02*
X183923808Y-111662036D01*
X205423810Y-112700552D02*
X205423810Y-113510076D01*
X205423810Y-113510076D02*
X205471429Y-113605314D01*
X205471429Y-113605314D02*
X205519048Y-113652933D01*
X205519048Y-113652933D02*
X205614286Y-113700552D01*
X205614286Y-113700552D02*
X205757143Y-113700552D01*
X205757143Y-113700552D02*
X205852381Y-113652933D01*
X205423810Y-113319600D02*
X205519048Y-113367219D01*
X205519048Y-113367219D02*
X205709524Y-113367219D01*
X205709524Y-113367219D02*
X205804762Y-113319600D01*
X205804762Y-113319600D02*
X205852381Y-113271980D01*
X205852381Y-113271980D02*
X205900000Y-113176742D01*
X205900000Y-113176742D02*
X205900000Y-112891028D01*
X205900000Y-112891028D02*
X205852381Y-112795790D01*
X205852381Y-112795790D02*
X205804762Y-112748171D01*
X205804762Y-112748171D02*
X205709524Y-112700552D01*
X205709524Y-112700552D02*
X205519048Y-112700552D01*
X205519048Y-112700552D02*
X205423810Y-112748171D01*
X204947619Y-113367219D02*
X204947619Y-112700552D01*
X204947619Y-112367219D02*
X204995238Y-112414838D01*
X204995238Y-112414838D02*
X204947619Y-112462457D01*
X204947619Y-112462457D02*
X204900000Y-112414838D01*
X204900000Y-112414838D02*
X204947619Y-112367219D01*
X204947619Y-112367219D02*
X204947619Y-112462457D01*
X204614286Y-112700552D02*
X204233334Y-112700552D01*
X204471429Y-112367219D02*
X204471429Y-113224361D01*
X204471429Y-113224361D02*
X204423810Y-113319600D01*
X204423810Y-113319600D02*
X204328572Y-113367219D01*
X204328572Y-113367219D02*
X204233334Y-113367219D01*
X203900000Y-113367219D02*
X203900000Y-112367219D01*
X203471429Y-113367219D02*
X203471429Y-112843409D01*
X203471429Y-112843409D02*
X203519048Y-112748171D01*
X203519048Y-112748171D02*
X203614286Y-112700552D01*
X203614286Y-112700552D02*
X203757143Y-112700552D01*
X203757143Y-112700552D02*
X203852381Y-112748171D01*
X203852381Y-112748171D02*
X203900000Y-112795790D01*
X202566667Y-112700552D02*
X202566667Y-113367219D01*
X202995238Y-112700552D02*
X202995238Y-113224361D01*
X202995238Y-113224361D02*
X202947619Y-113319600D01*
X202947619Y-113319600D02*
X202852381Y-113367219D01*
X202852381Y-113367219D02*
X202709524Y-113367219D01*
X202709524Y-113367219D02*
X202614286Y-113319600D01*
X202614286Y-113319600D02*
X202566667Y-113271980D01*
X202090476Y-113367219D02*
X202090476Y-112367219D01*
X202090476Y-112748171D02*
X201995238Y-112700552D01*
X201995238Y-112700552D02*
X201804762Y-112700552D01*
X201804762Y-112700552D02*
X201709524Y-112748171D01*
X201709524Y-112748171D02*
X201661905Y-112795790D01*
X201661905Y-112795790D02*
X201614286Y-112891028D01*
X201614286Y-112891028D02*
X201614286Y-113176742D01*
X201614286Y-113176742D02*
X201661905Y-113271980D01*
X201661905Y-113271980D02*
X201709524Y-113319600D01*
X201709524Y-113319600D02*
X201804762Y-113367219D01*
X201804762Y-113367219D02*
X201995238Y-113367219D01*
X201995238Y-113367219D02*
X202090476Y-113319600D01*
X201185714Y-113271980D02*
X201138095Y-113319600D01*
X201138095Y-113319600D02*
X201185714Y-113367219D01*
X201185714Y-113367219D02*
X201233333Y-113319600D01*
X201233333Y-113319600D02*
X201185714Y-113271980D01*
X201185714Y-113271980D02*
X201185714Y-113367219D01*
X200280953Y-113319600D02*
X200376191Y-113367219D01*
X200376191Y-113367219D02*
X200566667Y-113367219D01*
X200566667Y-113367219D02*
X200661905Y-113319600D01*
X200661905Y-113319600D02*
X200709524Y-113271980D01*
X200709524Y-113271980D02*
X200757143Y-113176742D01*
X200757143Y-113176742D02*
X200757143Y-112891028D01*
X200757143Y-112891028D02*
X200709524Y-112795790D01*
X200709524Y-112795790D02*
X200661905Y-112748171D01*
X200661905Y-112748171D02*
X200566667Y-112700552D01*
X200566667Y-112700552D02*
X200376191Y-112700552D01*
X200376191Y-112700552D02*
X200280953Y-112748171D01*
X199709524Y-113367219D02*
X199804762Y-113319600D01*
X199804762Y-113319600D02*
X199852381Y-113271980D01*
X199852381Y-113271980D02*
X199900000Y-113176742D01*
X199900000Y-113176742D02*
X199900000Y-112891028D01*
X199900000Y-112891028D02*
X199852381Y-112795790D01*
X199852381Y-112795790D02*
X199804762Y-112748171D01*
X199804762Y-112748171D02*
X199709524Y-112700552D01*
X199709524Y-112700552D02*
X199566667Y-112700552D01*
X199566667Y-112700552D02*
X199471429Y-112748171D01*
X199471429Y-112748171D02*
X199423810Y-112795790D01*
X199423810Y-112795790D02*
X199376191Y-112891028D01*
X199376191Y-112891028D02*
X199376191Y-113176742D01*
X199376191Y-113176742D02*
X199423810Y-113271980D01*
X199423810Y-113271980D02*
X199471429Y-113319600D01*
X199471429Y-113319600D02*
X199566667Y-113367219D01*
X199566667Y-113367219D02*
X199709524Y-113367219D01*
X198947619Y-113367219D02*
X198947619Y-112700552D01*
X198947619Y-112795790D02*
X198900000Y-112748171D01*
X198900000Y-112748171D02*
X198804762Y-112700552D01*
X198804762Y-112700552D02*
X198661905Y-112700552D01*
X198661905Y-112700552D02*
X198566667Y-112748171D01*
X198566667Y-112748171D02*
X198519048Y-112843409D01*
X198519048Y-112843409D02*
X198519048Y-113367219D01*
X198519048Y-112843409D02*
X198471429Y-112748171D01*
X198471429Y-112748171D02*
X198376191Y-112700552D01*
X198376191Y-112700552D02*
X198233334Y-112700552D01*
X198233334Y-112700552D02*
X198138095Y-112748171D01*
X198138095Y-112748171D02*
X198090476Y-112843409D01*
X198090476Y-112843409D02*
X198090476Y-113367219D01*
X196900001Y-112319600D02*
X197757143Y-113605314D01*
X196709524Y-112700552D02*
X196328572Y-112700552D01*
X196566667Y-112367219D02*
X196566667Y-113224361D01*
X196566667Y-113224361D02*
X196519048Y-113319600D01*
X196519048Y-113319600D02*
X196423810Y-113367219D01*
X196423810Y-113367219D02*
X196328572Y-113367219D01*
X195852381Y-113367219D02*
X195947619Y-113319600D01*
X195947619Y-113319600D02*
X195995238Y-113271980D01*
X195995238Y-113271980D02*
X196042857Y-113176742D01*
X196042857Y-113176742D02*
X196042857Y-112891028D01*
X196042857Y-112891028D02*
X195995238Y-112795790D01*
X195995238Y-112795790D02*
X195947619Y-112748171D01*
X195947619Y-112748171D02*
X195852381Y-112700552D01*
X195852381Y-112700552D02*
X195709524Y-112700552D01*
X195709524Y-112700552D02*
X195614286Y-112748171D01*
X195614286Y-112748171D02*
X195566667Y-112795790D01*
X195566667Y-112795790D02*
X195519048Y-112891028D01*
X195519048Y-112891028D02*
X195519048Y-113176742D01*
X195519048Y-113176742D02*
X195566667Y-113271980D01*
X195566667Y-113271980D02*
X195614286Y-113319600D01*
X195614286Y-113319600D02*
X195709524Y-113367219D01*
X195709524Y-113367219D02*
X195852381Y-113367219D01*
X195090476Y-113367219D02*
X195090476Y-112700552D01*
X195090476Y-112795790D02*
X195042857Y-112748171D01*
X195042857Y-112748171D02*
X194947619Y-112700552D01*
X194947619Y-112700552D02*
X194804762Y-112700552D01*
X194804762Y-112700552D02*
X194709524Y-112748171D01*
X194709524Y-112748171D02*
X194661905Y-112843409D01*
X194661905Y-112843409D02*
X194661905Y-113367219D01*
X194661905Y-112843409D02*
X194614286Y-112748171D01*
X194614286Y-112748171D02*
X194519048Y-112700552D01*
X194519048Y-112700552D02*
X194376191Y-112700552D01*
X194376191Y-112700552D02*
X194280952Y-112748171D01*
X194280952Y-112748171D02*
X194233333Y-112843409D01*
X194233333Y-112843409D02*
X194233333Y-113367219D01*
X193376191Y-113319600D02*
X193471429Y-113367219D01*
X193471429Y-113367219D02*
X193661905Y-113367219D01*
X193661905Y-113367219D02*
X193757143Y-113319600D01*
X193757143Y-113319600D02*
X193804762Y-113224361D01*
X193804762Y-113224361D02*
X193804762Y-112843409D01*
X193804762Y-112843409D02*
X193757143Y-112748171D01*
X193757143Y-112748171D02*
X193661905Y-112700552D01*
X193661905Y-112700552D02*
X193471429Y-112700552D01*
X193471429Y-112700552D02*
X193376191Y-112748171D01*
X193376191Y-112748171D02*
X193328572Y-112843409D01*
X193328572Y-112843409D02*
X193328572Y-112938647D01*
X193328572Y-112938647D02*
X193804762Y-113033885D01*
X192900000Y-113367219D02*
X192900000Y-112367219D01*
X192804762Y-112986266D02*
X192519048Y-113367219D01*
X192519048Y-112700552D02*
X192900000Y-113081504D01*
X192090476Y-112986266D02*
X191328572Y-112986266D01*
X190900000Y-113319600D02*
X190804762Y-113367219D01*
X190804762Y-113367219D02*
X190614286Y-113367219D01*
X190614286Y-113367219D02*
X190519048Y-113319600D01*
X190519048Y-113319600D02*
X190471429Y-113224361D01*
X190471429Y-113224361D02*
X190471429Y-113176742D01*
X190471429Y-113176742D02*
X190519048Y-113081504D01*
X190519048Y-113081504D02*
X190614286Y-113033885D01*
X190614286Y-113033885D02*
X190757143Y-113033885D01*
X190757143Y-113033885D02*
X190852381Y-112986266D01*
X190852381Y-112986266D02*
X190900000Y-112891028D01*
X190900000Y-112891028D02*
X190900000Y-112843409D01*
X190900000Y-112843409D02*
X190852381Y-112748171D01*
X190852381Y-112748171D02*
X190757143Y-112700552D01*
X190757143Y-112700552D02*
X190614286Y-112700552D01*
X190614286Y-112700552D02*
X190519048Y-112748171D01*
X190138095Y-112700552D02*
X189614286Y-112700552D01*
X189614286Y-112700552D02*
X190138095Y-113367219D01*
X190138095Y-113367219D02*
X189614286Y-113367219D01*
X188804762Y-113319600D02*
X188900000Y-113367219D01*
X188900000Y-113367219D02*
X189090476Y-113367219D01*
X189090476Y-113367219D02*
X189185714Y-113319600D01*
X189185714Y-113319600D02*
X189233333Y-113271980D01*
X189233333Y-113271980D02*
X189280952Y-113176742D01*
X189280952Y-113176742D02*
X189280952Y-112891028D01*
X189280952Y-112891028D02*
X189233333Y-112795790D01*
X189233333Y-112795790D02*
X189185714Y-112748171D01*
X189185714Y-112748171D02*
X189090476Y-112700552D01*
X189090476Y-112700552D02*
X188900000Y-112700552D01*
X188900000Y-112700552D02*
X188804762Y-112748171D01*
X188471428Y-112700552D02*
X187947619Y-112700552D01*
X187947619Y-112700552D02*
X188471428Y-113367219D01*
X188471428Y-113367219D02*
X187947619Y-113367219D01*
X187185714Y-113319600D02*
X187280952Y-113367219D01*
X187280952Y-113367219D02*
X187471428Y-113367219D01*
X187471428Y-113367219D02*
X187566666Y-113319600D01*
X187566666Y-113319600D02*
X187614285Y-113224361D01*
X187614285Y-113224361D02*
X187614285Y-112843409D01*
X187614285Y-112843409D02*
X187566666Y-112748171D01*
X187566666Y-112748171D02*
X187471428Y-112700552D01*
X187471428Y-112700552D02*
X187280952Y-112700552D01*
X187280952Y-112700552D02*
X187185714Y-112748171D01*
X187185714Y-112748171D02*
X187138095Y-112843409D01*
X187138095Y-112843409D02*
X187138095Y-112938647D01*
X187138095Y-112938647D02*
X187614285Y-113033885D01*
X186757142Y-113319600D02*
X186661904Y-113367219D01*
X186661904Y-113367219D02*
X186471428Y-113367219D01*
X186471428Y-113367219D02*
X186376190Y-113319600D01*
X186376190Y-113319600D02*
X186328571Y-113224361D01*
X186328571Y-113224361D02*
X186328571Y-113176742D01*
X186328571Y-113176742D02*
X186376190Y-113081504D01*
X186376190Y-113081504D02*
X186471428Y-113033885D01*
X186471428Y-113033885D02*
X186614285Y-113033885D01*
X186614285Y-113033885D02*
X186709523Y-112986266D01*
X186709523Y-112986266D02*
X186757142Y-112891028D01*
X186757142Y-112891028D02*
X186757142Y-112843409D01*
X186757142Y-112843409D02*
X186709523Y-112748171D01*
X186709523Y-112748171D02*
X186614285Y-112700552D01*
X186614285Y-112700552D02*
X186471428Y-112700552D01*
X186471428Y-112700552D02*
X186376190Y-112748171D01*
X185899999Y-112700552D02*
X185899999Y-113367219D01*
X185899999Y-112795790D02*
X185852380Y-112748171D01*
X185852380Y-112748171D02*
X185757142Y-112700552D01*
X185757142Y-112700552D02*
X185614285Y-112700552D01*
X185614285Y-112700552D02*
X185519047Y-112748171D01*
X185519047Y-112748171D02*
X185471428Y-112843409D01*
X185471428Y-112843409D02*
X185471428Y-113367219D01*
X185090475Y-112700552D02*
X184852380Y-113367219D01*
X184614285Y-112700552D02*
X184852380Y-113367219D01*
X184852380Y-113367219D02*
X184947618Y-113605314D01*
X184947618Y-113605314D02*
X184995237Y-113652933D01*
X184995237Y-113652933D02*
X185090475Y-113700552D01*
X183519047Y-112319600D02*
X184376189Y-113605314D01*
X183185713Y-112700552D02*
X183185713Y-113700552D01*
X183185713Y-112748171D02*
X183090475Y-112700552D01*
X183090475Y-112700552D02*
X182899999Y-112700552D01*
X182899999Y-112700552D02*
X182804761Y-112748171D01*
X182804761Y-112748171D02*
X182757142Y-112795790D01*
X182757142Y-112795790D02*
X182709523Y-112891028D01*
X182709523Y-112891028D02*
X182709523Y-113176742D01*
X182709523Y-113176742D02*
X182757142Y-113271980D01*
X182757142Y-113271980D02*
X182804761Y-113319600D01*
X182804761Y-113319600D02*
X182899999Y-113367219D01*
X182899999Y-113367219D02*
X183090475Y-113367219D01*
X183090475Y-113367219D02*
X183185713Y-113319600D01*
X181899999Y-113319600D02*
X181995237Y-113367219D01*
X181995237Y-113367219D02*
X182185713Y-113367219D01*
X182185713Y-113367219D02*
X182280951Y-113319600D01*
X182280951Y-113319600D02*
X182328570Y-113224361D01*
X182328570Y-113224361D02*
X182328570Y-112843409D01*
X182328570Y-112843409D02*
X182280951Y-112748171D01*
X182280951Y-112748171D02*
X182185713Y-112700552D01*
X182185713Y-112700552D02*
X181995237Y-112700552D01*
X181995237Y-112700552D02*
X181899999Y-112748171D01*
X181899999Y-112748171D02*
X181852380Y-112843409D01*
X181852380Y-112843409D02*
X181852380Y-112938647D01*
X181852380Y-112938647D02*
X182328570Y-113033885D01*
X180995237Y-112700552D02*
X180995237Y-113510076D01*
X180995237Y-113510076D02*
X181042856Y-113605314D01*
X181042856Y-113605314D02*
X181090475Y-113652933D01*
X181090475Y-113652933D02*
X181185713Y-113700552D01*
X181185713Y-113700552D02*
X181328570Y-113700552D01*
X181328570Y-113700552D02*
X181423808Y-113652933D01*
X180995237Y-113319600D02*
X181090475Y-113367219D01*
X181090475Y-113367219D02*
X181280951Y-113367219D01*
X181280951Y-113367219D02*
X181376189Y-113319600D01*
X181376189Y-113319600D02*
X181423808Y-113271980D01*
X181423808Y-113271980D02*
X181471427Y-113176742D01*
X181471427Y-113176742D02*
X181471427Y-112891028D01*
X181471427Y-112891028D02*
X181423808Y-112795790D01*
X181423808Y-112795790D02*
X181376189Y-112748171D01*
X181376189Y-112748171D02*
X181280951Y-112700552D01*
X181280951Y-112700552D02*
X181090475Y-112700552D01*
X181090475Y-112700552D02*
X180995237Y-112748171D01*
X180519046Y-113367219D02*
X180519046Y-112367219D01*
X180519046Y-112748171D02*
X180423808Y-112700552D01*
X180423808Y-112700552D02*
X180233332Y-112700552D01*
X180233332Y-112700552D02*
X180138094Y-112748171D01*
X180138094Y-112748171D02*
X180090475Y-112795790D01*
X180090475Y-112795790D02*
X180042856Y-112891028D01*
X180042856Y-112891028D02*
X180042856Y-113176742D01*
X180042856Y-113176742D02*
X180090475Y-113271980D01*
X180090475Y-113271980D02*
X180138094Y-113319600D01*
X180138094Y-113319600D02*
X180233332Y-113367219D01*
X180233332Y-113367219D02*
X180423808Y-113367219D01*
X180423808Y-113367219D02*
X180519046Y-113319600D01*
X179471427Y-113367219D02*
X179566665Y-113319600D01*
X179566665Y-113319600D02*
X179614284Y-113271980D01*
X179614284Y-113271980D02*
X179661903Y-113176742D01*
X179661903Y-113176742D02*
X179661903Y-112891028D01*
X179661903Y-112891028D02*
X179614284Y-112795790D01*
X179614284Y-112795790D02*
X179566665Y-112748171D01*
X179566665Y-112748171D02*
X179471427Y-112700552D01*
X179471427Y-112700552D02*
X179328570Y-112700552D01*
X179328570Y-112700552D02*
X179233332Y-112748171D01*
X179233332Y-112748171D02*
X179185713Y-112795790D01*
X179185713Y-112795790D02*
X179138094Y-112891028D01*
X179138094Y-112891028D02*
X179138094Y-113176742D01*
X179138094Y-113176742D02*
X179185713Y-113271980D01*
X179185713Y-113271980D02*
X179233332Y-113319600D01*
X179233332Y-113319600D02*
X179328570Y-113367219D01*
X179328570Y-113367219D02*
X179471427Y-113367219D01*
X178280951Y-113367219D02*
X178280951Y-112843409D01*
X178280951Y-112843409D02*
X178328570Y-112748171D01*
X178328570Y-112748171D02*
X178423808Y-112700552D01*
X178423808Y-112700552D02*
X178614284Y-112700552D01*
X178614284Y-112700552D02*
X178709522Y-112748171D01*
X178280951Y-113319600D02*
X178376189Y-113367219D01*
X178376189Y-113367219D02*
X178614284Y-113367219D01*
X178614284Y-113367219D02*
X178709522Y-113319600D01*
X178709522Y-113319600D02*
X178757141Y-113224361D01*
X178757141Y-113224361D02*
X178757141Y-113129123D01*
X178757141Y-113129123D02*
X178709522Y-113033885D01*
X178709522Y-113033885D02*
X178614284Y-112986266D01*
X178614284Y-112986266D02*
X178376189Y-112986266D01*
X178376189Y-112986266D02*
X178280951Y-112938647D01*
X177804760Y-113367219D02*
X177804760Y-112700552D01*
X177804760Y-112891028D02*
X177757141Y-112795790D01*
X177757141Y-112795790D02*
X177709522Y-112748171D01*
X177709522Y-112748171D02*
X177614284Y-112700552D01*
X177614284Y-112700552D02*
X177519046Y-112700552D01*
X176757141Y-113367219D02*
X176757141Y-112367219D01*
X176757141Y-113319600D02*
X176852379Y-113367219D01*
X176852379Y-113367219D02*
X177042855Y-113367219D01*
X177042855Y-113367219D02*
X177138093Y-113319600D01*
X177138093Y-113319600D02*
X177185712Y-113271980D01*
X177185712Y-113271980D02*
X177233331Y-113176742D01*
X177233331Y-113176742D02*
X177233331Y-112891028D01*
X177233331Y-112891028D02*
X177185712Y-112795790D01*
X177185712Y-112795790D02*
X177138093Y-112748171D01*
X177138093Y-112748171D02*
X177042855Y-112700552D01*
X177042855Y-112700552D02*
X176852379Y-112700552D01*
X176852379Y-112700552D02*
X176757141Y-112748171D01*
X176328569Y-113319600D02*
X176233331Y-113367219D01*
X176233331Y-113367219D02*
X176042855Y-113367219D01*
X176042855Y-113367219D02*
X175947617Y-113319600D01*
X175947617Y-113319600D02*
X175899998Y-113224361D01*
X175899998Y-113224361D02*
X175899998Y-113176742D01*
X175899998Y-113176742D02*
X175947617Y-113081504D01*
X175947617Y-113081504D02*
X176042855Y-113033885D01*
X176042855Y-113033885D02*
X176185712Y-113033885D01*
X176185712Y-113033885D02*
X176280950Y-112986266D01*
X176280950Y-112986266D02*
X176328569Y-112891028D01*
X176328569Y-112891028D02*
X176328569Y-112843409D01*
X176328569Y-112843409D02*
X176280950Y-112748171D01*
X176280950Y-112748171D02*
X176185712Y-112700552D01*
X176185712Y-112700552D02*
X176042855Y-112700552D01*
X176042855Y-112700552D02*
X175947617Y-112748171D01*
D11*
%TO.C,R34*%
X179062742Y-96177500D02*
X179537258Y-96177500D01*
X179062742Y-97222500D02*
X179537258Y-97222500D01*
%TO.C,U3*%
X191500000Y-125740000D02*
X192300000Y-125740000D01*
X191500000Y-128860000D02*
X192300000Y-128860000D01*
X193100000Y-125740000D02*
X192300000Y-125740000D01*
X193100000Y-128860000D02*
X192300000Y-128860000D01*
X193600000Y-125790000D02*
X193360000Y-125460000D01*
X193840000Y-125460000D01*
X193600000Y-125790000D01*
G36*
X193600000Y-125790000D02*
G01*
X193360000Y-125460000D01*
X193840000Y-125460000D01*
X193600000Y-125790000D01*
G37*
%TO.C,C21*%
X192040581Y-106990000D02*
X191759419Y-106990000D01*
X192040581Y-108010000D02*
X191759419Y-108010000D01*
%TO.C,R28*%
X186377500Y-121137258D02*
X186377500Y-120662742D01*
X187422500Y-121137258D02*
X187422500Y-120662742D01*
%TO.C,R3*%
X171377500Y-99462742D02*
X171377500Y-99937258D01*
X172422500Y-99462742D02*
X172422500Y-99937258D01*
%TO.C,C36*%
X205615000Y-121065581D02*
X205615000Y-120784419D01*
X206635000Y-121065581D02*
X206635000Y-120784419D01*
%TO.C,C23*%
X183390000Y-104359419D02*
X183390000Y-104640581D01*
X184410000Y-104359419D02*
X184410000Y-104640581D01*
%TO.C,C5*%
X169990000Y-125359420D02*
X169990000Y-125640580D01*
X171010000Y-125359420D02*
X171010000Y-125640580D01*
%TO.C,JP5*%
X192500000Y-137000001D02*
X192500000Y-136399999D01*
X193200000Y-135700000D02*
X194600000Y-135700000D01*
X194600000Y-137700000D02*
X193200000Y-137700000D01*
X195300000Y-136399999D02*
X195300000Y-137000001D01*
X192500000Y-136399999D02*
G75*
G02*
X193200000Y-135700000I700000J-1D01*
G01*
X193200000Y-137700000D02*
G75*
G02*
X192500000Y-137000001I0J700000D01*
G01*
X194600000Y-135700000D02*
G75*
G02*
X195300000Y-136399999I1J-699999D01*
G01*
X195300000Y-137000001D02*
G75*
G02*
X194600000Y-137700000I-699999J0D01*
G01*
%TO.C,R19*%
X188062742Y-129177500D02*
X188537258Y-129177500D01*
X188062742Y-130222500D02*
X188537258Y-130222500D01*
%TO.C,R33*%
X190177500Y-130262742D02*
X190177500Y-130737258D01*
X191222500Y-130262742D02*
X191222500Y-130737258D01*
%TO.C,C7*%
X207840581Y-102790000D02*
X207559419Y-102790000D01*
X207840581Y-103810000D02*
X207559419Y-103810000D01*
%TO.C,R16*%
X179537258Y-92977500D02*
X179062742Y-92977500D01*
X179537258Y-94022500D02*
X179062742Y-94022500D01*
%TO.C,C13*%
X195390000Y-94440581D02*
X195390000Y-94159419D01*
X196410000Y-94440581D02*
X196410000Y-94159419D01*
%TO.C,JP1*%
X196800000Y-94800000D02*
X196800000Y-95400000D01*
X196800000Y-94800000D02*
X197100000Y-95100000D01*
X196800000Y-95400000D02*
X197100000Y-95100000D01*
X197300000Y-95300000D02*
X197300000Y-92500000D01*
X198000000Y-91850000D02*
X198600000Y-91850000D01*
X198600000Y-95950000D02*
X198000000Y-95950000D01*
X199300000Y-92500000D02*
X199300000Y-95300000D01*
X197300000Y-92550000D02*
G75*
G02*
X198000000Y-91850000I700000J0D01*
G01*
X198000000Y-95950000D02*
G75*
G02*
X197300000Y-95250000I-1J699999D01*
G01*
X198600000Y-91850000D02*
G75*
G02*
X199300000Y-92550000I0J-700000D01*
G01*
X199300000Y-95250000D02*
G75*
G02*
X198600000Y-95950000I-699999J-1D01*
G01*
%TO.C,R20*%
X188062742Y-130777500D02*
X188537258Y-130777500D01*
X188062742Y-131822500D02*
X188537258Y-131822500D01*
%TO.C,C39*%
X199990000Y-121065581D02*
X199990000Y-120784419D01*
X201010000Y-121065581D02*
X201010000Y-120784419D01*
%TO.C,C15*%
X192440581Y-124190000D02*
X192159419Y-124190000D01*
X192440581Y-125210000D02*
X192159419Y-125210000D01*
%TO.C,JP3*%
X198200000Y-117500001D02*
X198200000Y-116899999D01*
X198900000Y-116200000D02*
X200300000Y-116200000D01*
X200300000Y-118200000D02*
X198900000Y-118200000D01*
X201000000Y-116899999D02*
X201000000Y-117500001D01*
X198200000Y-116899999D02*
G75*
G02*
X198900000Y-116200000I700000J-1D01*
G01*
X198900000Y-118200000D02*
G75*
G02*
X198200000Y-117500001I0J700000D01*
G01*
X200300000Y-116200000D02*
G75*
G02*
X201000000Y-116899999I1J-699999D01*
G01*
X201000000Y-117500001D02*
G75*
G02*
X200300000Y-118200000I-699999J0D01*
G01*
%TO.C,C33*%
X169615000Y-121065581D02*
X169615000Y-120784419D01*
X170635000Y-121065581D02*
X170635000Y-120784419D01*
%TO.C,R12*%
X168577500Y-96262742D02*
X168577500Y-96737258D01*
X169622500Y-96262742D02*
X169622500Y-96737258D01*
%TO.C,C26*%
X197990000Y-104359419D02*
X197990000Y-104640581D01*
X199010000Y-104359419D02*
X199010000Y-104640581D01*
%TO.C,C12*%
X193790000Y-94440581D02*
X193790000Y-94159419D01*
X194810000Y-94440581D02*
X194810000Y-94159419D01*
%TO.C,D3*%
X208250000Y-91650000D02*
X208250000Y-94310000D01*
X208250000Y-94310000D02*
X209950000Y-94310000D01*
X209950000Y-91650000D02*
X209950000Y-94310000D01*
%TO.C,R26*%
X182537258Y-96177500D02*
X182062742Y-96177500D01*
X182537258Y-97222500D02*
X182062742Y-97222500D01*
%TO.C,U5*%
X171100000Y-94940000D02*
X171900000Y-94940000D01*
X171100000Y-98060000D02*
X171900000Y-98060000D01*
X172700000Y-94940000D02*
X171900000Y-94940000D01*
X172700000Y-98060000D02*
X171900000Y-98060000D01*
X173200000Y-94990000D02*
X172960000Y-94660000D01*
X173440000Y-94660000D01*
X173200000Y-94990000D01*
G36*
X173200000Y-94990000D02*
G01*
X172960000Y-94660000D01*
X173440000Y-94660000D01*
X173200000Y-94990000D01*
G37*
%TO.C,C35*%
X193615000Y-121065581D02*
X193615000Y-120784419D01*
X194635000Y-121065581D02*
X194635000Y-120784419D01*
%TO.C,R23*%
X192177500Y-94062742D02*
X192177500Y-94537258D01*
X193222500Y-94062742D02*
X193222500Y-94537258D01*
%TO.C,C1*%
X171390000Y-102559419D02*
X171390000Y-102840581D01*
X172410000Y-102559419D02*
X172410000Y-102840581D01*
%TO.C,C38*%
X187990000Y-121040581D02*
X187990000Y-120759419D01*
X189010000Y-121040581D02*
X189010000Y-120759419D01*
%TO.C,R11*%
X204462742Y-96377500D02*
X204937258Y-96377500D01*
X204462742Y-97422500D02*
X204937258Y-97422500D01*
%TO.C,C42*%
X201559420Y-96390000D02*
X201840580Y-96390000D01*
X201559420Y-97410000D02*
X201840580Y-97410000D01*
%TO.C,C20*%
X188959420Y-106990000D02*
X189240580Y-106990000D01*
X188959420Y-108010000D02*
X189240580Y-108010000D01*
%TO.C,C22*%
X194759420Y-106990000D02*
X195040580Y-106990000D01*
X194759420Y-108010000D02*
X195040580Y-108010000D01*
%TO.C,R30*%
X210377500Y-121162258D02*
X210377500Y-120687742D01*
X211422500Y-121162258D02*
X211422500Y-120687742D01*
%TO.C,R8*%
X172662742Y-125777500D02*
X173137258Y-125777500D01*
X172662742Y-126822500D02*
X173137258Y-126822500D01*
%TO.C,R24*%
X182537258Y-94577500D02*
X182062742Y-94577500D01*
X182537258Y-95622500D02*
X182062742Y-95622500D01*
%TO.C,R1*%
X204937258Y-91177500D02*
X204462742Y-91177500D01*
X204937258Y-92222500D02*
X204462742Y-92222500D01*
%TO.C,R27*%
X174377500Y-121162258D02*
X174377500Y-120687742D01*
X175422500Y-121162258D02*
X175422500Y-120687742D01*
%TO.C,R6*%
X175777500Y-96462742D02*
X175777500Y-96937258D01*
X176822500Y-96462742D02*
X176822500Y-96937258D01*
%TO.C,C10*%
X184190000Y-94440581D02*
X184190000Y-94159419D01*
X185210000Y-94440581D02*
X185210000Y-94159419D01*
%TO.C,C41*%
X172040581Y-93390000D02*
X171759419Y-93390000D01*
X172040581Y-94410000D02*
X171759419Y-94410000D01*
%TO.C,C14*%
X182440581Y-92990000D02*
X182159419Y-92990000D01*
X182440581Y-94010000D02*
X182159419Y-94010000D01*
%TO.C,D1*%
X205450000Y-92740000D02*
X206100000Y-92739999D01*
X205450000Y-95860000D02*
X206100000Y-95860001D01*
X206750000Y-92740000D02*
X206100000Y-92739999D01*
X206750000Y-95860000D02*
X206100000Y-95860001D01*
X207262500Y-92790000D02*
X207022500Y-92460001D01*
X207502500Y-92460000D01*
X207262500Y-92790000D01*
G36*
X207262500Y-92790000D02*
G01*
X207022500Y-92460001D01*
X207502500Y-92460000D01*
X207262500Y-92790000D01*
G37*
%TO.C,C37*%
X175990000Y-121065581D02*
X175990000Y-120784419D01*
X177010000Y-121065581D02*
X177010000Y-120784419D01*
%TO.C,C2*%
X169790000Y-102559419D02*
X169790000Y-102840581D01*
X170810000Y-102559419D02*
X170810000Y-102840581D01*
%TO.C,R9*%
X172662742Y-124177500D02*
X173137258Y-124177500D01*
X172662742Y-125222500D02*
X173137258Y-125222500D01*
%TO.C,C18*%
X198190000Y-98359419D02*
X198190000Y-98640581D01*
X199210000Y-98359419D02*
X199210000Y-98640581D01*
%TO.C,U1*%
X201300000Y-92740000D02*
X202100000Y-92739999D01*
X201300000Y-95860000D02*
X202100000Y-95860001D01*
X202900000Y-92740000D02*
X202100000Y-92739999D01*
X202900000Y-95860000D02*
X202100000Y-95860001D01*
X201040000Y-96140000D02*
X200560000Y-96140000D01*
X200800000Y-95810000D01*
X201040000Y-96140000D01*
G36*
X201040000Y-96140000D02*
G01*
X200560000Y-96140000D01*
X200800000Y-95810000D01*
X201040000Y-96140000D01*
G37*
D12*
%TO.C,U4*%
X184874999Y-98425000D02*
X185099999Y-98425000D01*
X184874999Y-104775000D02*
X184874999Y-98425000D01*
X185200000Y-104775000D02*
X184874999Y-104775000D01*
X195800000Y-104775000D02*
X196125001Y-104775000D01*
X196125001Y-98425000D02*
X195800000Y-98425000D01*
X196125001Y-104775000D02*
X196125001Y-98425000D01*
D11*
X185150000Y-97950000D02*
X184820000Y-98189999D01*
X184820000Y-97710000D01*
X185150000Y-97950000D01*
G36*
X185150000Y-97950000D02*
G01*
X184820000Y-98189999D01*
X184820000Y-97710000D01*
X185150000Y-97950000D01*
G37*
%TO.C,C4*%
X196440581Y-127590000D02*
X196159419Y-127590000D01*
X196440581Y-128610000D02*
X196159419Y-128610000D01*
%TO.C,R2*%
X201937258Y-91177500D02*
X201462742Y-91177500D01*
X201937258Y-92222500D02*
X201462742Y-92222500D01*
%TO.C,R17*%
X188577500Y-127062742D02*
X188577500Y-127537258D01*
X189622500Y-127062742D02*
X189622500Y-127537258D01*
%TO.C,R10*%
X212377500Y-92462742D02*
X212377500Y-92937258D01*
X213422500Y-92462742D02*
X213422500Y-92937258D01*
%TO.C,U2*%
X170202499Y-127377500D02*
X170202499Y-128357500D01*
X170202499Y-127377500D02*
X172782499Y-127377500D01*
X170202499Y-132097500D02*
X170202499Y-131117500D01*
X172922499Y-132097500D02*
X170202499Y-132097500D01*
X173332499Y-127527500D02*
X173092499Y-127197500D01*
X173572499Y-127197500D01*
X173332499Y-127527500D01*
G36*
X173332499Y-127527500D02*
G01*
X173092499Y-127197500D01*
X173572499Y-127197500D01*
X173332499Y-127527500D01*
G37*
%TO.C,R5*%
X172977500Y-99462742D02*
X172977500Y-99937258D01*
X174022500Y-99462742D02*
X174022500Y-99937258D01*
%TO.C,R15*%
X207937258Y-101177500D02*
X207462742Y-101177500D01*
X207937258Y-102222500D02*
X207462742Y-102222500D01*
%TO.C,C34*%
X181590000Y-121040581D02*
X181590000Y-120759419D01*
X182610000Y-121040581D02*
X182610000Y-120759419D01*
%TO.C,C40*%
X211990000Y-121065581D02*
X211990000Y-120784419D01*
X213010000Y-121065581D02*
X213010000Y-120784419D01*
%TO.C,R31*%
X191777500Y-130737258D02*
X191777500Y-130262742D01*
X192822500Y-130737258D02*
X192822500Y-130262742D01*
%TO.C,R4*%
X169777500Y-99462742D02*
X169777500Y-99937258D01*
X170822500Y-99462742D02*
X170822500Y-99937258D01*
%TO.C,C25*%
X181990000Y-104359419D02*
X181990000Y-104640581D01*
X183010000Y-104359419D02*
X183010000Y-104640581D01*
%TO.C,R22*%
X190577500Y-94537258D02*
X190577500Y-94062742D01*
X191622500Y-94537258D02*
X191622500Y-94062742D01*
%TO.C,C24*%
X196590000Y-104359419D02*
X196590000Y-104640581D01*
X197610000Y-104359419D02*
X197610000Y-104640581D01*
%TO.C,C11*%
X187390000Y-94440581D02*
X187390000Y-94159419D01*
X188410000Y-94440581D02*
X188410000Y-94159419D01*
%TO.C,JP2*%
X180000000Y-117400000D02*
X180000000Y-116800000D01*
X180700000Y-116100000D02*
X182100000Y-116100000D01*
X182100000Y-118100000D02*
X180700000Y-118100000D01*
X182800000Y-116800000D02*
X182800000Y-117400000D01*
X180000000Y-116800000D02*
G75*
G02*
X180700000Y-116100000I700000J0D01*
G01*
X180700000Y-118100000D02*
G75*
G02*
X180000000Y-117400000I0J700000D01*
G01*
X182100000Y-116100000D02*
G75*
G02*
X182800000Y-116800000I1J-699999D01*
G01*
X182800000Y-117400000D02*
G75*
G02*
X182100000Y-118100000I-699999J-1D01*
G01*
%TO.C,R32*%
X196062742Y-129177500D02*
X196537258Y-129177500D01*
X196062742Y-130222500D02*
X196537258Y-130222500D01*
%TO.C,R18*%
X193377500Y-130737258D02*
X193377500Y-130262742D01*
X194422500Y-130737258D02*
X194422500Y-130262742D01*
%TO.C,C17*%
X188990000Y-94440581D02*
X188990000Y-94159419D01*
X190010000Y-94440581D02*
X190010000Y-94159419D01*
%TO.C,R21*%
X196577500Y-98737258D02*
X196577500Y-98262742D01*
X197622500Y-98737258D02*
X197622500Y-98262742D01*
%TO.C,C16*%
X185790000Y-94440581D02*
X185790000Y-94159419D01*
X186810000Y-94440581D02*
X186810000Y-94159419D01*
%TO.C,R29*%
X198377500Y-121162258D02*
X198377500Y-120687742D01*
X199422500Y-121162258D02*
X199422500Y-120687742D01*
%TO.C,R13*%
X207937258Y-96377500D02*
X207462742Y-96377500D01*
X207937258Y-97422500D02*
X207462742Y-97422500D01*
%TO.C,D2*%
X210250000Y-93750000D02*
X210250000Y-91090000D01*
X211950000Y-91090000D02*
X210250000Y-91090000D01*
X211950000Y-93750000D02*
X211950000Y-91090000D01*
%TO.C,JP4*%
X185700000Y-137000001D02*
X185700000Y-136399999D01*
X186400000Y-135700000D02*
X187800000Y-135700000D01*
X187800000Y-137700000D02*
X186400000Y-137700000D01*
X188500000Y-136399999D02*
X188500000Y-137000001D01*
X185700000Y-136399999D02*
G75*
G02*
X186400000Y-135700000I699999J0D01*
G01*
X186400000Y-137700000D02*
G75*
G02*
X185700000Y-137000001I-1J699999D01*
G01*
X187800000Y-135700000D02*
G75*
G02*
X188500000Y-136399999I0J-700000D01*
G01*
X188500000Y-137000001D02*
G75*
G02*
X187800000Y-137700000I-700000J1D01*
G01*
%TO.C,C6*%
X207559419Y-99590000D02*
X207840581Y-99590000D01*
X207559419Y-100610000D02*
X207840581Y-100610000D01*
%TO.C,R7*%
X174177500Y-96937258D02*
X174177500Y-96462742D01*
X175222500Y-96937258D02*
X175222500Y-96462742D01*
%TO.C,C19*%
X186240581Y-106990000D02*
X185959419Y-106990000D01*
X186240581Y-108010000D02*
X185959419Y-108010000D01*
%TO.C,C9*%
X179440581Y-94590000D02*
X179159419Y-94590000D01*
X179440581Y-95610000D02*
X179159419Y-95610000D01*
%TO.C,C3*%
X172990000Y-102559419D02*
X172990000Y-102840581D01*
X174010000Y-102559419D02*
X174010000Y-102840581D01*
%TO.C,D5*%
X208850000Y-128025000D02*
X214660000Y-128025000D01*
X208850000Y-132325000D02*
X214660000Y-132325000D01*
X214660000Y-132325000D02*
X214660000Y-128025000D01*
%TO.C,R14*%
X207462742Y-97977500D02*
X207937258Y-97977500D01*
X207462742Y-99022500D02*
X207937258Y-99022500D01*
%TO.C,R25*%
X183622500Y-98662742D02*
X183622500Y-99137258D01*
X182577500Y-98662742D02*
X182577500Y-99137258D01*
%TD*%
%LPC*%
D13*
%TO.C,R34*%
X180125000Y-96700000D03*
X178475000Y-96700000D03*
%TD*%
D14*
%TO.C,D4*%
X179030000Y-134530000D03*
X181570000Y-134530000D03*
X179030000Y-137070000D03*
X181570000Y-137070000D03*
%TD*%
D15*
%TO.C,L3*%
X196500000Y-115800000D03*
X196500000Y-120800000D03*
%TD*%
%TO.C,L1*%
X172500000Y-115800000D03*
X172500000Y-120800000D03*
%TD*%
D16*
%TO.C,C30*%
X175900000Y-111000000D03*
X175900000Y-106000000D03*
%TD*%
D17*
%TO.C,C27*%
X183068601Y-107331399D03*
D16*
X180593727Y-109806273D03*
%TD*%
%TO.C,C29*%
X172900000Y-106000000D03*
X172900000Y-111000000D03*
%TD*%
%TO.C,C32*%
X208100000Y-106000000D03*
X208100000Y-111000000D03*
%TD*%
D18*
%TO.C,RV1*%
X205000000Y-135375000D03*
X202500000Y-137875000D03*
X200000000Y-135375000D03*
%TD*%
D19*
%TO.C,J4*%
X185247500Y-134000000D03*
D20*
X188747500Y-134000000D03*
X192247499Y-134000000D03*
X195747500Y-134000000D03*
%TD*%
D21*
%TO.C,J3*%
X211225000Y-95675000D03*
D22*
X213765000Y-95675000D03*
X211225000Y-98215000D03*
X213765000Y-98215000D03*
X211225000Y-100755000D03*
X213765000Y-100755000D03*
X211225000Y-103295000D03*
X213765000Y-103295000D03*
X211225000Y-105835000D03*
X213765000Y-105835000D03*
X211225000Y-108375000D03*
X213765000Y-108375000D03*
X211225000Y-110915000D03*
X213765000Y-110915000D03*
%TD*%
D23*
%TO.C,H3*%
X203200000Y-101600000D03*
%TD*%
%TO.C,H1*%
X177800000Y-101600000D03*
%TD*%
D16*
%TO.C,C31*%
X205100000Y-111000000D03*
X205100000Y-106000000D03*
%TD*%
D24*
%TO.C,C28*%
X197931399Y-107331399D03*
D16*
X200406273Y-109806273D03*
%TD*%
D23*
%TO.C,H4*%
X203200000Y-127000000D03*
%TD*%
D15*
%TO.C,L4*%
X208500000Y-115800000D03*
X208500000Y-120800000D03*
%TD*%
D23*
%TO.C,H2*%
X177800000Y-127000000D03*
%TD*%
D15*
%TO.C,L2*%
X184500000Y-115800000D03*
X184500000Y-120800000D03*
%TD*%
D19*
%TO.C,J1*%
X209247500Y-134000000D03*
D20*
X212747500Y-134000000D03*
%TD*%
D19*
%TO.C,J2*%
X168297500Y-134000000D03*
D20*
X171797500Y-134000000D03*
X175297500Y-134000000D03*
%TD*%
D25*
%TO.C,U3*%
X193437500Y-126350000D03*
X193437500Y-127300000D03*
X193437500Y-128250000D03*
X191162500Y-128250000D03*
X191162500Y-126350000D03*
%TD*%
D26*
%TO.C,C21*%
X191125000Y-107500000D03*
X192675000Y-107500000D03*
%TD*%
D27*
%TO.C,R28*%
X186900000Y-120075000D03*
X186900000Y-121725000D03*
%TD*%
D28*
%TO.C,R3*%
X171900000Y-100525000D03*
X171900000Y-98875000D03*
%TD*%
D29*
%TO.C,C36*%
X206125000Y-120150000D03*
X206125000Y-121700000D03*
%TD*%
D30*
%TO.C,C23*%
X183900000Y-105275000D03*
X183900000Y-103725000D03*
%TD*%
%TO.C,C5*%
X170500000Y-126275000D03*
X170500000Y-124725000D03*
%TD*%
D31*
%TO.C,JP5*%
X194549999Y-136700000D03*
D32*
X193250001Y-136700000D03*
%TD*%
D13*
%TO.C,R19*%
X189125000Y-129700000D03*
X187475000Y-129700000D03*
%TD*%
D28*
%TO.C,R33*%
X190700000Y-131325000D03*
X190700000Y-129675000D03*
%TD*%
D26*
%TO.C,C7*%
X206925000Y-103300000D03*
X208475000Y-103300000D03*
%TD*%
D33*
%TO.C,R16*%
X178475000Y-93500000D03*
X180125000Y-93500000D03*
%TD*%
D29*
%TO.C,C13*%
X195900000Y-93525000D03*
X195900000Y-95075000D03*
%TD*%
D34*
%TO.C,JP1*%
X198300000Y-95200000D03*
D35*
X198300000Y-93900000D03*
D36*
X198300000Y-92600000D03*
%TD*%
D13*
%TO.C,R20*%
X189125000Y-131300000D03*
X187475000Y-131300000D03*
%TD*%
D29*
%TO.C,C39*%
X200500000Y-120150000D03*
X200500000Y-121700000D03*
%TD*%
D26*
%TO.C,C15*%
X191525000Y-124700000D03*
X193075000Y-124700000D03*
%TD*%
D31*
%TO.C,JP3*%
X200249999Y-117200000D03*
D32*
X198950001Y-117200000D03*
%TD*%
D29*
%TO.C,C33*%
X170125000Y-120150000D03*
X170125000Y-121700000D03*
%TD*%
D28*
%TO.C,R12*%
X169100000Y-97325000D03*
X169100000Y-95675000D03*
%TD*%
D30*
%TO.C,C26*%
X198500000Y-105275000D03*
X198500000Y-103725000D03*
%TD*%
D29*
%TO.C,C12*%
X194300000Y-93525000D03*
X194300000Y-95075000D03*
%TD*%
D37*
%TO.C,D3*%
X209100000Y-93750000D03*
X209100000Y-91650000D03*
%TD*%
D33*
%TO.C,R26*%
X181475000Y-96700000D03*
X183125000Y-96700000D03*
%TD*%
D25*
%TO.C,U5*%
X173037500Y-95550000D03*
X173037500Y-96500000D03*
X173037500Y-97450000D03*
X170762500Y-97450000D03*
X170762500Y-95550000D03*
%TD*%
D29*
%TO.C,C35*%
X194125000Y-120150000D03*
X194125000Y-121700000D03*
%TD*%
D28*
%TO.C,R23*%
X192700000Y-95125000D03*
X192700000Y-93475000D03*
%TD*%
D30*
%TO.C,C1*%
X171900000Y-103475000D03*
X171900000Y-101925000D03*
%TD*%
D29*
%TO.C,C38*%
X188500000Y-120125000D03*
X188500000Y-121675000D03*
%TD*%
D13*
%TO.C,R11*%
X205525000Y-96900000D03*
X203875000Y-96900000D03*
%TD*%
D38*
%TO.C,C42*%
X202475000Y-96900000D03*
X200925000Y-96900000D03*
%TD*%
%TO.C,C20*%
X189875000Y-107500000D03*
X188325000Y-107500000D03*
%TD*%
%TO.C,C22*%
X195675000Y-107500000D03*
X194125000Y-107500000D03*
%TD*%
D27*
%TO.C,R30*%
X210900000Y-120100000D03*
X210900000Y-121750000D03*
%TD*%
D13*
%TO.C,R8*%
X173725000Y-126300000D03*
X172075000Y-126300000D03*
%TD*%
D33*
%TO.C,R24*%
X181475000Y-95100000D03*
X183125000Y-95100000D03*
%TD*%
%TO.C,R1*%
X203875000Y-91700000D03*
X205525000Y-91700000D03*
%TD*%
D27*
%TO.C,R27*%
X174900000Y-120100000D03*
X174900000Y-121750000D03*
%TD*%
D28*
%TO.C,R6*%
X176300000Y-97525000D03*
X176300000Y-95875000D03*
%TD*%
D29*
%TO.C,C10*%
X184700000Y-93525000D03*
X184700000Y-95075000D03*
%TD*%
D26*
%TO.C,C41*%
X171125000Y-93900000D03*
X172675000Y-93900000D03*
%TD*%
%TO.C,C14*%
X181525000Y-93500000D03*
X183075000Y-93500000D03*
%TD*%
D39*
%TO.C,D1*%
X207037500Y-93350000D03*
X207037500Y-95250000D03*
X205162499Y-94300000D03*
%TD*%
D29*
%TO.C,C37*%
X176500000Y-120150000D03*
X176500000Y-121700000D03*
%TD*%
D30*
%TO.C,C2*%
X170300000Y-103475000D03*
X170300000Y-101925000D03*
%TD*%
D13*
%TO.C,R9*%
X173725000Y-124700000D03*
X172075000Y-124700000D03*
%TD*%
D30*
%TO.C,C18*%
X198700000Y-99275000D03*
X198700000Y-97725000D03*
%TD*%
D40*
%TO.C,U1*%
X200962500Y-95249999D03*
X200962500Y-94300000D03*
X200962500Y-93350001D03*
X203237500Y-93350001D03*
X203237500Y-95249999D03*
%TD*%
D41*
%TO.C,U4*%
X190500000Y-101600000D03*
D42*
X185625000Y-97950000D03*
X186275000Y-97950000D03*
X186925000Y-97950000D03*
X187575000Y-97950000D03*
X188225000Y-97950000D03*
X188875000Y-97950000D03*
X189525000Y-97950000D03*
X190175000Y-97950000D03*
X190825000Y-97950000D03*
X191475000Y-97950000D03*
X192125000Y-97950000D03*
X192775000Y-97950000D03*
X193425000Y-97950000D03*
X194075000Y-97950000D03*
X194725000Y-97950000D03*
X195375000Y-97950000D03*
X195375000Y-105250000D03*
X194725000Y-105250000D03*
X194075000Y-105250000D03*
X193425000Y-105250000D03*
X192775000Y-105250000D03*
X192125000Y-105250000D03*
X191475000Y-105250000D03*
X190825000Y-105250000D03*
X190175000Y-105250000D03*
X189525000Y-105250000D03*
X188875000Y-105250000D03*
X188225000Y-105250000D03*
X187575000Y-105250000D03*
X186925000Y-105250000D03*
X186275000Y-105250000D03*
X185625000Y-105250000D03*
%TD*%
D26*
%TO.C,C4*%
X195525000Y-128100000D03*
X197075000Y-128100000D03*
%TD*%
D33*
%TO.C,R2*%
X200875000Y-91700000D03*
X202525000Y-91700000D03*
%TD*%
D28*
%TO.C,R17*%
X189100000Y-128125000D03*
X189100000Y-126475000D03*
%TD*%
%TO.C,R10*%
X212900000Y-93525000D03*
X212900000Y-91875000D03*
%TD*%
D43*
%TO.C,U2*%
X173512499Y-128237500D03*
D44*
X173424998Y-129737500D03*
D43*
X173512499Y-131237500D03*
%TD*%
D28*
%TO.C,R5*%
X173500000Y-100525000D03*
X173500000Y-98875000D03*
%TD*%
D33*
%TO.C,R15*%
X206875000Y-101700000D03*
X208525000Y-101700000D03*
%TD*%
D29*
%TO.C,C34*%
X182100000Y-120125000D03*
X182100000Y-121675000D03*
%TD*%
%TO.C,C40*%
X212500000Y-120150000D03*
X212500000Y-121700000D03*
%TD*%
D27*
%TO.C,R31*%
X192300000Y-129675000D03*
X192300000Y-131325000D03*
%TD*%
D28*
%TO.C,R4*%
X170300000Y-100525000D03*
X170300000Y-98875000D03*
%TD*%
D30*
%TO.C,C25*%
X182500000Y-105275000D03*
X182500000Y-103725000D03*
%TD*%
D27*
%TO.C,R22*%
X191100000Y-93475000D03*
X191100000Y-95125000D03*
%TD*%
D30*
%TO.C,C24*%
X197100000Y-105275000D03*
X197100000Y-103725000D03*
%TD*%
D29*
%TO.C,C11*%
X187900000Y-93525000D03*
X187900000Y-95075000D03*
%TD*%
D31*
%TO.C,JP2*%
X182050000Y-117100000D03*
D32*
X180750000Y-117100000D03*
%TD*%
D13*
%TO.C,R32*%
X197125000Y-129700000D03*
X195475000Y-129700000D03*
%TD*%
D27*
%TO.C,R18*%
X193900000Y-129675000D03*
X193900000Y-131325000D03*
%TD*%
D29*
%TO.C,C17*%
X189500000Y-93525000D03*
X189500000Y-95075000D03*
%TD*%
D27*
%TO.C,R21*%
X197100000Y-97675000D03*
X197100000Y-99325000D03*
%TD*%
D29*
%TO.C,C16*%
X186300000Y-93525000D03*
X186300000Y-95075000D03*
%TD*%
D27*
%TO.C,R29*%
X198900000Y-120100000D03*
X198900000Y-121750000D03*
%TD*%
D33*
%TO.C,R13*%
X206875000Y-96900000D03*
X208525000Y-96900000D03*
%TD*%
D45*
%TO.C,D2*%
X211100000Y-91650000D03*
X211100000Y-93750000D03*
%TD*%
D46*
%TO.C,JP4*%
X186450001Y-136700000D03*
D47*
X187749999Y-136700000D03*
%TD*%
D38*
%TO.C,C6*%
X208475000Y-100100000D03*
X206925000Y-100100000D03*
%TD*%
D27*
%TO.C,R7*%
X174700000Y-95875000D03*
X174700000Y-97525000D03*
%TD*%
D26*
%TO.C,C19*%
X185325000Y-107500000D03*
X186875000Y-107500000D03*
%TD*%
%TO.C,C9*%
X178525000Y-95100000D03*
X180075000Y-95100000D03*
%TD*%
D30*
%TO.C,C3*%
X173500000Y-103475000D03*
X173500000Y-101925000D03*
%TD*%
D48*
%TO.C,D5*%
X213150000Y-130175000D03*
X208850000Y-130175000D03*
%TD*%
D13*
%TO.C,R14*%
X208525000Y-98500000D03*
X206875000Y-98500000D03*
%TD*%
D28*
%TO.C,R25*%
X183100000Y-99725000D03*
X183100000Y-98075000D03*
%TD*%
%LPD*%
M02*
