%TF.GenerationSoftware,KiCad,Pcbnew,8.0.8*%
%TF.CreationDate,2025-03-09T11:47:17+01:00*%
%TF.ProjectId,01-2x30w_audio_amp,30312d32-7833-4307-975f-617564696f5f,rev?*%
%TF.SameCoordinates,Original*%
%TF.FileFunction,Soldermask,Top*%
%TF.FilePolarity,Negative*%
%FSLAX46Y46*%
G04 Gerber Fmt 4.6, Leading zero omitted, Abs format (unit mm)*
G04 Created by KiCad (PCBNEW 8.0.8) date 2025-03-09 11:47:17*
%MOMM*%
%LPD*%
G01*
G04 APERTURE LIST*
G04 Aperture macros list*
%AMRoundRect*
0 Rectangle with rounded corners*
0 $1 Rounding radius*
0 $2 $3 $4 $5 $6 $7 $8 $9 X,Y pos of 4 corners*
0 Add a 4 corners polygon primitive as box body*
4,1,4,$2,$3,$4,$5,$6,$7,$8,$9,$2,$3,0*
0 Add four circle primitives for the rounded corners*
1,1,$1+$1,$2,$3*
1,1,$1+$1,$4,$5*
1,1,$1+$1,$6,$7*
1,1,$1+$1,$8,$9*
0 Add four rect primitives between the rounded corners*
20,1,$1+$1,$2,$3,$4,$5,0*
20,1,$1+$1,$4,$5,$6,$7,0*
20,1,$1+$1,$6,$7,$8,$9,0*
20,1,$1+$1,$8,$9,$2,$3,0*%
%AMRotRect*
0 Rectangle, with rotation*
0 The origin of the aperture is its center*
0 $1 length*
0 $2 width*
0 $3 Rotation angle, in degrees counterclockwise*
0 Add horizontal line*
21,1,$1,$2,0,0,$3*%
G04 Aperture macros list end*
%ADD10C,0.100000*%
%ADD11C,1.800000*%
%ADD12C,2.600000*%
%ADD13C,1.600000*%
%ADD14RotRect,1.600000X1.600000X225.000000*%
%ADD15C,1.620000*%
%ADD16RoundRect,0.102000X-1.050000X-1.050000X1.050000X-1.050000X1.050000X1.050000X-1.050000X1.050000X0*%
%ADD17C,2.304000*%
%ADD18R,1.700000X1.700000*%
%ADD19O,1.700000X1.700000*%
%ADD20C,5.600000*%
%ADD21RotRect,1.600000X1.600000X315.000000*%
G04 APERTURE END LIST*
D10*
X184500000Y-98500000D02*
X196500000Y-98500000D01*
X196500000Y-104600000D01*
X184500000Y-104600000D01*
X184500000Y-98500000D01*
G36*
X184500000Y-98500000D02*
G01*
X196500000Y-98500000D01*
X196500000Y-104600000D01*
X184500000Y-104600000D01*
X184500000Y-98500000D01*
G37*
D11*
%TO.C,D4*%
X179030000Y-134530000D03*
X181570000Y-134530000D03*
X179030000Y-137070000D03*
X181570000Y-137070000D03*
%TD*%
D12*
%TO.C,L3*%
X196500000Y-115800000D03*
X196500000Y-120800000D03*
%TD*%
%TO.C,L1*%
X172500000Y-115800000D03*
X172500000Y-120800000D03*
%TD*%
D13*
%TO.C,C30*%
X175900000Y-111000000D03*
X175900000Y-106000000D03*
%TD*%
D14*
%TO.C,C27*%
X183068601Y-107331399D03*
D13*
X180593727Y-109806273D03*
%TD*%
%TO.C,C29*%
X172900000Y-106000000D03*
X172900000Y-111000000D03*
%TD*%
%TO.C,C32*%
X208100000Y-106000000D03*
X208100000Y-111000000D03*
%TD*%
D15*
%TO.C,RV1*%
X205000000Y-135375000D03*
X202500000Y-137875000D03*
X200000000Y-135375000D03*
%TD*%
D16*
%TO.C,J4*%
X185247500Y-134000000D03*
D17*
X188747500Y-134000000D03*
X192247499Y-134000000D03*
X195747500Y-134000000D03*
%TD*%
D18*
%TO.C,J3*%
X211225000Y-95675000D03*
D19*
X213765000Y-95675000D03*
X211225000Y-98215000D03*
X213765000Y-98215000D03*
X211225000Y-100755000D03*
X213765000Y-100755000D03*
X211225000Y-103295000D03*
X213765000Y-103295000D03*
X211225000Y-105835000D03*
X213765000Y-105835000D03*
X211225000Y-108375000D03*
X213765000Y-108375000D03*
X211225000Y-110915000D03*
X213765000Y-110915000D03*
%TD*%
D20*
%TO.C,H3*%
X203200000Y-101600000D03*
%TD*%
%TO.C,H1*%
X177800000Y-101600000D03*
%TD*%
D13*
%TO.C,C31*%
X205100000Y-111000000D03*
X205100000Y-106000000D03*
%TD*%
D21*
%TO.C,C28*%
X197931399Y-107331399D03*
D13*
X200406273Y-109806273D03*
%TD*%
D20*
%TO.C,H4*%
X203200000Y-127000000D03*
%TD*%
D12*
%TO.C,L4*%
X208500000Y-115800000D03*
X208500000Y-120800000D03*
%TD*%
D20*
%TO.C,H2*%
X177800000Y-127000000D03*
%TD*%
D12*
%TO.C,L2*%
X184500000Y-115800000D03*
X184500000Y-120800000D03*
%TD*%
D16*
%TO.C,J1*%
X209247500Y-134000000D03*
D17*
X212747500Y-134000000D03*
%TD*%
D16*
%TO.C,J2*%
X168297500Y-134000000D03*
D17*
X171797500Y-134000000D03*
X175297500Y-134000000D03*
%TD*%
M02*
