M48
; DRILL file {KiCad 8.0.8} date 2025-03-09T11:47:17+0100
; FORMAT={-:-/ absolute / inch / decimal}
; #@! TF.CreationDate,2025-03-09T11:47:17+01:00
; #@! TF.GenerationSoftware,Kicad,Pcbnew,8.0.8
; #@! TF.FileFunction,Plated,1,4,PTH
FMAT,2
INCH
; #@! TA.AperFunction,Plated,PTH,ViaDrill
T1C0.0118
; #@! TA.AperFunction,Plated,PTH,ComponentDrill
T2C0.0118
; #@! TA.AperFunction,Plated,PTH,ComponentDrill
T3C0.0315
; #@! TA.AperFunction,Plated,PTH,ComponentDrill
T4C0.0354
; #@! TA.AperFunction,Plated,PTH,ComponentDrill
T5C0.0394
; #@! TA.AperFunction,Plated,PTH,ComponentDrill
T6C0.0394
; #@! TA.AperFunction,Plated,PTH,ComponentDrill
T7C0.0512
; #@! TA.AperFunction,Plated,PTH,ComponentDrill
T8C0.0551
; #@! TA.AperFunction,Plated,PTH,ComponentDrill
T9C0.1260
%
G90
G05
T1
X6.6259Y-4.1535
X6.6575Y-4.0748
X6.689Y-4.1142
X6.7126Y-5.0433
X6.7229Y-3.7283
X6.7362Y-5.0197
X6.7598Y-5.0433
X6.7677Y-3.815
X6.7835Y-5.0197
X6.8386Y-3.6969
X6.878Y-3.7362
X6.9094Y-3.6654
X6.9409Y-3.7362
X7.0591Y-3.7126
X7.0591Y-3.7756
X7.0748Y-5.1299
X7.0748Y-5.1614
X7.0748Y-5.1929
X7.1772Y-3.7756
X7.2717Y-3.6417
X7.3031Y-3.7126
X7.3976Y-3.5945
X7.4921Y-3.7126
X7.5Y-5.2323
X7.6181Y-3.7126
X7.6496Y-3.6181
X7.6575Y-3.7992
X7.7126Y-3.5945
X7.7598Y-3.7992
X7.815Y-5.3583
X7.8622Y-3.6654
X7.8622Y-3.7441
X7.872Y-3.815
X7.9094Y-3.5709
X7.9409Y-3.7835
X8.0197Y-5.1378
X8.0906Y-3.5709
X8.1772Y-4.0354
X8.2402Y-3.9724
X8.3425Y-4.4843
T2
X7.2953Y-3.9114
X7.2953Y-3.9705
X7.2953Y-4.0295
X7.2953Y-4.0886
X7.3465Y-3.9114
X7.3465Y-3.9705
X7.3465Y-4.0295
X7.3465Y-4.0886
X7.3976Y-3.9705
X7.3976Y-4.0295
X7.3976Y-3.9114
X7.3976Y-4.0886
X7.4488Y-3.9114
X7.4488Y-3.9705
X7.4488Y-4.0295
X7.4488Y-4.0886
X7.5Y-3.9114
X7.5Y-3.9705
X7.5Y-4.0295
X7.5Y-4.0886
X7.5512Y-3.9114
X7.5512Y-3.9705
X7.5512Y-4.0295
X7.5512Y-4.0886
X7.6024Y-3.9114
X7.6024Y-4.0886
X7.6024Y-3.9705
X7.6024Y-4.0295
X7.6535Y-3.9114
X7.6535Y-3.9705
X7.6535Y-4.0295
X7.6535Y-4.0886
X7.7047Y-3.9114
X7.7047Y-3.9705
X7.7047Y-4.0295
X7.7047Y-4.0886
T3
X6.8071Y-4.1732
X6.8071Y-4.3701
X6.9252Y-4.1732
X6.9252Y-4.3701
X7.11Y-4.3231
X7.2074Y-4.2256
X7.7926Y-4.2256
X7.89Y-4.3231
X8.0748Y-4.1732
X8.0748Y-4.3701
X8.1929Y-4.1732
X8.1929Y-4.3701
T4
X7.874Y-5.3297
X7.9724Y-5.4281
X8.0709Y-5.3297
T5
X7.0484Y-5.2965
X7.0484Y-5.3965
X7.1484Y-5.2965
X7.1484Y-5.3965
T6
X8.3159Y-3.7667
X8.3159Y-3.8667
X8.3159Y-3.9667
X8.3159Y-4.0667
X8.3159Y-4.1667
X8.3159Y-4.2667
X8.3159Y-4.3667
X8.4159Y-3.7667
X8.4159Y-3.8667
X8.4159Y-3.9667
X8.4159Y-4.0667
X8.4159Y-4.1667
X8.4159Y-4.2667
X8.4159Y-4.3667
T7
X6.7913Y-4.5591
X6.7913Y-4.7559
X7.2638Y-4.5591
X7.2638Y-4.7559
X7.7362Y-4.5591
X7.7362Y-4.7559
X8.2087Y-4.5591
X8.2087Y-4.7559
T8
X6.6259Y-5.2756
X6.7637Y-5.2756
X6.9015Y-5.2756
X7.2932Y-5.2756
X7.431Y-5.2756
X7.5688Y-5.2756
X7.7066Y-5.2756
X8.2381Y-5.2756
X8.3759Y-5.2756
T9
X7.0Y-4.0
X7.0Y-5.0
X8.0Y-4.0
X8.0Y-5.0
M30
