%TF.GenerationSoftware,KiCad,Pcbnew,8.0.8*%
%TF.CreationDate,2025-03-09T11:47:17+01:00*%
%TF.ProjectId,01-2x30w_audio_amp,30312d32-7833-4307-975f-617564696f5f,rev?*%
%TF.SameCoordinates,Original*%
%TF.FileFunction,Copper,L3,Inr*%
%TF.FilePolarity,Positive*%
%FSLAX46Y46*%
G04 Gerber Fmt 4.6, Leading zero omitted, Abs format (unit mm)*
G04 Created by KiCad (PCBNEW 8.0.8) date 2025-03-09 11:47:17*
%MOMM*%
%LPD*%
G01*
G04 APERTURE LIST*
G04 Aperture macros list*
%AMRotRect*
0 Rectangle, with rotation*
0 The origin of the aperture is its center*
0 $1 length*
0 $2 width*
0 $3 Rotation angle, in degrees counterclockwise*
0 Add horizontal line*
21,1,$1,$2,0,0,$3*%
G04 Aperture macros list end*
%TA.AperFunction,ComponentPad*%
%ADD10C,1.800000*%
%TD*%
%TA.AperFunction,ComponentPad*%
%ADD11C,2.600000*%
%TD*%
%TA.AperFunction,ComponentPad*%
%ADD12C,1.600000*%
%TD*%
%TA.AperFunction,ComponentPad*%
%ADD13RotRect,1.600000X1.600000X225.000000*%
%TD*%
%TA.AperFunction,ComponentPad*%
%ADD14C,1.620000*%
%TD*%
%TA.AperFunction,ComponentPad*%
%ADD15R,2.100000X2.100000*%
%TD*%
%TA.AperFunction,ComponentPad*%
%ADD16C,2.100000*%
%TD*%
%TA.AperFunction,ComponentPad*%
%ADD17R,1.700000X1.700000*%
%TD*%
%TA.AperFunction,ComponentPad*%
%ADD18O,1.700000X1.700000*%
%TD*%
%TA.AperFunction,ComponentPad*%
%ADD19C,5.600000*%
%TD*%
%TA.AperFunction,ComponentPad*%
%ADD20RotRect,1.600000X1.600000X315.000000*%
%TD*%
%TA.AperFunction,ComponentPad*%
%ADD21C,0.600000*%
%TD*%
%TA.AperFunction,ViaPad*%
%ADD22C,0.600000*%
%TD*%
%TA.AperFunction,Conductor*%
%ADD23C,0.200000*%
%TD*%
G04 APERTURE END LIST*
D10*
%TO.N,+12V*%
%TO.C,D4*%
X179030000Y-134530000D03*
%TO.N,Net-(D4-A1)*%
X181570000Y-134530000D03*
%TO.N,+12V*%
X179030000Y-137070000D03*
%TO.N,Net-(D4-A2)*%
X181570000Y-137070000D03*
%TD*%
D11*
%TO.N,Net-(JP3-B)*%
%TO.C,L3*%
X196500000Y-115800000D03*
%TO.N,/L+*%
X196500000Y-120800000D03*
%TD*%
%TO.N,Net-(JP2-B)*%
%TO.C,L1*%
X172500000Y-115800000D03*
%TO.N,/R+*%
X172500000Y-120800000D03*
%TD*%
D12*
%TO.N,/R-*%
%TO.C,C30*%
X175900000Y-111000000D03*
%TO.N,GND*%
X175900000Y-106000000D03*
%TD*%
D13*
%TO.N,+24V*%
%TO.C,C27*%
X183068601Y-107331399D03*
D12*
%TO.N,GND*%
X180593727Y-109806273D03*
%TD*%
%TO.N,GND*%
%TO.C,C29*%
X172900000Y-106000000D03*
%TO.N,/R+*%
X172900000Y-111000000D03*
%TD*%
%TO.N,GND*%
%TO.C,C32*%
X208100000Y-106000000D03*
%TO.N,/L-*%
X208100000Y-111000000D03*
%TD*%
D14*
%TO.N,Net-(U3-+)*%
%TO.C,RV1*%
X205000000Y-135375000D03*
X202500000Y-137875000D03*
%TO.N,Net-(R18-Pad2)*%
X200000000Y-135375000D03*
%TD*%
D15*
%TO.N,/R+*%
%TO.C,J4*%
X185247500Y-134000000D03*
D16*
%TO.N,/R-*%
X188747500Y-134000000D03*
%TO.N,/L+*%
X192247499Y-134000000D03*
%TO.N,/L-*%
X195747500Y-134000000D03*
%TD*%
D17*
%TO.N,/INR*%
%TO.C,J3*%
X211225000Y-95675000D03*
D18*
%TO.N,/ING*%
X213765000Y-95675000D03*
%TO.N,/SUM*%
X211225000Y-98215000D03*
%TO.N,/INL*%
X213765000Y-98215000D03*
%TO.N,/SYNC*%
X211225000Y-100755000D03*
%TO.N,/MUTE*%
X213765000Y-100755000D03*
%TO.N,GND*%
X211225000Y-103295000D03*
X213765000Y-103295000D03*
X211225000Y-105835000D03*
X213765000Y-105835000D03*
%TO.N,+24V*%
X211225000Y-108375000D03*
X213765000Y-108375000D03*
X211225000Y-110915000D03*
X213765000Y-110915000D03*
%TD*%
D19*
%TO.N,GND*%
%TO.C,H3*%
X203200000Y-101600000D03*
%TD*%
%TO.N,GND*%
%TO.C,H1*%
X177800000Y-101600000D03*
%TD*%
D12*
%TO.N,/L+*%
%TO.C,C31*%
X205100000Y-111000000D03*
%TO.N,GND*%
X205100000Y-106000000D03*
%TD*%
D20*
%TO.N,+24V*%
%TO.C,C28*%
X197931399Y-107331399D03*
D12*
%TO.N,GND*%
X200406273Y-109806273D03*
%TD*%
D19*
%TO.N,GND*%
%TO.C,H4*%
X203200000Y-127000000D03*
%TD*%
D11*
%TO.N,Net-(JP3-A)*%
%TO.C,L4*%
X208500000Y-115800000D03*
%TO.N,/L-*%
X208500000Y-120800000D03*
%TD*%
D19*
%TO.N,GND*%
%TO.C,H2*%
X177800000Y-127000000D03*
%TD*%
D11*
%TO.N,Net-(JP2-A)*%
%TO.C,L2*%
X184500000Y-115800000D03*
%TO.N,/R-*%
X184500000Y-120800000D03*
%TD*%
D15*
%TO.N,GND*%
%TO.C,J1*%
X209247500Y-134000000D03*
D16*
%TO.N,+24V*%
X212747500Y-134000000D03*
%TD*%
D15*
%TO.N,/ING*%
%TO.C,J2*%
X168297500Y-134000000D03*
D16*
%TO.N,/INL*%
X171797500Y-134000000D03*
%TO.N,/INR*%
X175297500Y-134000000D03*
%TD*%
D21*
%TO.N,GND*%
%TO.C,U4*%
X195700000Y-99350000D03*
X194400000Y-99350000D03*
X193100000Y-99350000D03*
X191800000Y-99350000D03*
X190500000Y-99350000D03*
X189200000Y-99350000D03*
X187900000Y-99350000D03*
X186600000Y-99350000D03*
X185300000Y-99350000D03*
X194400000Y-100849999D03*
X186600000Y-100849999D03*
X195700000Y-100850000D03*
X193100001Y-100850000D03*
X191800000Y-100850000D03*
X190500000Y-100850000D03*
X189200000Y-100850000D03*
X187899999Y-100850000D03*
X185300000Y-100850000D03*
X195700000Y-102350000D03*
X193100001Y-102350000D03*
X191800000Y-102350000D03*
X190500000Y-102350000D03*
X189200000Y-102350000D03*
X187899999Y-102350000D03*
X185300000Y-102350000D03*
X194400000Y-102350001D03*
X186600000Y-102350001D03*
X195700000Y-103850000D03*
X194400000Y-103850000D03*
X193100000Y-103850000D03*
X191800000Y-103850000D03*
X190500000Y-103850000D03*
X189200000Y-103850000D03*
X187900000Y-103850000D03*
X186600000Y-103850000D03*
X185300000Y-103850000D03*
%TD*%
D22*
%TO.N,+24V*%
X182300000Y-95900000D03*
%TO.N,GND*%
X179300000Y-95900000D03*
X171900000Y-96900000D03*
X185500000Y-94300000D03*
X199950000Y-96900000D03*
X179300000Y-94300000D03*
X199700000Y-95100000D03*
X193500000Y-94300000D03*
X173700000Y-93900000D03*
X190500000Y-132900000D03*
X209300000Y-100900000D03*
X190300000Y-94300000D03*
X176300000Y-94900000D03*
X207700000Y-102500000D03*
X205500000Y-90700000D03*
%TO.N,/PEAK*%
X211900000Y-113900000D03*
X203700000Y-130500000D03*
%TO.N,+24V*%
X179700000Y-130300000D03*
X179700000Y-131100000D03*
X179700000Y-131900000D03*
%TO.N,+12V*%
X201700000Y-96100000D03*
X172300000Y-127500000D03*
X200900000Y-90700000D03*
X171700000Y-128100000D03*
X171100000Y-127500000D03*
X174700000Y-94900000D03*
X170500000Y-128100000D03*
X170762500Y-94700000D03*
%TO.N,/INL*%
X169100000Y-103500000D03*
X194300000Y-91900000D03*
%TO.N,/ING*%
X187900000Y-91300000D03*
X168297500Y-105500000D03*
X195900000Y-91300000D03*
%TO.N,/INR*%
X184700000Y-92500000D03*
X169900000Y-104500000D03*
%TO.N,/SYNC*%
X197100000Y-96500000D03*
%TO.N,/MUTE*%
X194500000Y-96500000D03*
X198500000Y-136100000D03*
%TO.N,/SUM*%
X175500000Y-93100000D03*
X199700000Y-93100000D03*
%TD*%
D23*
%TO.N,+24V*%
X182300000Y-95900000D02*
X182300000Y-106562798D01*
X182300000Y-106562798D02*
X183068601Y-107331399D01*
%TD*%
%TA.AperFunction,Conductor*%
%TO.N,+24V*%
G36*
X184773086Y-102126907D02*
G01*
X184809050Y-102176407D01*
X184812887Y-102221089D01*
X184794353Y-102349997D01*
X184794353Y-102350002D01*
X184814834Y-102492456D01*
X184874622Y-102623371D01*
X184874623Y-102623373D01*
X184948426Y-102708547D01*
X184968873Y-102732144D01*
X184968875Y-102732145D01*
X185089947Y-102809953D01*
X185193825Y-102840454D01*
X185228035Y-102850499D01*
X185228036Y-102850499D01*
X185228039Y-102850500D01*
X185228041Y-102850500D01*
X185371959Y-102850500D01*
X185371961Y-102850500D01*
X185510053Y-102809953D01*
X185631128Y-102732143D01*
X185725377Y-102623373D01*
X185785165Y-102492457D01*
X185795969Y-102417315D01*
X185805647Y-102350002D01*
X185805647Y-102349997D01*
X185787113Y-102221089D01*
X185797546Y-102160800D01*
X185841424Y-102118157D01*
X185885105Y-102108000D01*
X186014895Y-102108000D01*
X186073086Y-102126907D01*
X186109050Y-102176407D01*
X186112887Y-102221089D01*
X186094353Y-102349998D01*
X186094353Y-102350003D01*
X186114834Y-102492457D01*
X186140470Y-102548590D01*
X186174623Y-102623374D01*
X186248428Y-102708550D01*
X186268873Y-102732145D01*
X186389942Y-102809951D01*
X186389947Y-102809954D01*
X186493822Y-102840454D01*
X186528035Y-102850500D01*
X186528036Y-102850500D01*
X186528039Y-102850501D01*
X186528041Y-102850501D01*
X186671959Y-102850501D01*
X186671961Y-102850501D01*
X186810053Y-102809954D01*
X186931128Y-102732144D01*
X187025377Y-102623374D01*
X187085165Y-102492458D01*
X187105647Y-102350001D01*
X187105647Y-102349998D01*
X187087113Y-102221089D01*
X187097546Y-102160800D01*
X187141424Y-102118157D01*
X187185105Y-102108000D01*
X187314894Y-102108000D01*
X187373085Y-102126907D01*
X187409049Y-102176407D01*
X187412886Y-102221089D01*
X187394352Y-102349997D01*
X187394352Y-102350002D01*
X187414833Y-102492456D01*
X187474621Y-102623371D01*
X187474622Y-102623373D01*
X187548425Y-102708547D01*
X187568872Y-102732144D01*
X187568874Y-102732145D01*
X187689946Y-102809953D01*
X187793824Y-102840454D01*
X187828034Y-102850499D01*
X187828035Y-102850499D01*
X187828038Y-102850500D01*
X187828040Y-102850500D01*
X187971958Y-102850500D01*
X187971960Y-102850500D01*
X188110052Y-102809953D01*
X188231127Y-102732143D01*
X188325376Y-102623373D01*
X188385164Y-102492457D01*
X188395968Y-102417315D01*
X188405646Y-102350002D01*
X188405646Y-102349997D01*
X188387112Y-102221089D01*
X188397545Y-102160800D01*
X188441423Y-102118157D01*
X188485104Y-102108000D01*
X188614895Y-102108000D01*
X188673086Y-102126907D01*
X188709050Y-102176407D01*
X188712887Y-102221089D01*
X188694353Y-102349997D01*
X188694353Y-102350002D01*
X188714834Y-102492456D01*
X188774622Y-102623371D01*
X188774623Y-102623373D01*
X188848426Y-102708547D01*
X188868873Y-102732144D01*
X188868875Y-102732145D01*
X188989947Y-102809953D01*
X189093825Y-102840454D01*
X189128035Y-102850499D01*
X189128036Y-102850499D01*
X189128039Y-102850500D01*
X189128041Y-102850500D01*
X189271959Y-102850500D01*
X189271961Y-102850500D01*
X189410053Y-102809953D01*
X189531128Y-102732143D01*
X189625377Y-102623373D01*
X189685165Y-102492457D01*
X189695969Y-102417315D01*
X189705647Y-102350002D01*
X189705647Y-102349997D01*
X189687113Y-102221089D01*
X189697546Y-102160800D01*
X189741424Y-102118157D01*
X189785105Y-102108000D01*
X189914895Y-102108000D01*
X189973086Y-102126907D01*
X190009050Y-102176407D01*
X190012887Y-102221089D01*
X189994353Y-102349997D01*
X189994353Y-102350002D01*
X190014834Y-102492456D01*
X190074622Y-102623371D01*
X190074623Y-102623373D01*
X190148426Y-102708547D01*
X190168873Y-102732144D01*
X190168875Y-102732145D01*
X190289947Y-102809953D01*
X190393825Y-102840454D01*
X190428035Y-102850499D01*
X190428036Y-102850499D01*
X190428039Y-102850500D01*
X190428041Y-102850500D01*
X190571959Y-102850500D01*
X190571961Y-102850500D01*
X190710053Y-102809953D01*
X190831128Y-102732143D01*
X190925377Y-102623373D01*
X190985165Y-102492457D01*
X190995969Y-102417315D01*
X191005647Y-102350002D01*
X191005647Y-102349997D01*
X190987113Y-102221089D01*
X190997546Y-102160800D01*
X191041424Y-102118157D01*
X191085105Y-102108000D01*
X191214895Y-102108000D01*
X191273086Y-102126907D01*
X191309050Y-102176407D01*
X191312887Y-102221089D01*
X191294353Y-102349997D01*
X191294353Y-102350002D01*
X191314834Y-102492456D01*
X191374622Y-102623371D01*
X191374623Y-102623373D01*
X191448426Y-102708547D01*
X191468873Y-102732144D01*
X191468875Y-102732145D01*
X191589947Y-102809953D01*
X191693825Y-102840454D01*
X191728035Y-102850499D01*
X191728036Y-102850499D01*
X191728039Y-102850500D01*
X191728041Y-102850500D01*
X191871959Y-102850500D01*
X191871961Y-102850500D01*
X192010053Y-102809953D01*
X192131128Y-102732143D01*
X192225377Y-102623373D01*
X192285165Y-102492457D01*
X192295969Y-102417315D01*
X192305647Y-102350002D01*
X192305647Y-102349997D01*
X192287113Y-102221089D01*
X192297546Y-102160800D01*
X192341424Y-102118157D01*
X192385105Y-102108000D01*
X192514896Y-102108000D01*
X192573087Y-102126907D01*
X192609051Y-102176407D01*
X192612888Y-102221089D01*
X192594354Y-102349997D01*
X192594354Y-102350002D01*
X192614835Y-102492456D01*
X192674623Y-102623371D01*
X192674624Y-102623373D01*
X192748427Y-102708547D01*
X192768874Y-102732144D01*
X192768876Y-102732145D01*
X192889948Y-102809953D01*
X192993826Y-102840454D01*
X193028036Y-102850499D01*
X193028037Y-102850499D01*
X193028040Y-102850500D01*
X193028042Y-102850500D01*
X193171960Y-102850500D01*
X193171962Y-102850500D01*
X193310054Y-102809953D01*
X193431129Y-102732143D01*
X193525378Y-102623373D01*
X193585166Y-102492457D01*
X193595970Y-102417315D01*
X193605648Y-102350002D01*
X193605648Y-102349997D01*
X193587114Y-102221089D01*
X193597547Y-102160800D01*
X193641425Y-102118157D01*
X193685106Y-102108000D01*
X193814895Y-102108000D01*
X193873086Y-102126907D01*
X193909050Y-102176407D01*
X193912887Y-102221089D01*
X193894353Y-102349998D01*
X193894353Y-102350003D01*
X193914834Y-102492457D01*
X193940470Y-102548590D01*
X193974623Y-102623374D01*
X194048428Y-102708550D01*
X194068873Y-102732145D01*
X194189942Y-102809951D01*
X194189947Y-102809954D01*
X194293822Y-102840454D01*
X194328035Y-102850500D01*
X194328036Y-102850500D01*
X194328039Y-102850501D01*
X194328041Y-102850501D01*
X194471959Y-102850501D01*
X194471961Y-102850501D01*
X194610053Y-102809954D01*
X194731128Y-102732144D01*
X194825377Y-102623374D01*
X194885165Y-102492458D01*
X194905647Y-102350001D01*
X194905647Y-102349998D01*
X194887113Y-102221089D01*
X194897546Y-102160800D01*
X194941424Y-102118157D01*
X194985105Y-102108000D01*
X195114895Y-102108000D01*
X195173086Y-102126907D01*
X195209050Y-102176407D01*
X195212887Y-102221089D01*
X195194353Y-102349997D01*
X195194353Y-102350002D01*
X195214834Y-102492456D01*
X195274622Y-102623371D01*
X195274623Y-102623373D01*
X195348426Y-102708547D01*
X195368873Y-102732144D01*
X195368875Y-102732145D01*
X195489947Y-102809953D01*
X195593825Y-102840454D01*
X195628035Y-102850499D01*
X195628036Y-102850499D01*
X195628039Y-102850500D01*
X195628041Y-102850500D01*
X195771959Y-102850500D01*
X195771961Y-102850500D01*
X195910053Y-102809953D01*
X196031128Y-102732143D01*
X196125377Y-102623373D01*
X196185165Y-102492457D01*
X196195969Y-102417315D01*
X196205647Y-102350002D01*
X196205647Y-102349997D01*
X196187113Y-102221089D01*
X196197546Y-102160800D01*
X196241424Y-102118157D01*
X196285105Y-102108000D01*
X200159716Y-102108000D01*
X200217907Y-102126907D01*
X200253871Y-102176407D01*
X200257212Y-102189809D01*
X200275430Y-102293133D01*
X200275430Y-102293134D01*
X200375672Y-102627965D01*
X200375674Y-102627972D01*
X200487814Y-102887940D01*
X200514111Y-102948904D01*
X200688870Y-103251596D01*
X200897588Y-103531953D01*
X200897591Y-103531956D01*
X201137443Y-103786184D01*
X201180524Y-103822333D01*
X201405189Y-104010849D01*
X201451655Y-104041410D01*
X201651247Y-104172685D01*
X201697207Y-104202913D01*
X202009549Y-104359777D01*
X202337989Y-104479319D01*
X202337992Y-104479319D01*
X202337993Y-104479320D01*
X202678075Y-104559921D01*
X202678080Y-104559921D01*
X202678086Y-104559923D01*
X203025241Y-104600500D01*
X203025244Y-104600500D01*
X203374756Y-104600500D01*
X203374759Y-104600500D01*
X203721914Y-104559923D01*
X203721920Y-104559921D01*
X203721924Y-104559921D01*
X203948645Y-104506187D01*
X204062011Y-104479319D01*
X204390451Y-104359777D01*
X204702793Y-104202913D01*
X204994811Y-104010849D01*
X205262558Y-103786183D01*
X205502412Y-103531953D01*
X205711130Y-103251596D01*
X205885889Y-102948904D01*
X206024326Y-102627971D01*
X206124569Y-102293136D01*
X206142788Y-102189808D01*
X206171512Y-102135786D01*
X206226505Y-102108964D01*
X206240284Y-102108000D01*
X207174751Y-102108000D01*
X207232942Y-102126907D01*
X207268906Y-102176407D01*
X207268906Y-102237593D01*
X207264804Y-102248127D01*
X207214834Y-102357543D01*
X207194353Y-102499997D01*
X207194353Y-102500002D01*
X207214834Y-102642456D01*
X207274622Y-102773371D01*
X207274623Y-102773373D01*
X207368872Y-102882143D01*
X207368873Y-102882144D01*
X207382725Y-102891046D01*
X207489947Y-102959953D01*
X207596403Y-102991211D01*
X207628035Y-103000499D01*
X207628036Y-103000499D01*
X207628039Y-103000500D01*
X207628041Y-103000500D01*
X207771959Y-103000500D01*
X207771961Y-103000500D01*
X207910053Y-102959953D01*
X208031128Y-102882143D01*
X208125377Y-102773373D01*
X208185165Y-102642457D01*
X208205647Y-102500000D01*
X208204562Y-102492457D01*
X208185165Y-102357543D01*
X208135196Y-102248127D01*
X208128221Y-102187340D01*
X208158307Y-102134063D01*
X208213963Y-102108645D01*
X208225249Y-102108000D01*
X210851749Y-102108000D01*
X210909940Y-102126907D01*
X210945904Y-102176407D01*
X210945904Y-102237593D01*
X210909940Y-102287093D01*
X210880487Y-102301737D01*
X210821045Y-102319768D01*
X210638547Y-102417316D01*
X210478595Y-102548585D01*
X210478585Y-102548595D01*
X210347316Y-102708547D01*
X210249768Y-102891045D01*
X210189699Y-103089065D01*
X210189698Y-103089070D01*
X210169417Y-103294996D01*
X210169417Y-103295003D01*
X210189698Y-103500929D01*
X210189699Y-103500934D01*
X210249768Y-103698954D01*
X210347316Y-103881452D01*
X210453509Y-104010849D01*
X210478590Y-104041410D01*
X210478595Y-104041414D01*
X210638547Y-104172683D01*
X210638548Y-104172683D01*
X210638550Y-104172685D01*
X210821046Y-104270232D01*
X210951980Y-104309950D01*
X211019065Y-104330300D01*
X211019070Y-104330301D01*
X211224997Y-104350583D01*
X211225000Y-104350583D01*
X211225003Y-104350583D01*
X211430929Y-104330301D01*
X211430934Y-104330300D01*
X211628954Y-104270232D01*
X211811450Y-104172685D01*
X211971410Y-104041410D01*
X212102685Y-103881450D01*
X212200232Y-103698954D01*
X212260300Y-103500934D01*
X212260301Y-103500929D01*
X212280583Y-103295003D01*
X212280583Y-103294996D01*
X212260301Y-103089070D01*
X212260300Y-103089065D01*
X212221134Y-102959953D01*
X212200232Y-102891046D01*
X212102685Y-102708550D01*
X212048443Y-102642456D01*
X211971414Y-102548595D01*
X211971410Y-102548590D01*
X211903013Y-102492458D01*
X211811452Y-102417316D01*
X211628954Y-102319768D01*
X211569513Y-102301737D01*
X211519316Y-102266752D01*
X211499270Y-102208944D01*
X211517031Y-102150393D01*
X211565816Y-102113464D01*
X211598251Y-102108000D01*
X213391749Y-102108000D01*
X213449940Y-102126907D01*
X213485904Y-102176407D01*
X213485904Y-102237593D01*
X213449940Y-102287093D01*
X213420487Y-102301737D01*
X213361045Y-102319768D01*
X213178547Y-102417316D01*
X213018595Y-102548585D01*
X213018585Y-102548595D01*
X212887316Y-102708547D01*
X212789768Y-102891045D01*
X212729699Y-103089065D01*
X212729698Y-103089070D01*
X212709417Y-103294996D01*
X212709417Y-103295003D01*
X212729698Y-103500929D01*
X212729699Y-103500934D01*
X212789768Y-103698954D01*
X212887316Y-103881452D01*
X212993509Y-104010849D01*
X213018590Y-104041410D01*
X213018595Y-104041414D01*
X213178547Y-104172683D01*
X213178548Y-104172683D01*
X213178550Y-104172685D01*
X213361046Y-104270232D01*
X213491980Y-104309950D01*
X213559065Y-104330300D01*
X213559070Y-104330301D01*
X213764997Y-104350583D01*
X213765000Y-104350583D01*
X213765003Y-104350583D01*
X213970929Y-104330301D01*
X213970934Y-104330300D01*
X214168954Y-104270232D01*
X214351450Y-104172685D01*
X214511410Y-104041410D01*
X214642685Y-103881450D01*
X214713190Y-103749544D01*
X214757296Y-103707139D01*
X214817904Y-103698756D01*
X214871865Y-103727599D01*
X214898566Y-103782650D01*
X214899500Y-103796214D01*
X214899500Y-105333785D01*
X214880593Y-105391976D01*
X214831093Y-105427940D01*
X214769907Y-105427940D01*
X214720407Y-105391976D01*
X214713190Y-105380454D01*
X214664371Y-105289121D01*
X214642685Y-105248550D01*
X214573373Y-105164093D01*
X214511414Y-105088595D01*
X214511410Y-105088590D01*
X214511404Y-105088585D01*
X214351452Y-104957316D01*
X214168954Y-104859768D01*
X213970934Y-104799699D01*
X213970929Y-104799698D01*
X213765003Y-104779417D01*
X213764997Y-104779417D01*
X213559070Y-104799698D01*
X213559065Y-104799699D01*
X213361045Y-104859768D01*
X213178547Y-104957316D01*
X213018595Y-105088585D01*
X213018585Y-105088595D01*
X212887316Y-105248547D01*
X212789768Y-105431045D01*
X212729699Y-105629065D01*
X212729698Y-105629070D01*
X212709417Y-105834996D01*
X212709417Y-105835003D01*
X212729698Y-106040929D01*
X212729699Y-106040934D01*
X212789768Y-106238954D01*
X212887316Y-106421452D01*
X212999823Y-106558542D01*
X213018590Y-106581410D01*
X213018595Y-106581414D01*
X213178547Y-106712683D01*
X213178548Y-106712683D01*
X213178550Y-106712685D01*
X213361046Y-106810232D01*
X213498997Y-106852078D01*
X213559065Y-106870300D01*
X213559070Y-106870301D01*
X213764997Y-106890583D01*
X213765000Y-106890583D01*
X213765003Y-106890583D01*
X213970929Y-106870301D01*
X213970934Y-106870300D01*
X214168954Y-106810232D01*
X214351450Y-106712685D01*
X214511410Y-106581410D01*
X214642685Y-106421450D01*
X214713190Y-106289544D01*
X214757296Y-106247139D01*
X214817904Y-106238756D01*
X214871865Y-106267599D01*
X214898566Y-106322650D01*
X214899500Y-106336214D01*
X214899500Y-107874844D01*
X214880593Y-107933035D01*
X214831093Y-107968999D01*
X214769907Y-107968999D01*
X214720407Y-107933035D01*
X214713190Y-107921512D01*
X214642275Y-107788839D01*
X214642268Y-107788829D01*
X214511059Y-107628949D01*
X214511050Y-107628940D01*
X214351170Y-107497731D01*
X214351160Y-107497724D01*
X214168767Y-107400234D01*
X214168762Y-107400232D01*
X213970844Y-107340194D01*
X213970834Y-107340192D01*
X213965000Y-107339617D01*
X213965000Y-107913120D01*
X213957993Y-107909075D01*
X213830826Y-107875000D01*
X213699174Y-107875000D01*
X213572007Y-107909075D01*
X213565000Y-107913120D01*
X213565000Y-107339617D01*
X213559165Y-107340192D01*
X213559155Y-107340194D01*
X213361237Y-107400232D01*
X213361232Y-107400234D01*
X213178839Y-107497724D01*
X213178829Y-107497731D01*
X213018949Y-107628940D01*
X213018940Y-107628949D01*
X212887731Y-107788829D01*
X212887724Y-107788839D01*
X212790234Y-107971232D01*
X212790232Y-107971237D01*
X212730194Y-108169155D01*
X212730192Y-108169165D01*
X212729617Y-108175000D01*
X213303120Y-108175000D01*
X213299075Y-108182007D01*
X213265000Y-108309174D01*
X213265000Y-108440826D01*
X213299075Y-108567993D01*
X213303120Y-108575000D01*
X212729617Y-108575000D01*
X212730192Y-108580834D01*
X212730194Y-108580844D01*
X212790232Y-108778762D01*
X212790234Y-108778767D01*
X212887724Y-108961160D01*
X212887731Y-108961170D01*
X213018940Y-109121050D01*
X213018949Y-109121059D01*
X213178829Y-109252268D01*
X213178839Y-109252275D01*
X213361232Y-109349765D01*
X213361237Y-109349767D01*
X213559158Y-109409806D01*
X213559160Y-109409807D01*
X213565000Y-109410381D01*
X213565000Y-108836879D01*
X213572007Y-108840925D01*
X213699174Y-108875000D01*
X213830826Y-108875000D01*
X213957993Y-108840925D01*
X213965000Y-108836879D01*
X213965000Y-109410381D01*
X213970839Y-109409807D01*
X213970841Y-109409806D01*
X214168762Y-109349767D01*
X214168767Y-109349765D01*
X214351160Y-109252275D01*
X214351170Y-109252268D01*
X214511050Y-109121059D01*
X214511059Y-109121050D01*
X214642268Y-108961170D01*
X214642275Y-108961160D01*
X214713190Y-108828487D01*
X214757295Y-108786080D01*
X214817903Y-108777697D01*
X214871864Y-108806539D01*
X214898566Y-108861590D01*
X214899500Y-108875155D01*
X214899500Y-110414844D01*
X214880593Y-110473035D01*
X214831093Y-110508999D01*
X214769907Y-110508999D01*
X214720407Y-110473035D01*
X214713190Y-110461512D01*
X214642275Y-110328839D01*
X214642268Y-110328829D01*
X214511059Y-110168949D01*
X214511050Y-110168940D01*
X214351170Y-110037731D01*
X214351160Y-110037724D01*
X214168767Y-109940234D01*
X214168762Y-109940232D01*
X213970844Y-109880194D01*
X213970834Y-109880192D01*
X213965000Y-109879617D01*
X213965000Y-110453120D01*
X213957993Y-110449075D01*
X213830826Y-110415000D01*
X213699174Y-110415000D01*
X213572007Y-110449075D01*
X213565000Y-110453120D01*
X213565000Y-109879617D01*
X213559165Y-109880192D01*
X213559155Y-109880194D01*
X213361237Y-109940232D01*
X213361232Y-109940234D01*
X213178839Y-110037724D01*
X213178829Y-110037731D01*
X213018949Y-110168940D01*
X213018940Y-110168949D01*
X212887731Y-110328829D01*
X212887724Y-110328839D01*
X212790234Y-110511232D01*
X212790232Y-110511237D01*
X212730194Y-110709155D01*
X212730192Y-110709165D01*
X212729617Y-110715000D01*
X213303120Y-110715000D01*
X213299075Y-110722007D01*
X213265000Y-110849174D01*
X213265000Y-110980826D01*
X213299075Y-111107993D01*
X213303120Y-111115000D01*
X212729617Y-111115000D01*
X212730192Y-111120834D01*
X212730194Y-111120844D01*
X212790232Y-111318762D01*
X212790234Y-111318767D01*
X212887724Y-111501160D01*
X212887731Y-111501170D01*
X213018940Y-111661050D01*
X213018949Y-111661059D01*
X213178829Y-111792268D01*
X213178839Y-111792275D01*
X213361232Y-111889765D01*
X213361237Y-111889767D01*
X213559158Y-111949806D01*
X213559160Y-111949807D01*
X213565000Y-111950381D01*
X213565000Y-111376879D01*
X213572007Y-111380925D01*
X213699174Y-111415000D01*
X213830826Y-111415000D01*
X213957993Y-111380925D01*
X213965000Y-111376879D01*
X213965000Y-111950381D01*
X213970839Y-111949807D01*
X213970841Y-111949806D01*
X214168762Y-111889767D01*
X214168767Y-111889765D01*
X214351160Y-111792275D01*
X214351170Y-111792268D01*
X214511050Y-111661059D01*
X214511059Y-111661050D01*
X214642268Y-111501170D01*
X214642275Y-111501160D01*
X214713190Y-111368487D01*
X214757295Y-111326080D01*
X214817903Y-111317697D01*
X214871864Y-111346539D01*
X214898566Y-111401590D01*
X214899500Y-111415155D01*
X214899500Y-138600500D01*
X214880593Y-138658691D01*
X214831093Y-138694655D01*
X214800500Y-138699500D01*
X203339895Y-138699500D01*
X203281704Y-138680593D01*
X203245740Y-138631093D01*
X203245740Y-138569907D01*
X203263367Y-138537695D01*
X203308857Y-138482263D01*
X203344265Y-138439120D01*
X203438097Y-138263573D01*
X203495879Y-138073093D01*
X203507808Y-137951981D01*
X203515389Y-137875003D01*
X203515389Y-137874996D01*
X203495880Y-137676912D01*
X203495879Y-137676906D01*
X203480277Y-137625475D01*
X203438097Y-137486427D01*
X203344265Y-137310880D01*
X203313245Y-137273082D01*
X203217992Y-137157016D01*
X203217983Y-137157007D01*
X203064124Y-137030738D01*
X203064122Y-137030737D01*
X203064120Y-137030735D01*
X202988885Y-136990521D01*
X202888581Y-136936907D01*
X202888578Y-136936906D01*
X202888573Y-136936903D01*
X202867636Y-136930551D01*
X202698093Y-136879120D01*
X202698087Y-136879119D01*
X202500003Y-136859611D01*
X202499997Y-136859611D01*
X202301912Y-136879119D01*
X202301906Y-136879120D01*
X202111433Y-136936901D01*
X202111431Y-136936901D01*
X202111427Y-136936903D01*
X202111424Y-136936904D01*
X202111418Y-136936907D01*
X201935885Y-137030732D01*
X201935875Y-137030738D01*
X201782016Y-137157007D01*
X201782007Y-137157016D01*
X201655738Y-137310875D01*
X201655732Y-137310885D01*
X201561907Y-137486418D01*
X201561901Y-137486433D01*
X201504120Y-137676906D01*
X201504119Y-137676912D01*
X201484611Y-137874996D01*
X201484611Y-137875003D01*
X201504119Y-138073087D01*
X201504120Y-138073093D01*
X201533669Y-138170500D01*
X201561903Y-138263573D01*
X201655735Y-138439120D01*
X201655737Y-138439122D01*
X201655738Y-138439124D01*
X201736633Y-138537695D01*
X201758933Y-138594672D01*
X201743484Y-138653875D01*
X201696187Y-138692690D01*
X201660105Y-138699500D01*
X179423000Y-138699500D01*
X179364809Y-138680593D01*
X179328845Y-138631093D01*
X179324000Y-138600500D01*
X179324000Y-138204116D01*
X179342907Y-138145925D01*
X179387234Y-138111802D01*
X179522637Y-138059348D01*
X179696041Y-137951981D01*
X179846764Y-137814579D01*
X179969673Y-137651821D01*
X180060582Y-137469250D01*
X180116397Y-137273083D01*
X180135215Y-137070000D01*
X180464785Y-137070000D01*
X180483603Y-137273083D01*
X180539418Y-137469250D01*
X180630327Y-137651821D01*
X180753236Y-137814579D01*
X180903959Y-137951981D01*
X181077363Y-138059348D01*
X181267544Y-138133024D01*
X181468024Y-138170500D01*
X181671976Y-138170500D01*
X181872456Y-138133024D01*
X182062637Y-138059348D01*
X182236041Y-137951981D01*
X182386764Y-137814579D01*
X182509673Y-137651821D01*
X182600582Y-137469250D01*
X182656397Y-137273083D01*
X182675215Y-137070000D01*
X182656397Y-136866917D01*
X182600582Y-136670750D01*
X182509673Y-136488179D01*
X182386764Y-136325421D01*
X182236041Y-136188019D01*
X182093880Y-136099997D01*
X197994353Y-136099997D01*
X197994353Y-136100002D01*
X198014834Y-136242456D01*
X198047096Y-136313098D01*
X198074623Y-136373373D01*
X198168872Y-136482143D01*
X198168873Y-136482144D01*
X198178261Y-136488177D01*
X198289947Y-136559953D01*
X198396403Y-136591211D01*
X198428035Y-136600499D01*
X198428036Y-136600499D01*
X198428039Y-136600500D01*
X198428041Y-136600500D01*
X198571959Y-136600500D01*
X198571961Y-136600500D01*
X198710053Y-136559953D01*
X198831128Y-136482143D01*
X198925377Y-136373373D01*
X198985165Y-136242457D01*
X199005647Y-136100000D01*
X199005647Y-136099997D01*
X198996197Y-136034269D01*
X199006630Y-135973980D01*
X199050508Y-135931337D01*
X199111071Y-135922630D01*
X199165185Y-135951183D01*
X199170711Y-135957369D01*
X199184344Y-135973980D01*
X199282007Y-136092983D01*
X199282016Y-136092992D01*
X199397807Y-136188019D01*
X199435880Y-136219265D01*
X199611427Y-136313097D01*
X199750475Y-136355277D01*
X199801906Y-136370879D01*
X199801912Y-136370880D01*
X199999997Y-136390389D01*
X200000000Y-136390389D01*
X200000003Y-136390389D01*
X200198087Y-136370880D01*
X200198093Y-136370879D01*
X200388573Y-136313097D01*
X200564120Y-136219265D01*
X200717988Y-136092988D01*
X200844265Y-135939120D01*
X200938097Y-135763573D01*
X200995879Y-135573093D01*
X200996007Y-135571801D01*
X201015389Y-135375003D01*
X201015389Y-135374996D01*
X203984611Y-135374996D01*
X203984611Y-135375003D01*
X204004119Y-135573087D01*
X204004120Y-135573093D01*
X204048034Y-135717855D01*
X204061903Y-135763573D01*
X204061906Y-135763578D01*
X204061907Y-135763581D01*
X204073722Y-135785685D01*
X204155735Y-135939120D01*
X204155737Y-135939122D01*
X204155738Y-135939124D01*
X204282007Y-136092983D01*
X204282016Y-136092992D01*
X204397807Y-136188019D01*
X204435880Y-136219265D01*
X204611427Y-136313097D01*
X204750475Y-136355277D01*
X204801906Y-136370879D01*
X204801912Y-136370880D01*
X204999997Y-136390389D01*
X205000000Y-136390389D01*
X205000003Y-136390389D01*
X205198087Y-136370880D01*
X205198093Y-136370879D01*
X205388573Y-136313097D01*
X205564120Y-136219265D01*
X205717988Y-136092988D01*
X205844265Y-135939120D01*
X205938097Y-135763573D01*
X205995879Y-135573093D01*
X205996007Y-135571801D01*
X206015389Y-135375003D01*
X206015389Y-135374996D01*
X205995880Y-135176912D01*
X205995879Y-135176906D01*
X205980277Y-135125475D01*
X205938097Y-134986427D01*
X205844265Y-134810880D01*
X205840976Y-134806872D01*
X205717992Y-134657016D01*
X205717983Y-134657007D01*
X205564124Y-134530738D01*
X205564122Y-134530737D01*
X205564120Y-134530735D01*
X205488885Y-134490521D01*
X205388581Y-134436907D01*
X205388578Y-134436906D01*
X205388573Y-134436903D01*
X205363038Y-134429157D01*
X205198093Y-134379120D01*
X205198087Y-134379119D01*
X205000003Y-134359611D01*
X204999997Y-134359611D01*
X204801912Y-134379119D01*
X204801906Y-134379120D01*
X204611433Y-134436901D01*
X204611431Y-134436901D01*
X204611427Y-134436903D01*
X204611424Y-134436904D01*
X204611418Y-134436907D01*
X204435885Y-134530732D01*
X204435875Y-134530738D01*
X204282016Y-134657007D01*
X204282007Y-134657016D01*
X204155738Y-134810875D01*
X204155732Y-134810885D01*
X204061907Y-134986418D01*
X204061901Y-134986433D01*
X204004120Y-135176906D01*
X204004119Y-135176912D01*
X203984611Y-135374996D01*
X201015389Y-135374996D01*
X200995880Y-135176912D01*
X200995879Y-135176906D01*
X200980277Y-135125475D01*
X200938097Y-134986427D01*
X200844265Y-134810880D01*
X200840976Y-134806872D01*
X200717992Y-134657016D01*
X200717983Y-134657007D01*
X200564124Y-134530738D01*
X200564122Y-134530737D01*
X200564120Y-134530735D01*
X200488885Y-134490521D01*
X200388581Y-134436907D01*
X200388578Y-134436906D01*
X200388573Y-134436903D01*
X200363038Y-134429157D01*
X200198093Y-134379120D01*
X200198087Y-134379119D01*
X200000003Y-134359611D01*
X199999997Y-134359611D01*
X199801912Y-134379119D01*
X199801906Y-134379120D01*
X199611433Y-134436901D01*
X199611431Y-134436901D01*
X199611427Y-134436903D01*
X199611424Y-134436904D01*
X199611418Y-134436907D01*
X199435885Y-134530732D01*
X199435875Y-134530738D01*
X199282016Y-134657007D01*
X199282007Y-134657016D01*
X199155738Y-134810875D01*
X199155732Y-134810885D01*
X199061907Y-134986418D01*
X199061901Y-134986433D01*
X199004120Y-135176906D01*
X199004119Y-135176912D01*
X198984611Y-135374996D01*
X198984611Y-135375003D01*
X199004119Y-135573087D01*
X199004120Y-135573093D01*
X199029867Y-135657966D01*
X199028666Y-135719139D01*
X198991737Y-135767924D01*
X198933187Y-135785685D01*
X198875378Y-135765639D01*
X198860311Y-135751535D01*
X198831129Y-135717858D01*
X198831127Y-135717856D01*
X198710057Y-135640049D01*
X198710054Y-135640047D01*
X198710053Y-135640047D01*
X198710050Y-135640046D01*
X198571964Y-135599500D01*
X198571961Y-135599500D01*
X198428039Y-135599500D01*
X198428035Y-135599500D01*
X198289949Y-135640046D01*
X198289942Y-135640049D01*
X198168873Y-135717855D01*
X198074622Y-135826628D01*
X198014834Y-135957543D01*
X197994353Y-136099997D01*
X182093880Y-136099997D01*
X182062637Y-136080652D01*
X181872456Y-136006976D01*
X181872455Y-136006975D01*
X181872453Y-136006975D01*
X181671976Y-135969500D01*
X181468024Y-135969500D01*
X181267546Y-136006975D01*
X181212763Y-136028198D01*
X181077363Y-136080652D01*
X181046112Y-136100002D01*
X180903959Y-136188019D01*
X180753237Y-136325420D01*
X180630328Y-136488177D01*
X180630323Y-136488186D01*
X180574398Y-136600500D01*
X180539418Y-136670750D01*
X180483603Y-136866917D01*
X180464785Y-137070000D01*
X180135215Y-137070000D01*
X180116397Y-136866917D01*
X180060582Y-136670750D01*
X179969673Y-136488179D01*
X179846764Y-136325421D01*
X179696041Y-136188019D01*
X179522637Y-136080652D01*
X179387237Y-136028198D01*
X179339806Y-135989546D01*
X179324000Y-135935883D01*
X179324000Y-135664116D01*
X179342907Y-135605925D01*
X179387234Y-135571802D01*
X179522637Y-135519348D01*
X179696041Y-135411981D01*
X179846764Y-135274579D01*
X179969673Y-135111821D01*
X180060582Y-134929250D01*
X180116397Y-134733083D01*
X180135215Y-134530000D01*
X180464785Y-134530000D01*
X180483603Y-134733083D01*
X180539418Y-134929250D01*
X180630327Y-135111821D01*
X180753236Y-135274579D01*
X180903959Y-135411981D01*
X181077363Y-135519348D01*
X181267544Y-135593024D01*
X181468024Y-135630500D01*
X181671976Y-135630500D01*
X181872456Y-135593024D01*
X182062637Y-135519348D01*
X182236041Y-135411981D01*
X182386764Y-135274579D01*
X182509673Y-135111821D01*
X182600582Y-134929250D01*
X182656397Y-134733083D01*
X182675215Y-134530000D01*
X182656397Y-134326917D01*
X182600582Y-134130750D01*
X182509673Y-133948179D01*
X182386764Y-133785421D01*
X182236041Y-133648019D01*
X182062637Y-133540652D01*
X181872456Y-133466976D01*
X181872455Y-133466975D01*
X181872453Y-133466975D01*
X181671976Y-133429500D01*
X181468024Y-133429500D01*
X181267546Y-133466975D01*
X181212763Y-133488198D01*
X181077363Y-133540652D01*
X180903959Y-133648019D01*
X180753237Y-133785420D01*
X180630328Y-133948177D01*
X180630323Y-133948186D01*
X180539419Y-134130747D01*
X180539418Y-134130750D01*
X180483603Y-134326917D01*
X180464785Y-134530000D01*
X180135215Y-134530000D01*
X180116397Y-134326917D01*
X180060582Y-134130750D01*
X179969673Y-133948179D01*
X179846764Y-133785421D01*
X179696041Y-133648019D01*
X179522637Y-133540652D01*
X179387237Y-133488198D01*
X179339806Y-133449546D01*
X179324000Y-133395883D01*
X179324000Y-132930253D01*
X183997000Y-132930253D01*
X183997000Y-135069746D01*
X183997001Y-135069758D01*
X184008632Y-135128227D01*
X184008634Y-135128233D01*
X184052945Y-135194548D01*
X184052948Y-135194552D01*
X184119269Y-135238867D01*
X184163731Y-135247711D01*
X184177741Y-135250498D01*
X184177746Y-135250498D01*
X184177752Y-135250500D01*
X184177753Y-135250500D01*
X186317247Y-135250500D01*
X186317248Y-135250500D01*
X186375731Y-135238867D01*
X186442052Y-135194552D01*
X186486367Y-135128231D01*
X186498000Y-135069748D01*
X186498000Y-133999996D01*
X187492223Y-133999996D01*
X187492223Y-134000003D01*
X187511291Y-134217969D01*
X187511292Y-134217976D01*
X187511293Y-134217977D01*
X187567925Y-134429330D01*
X187660398Y-134627639D01*
X187785902Y-134806877D01*
X187940623Y-134961598D01*
X188119861Y-135087102D01*
X188318170Y-135179575D01*
X188529523Y-135236207D01*
X188529527Y-135236207D01*
X188529530Y-135236208D01*
X188747497Y-135255277D01*
X188747500Y-135255277D01*
X188747503Y-135255277D01*
X188965469Y-135236208D01*
X188965470Y-135236207D01*
X188965477Y-135236207D01*
X189176830Y-135179575D01*
X189375139Y-135087102D01*
X189554377Y-134961598D01*
X189709098Y-134806877D01*
X189834602Y-134627639D01*
X189927075Y-134429330D01*
X189983707Y-134217977D01*
X189983716Y-134217881D01*
X190002777Y-134000003D01*
X190002777Y-133999996D01*
X190992222Y-133999996D01*
X190992222Y-134000003D01*
X191011290Y-134217969D01*
X191011291Y-134217976D01*
X191011292Y-134217977D01*
X191067924Y-134429330D01*
X191160397Y-134627639D01*
X191285901Y-134806877D01*
X191440622Y-134961598D01*
X191619860Y-135087102D01*
X191818169Y-135179575D01*
X192029522Y-135236207D01*
X192029526Y-135236207D01*
X192029529Y-135236208D01*
X192247496Y-135255277D01*
X192247499Y-135255277D01*
X192247502Y-135255277D01*
X192465468Y-135236208D01*
X192465469Y-135236207D01*
X192465476Y-135236207D01*
X192676829Y-135179575D01*
X192875138Y-135087102D01*
X193054376Y-134961598D01*
X193209097Y-134806877D01*
X193334601Y-134627639D01*
X193427074Y-134429330D01*
X193483706Y-134217977D01*
X193483715Y-134217881D01*
X193502776Y-134000003D01*
X193502776Y-133999996D01*
X194492223Y-133999996D01*
X194492223Y-134000003D01*
X194511291Y-134217969D01*
X194511292Y-134217976D01*
X194511293Y-134217977D01*
X194567925Y-134429330D01*
X194660398Y-134627639D01*
X194785902Y-134806877D01*
X194940623Y-134961598D01*
X195119861Y-135087102D01*
X195318170Y-135179575D01*
X195529523Y-135236207D01*
X195529527Y-135236207D01*
X195529530Y-135236208D01*
X195747497Y-135255277D01*
X195747500Y-135255277D01*
X195747503Y-135255277D01*
X195965469Y-135236208D01*
X195965470Y-135236207D01*
X195965477Y-135236207D01*
X196176830Y-135179575D01*
X196375139Y-135087102D01*
X196554377Y-134961598D01*
X196709098Y-134806877D01*
X196834602Y-134627639D01*
X196927075Y-134429330D01*
X196983707Y-134217977D01*
X196983716Y-134217881D01*
X197002777Y-134000003D01*
X197002777Y-133999996D01*
X196983708Y-133782030D01*
X196983707Y-133782027D01*
X196983707Y-133782023D01*
X196927075Y-133570670D01*
X196900654Y-133514010D01*
X196834607Y-133372372D01*
X196834603Y-133372364D01*
X196709101Y-133193127D01*
X196709100Y-133193126D01*
X196709098Y-133193123D01*
X196554377Y-133038402D01*
X196554373Y-133038399D01*
X196554372Y-133038398D01*
X196399924Y-132930253D01*
X207997000Y-132930253D01*
X207997000Y-135069746D01*
X207997001Y-135069758D01*
X208008632Y-135128227D01*
X208008634Y-135128233D01*
X208052945Y-135194548D01*
X208052948Y-135194552D01*
X208119269Y-135238867D01*
X208163731Y-135247711D01*
X208177741Y-135250498D01*
X208177746Y-135250498D01*
X208177752Y-135250500D01*
X208177753Y-135250500D01*
X210317247Y-135250500D01*
X210317248Y-135250500D01*
X210375731Y-135238867D01*
X210442052Y-135194552D01*
X210486367Y-135128231D01*
X210498000Y-135069748D01*
X210498000Y-133999996D01*
X211492725Y-133999996D01*
X211492725Y-134000003D01*
X211511786Y-134217881D01*
X211568397Y-134429157D01*
X211660832Y-134627386D01*
X211733495Y-134731160D01*
X212129536Y-134335118D01*
X212203774Y-134446224D01*
X212301276Y-134543726D01*
X212412378Y-134617961D01*
X212016337Y-135014002D01*
X212120110Y-135086666D01*
X212318342Y-135179102D01*
X212529618Y-135235713D01*
X212747497Y-135254775D01*
X212747503Y-135254775D01*
X212965381Y-135235713D01*
X213176657Y-135179102D01*
X213374886Y-135086667D01*
X213478660Y-135014002D01*
X213082620Y-134617962D01*
X213193724Y-134543726D01*
X213291226Y-134446224D01*
X213365462Y-134335120D01*
X213761502Y-134731160D01*
X213834167Y-134627386D01*
X213926602Y-134429157D01*
X213983213Y-134217881D01*
X214002275Y-134000003D01*
X214002275Y-133999996D01*
X213983213Y-133782118D01*
X213926602Y-133570842D01*
X213834166Y-133372612D01*
X213834166Y-133372611D01*
X213761503Y-133268839D01*
X213365462Y-133664879D01*
X213291226Y-133553776D01*
X213193724Y-133456274D01*
X213082618Y-133382036D01*
X213478660Y-132985995D01*
X213374886Y-132913332D01*
X213176657Y-132820897D01*
X212965381Y-132764286D01*
X212747503Y-132745225D01*
X212747497Y-132745225D01*
X212529618Y-132764286D01*
X212318342Y-132820897D01*
X212120114Y-132913332D01*
X212016339Y-132985995D01*
X212412380Y-133382036D01*
X212301276Y-133456274D01*
X212203774Y-133553776D01*
X212129536Y-133664880D01*
X211733495Y-133268839D01*
X211660832Y-133372614D01*
X211568397Y-133570842D01*
X211511786Y-133782118D01*
X211492725Y-133999996D01*
X210498000Y-133999996D01*
X210498000Y-132930252D01*
X210486367Y-132871769D01*
X210442052Y-132805448D01*
X210379709Y-132763791D01*
X210375733Y-132761134D01*
X210375731Y-132761133D01*
X210375728Y-132761132D01*
X210375727Y-132761132D01*
X210317258Y-132749501D01*
X210317248Y-132749500D01*
X208177752Y-132749500D01*
X208177751Y-132749500D01*
X208177741Y-132749501D01*
X208119272Y-132761132D01*
X208119266Y-132761134D01*
X208052951Y-132805445D01*
X208052945Y-132805451D01*
X208008634Y-132871766D01*
X208008632Y-132871772D01*
X207997001Y-132930241D01*
X207997000Y-132930253D01*
X196399924Y-132930253D01*
X196399907Y-132930241D01*
X196375139Y-132912898D01*
X196176830Y-132820425D01*
X195965477Y-132763793D01*
X195965476Y-132763792D01*
X195965469Y-132763791D01*
X195747503Y-132744723D01*
X195747497Y-132744723D01*
X195529530Y-132763791D01*
X195318166Y-132820426D01*
X195119872Y-132912892D01*
X195119864Y-132912896D01*
X194940627Y-133038398D01*
X194785898Y-133193127D01*
X194660396Y-133372364D01*
X194660392Y-133372372D01*
X194567926Y-133570666D01*
X194511291Y-133782030D01*
X194492223Y-133999996D01*
X193502776Y-133999996D01*
X193483707Y-133782030D01*
X193483706Y-133782027D01*
X193483706Y-133782023D01*
X193427074Y-133570670D01*
X193400653Y-133514010D01*
X193334606Y-133372372D01*
X193334602Y-133372364D01*
X193209100Y-133193127D01*
X193209099Y-133193126D01*
X193209097Y-133193123D01*
X193054376Y-133038402D01*
X193054372Y-133038399D01*
X193054371Y-133038398D01*
X192899906Y-132930241D01*
X192875138Y-132912898D01*
X192676829Y-132820425D01*
X192465476Y-132763793D01*
X192465475Y-132763792D01*
X192465468Y-132763791D01*
X192247502Y-132744723D01*
X192247496Y-132744723D01*
X192029529Y-132763791D01*
X191818165Y-132820426D01*
X191619871Y-132912892D01*
X191619863Y-132912896D01*
X191440626Y-133038398D01*
X191285897Y-133193127D01*
X191160395Y-133372364D01*
X191160391Y-133372372D01*
X191067925Y-133570666D01*
X191011290Y-133782030D01*
X190992222Y-133999996D01*
X190002777Y-133999996D01*
X189983708Y-133782030D01*
X189983707Y-133782027D01*
X189983707Y-133782023D01*
X189927075Y-133570670D01*
X189900654Y-133514010D01*
X189834607Y-133372372D01*
X189834603Y-133372364D01*
X189709101Y-133193127D01*
X189709100Y-133193126D01*
X189709098Y-133193123D01*
X189554377Y-133038402D01*
X189554373Y-133038399D01*
X189554372Y-133038398D01*
X189399907Y-132930241D01*
X189375139Y-132912898D01*
X189347473Y-132899997D01*
X189994353Y-132899997D01*
X189994353Y-132900002D01*
X190014834Y-133042456D01*
X190074622Y-133173371D01*
X190074623Y-133173373D01*
X190091740Y-133193127D01*
X190168873Y-133282144D01*
X190196658Y-133300000D01*
X190289947Y-133359953D01*
X190396403Y-133391211D01*
X190428035Y-133400499D01*
X190428036Y-133400499D01*
X190428039Y-133400500D01*
X190428041Y-133400500D01*
X190571959Y-133400500D01*
X190571961Y-133400500D01*
X190710053Y-133359953D01*
X190831128Y-133282143D01*
X190925377Y-133173373D01*
X190985165Y-133042457D01*
X190993283Y-132985995D01*
X191005647Y-132900002D01*
X191005647Y-132899997D01*
X190985165Y-132757543D01*
X190925377Y-132626628D01*
X190925377Y-132626627D01*
X190831128Y-132517857D01*
X190831127Y-132517856D01*
X190831126Y-132517855D01*
X190710057Y-132440049D01*
X190710054Y-132440047D01*
X190710053Y-132440047D01*
X190710050Y-132440046D01*
X190571964Y-132399500D01*
X190571961Y-132399500D01*
X190428039Y-132399500D01*
X190428035Y-132399500D01*
X190289949Y-132440046D01*
X190289942Y-132440049D01*
X190168873Y-132517855D01*
X190074622Y-132626628D01*
X190014834Y-132757543D01*
X189994353Y-132899997D01*
X189347473Y-132899997D01*
X189176830Y-132820425D01*
X188965477Y-132763793D01*
X188965476Y-132763792D01*
X188965469Y-132763791D01*
X188747503Y-132744723D01*
X188747497Y-132744723D01*
X188529530Y-132763791D01*
X188318166Y-132820426D01*
X188119872Y-132912892D01*
X188119864Y-132912896D01*
X187940627Y-133038398D01*
X187785898Y-133193127D01*
X187660396Y-133372364D01*
X187660392Y-133372372D01*
X187567926Y-133570666D01*
X187511291Y-133782030D01*
X187492223Y-133999996D01*
X186498000Y-133999996D01*
X186498000Y-132930252D01*
X186486367Y-132871769D01*
X186442052Y-132805448D01*
X186379709Y-132763791D01*
X186375733Y-132761134D01*
X186375731Y-132761133D01*
X186375728Y-132761132D01*
X186375727Y-132761132D01*
X186317258Y-132749501D01*
X186317248Y-132749500D01*
X184177752Y-132749500D01*
X184177751Y-132749500D01*
X184177741Y-132749501D01*
X184119272Y-132761132D01*
X184119266Y-132761134D01*
X184052951Y-132805445D01*
X184052945Y-132805451D01*
X184008634Y-132871766D01*
X184008632Y-132871772D01*
X183997001Y-132930241D01*
X183997000Y-132930253D01*
X179324000Y-132930253D01*
X179324000Y-129642343D01*
X179342907Y-129584152D01*
X179368593Y-129559634D01*
X179594811Y-129410849D01*
X179862558Y-129186183D01*
X180102412Y-128931953D01*
X180311130Y-128651596D01*
X180485889Y-128348904D01*
X180624326Y-128027971D01*
X180724569Y-127693136D01*
X180785262Y-127348927D01*
X180805585Y-127000000D01*
X200194415Y-127000000D01*
X200214738Y-127348929D01*
X200275430Y-127693133D01*
X200275430Y-127693134D01*
X200275431Y-127693136D01*
X200375674Y-128027971D01*
X200514111Y-128348904D01*
X200688870Y-128651596D01*
X200897588Y-128931953D01*
X201137442Y-129186183D01*
X201405189Y-129410849D01*
X201697207Y-129602913D01*
X202009549Y-129759777D01*
X202337989Y-129879319D01*
X202337992Y-129879319D01*
X202337993Y-129879320D01*
X202678075Y-129959921D01*
X202678080Y-129959921D01*
X202678086Y-129959923D01*
X203025241Y-130000500D01*
X203025244Y-130000500D01*
X203253783Y-130000500D01*
X203311974Y-130019407D01*
X203347938Y-130068907D01*
X203347938Y-130130093D01*
X203328602Y-130164331D01*
X203274623Y-130226626D01*
X203214834Y-130357543D01*
X203194353Y-130499997D01*
X203194353Y-130500002D01*
X203214834Y-130642456D01*
X203274622Y-130773371D01*
X203274623Y-130773373D01*
X203368872Y-130882143D01*
X203368873Y-130882144D01*
X203489942Y-130959950D01*
X203489947Y-130959953D01*
X203596403Y-130991211D01*
X203628035Y-131000499D01*
X203628036Y-131000499D01*
X203628039Y-131000500D01*
X203628041Y-131000500D01*
X203771959Y-131000500D01*
X203771961Y-131000500D01*
X203910053Y-130959953D01*
X204031128Y-130882143D01*
X204125377Y-130773373D01*
X204185165Y-130642457D01*
X204205647Y-130500000D01*
X204185165Y-130357543D01*
X204125377Y-130226627D01*
X204031128Y-130117857D01*
X203964194Y-130074841D01*
X203925464Y-130027476D01*
X203921971Y-129966390D01*
X203955051Y-129914918D01*
X203994884Y-129895228D01*
X204062011Y-129879319D01*
X204390451Y-129759777D01*
X204702793Y-129602913D01*
X204994811Y-129410849D01*
X205262558Y-129186183D01*
X205502412Y-128931953D01*
X205711130Y-128651596D01*
X205885889Y-128348904D01*
X206024326Y-128027971D01*
X206124569Y-127693136D01*
X206185262Y-127348927D01*
X206205585Y-127000000D01*
X206185262Y-126651073D01*
X206124569Y-126306864D01*
X206024326Y-125972029D01*
X205885889Y-125651096D01*
X205711130Y-125348404D01*
X205502412Y-125068047D01*
X205262558Y-124813817D01*
X204994811Y-124589151D01*
X204768597Y-124440367D01*
X204702794Y-124397087D01*
X204390453Y-124240224D01*
X204390452Y-124240223D01*
X204390451Y-124240223D01*
X204062011Y-124120681D01*
X204062012Y-124120681D01*
X204062006Y-124120679D01*
X203721924Y-124040078D01*
X203609089Y-124026889D01*
X203374759Y-123999500D01*
X203025241Y-123999500D01*
X202833950Y-124021858D01*
X202678075Y-124040078D01*
X202337993Y-124120679D01*
X202141191Y-124192309D01*
X202009549Y-124240223D01*
X202009548Y-124240223D01*
X202009546Y-124240224D01*
X201697205Y-124397087D01*
X201405190Y-124589150D01*
X201137443Y-124813815D01*
X200897591Y-125068043D01*
X200688871Y-125348402D01*
X200688869Y-125348405D01*
X200514111Y-125651095D01*
X200514108Y-125651102D01*
X200375674Y-125972027D01*
X200375672Y-125972034D01*
X200275430Y-126306865D01*
X200275430Y-126306866D01*
X200214738Y-126651070D01*
X200194415Y-127000000D01*
X180805585Y-127000000D01*
X180785262Y-126651073D01*
X180724569Y-126306864D01*
X180624326Y-125972029D01*
X180485889Y-125651096D01*
X180311130Y-125348404D01*
X180102412Y-125068047D01*
X179862558Y-124813817D01*
X179594811Y-124589151D01*
X179530616Y-124546929D01*
X179368598Y-124440367D01*
X179330370Y-124392594D01*
X179324000Y-124357654D01*
X179324000Y-120800000D01*
X182994357Y-120800000D01*
X183014891Y-121047819D01*
X183014892Y-121047821D01*
X183075937Y-121288881D01*
X183175827Y-121516607D01*
X183311836Y-121724785D01*
X183480256Y-121907738D01*
X183676491Y-122060474D01*
X183895190Y-122178828D01*
X184130386Y-122259571D01*
X184375665Y-122300500D01*
X184624335Y-122300500D01*
X184869614Y-122259571D01*
X185104810Y-122178828D01*
X185323509Y-122060474D01*
X185519744Y-121907738D01*
X185688164Y-121724785D01*
X185824173Y-121516607D01*
X185924063Y-121288881D01*
X185985108Y-121047821D01*
X186005643Y-120800000D01*
X194994357Y-120800000D01*
X195014891Y-121047819D01*
X195014892Y-121047821D01*
X195075937Y-121288881D01*
X195175827Y-121516607D01*
X195311836Y-121724785D01*
X195480256Y-121907738D01*
X195676491Y-122060474D01*
X195895190Y-122178828D01*
X196130386Y-122259571D01*
X196375665Y-122300500D01*
X196624335Y-122300500D01*
X196869614Y-122259571D01*
X197104810Y-122178828D01*
X197323509Y-122060474D01*
X197519744Y-121907738D01*
X197688164Y-121724785D01*
X197824173Y-121516607D01*
X197924063Y-121288881D01*
X197985108Y-121047821D01*
X198005643Y-120800000D01*
X206994357Y-120800000D01*
X207014891Y-121047819D01*
X207014892Y-121047821D01*
X207075937Y-121288881D01*
X207175827Y-121516607D01*
X207311836Y-121724785D01*
X207480256Y-121907738D01*
X207676491Y-122060474D01*
X207895190Y-122178828D01*
X208130386Y-122259571D01*
X208375665Y-122300500D01*
X208624335Y-122300500D01*
X208869614Y-122259571D01*
X209104810Y-122178828D01*
X209323509Y-122060474D01*
X209519744Y-121907738D01*
X209688164Y-121724785D01*
X209824173Y-121516607D01*
X209924063Y-121288881D01*
X209985108Y-121047821D01*
X210005643Y-120800000D01*
X209985108Y-120552179D01*
X209924063Y-120311119D01*
X209824173Y-120083393D01*
X209688164Y-119875215D01*
X209519744Y-119692262D01*
X209323509Y-119539526D01*
X209104813Y-119421173D01*
X208869611Y-119340428D01*
X208624335Y-119299500D01*
X208375665Y-119299500D01*
X208130388Y-119340428D01*
X207895186Y-119421173D01*
X207676490Y-119539526D01*
X207676487Y-119539528D01*
X207480259Y-119692259D01*
X207311835Y-119875216D01*
X207175826Y-120083395D01*
X207075937Y-120311120D01*
X207014891Y-120552180D01*
X206994357Y-120800000D01*
X198005643Y-120800000D01*
X197985108Y-120552179D01*
X197924063Y-120311119D01*
X197824173Y-120083393D01*
X197688164Y-119875215D01*
X197519744Y-119692262D01*
X197323509Y-119539526D01*
X197104813Y-119421173D01*
X196869611Y-119340428D01*
X196624335Y-119299500D01*
X196375665Y-119299500D01*
X196130388Y-119340428D01*
X195895186Y-119421173D01*
X195676490Y-119539526D01*
X195676487Y-119539528D01*
X195480259Y-119692259D01*
X195311835Y-119875216D01*
X195175826Y-120083395D01*
X195075937Y-120311120D01*
X195014891Y-120552180D01*
X194994357Y-120800000D01*
X186005643Y-120800000D01*
X185985108Y-120552179D01*
X185924063Y-120311119D01*
X185824173Y-120083393D01*
X185688164Y-119875215D01*
X185519744Y-119692262D01*
X185323509Y-119539526D01*
X185104813Y-119421173D01*
X184869611Y-119340428D01*
X184624335Y-119299500D01*
X184375665Y-119299500D01*
X184130388Y-119340428D01*
X183895186Y-119421173D01*
X183676490Y-119539526D01*
X183676487Y-119539528D01*
X183480259Y-119692259D01*
X183311835Y-119875216D01*
X183175826Y-120083395D01*
X183075937Y-120311120D01*
X183014891Y-120552180D01*
X182994357Y-120800000D01*
X179324000Y-120800000D01*
X179324000Y-115800000D01*
X182994357Y-115800000D01*
X183014891Y-116047819D01*
X183014892Y-116047821D01*
X183075937Y-116288881D01*
X183175827Y-116516607D01*
X183311836Y-116724785D01*
X183480256Y-116907738D01*
X183676491Y-117060474D01*
X183895190Y-117178828D01*
X184130386Y-117259571D01*
X184375665Y-117300500D01*
X184624335Y-117300500D01*
X184869614Y-117259571D01*
X185104810Y-117178828D01*
X185323509Y-117060474D01*
X185519744Y-116907738D01*
X185688164Y-116724785D01*
X185824173Y-116516607D01*
X185924063Y-116288881D01*
X185985108Y-116047821D01*
X186005643Y-115800000D01*
X194994357Y-115800000D01*
X195014891Y-116047819D01*
X195014892Y-116047821D01*
X195075937Y-116288881D01*
X195175827Y-116516607D01*
X195311836Y-116724785D01*
X195480256Y-116907738D01*
X195676491Y-117060474D01*
X195895190Y-117178828D01*
X196130386Y-117259571D01*
X196375665Y-117300500D01*
X196624335Y-117300500D01*
X196869614Y-117259571D01*
X197104810Y-117178828D01*
X197323509Y-117060474D01*
X197519744Y-116907738D01*
X197688164Y-116724785D01*
X197824173Y-116516607D01*
X197924063Y-116288881D01*
X197985108Y-116047821D01*
X198005643Y-115800000D01*
X206994357Y-115800000D01*
X207014891Y-116047819D01*
X207014892Y-116047821D01*
X207075937Y-116288881D01*
X207175827Y-116516607D01*
X207311836Y-116724785D01*
X207480256Y-116907738D01*
X207676491Y-117060474D01*
X207895190Y-117178828D01*
X208130386Y-117259571D01*
X208375665Y-117300500D01*
X208624335Y-117300500D01*
X208869614Y-117259571D01*
X209104810Y-117178828D01*
X209323509Y-117060474D01*
X209519744Y-116907738D01*
X209688164Y-116724785D01*
X209824173Y-116516607D01*
X209924063Y-116288881D01*
X209985108Y-116047821D01*
X210005643Y-115800000D01*
X209985108Y-115552179D01*
X209924063Y-115311119D01*
X209824173Y-115083393D01*
X209688164Y-114875215D01*
X209519744Y-114692262D01*
X209323509Y-114539526D01*
X209104813Y-114421173D01*
X208869611Y-114340428D01*
X208624335Y-114299500D01*
X208375665Y-114299500D01*
X208130388Y-114340428D01*
X207895186Y-114421173D01*
X207676490Y-114539526D01*
X207676487Y-114539528D01*
X207480259Y-114692259D01*
X207311835Y-114875216D01*
X207175826Y-115083395D01*
X207075937Y-115311120D01*
X207014891Y-115552180D01*
X206994357Y-115800000D01*
X198005643Y-115800000D01*
X197985108Y-115552179D01*
X197924063Y-115311119D01*
X197824173Y-115083393D01*
X197688164Y-114875215D01*
X197519744Y-114692262D01*
X197323509Y-114539526D01*
X197104813Y-114421173D01*
X196869611Y-114340428D01*
X196624335Y-114299500D01*
X196375665Y-114299500D01*
X196130388Y-114340428D01*
X195895186Y-114421173D01*
X195676490Y-114539526D01*
X195676487Y-114539528D01*
X195480259Y-114692259D01*
X195311835Y-114875216D01*
X195175826Y-115083395D01*
X195075937Y-115311120D01*
X195014891Y-115552180D01*
X194994357Y-115800000D01*
X186005643Y-115800000D01*
X185985108Y-115552179D01*
X185924063Y-115311119D01*
X185824173Y-115083393D01*
X185688164Y-114875215D01*
X185519744Y-114692262D01*
X185323509Y-114539526D01*
X185104813Y-114421173D01*
X184869611Y-114340428D01*
X184624335Y-114299500D01*
X184375665Y-114299500D01*
X184130388Y-114340428D01*
X183895186Y-114421173D01*
X183676490Y-114539526D01*
X183676487Y-114539528D01*
X183480259Y-114692259D01*
X183311835Y-114875216D01*
X183175826Y-115083395D01*
X183075937Y-115311120D01*
X183014891Y-115552180D01*
X182994357Y-115800000D01*
X179324000Y-115800000D01*
X179324000Y-113899997D01*
X211394353Y-113899997D01*
X211394353Y-113900002D01*
X211414834Y-114042456D01*
X211474622Y-114173371D01*
X211474623Y-114173373D01*
X211568872Y-114282143D01*
X211568873Y-114282144D01*
X211595880Y-114299500D01*
X211689947Y-114359953D01*
X211796403Y-114391211D01*
X211828035Y-114400499D01*
X211828036Y-114400499D01*
X211828039Y-114400500D01*
X211828041Y-114400500D01*
X211971959Y-114400500D01*
X211971961Y-114400500D01*
X212110053Y-114359953D01*
X212231128Y-114282143D01*
X212325377Y-114173373D01*
X212385165Y-114042457D01*
X212405647Y-113900000D01*
X212385165Y-113757543D01*
X212325377Y-113626627D01*
X212231128Y-113517857D01*
X212231127Y-113517856D01*
X212231126Y-113517855D01*
X212110057Y-113440049D01*
X212110054Y-113440047D01*
X212110053Y-113440047D01*
X212110050Y-113440046D01*
X211971964Y-113399500D01*
X211971961Y-113399500D01*
X211828039Y-113399500D01*
X211828035Y-113399500D01*
X211689949Y-113440046D01*
X211689942Y-113440049D01*
X211568873Y-113517855D01*
X211474622Y-113626628D01*
X211414834Y-113757543D01*
X211394353Y-113899997D01*
X179324000Y-113899997D01*
X179324000Y-110999996D01*
X204094659Y-110999996D01*
X204094659Y-111000003D01*
X204113974Y-111196126D01*
X204113975Y-111196129D01*
X204171187Y-111384730D01*
X204171188Y-111384732D01*
X204180199Y-111401590D01*
X204264090Y-111558538D01*
X204264092Y-111558540D01*
X204264093Y-111558542D01*
X204389112Y-111710878D01*
X204389121Y-111710887D01*
X204488284Y-111792268D01*
X204541462Y-111835910D01*
X204715273Y-111928814D01*
X204903868Y-111986024D01*
X204903870Y-111986024D01*
X204903873Y-111986025D01*
X205099997Y-112005341D01*
X205100000Y-112005341D01*
X205100003Y-112005341D01*
X205296126Y-111986025D01*
X205296127Y-111986024D01*
X205296132Y-111986024D01*
X205484727Y-111928814D01*
X205658538Y-111835910D01*
X205810883Y-111710883D01*
X205935910Y-111558538D01*
X206028814Y-111384727D01*
X206086024Y-111196132D01*
X206105341Y-111000000D01*
X206105341Y-110999996D01*
X207094659Y-110999996D01*
X207094659Y-111000003D01*
X207113974Y-111196126D01*
X207113975Y-111196129D01*
X207171187Y-111384730D01*
X207171188Y-111384732D01*
X207180199Y-111401590D01*
X207264090Y-111558538D01*
X207264092Y-111558540D01*
X207264093Y-111558542D01*
X207389112Y-111710878D01*
X207389121Y-111710887D01*
X207488284Y-111792268D01*
X207541462Y-111835910D01*
X207715273Y-111928814D01*
X207903868Y-111986024D01*
X207903870Y-111986024D01*
X207903873Y-111986025D01*
X208099997Y-112005341D01*
X208100000Y-112005341D01*
X208100003Y-112005341D01*
X208296126Y-111986025D01*
X208296127Y-111986024D01*
X208296132Y-111986024D01*
X208484727Y-111928814D01*
X208658538Y-111835910D01*
X208810883Y-111710883D01*
X208935910Y-111558538D01*
X209028814Y-111384727D01*
X209086024Y-111196132D01*
X209105341Y-111000000D01*
X209103453Y-110980826D01*
X209086025Y-110803873D01*
X209086024Y-110803870D01*
X209086024Y-110803868D01*
X209059066Y-110715000D01*
X210189617Y-110715000D01*
X210763120Y-110715000D01*
X210759075Y-110722007D01*
X210725000Y-110849174D01*
X210725000Y-110980826D01*
X210759075Y-111107993D01*
X210763120Y-111115000D01*
X210189617Y-111115000D01*
X210190192Y-111120834D01*
X210190194Y-111120844D01*
X210250232Y-111318762D01*
X210250234Y-111318767D01*
X210347724Y-111501160D01*
X210347731Y-111501170D01*
X210478940Y-111661050D01*
X210478949Y-111661059D01*
X210638829Y-111792268D01*
X210638839Y-111792275D01*
X210821232Y-111889765D01*
X210821237Y-111889767D01*
X211019158Y-111949806D01*
X211019160Y-111949807D01*
X211025000Y-111950381D01*
X211025000Y-111376879D01*
X211032007Y-111380925D01*
X211159174Y-111415000D01*
X211290826Y-111415000D01*
X211417993Y-111380925D01*
X211425000Y-111376879D01*
X211425000Y-111950381D01*
X211430839Y-111949807D01*
X211430841Y-111949806D01*
X211628762Y-111889767D01*
X211628767Y-111889765D01*
X211811160Y-111792275D01*
X211811170Y-111792268D01*
X211971050Y-111661059D01*
X211971059Y-111661050D01*
X212102268Y-111501170D01*
X212102275Y-111501160D01*
X212199765Y-111318767D01*
X212199767Y-111318762D01*
X212259805Y-111120844D01*
X212259807Y-111120834D01*
X212260383Y-111115000D01*
X211686880Y-111115000D01*
X211690925Y-111107993D01*
X211725000Y-110980826D01*
X211725000Y-110849174D01*
X211690925Y-110722007D01*
X211686880Y-110715000D01*
X212260382Y-110715000D01*
X212259807Y-110709165D01*
X212259805Y-110709155D01*
X212199767Y-110511237D01*
X212199765Y-110511232D01*
X212102275Y-110328839D01*
X212102268Y-110328829D01*
X211971059Y-110168949D01*
X211971050Y-110168940D01*
X211811170Y-110037731D01*
X211811160Y-110037724D01*
X211628767Y-109940234D01*
X211628762Y-109940232D01*
X211430844Y-109880194D01*
X211430834Y-109880192D01*
X211425000Y-109879617D01*
X211425000Y-110453120D01*
X211417993Y-110449075D01*
X211290826Y-110415000D01*
X211159174Y-110415000D01*
X211032007Y-110449075D01*
X211025000Y-110453120D01*
X211025000Y-109879617D01*
X211019165Y-109880192D01*
X211019155Y-109880194D01*
X210821237Y-109940232D01*
X210821232Y-109940234D01*
X210638839Y-110037724D01*
X210638829Y-110037731D01*
X210478949Y-110168940D01*
X210478940Y-110168949D01*
X210347731Y-110328829D01*
X210347724Y-110328839D01*
X210250234Y-110511232D01*
X210250232Y-110511237D01*
X210190194Y-110709155D01*
X210190192Y-110709165D01*
X210189617Y-110715000D01*
X209059066Y-110715000D01*
X209028814Y-110615273D01*
X208935910Y-110441462D01*
X208872999Y-110364805D01*
X208810887Y-110289121D01*
X208810878Y-110289112D01*
X208658542Y-110164093D01*
X208658540Y-110164092D01*
X208658538Y-110164090D01*
X208617618Y-110142218D01*
X208484732Y-110071188D01*
X208484730Y-110071187D01*
X208296129Y-110013975D01*
X208296126Y-110013974D01*
X208100003Y-109994659D01*
X208099997Y-109994659D01*
X207903873Y-110013974D01*
X207903870Y-110013975D01*
X207715269Y-110071187D01*
X207715267Y-110071188D01*
X207541467Y-110164087D01*
X207541457Y-110164093D01*
X207389121Y-110289112D01*
X207389112Y-110289121D01*
X207264093Y-110441457D01*
X207264087Y-110441467D01*
X207171188Y-110615267D01*
X207171187Y-110615269D01*
X207113975Y-110803870D01*
X207113974Y-110803873D01*
X207094659Y-110999996D01*
X206105341Y-110999996D01*
X206103453Y-110980826D01*
X206086025Y-110803873D01*
X206086024Y-110803870D01*
X206086024Y-110803868D01*
X206028814Y-110615273D01*
X205935910Y-110441462D01*
X205872999Y-110364805D01*
X205810887Y-110289121D01*
X205810878Y-110289112D01*
X205658542Y-110164093D01*
X205658540Y-110164092D01*
X205658538Y-110164090D01*
X205617618Y-110142218D01*
X205484732Y-110071188D01*
X205484730Y-110071187D01*
X205296129Y-110013975D01*
X205296126Y-110013974D01*
X205100003Y-109994659D01*
X205099997Y-109994659D01*
X204903873Y-110013974D01*
X204903870Y-110013975D01*
X204715269Y-110071187D01*
X204715267Y-110071188D01*
X204541467Y-110164087D01*
X204541457Y-110164093D01*
X204389121Y-110289112D01*
X204389112Y-110289121D01*
X204264093Y-110441457D01*
X204264087Y-110441467D01*
X204171188Y-110615267D01*
X204171187Y-110615269D01*
X204113975Y-110803870D01*
X204113974Y-110803873D01*
X204094659Y-110999996D01*
X179324000Y-110999996D01*
X179324000Y-109806269D01*
X179588386Y-109806269D01*
X179588386Y-109806276D01*
X179607701Y-110002399D01*
X179607702Y-110002402D01*
X179664914Y-110191003D01*
X179664915Y-110191005D01*
X179717355Y-110289112D01*
X179757817Y-110364811D01*
X179757819Y-110364813D01*
X179757820Y-110364815D01*
X179882839Y-110517151D01*
X179882848Y-110517160D01*
X180002392Y-110615267D01*
X180035189Y-110642183D01*
X180209000Y-110735087D01*
X180397595Y-110792297D01*
X180397597Y-110792297D01*
X180397600Y-110792298D01*
X180593724Y-110811614D01*
X180593727Y-110811614D01*
X180593730Y-110811614D01*
X180789853Y-110792298D01*
X180789854Y-110792297D01*
X180789859Y-110792297D01*
X180978454Y-110735087D01*
X181152265Y-110642183D01*
X181304610Y-110517156D01*
X181429637Y-110364811D01*
X181522541Y-110191000D01*
X181579751Y-110002405D01*
X181585875Y-109940234D01*
X181599068Y-109806276D01*
X181599068Y-109806269D01*
X199400932Y-109806269D01*
X199400932Y-109806276D01*
X199420247Y-110002399D01*
X199420248Y-110002402D01*
X199477460Y-110191003D01*
X199477461Y-110191005D01*
X199529901Y-110289112D01*
X199570363Y-110364811D01*
X199570365Y-110364813D01*
X199570366Y-110364815D01*
X199695385Y-110517151D01*
X199695394Y-110517160D01*
X199814938Y-110615267D01*
X199847735Y-110642183D01*
X200021546Y-110735087D01*
X200210141Y-110792297D01*
X200210143Y-110792297D01*
X200210146Y-110792298D01*
X200406270Y-110811614D01*
X200406273Y-110811614D01*
X200406276Y-110811614D01*
X200602399Y-110792298D01*
X200602400Y-110792297D01*
X200602405Y-110792297D01*
X200791000Y-110735087D01*
X200964811Y-110642183D01*
X201117156Y-110517156D01*
X201242183Y-110364811D01*
X201335087Y-110191000D01*
X201392297Y-110002405D01*
X201398421Y-109940234D01*
X201411614Y-109806276D01*
X201411614Y-109806269D01*
X201392298Y-109610146D01*
X201392297Y-109610143D01*
X201392297Y-109610141D01*
X201335087Y-109421546D01*
X201328812Y-109409807D01*
X201296719Y-109349765D01*
X201242183Y-109247735D01*
X201242179Y-109247730D01*
X201117160Y-109095394D01*
X201117151Y-109095385D01*
X200964815Y-108970366D01*
X200964813Y-108970365D01*
X200964811Y-108970363D01*
X200923891Y-108948491D01*
X200791005Y-108877461D01*
X200791003Y-108877460D01*
X200602402Y-108820248D01*
X200602399Y-108820247D01*
X200406276Y-108800932D01*
X200406270Y-108800932D01*
X200210146Y-108820247D01*
X200210143Y-108820248D01*
X200021542Y-108877460D01*
X200021540Y-108877461D01*
X199847740Y-108970360D01*
X199847730Y-108970366D01*
X199695394Y-109095385D01*
X199695385Y-109095394D01*
X199570366Y-109247730D01*
X199570360Y-109247740D01*
X199477461Y-109421540D01*
X199477460Y-109421542D01*
X199420248Y-109610143D01*
X199420247Y-109610146D01*
X199400932Y-109806269D01*
X181599068Y-109806269D01*
X181579752Y-109610146D01*
X181579751Y-109610143D01*
X181579751Y-109610141D01*
X181522541Y-109421546D01*
X181516266Y-109409807D01*
X181484173Y-109349765D01*
X181429637Y-109247735D01*
X181429633Y-109247730D01*
X181304614Y-109095394D01*
X181304605Y-109095385D01*
X181152269Y-108970366D01*
X181152267Y-108970365D01*
X181152265Y-108970363D01*
X181111345Y-108948491D01*
X180978459Y-108877461D01*
X180978457Y-108877460D01*
X180789856Y-108820248D01*
X180789853Y-108820247D01*
X180593730Y-108800932D01*
X180593724Y-108800932D01*
X180397600Y-108820247D01*
X180397597Y-108820248D01*
X180208996Y-108877460D01*
X180208994Y-108877461D01*
X180035194Y-108970360D01*
X180035184Y-108970366D01*
X179882848Y-109095385D01*
X179882839Y-109095394D01*
X179757820Y-109247730D01*
X179757814Y-109247740D01*
X179664915Y-109421540D01*
X179664914Y-109421542D01*
X179607702Y-109610143D01*
X179607701Y-109610146D01*
X179588386Y-109806269D01*
X179324000Y-109806269D01*
X179324000Y-107331399D01*
X181733312Y-107331399D01*
X181748833Y-107409434D01*
X181781877Y-107458888D01*
X182220073Y-107897084D01*
X182682230Y-107434926D01*
X182695860Y-107485793D01*
X182748521Y-107577005D01*
X182822995Y-107651479D01*
X182914207Y-107704140D01*
X182965073Y-107717769D01*
X182502916Y-108179927D01*
X182941111Y-108618122D01*
X182990565Y-108651166D01*
X183068601Y-108666687D01*
X183146636Y-108651166D01*
X183196090Y-108618122D01*
X183634286Y-108179927D01*
X183172128Y-107717769D01*
X183222995Y-107704140D01*
X183314207Y-107651479D01*
X183388681Y-107577005D01*
X183441342Y-107485793D01*
X183454971Y-107434926D01*
X183917129Y-107897084D01*
X184355324Y-107458888D01*
X184388368Y-107409434D01*
X184403889Y-107331399D01*
X196596110Y-107331399D01*
X196611631Y-107409434D01*
X196644675Y-107458888D01*
X197082871Y-107897084D01*
X197545028Y-107434926D01*
X197558658Y-107485793D01*
X197611319Y-107577005D01*
X197685793Y-107651479D01*
X197777005Y-107704140D01*
X197827871Y-107717769D01*
X197365714Y-108179927D01*
X197803909Y-108618122D01*
X197853363Y-108651166D01*
X197931399Y-108666687D01*
X198009434Y-108651166D01*
X198058888Y-108618122D01*
X198497084Y-108179927D01*
X198492157Y-108175000D01*
X210189617Y-108175000D01*
X210763120Y-108175000D01*
X210759075Y-108182007D01*
X210725000Y-108309174D01*
X210725000Y-108440826D01*
X210759075Y-108567993D01*
X210763120Y-108575000D01*
X210189617Y-108575000D01*
X210190192Y-108580834D01*
X210190194Y-108580844D01*
X210250232Y-108778762D01*
X210250234Y-108778767D01*
X210347724Y-108961160D01*
X210347731Y-108961170D01*
X210478940Y-109121050D01*
X210478949Y-109121059D01*
X210638829Y-109252268D01*
X210638839Y-109252275D01*
X210821232Y-109349765D01*
X210821237Y-109349767D01*
X211019158Y-109409806D01*
X211019160Y-109409807D01*
X211025000Y-109410381D01*
X211025000Y-108836879D01*
X211032007Y-108840925D01*
X211159174Y-108875000D01*
X211290826Y-108875000D01*
X211417993Y-108840925D01*
X211425000Y-108836879D01*
X211425000Y-109410381D01*
X211430839Y-109409807D01*
X211430841Y-109409806D01*
X211628762Y-109349767D01*
X211628767Y-109349765D01*
X211811160Y-109252275D01*
X211811170Y-109252268D01*
X211971050Y-109121059D01*
X211971059Y-109121050D01*
X212102268Y-108961170D01*
X212102275Y-108961160D01*
X212199765Y-108778767D01*
X212199767Y-108778762D01*
X212259805Y-108580844D01*
X212259807Y-108580834D01*
X212260383Y-108575000D01*
X211686880Y-108575000D01*
X211690925Y-108567993D01*
X211725000Y-108440826D01*
X211725000Y-108309174D01*
X211690925Y-108182007D01*
X211686880Y-108175000D01*
X212260382Y-108175000D01*
X212259807Y-108169165D01*
X212259805Y-108169155D01*
X212199767Y-107971237D01*
X212199765Y-107971232D01*
X212102275Y-107788839D01*
X212102268Y-107788829D01*
X211971059Y-107628949D01*
X211971050Y-107628940D01*
X211811170Y-107497731D01*
X211811160Y-107497724D01*
X211628767Y-107400234D01*
X211628762Y-107400232D01*
X211430844Y-107340194D01*
X211430834Y-107340192D01*
X211425000Y-107339617D01*
X211425000Y-107913120D01*
X211417993Y-107909075D01*
X211290826Y-107875000D01*
X211159174Y-107875000D01*
X211032007Y-107909075D01*
X211025000Y-107913120D01*
X211025000Y-107339617D01*
X211019165Y-107340192D01*
X211019155Y-107340194D01*
X210821237Y-107400232D01*
X210821232Y-107400234D01*
X210638839Y-107497724D01*
X210638829Y-107497731D01*
X210478949Y-107628940D01*
X210478940Y-107628949D01*
X210347731Y-107788829D01*
X210347724Y-107788839D01*
X210250234Y-107971232D01*
X210250232Y-107971237D01*
X210190194Y-108169155D01*
X210190192Y-108169165D01*
X210189617Y-108175000D01*
X198492157Y-108175000D01*
X198034926Y-107717769D01*
X198085793Y-107704140D01*
X198177005Y-107651479D01*
X198251479Y-107577005D01*
X198304140Y-107485793D01*
X198317769Y-107434926D01*
X198779927Y-107897084D01*
X199218122Y-107458888D01*
X199251166Y-107409434D01*
X199266687Y-107331399D01*
X199251166Y-107253363D01*
X199218122Y-107203909D01*
X198779927Y-106765714D01*
X198317769Y-107227871D01*
X198304140Y-107177005D01*
X198251479Y-107085793D01*
X198177005Y-107011319D01*
X198085793Y-106958658D01*
X198034926Y-106945028D01*
X198497084Y-106482871D01*
X198058888Y-106044675D01*
X198009434Y-106011631D01*
X197950937Y-105999996D01*
X204094659Y-105999996D01*
X204094659Y-106000003D01*
X204113974Y-106196126D01*
X204113975Y-106196129D01*
X204171187Y-106384730D01*
X204171188Y-106384732D01*
X204223645Y-106482871D01*
X204264090Y-106558538D01*
X204264092Y-106558540D01*
X204264093Y-106558542D01*
X204389112Y-106710878D01*
X204389121Y-106710887D01*
X204455928Y-106765714D01*
X204541462Y-106835910D01*
X204715273Y-106928814D01*
X204903868Y-106986024D01*
X204903870Y-106986024D01*
X204903873Y-106986025D01*
X205099997Y-107005341D01*
X205100000Y-107005341D01*
X205100003Y-107005341D01*
X205296126Y-106986025D01*
X205296127Y-106986024D01*
X205296132Y-106986024D01*
X205484727Y-106928814D01*
X205658538Y-106835910D01*
X205810883Y-106710883D01*
X205935910Y-106558538D01*
X206028814Y-106384727D01*
X206086024Y-106196132D01*
X206101310Y-106040934D01*
X206105341Y-106000003D01*
X206105341Y-105999996D01*
X207094659Y-105999996D01*
X207094659Y-106000003D01*
X207113974Y-106196126D01*
X207113975Y-106196129D01*
X207171187Y-106384730D01*
X207171188Y-106384732D01*
X207223645Y-106482871D01*
X207264090Y-106558538D01*
X207264092Y-106558540D01*
X207264093Y-106558542D01*
X207389112Y-106710878D01*
X207389121Y-106710887D01*
X207455928Y-106765714D01*
X207541462Y-106835910D01*
X207715273Y-106928814D01*
X207903868Y-106986024D01*
X207903870Y-106986024D01*
X207903873Y-106986025D01*
X208099997Y-107005341D01*
X208100000Y-107005341D01*
X208100003Y-107005341D01*
X208296126Y-106986025D01*
X208296127Y-106986024D01*
X208296132Y-106986024D01*
X208484727Y-106928814D01*
X208658538Y-106835910D01*
X208810883Y-106710883D01*
X208935910Y-106558538D01*
X209028814Y-106384727D01*
X209086024Y-106196132D01*
X209101310Y-106040934D01*
X209105341Y-106000003D01*
X209105341Y-105999996D01*
X209089090Y-105834996D01*
X210169417Y-105834996D01*
X210169417Y-105835003D01*
X210189698Y-106040929D01*
X210189699Y-106040934D01*
X210249768Y-106238954D01*
X210347316Y-106421452D01*
X210459823Y-106558542D01*
X210478590Y-106581410D01*
X210478595Y-106581414D01*
X210638547Y-106712683D01*
X210638548Y-106712683D01*
X210638550Y-106712685D01*
X210821046Y-106810232D01*
X210958997Y-106852078D01*
X211019065Y-106870300D01*
X211019070Y-106870301D01*
X211224997Y-106890583D01*
X211225000Y-106890583D01*
X211225003Y-106890583D01*
X211430929Y-106870301D01*
X211430934Y-106870300D01*
X211628954Y-106810232D01*
X211811450Y-106712685D01*
X211971410Y-106581410D01*
X212102685Y-106421450D01*
X212200232Y-106238954D01*
X212260300Y-106040934D01*
X212260301Y-106040929D01*
X212280583Y-105835003D01*
X212280583Y-105834996D01*
X212260301Y-105629070D01*
X212260300Y-105629065D01*
X212242078Y-105568997D01*
X212200232Y-105431046D01*
X212102685Y-105248550D01*
X212033373Y-105164093D01*
X211971414Y-105088595D01*
X211971410Y-105088590D01*
X211971404Y-105088585D01*
X211811452Y-104957316D01*
X211628954Y-104859768D01*
X211430934Y-104799699D01*
X211430929Y-104799698D01*
X211225003Y-104779417D01*
X211224997Y-104779417D01*
X211019070Y-104799698D01*
X211019065Y-104799699D01*
X210821045Y-104859768D01*
X210638547Y-104957316D01*
X210478595Y-105088585D01*
X210478585Y-105088595D01*
X210347316Y-105248547D01*
X210249768Y-105431045D01*
X210189699Y-105629065D01*
X210189698Y-105629070D01*
X210169417Y-105834996D01*
X209089090Y-105834996D01*
X209086025Y-105803873D01*
X209086024Y-105803870D01*
X209086024Y-105803868D01*
X209028814Y-105615273D01*
X208935910Y-105441462D01*
X208885842Y-105380454D01*
X208810887Y-105289121D01*
X208810878Y-105289112D01*
X208658542Y-105164093D01*
X208658540Y-105164092D01*
X208658538Y-105164090D01*
X208617618Y-105142218D01*
X208484732Y-105071188D01*
X208484730Y-105071187D01*
X208296129Y-105013975D01*
X208296126Y-105013974D01*
X208100003Y-104994659D01*
X208099997Y-104994659D01*
X207903873Y-105013974D01*
X207903870Y-105013975D01*
X207715269Y-105071187D01*
X207715267Y-105071188D01*
X207541467Y-105164087D01*
X207541457Y-105164093D01*
X207389121Y-105289112D01*
X207389112Y-105289121D01*
X207264093Y-105441457D01*
X207264087Y-105441467D01*
X207171188Y-105615267D01*
X207171187Y-105615269D01*
X207113975Y-105803870D01*
X207113974Y-105803873D01*
X207094659Y-105999996D01*
X206105341Y-105999996D01*
X206086025Y-105803873D01*
X206086024Y-105803870D01*
X206086024Y-105803868D01*
X206028814Y-105615273D01*
X205935910Y-105441462D01*
X205885842Y-105380454D01*
X205810887Y-105289121D01*
X205810878Y-105289112D01*
X205658542Y-105164093D01*
X205658540Y-105164092D01*
X205658538Y-105164090D01*
X205617618Y-105142218D01*
X205484732Y-105071188D01*
X205484730Y-105071187D01*
X205296129Y-105013975D01*
X205296126Y-105013974D01*
X205100003Y-104994659D01*
X205099997Y-104994659D01*
X204903873Y-105013974D01*
X204903870Y-105013975D01*
X204715269Y-105071187D01*
X204715267Y-105071188D01*
X204541467Y-105164087D01*
X204541457Y-105164093D01*
X204389121Y-105289112D01*
X204389112Y-105289121D01*
X204264093Y-105441457D01*
X204264087Y-105441467D01*
X204171188Y-105615267D01*
X204171187Y-105615269D01*
X204113975Y-105803870D01*
X204113974Y-105803873D01*
X204094659Y-105999996D01*
X197950937Y-105999996D01*
X197931399Y-105996110D01*
X197853363Y-106011631D01*
X197803909Y-106044675D01*
X197365714Y-106482871D01*
X197827871Y-106945028D01*
X197777005Y-106958658D01*
X197685793Y-107011319D01*
X197611319Y-107085793D01*
X197558658Y-107177005D01*
X197545028Y-107227871D01*
X197082871Y-106765714D01*
X196644675Y-107203909D01*
X196611631Y-107253363D01*
X196596110Y-107331399D01*
X184403889Y-107331399D01*
X184388368Y-107253363D01*
X184355324Y-107203909D01*
X183917129Y-106765714D01*
X183454971Y-107227871D01*
X183441342Y-107177005D01*
X183388681Y-107085793D01*
X183314207Y-107011319D01*
X183222995Y-106958658D01*
X183172128Y-106945028D01*
X183634286Y-106482871D01*
X183196090Y-106044675D01*
X183146636Y-106011631D01*
X183068601Y-105996110D01*
X182990565Y-106011631D01*
X182941111Y-106044675D01*
X182502916Y-106482871D01*
X182965073Y-106945028D01*
X182914207Y-106958658D01*
X182822995Y-107011319D01*
X182748521Y-107085793D01*
X182695860Y-107177005D01*
X182682230Y-107227871D01*
X182220073Y-106765714D01*
X181781877Y-107203909D01*
X181748833Y-107253363D01*
X181733312Y-107331399D01*
X179324000Y-107331399D01*
X179324000Y-104242343D01*
X179342907Y-104184152D01*
X179368593Y-104159634D01*
X179594811Y-104010849D01*
X179786507Y-103849997D01*
X184794353Y-103849997D01*
X184794353Y-103850002D01*
X184814834Y-103992456D01*
X184837191Y-104041410D01*
X184874623Y-104123373D01*
X184968872Y-104232143D01*
X184968873Y-104232144D01*
X185089942Y-104309950D01*
X185089947Y-104309953D01*
X185159247Y-104330301D01*
X185228035Y-104350499D01*
X185228036Y-104350499D01*
X185228039Y-104350500D01*
X185228041Y-104350500D01*
X185371959Y-104350500D01*
X185371961Y-104350500D01*
X185510053Y-104309953D01*
X185631128Y-104232143D01*
X185725377Y-104123373D01*
X185785165Y-103992457D01*
X185805647Y-103850000D01*
X185805647Y-103849997D01*
X186094353Y-103849997D01*
X186094353Y-103850002D01*
X186114834Y-103992456D01*
X186137191Y-104041410D01*
X186174623Y-104123373D01*
X186268872Y-104232143D01*
X186268873Y-104232144D01*
X186389942Y-104309950D01*
X186389947Y-104309953D01*
X186459247Y-104330301D01*
X186528035Y-104350499D01*
X186528036Y-104350499D01*
X186528039Y-104350500D01*
X186528041Y-104350500D01*
X186671959Y-104350500D01*
X186671961Y-104350500D01*
X186810053Y-104309953D01*
X186931128Y-104232143D01*
X187025377Y-104123373D01*
X187085165Y-103992457D01*
X187105647Y-103850000D01*
X187105647Y-103849997D01*
X187394353Y-103849997D01*
X187394353Y-103850002D01*
X187414834Y-103992456D01*
X187437191Y-104041410D01*
X187474623Y-104123373D01*
X187568872Y-104232143D01*
X187568873Y-104232144D01*
X187689942Y-104309950D01*
X187689947Y-104309953D01*
X187759247Y-104330301D01*
X187828035Y-104350499D01*
X187828036Y-104350499D01*
X187828039Y-104350500D01*
X187828041Y-104350500D01*
X187971959Y-104350500D01*
X187971961Y-104350500D01*
X188110053Y-104309953D01*
X188231128Y-104232143D01*
X188325377Y-104123373D01*
X188385165Y-103992457D01*
X188405647Y-103850000D01*
X188405647Y-103849997D01*
X188694353Y-103849997D01*
X188694353Y-103850002D01*
X188714834Y-103992456D01*
X188737191Y-104041410D01*
X188774623Y-104123373D01*
X188868872Y-104232143D01*
X188868873Y-104232144D01*
X188989942Y-104309950D01*
X188989947Y-104309953D01*
X189059247Y-104330301D01*
X189128035Y-104350499D01*
X189128036Y-104350499D01*
X189128039Y-104350500D01*
X189128041Y-104350500D01*
X189271959Y-104350500D01*
X189271961Y-104350500D01*
X189410053Y-104309953D01*
X189531128Y-104232143D01*
X189625377Y-104123373D01*
X189685165Y-103992457D01*
X189705647Y-103850000D01*
X189705647Y-103849997D01*
X189994353Y-103849997D01*
X189994353Y-103850002D01*
X190014834Y-103992456D01*
X190037191Y-104041410D01*
X190074623Y-104123373D01*
X190168872Y-104232143D01*
X190168873Y-104232144D01*
X190289942Y-104309950D01*
X190289947Y-104309953D01*
X190359247Y-104330301D01*
X190428035Y-104350499D01*
X190428036Y-104350499D01*
X190428039Y-104350500D01*
X190428041Y-104350500D01*
X190571959Y-104350500D01*
X190571961Y-104350500D01*
X190710053Y-104309953D01*
X190831128Y-104232143D01*
X190925377Y-104123373D01*
X190985165Y-103992457D01*
X191005647Y-103850000D01*
X191005647Y-103849997D01*
X191294353Y-103849997D01*
X191294353Y-103850002D01*
X191314834Y-103992456D01*
X191337191Y-104041410D01*
X191374623Y-104123373D01*
X191468872Y-104232143D01*
X191468873Y-104232144D01*
X191589942Y-104309950D01*
X191589947Y-104309953D01*
X191659247Y-104330301D01*
X191728035Y-104350499D01*
X191728036Y-104350499D01*
X191728039Y-104350500D01*
X191728041Y-104350500D01*
X191871959Y-104350500D01*
X191871961Y-104350500D01*
X192010053Y-104309953D01*
X192131128Y-104232143D01*
X192225377Y-104123373D01*
X192285165Y-103992457D01*
X192305647Y-103850000D01*
X192305647Y-103849997D01*
X192594353Y-103849997D01*
X192594353Y-103850002D01*
X192614834Y-103992456D01*
X192637191Y-104041410D01*
X192674623Y-104123373D01*
X192768872Y-104232143D01*
X192768873Y-104232144D01*
X192889942Y-104309950D01*
X192889947Y-104309953D01*
X192959247Y-104330301D01*
X193028035Y-104350499D01*
X193028036Y-104350499D01*
X193028039Y-104350500D01*
X193028041Y-104350500D01*
X193171959Y-104350500D01*
X193171961Y-104350500D01*
X193310053Y-104309953D01*
X193431128Y-104232143D01*
X193525377Y-104123373D01*
X193585165Y-103992457D01*
X193605647Y-103850000D01*
X193605647Y-103849997D01*
X193894353Y-103849997D01*
X193894353Y-103850002D01*
X193914834Y-103992456D01*
X193937191Y-104041410D01*
X193974623Y-104123373D01*
X194068872Y-104232143D01*
X194068873Y-104232144D01*
X194189942Y-104309950D01*
X194189947Y-104309953D01*
X194259247Y-104330301D01*
X194328035Y-104350499D01*
X194328036Y-104350499D01*
X194328039Y-104350500D01*
X194328041Y-104350500D01*
X194471959Y-104350500D01*
X194471961Y-104350500D01*
X194610053Y-104309953D01*
X194731128Y-104232143D01*
X194825377Y-104123373D01*
X194885165Y-103992457D01*
X194905647Y-103850000D01*
X194905647Y-103849997D01*
X195194353Y-103849997D01*
X195194353Y-103850002D01*
X195214834Y-103992456D01*
X195237191Y-104041410D01*
X195274623Y-104123373D01*
X195368872Y-104232143D01*
X195368873Y-104232144D01*
X195489942Y-104309950D01*
X195489947Y-104309953D01*
X195559247Y-104330301D01*
X195628035Y-104350499D01*
X195628036Y-104350499D01*
X195628039Y-104350500D01*
X195628041Y-104350500D01*
X195771959Y-104350500D01*
X195771961Y-104350500D01*
X195910053Y-104309953D01*
X196031128Y-104232143D01*
X196125377Y-104123373D01*
X196185165Y-103992457D01*
X196205647Y-103850000D01*
X196185165Y-103707543D01*
X196125377Y-103576627D01*
X196031128Y-103467857D01*
X196031127Y-103467856D01*
X196031126Y-103467855D01*
X195910057Y-103390049D01*
X195910054Y-103390047D01*
X195910053Y-103390047D01*
X195910050Y-103390046D01*
X195771964Y-103349500D01*
X195771961Y-103349500D01*
X195628039Y-103349500D01*
X195628035Y-103349500D01*
X195489949Y-103390046D01*
X195489942Y-103390049D01*
X195368873Y-103467855D01*
X195274622Y-103576628D01*
X195214834Y-103707543D01*
X195194353Y-103849997D01*
X194905647Y-103849997D01*
X194885165Y-103707543D01*
X194825377Y-103576627D01*
X194731128Y-103467857D01*
X194731127Y-103467856D01*
X194731126Y-103467855D01*
X194610057Y-103390049D01*
X194610054Y-103390047D01*
X194610053Y-103390047D01*
X194610050Y-103390046D01*
X194471964Y-103349500D01*
X194471961Y-103349500D01*
X194328039Y-103349500D01*
X194328035Y-103349500D01*
X194189949Y-103390046D01*
X194189942Y-103390049D01*
X194068873Y-103467855D01*
X193974622Y-103576628D01*
X193914834Y-103707543D01*
X193894353Y-103849997D01*
X193605647Y-103849997D01*
X193585165Y-103707543D01*
X193525377Y-103576627D01*
X193431128Y-103467857D01*
X193431127Y-103467856D01*
X193431126Y-103467855D01*
X193310057Y-103390049D01*
X193310054Y-103390047D01*
X193310053Y-103390047D01*
X193310050Y-103390046D01*
X193171964Y-103349500D01*
X193171961Y-103349500D01*
X193028039Y-103349500D01*
X193028035Y-103349500D01*
X192889949Y-103390046D01*
X192889942Y-103390049D01*
X192768873Y-103467855D01*
X192674622Y-103576628D01*
X192614834Y-103707543D01*
X192594353Y-103849997D01*
X192305647Y-103849997D01*
X192285165Y-103707543D01*
X192225377Y-103576627D01*
X192131128Y-103467857D01*
X192131127Y-103467856D01*
X192131126Y-103467855D01*
X192010057Y-103390049D01*
X192010054Y-103390047D01*
X192010053Y-103390047D01*
X192010050Y-103390046D01*
X191871964Y-103349500D01*
X191871961Y-103349500D01*
X191728039Y-103349500D01*
X191728035Y-103349500D01*
X191589949Y-103390046D01*
X191589942Y-103390049D01*
X191468873Y-103467855D01*
X191374622Y-103576628D01*
X191314834Y-103707543D01*
X191294353Y-103849997D01*
X191005647Y-103849997D01*
X190985165Y-103707543D01*
X190925377Y-103576627D01*
X190831128Y-103467857D01*
X190831127Y-103467856D01*
X190831126Y-103467855D01*
X190710057Y-103390049D01*
X190710054Y-103390047D01*
X190710053Y-103390047D01*
X190710050Y-103390046D01*
X190571964Y-103349500D01*
X190571961Y-103349500D01*
X190428039Y-103349500D01*
X190428035Y-103349500D01*
X190289949Y-103390046D01*
X190289942Y-103390049D01*
X190168873Y-103467855D01*
X190074622Y-103576628D01*
X190014834Y-103707543D01*
X189994353Y-103849997D01*
X189705647Y-103849997D01*
X189685165Y-103707543D01*
X189625377Y-103576627D01*
X189531128Y-103467857D01*
X189531127Y-103467856D01*
X189531126Y-103467855D01*
X189410057Y-103390049D01*
X189410054Y-103390047D01*
X189410053Y-103390047D01*
X189410050Y-103390046D01*
X189271964Y-103349500D01*
X189271961Y-103349500D01*
X189128039Y-103349500D01*
X189128035Y-103349500D01*
X188989949Y-103390046D01*
X188989942Y-103390049D01*
X188868873Y-103467855D01*
X188774622Y-103576628D01*
X188714834Y-103707543D01*
X188694353Y-103849997D01*
X188405647Y-103849997D01*
X188385165Y-103707543D01*
X188325377Y-103576627D01*
X188231128Y-103467857D01*
X188231127Y-103467856D01*
X188231126Y-103467855D01*
X188110057Y-103390049D01*
X188110054Y-103390047D01*
X188110053Y-103390047D01*
X188110050Y-103390046D01*
X187971964Y-103349500D01*
X187971961Y-103349500D01*
X187828039Y-103349500D01*
X187828035Y-103349500D01*
X187689949Y-103390046D01*
X187689942Y-103390049D01*
X187568873Y-103467855D01*
X187474622Y-103576628D01*
X187414834Y-103707543D01*
X187394353Y-103849997D01*
X187105647Y-103849997D01*
X187085165Y-103707543D01*
X187025377Y-103576627D01*
X186931128Y-103467857D01*
X186931127Y-103467856D01*
X186931126Y-103467855D01*
X186810057Y-103390049D01*
X186810054Y-103390047D01*
X186810053Y-103390047D01*
X186810050Y-103390046D01*
X186671964Y-103349500D01*
X186671961Y-103349500D01*
X186528039Y-103349500D01*
X186528035Y-103349500D01*
X186389949Y-103390046D01*
X186389942Y-103390049D01*
X186268873Y-103467855D01*
X186174622Y-103576628D01*
X186114834Y-103707543D01*
X186094353Y-103849997D01*
X185805647Y-103849997D01*
X185785165Y-103707543D01*
X185725377Y-103576627D01*
X185631128Y-103467857D01*
X185631127Y-103467856D01*
X185631126Y-103467855D01*
X185510057Y-103390049D01*
X185510054Y-103390047D01*
X185510053Y-103390047D01*
X185510050Y-103390046D01*
X185371964Y-103349500D01*
X185371961Y-103349500D01*
X185228039Y-103349500D01*
X185228035Y-103349500D01*
X185089949Y-103390046D01*
X185089942Y-103390049D01*
X184968873Y-103467855D01*
X184874622Y-103576628D01*
X184814834Y-103707543D01*
X184794353Y-103849997D01*
X179786507Y-103849997D01*
X179862558Y-103786183D01*
X180102412Y-103531953D01*
X180311130Y-103251596D01*
X180485889Y-102948904D01*
X180624326Y-102627971D01*
X180724569Y-102293136D01*
X180742788Y-102189808D01*
X180771512Y-102135786D01*
X180826505Y-102108964D01*
X180840284Y-102108000D01*
X184714895Y-102108000D01*
X184773086Y-102126907D01*
G37*
%TD.AperFunction*%
%TD*%
%TA.AperFunction,Conductor*%
%TO.N,+12V*%
G36*
X214858691Y-89919407D02*
G01*
X214894655Y-89968907D01*
X214899500Y-89999500D01*
X214899500Y-95173785D01*
X214880593Y-95231976D01*
X214831093Y-95267940D01*
X214769907Y-95267940D01*
X214720407Y-95231976D01*
X214713190Y-95220454D01*
X214648805Y-95100000D01*
X214642685Y-95088550D01*
X214511410Y-94928590D01*
X214476569Y-94899997D01*
X214351452Y-94797316D01*
X214168954Y-94699768D01*
X213970934Y-94639699D01*
X213970929Y-94639698D01*
X213765003Y-94619417D01*
X213764997Y-94619417D01*
X213559070Y-94639698D01*
X213559065Y-94639699D01*
X213361045Y-94699768D01*
X213178547Y-94797316D01*
X213018595Y-94928585D01*
X213018585Y-94928595D01*
X212887316Y-95088547D01*
X212789768Y-95271045D01*
X212729699Y-95469065D01*
X212729698Y-95469070D01*
X212709417Y-95674996D01*
X212709417Y-95675003D01*
X212729698Y-95880929D01*
X212729699Y-95880934D01*
X212789768Y-96078954D01*
X212887316Y-96261452D01*
X212966176Y-96357543D01*
X213018590Y-96421410D01*
X213018595Y-96421414D01*
X213178547Y-96552683D01*
X213178548Y-96552683D01*
X213178550Y-96552685D01*
X213361046Y-96650232D01*
X213498997Y-96692078D01*
X213559065Y-96710300D01*
X213559070Y-96710301D01*
X213764997Y-96730583D01*
X213765000Y-96730583D01*
X213765003Y-96730583D01*
X213970929Y-96710301D01*
X213970934Y-96710300D01*
X214168954Y-96650232D01*
X214351450Y-96552685D01*
X214511410Y-96421410D01*
X214642685Y-96261450D01*
X214713190Y-96129544D01*
X214757296Y-96087139D01*
X214817904Y-96078756D01*
X214871865Y-96107599D01*
X214898566Y-96162650D01*
X214899500Y-96176214D01*
X214899500Y-97713785D01*
X214880593Y-97771976D01*
X214831093Y-97807940D01*
X214769907Y-97807940D01*
X214720407Y-97771976D01*
X214713190Y-97760454D01*
X214642683Y-97628547D01*
X214511414Y-97468595D01*
X214511410Y-97468590D01*
X214428442Y-97400500D01*
X214351452Y-97337316D01*
X214168954Y-97239768D01*
X213970934Y-97179699D01*
X213970929Y-97179698D01*
X213765003Y-97159417D01*
X213764997Y-97159417D01*
X213559070Y-97179698D01*
X213559065Y-97179699D01*
X213361045Y-97239768D01*
X213178547Y-97337316D01*
X213018595Y-97468585D01*
X213018585Y-97468595D01*
X212887316Y-97628547D01*
X212789768Y-97811045D01*
X212729699Y-98009065D01*
X212729698Y-98009070D01*
X212709417Y-98214996D01*
X212709417Y-98215003D01*
X212729698Y-98420929D01*
X212729699Y-98420934D01*
X212789768Y-98618954D01*
X212887316Y-98801452D01*
X212926748Y-98849500D01*
X213018590Y-98961410D01*
X213018595Y-98961414D01*
X213178547Y-99092683D01*
X213178548Y-99092683D01*
X213178550Y-99092685D01*
X213361046Y-99190232D01*
X213498997Y-99232078D01*
X213559065Y-99250300D01*
X213559070Y-99250301D01*
X213764997Y-99270583D01*
X213765000Y-99270583D01*
X213765003Y-99270583D01*
X213970929Y-99250301D01*
X213970934Y-99250300D01*
X214168954Y-99190232D01*
X214351450Y-99092685D01*
X214511410Y-98961410D01*
X214642685Y-98801450D01*
X214713190Y-98669544D01*
X214757296Y-98627139D01*
X214817904Y-98618756D01*
X214871865Y-98647599D01*
X214898566Y-98702650D01*
X214899500Y-98716214D01*
X214899500Y-100253785D01*
X214880593Y-100311976D01*
X214831093Y-100347940D01*
X214769907Y-100347940D01*
X214720407Y-100311976D01*
X214713190Y-100300454D01*
X214642683Y-100168547D01*
X214511414Y-100008595D01*
X214511410Y-100008590D01*
X214438073Y-99948404D01*
X214351452Y-99877316D01*
X214168954Y-99779768D01*
X213970934Y-99719699D01*
X213970929Y-99719698D01*
X213765003Y-99699417D01*
X213764997Y-99699417D01*
X213559070Y-99719698D01*
X213559065Y-99719699D01*
X213361045Y-99779768D01*
X213178547Y-99877316D01*
X213018595Y-100008585D01*
X213018585Y-100008595D01*
X212887316Y-100168547D01*
X212789768Y-100351045D01*
X212729699Y-100549065D01*
X212729698Y-100549070D01*
X212709417Y-100754996D01*
X212709417Y-100755003D01*
X212729698Y-100960929D01*
X212729699Y-100960934D01*
X212789768Y-101158954D01*
X212887316Y-101341452D01*
X213018585Y-101501404D01*
X213018590Y-101501410D01*
X213018595Y-101501414D01*
X213178547Y-101632683D01*
X213178548Y-101632683D01*
X213178550Y-101632685D01*
X213334776Y-101716190D01*
X213377182Y-101760296D01*
X213385565Y-101820904D01*
X213356722Y-101874865D01*
X213301671Y-101901566D01*
X213288107Y-101902500D01*
X211701893Y-101902500D01*
X211643702Y-101883593D01*
X211607738Y-101834093D01*
X211607738Y-101772907D01*
X211643702Y-101723407D01*
X211655221Y-101716191D01*
X211811450Y-101632685D01*
X211971410Y-101501410D01*
X212102685Y-101341450D01*
X212200232Y-101158954D01*
X212260300Y-100960934D01*
X212260301Y-100960929D01*
X212280583Y-100755003D01*
X212280583Y-100754996D01*
X212260301Y-100549070D01*
X212260300Y-100549065D01*
X212235666Y-100467857D01*
X212200232Y-100351046D01*
X212102685Y-100168550D01*
X211971410Y-100008590D01*
X211898073Y-99948404D01*
X211811452Y-99877316D01*
X211628954Y-99779768D01*
X211430934Y-99719699D01*
X211430929Y-99719698D01*
X211225003Y-99699417D01*
X211224997Y-99699417D01*
X211019070Y-99719698D01*
X211019065Y-99719699D01*
X210821045Y-99779768D01*
X210638547Y-99877316D01*
X210478595Y-100008585D01*
X210478585Y-100008595D01*
X210347316Y-100168547D01*
X210249768Y-100351045D01*
X210189699Y-100549065D01*
X210189698Y-100549070D01*
X210169417Y-100754996D01*
X210169417Y-100755003D01*
X210189698Y-100960929D01*
X210189699Y-100960934D01*
X210249768Y-101158954D01*
X210347316Y-101341452D01*
X210478585Y-101501404D01*
X210478590Y-101501410D01*
X210478595Y-101501414D01*
X210638547Y-101632683D01*
X210638548Y-101632683D01*
X210638550Y-101632685D01*
X210794776Y-101716190D01*
X210837182Y-101760296D01*
X210845565Y-101820904D01*
X210816722Y-101874865D01*
X210761671Y-101901566D01*
X210748107Y-101902500D01*
X208225249Y-101902500D01*
X208215869Y-101902768D01*
X208213520Y-101902835D01*
X208202231Y-101903480D01*
X208128601Y-101921714D01*
X208128592Y-101921717D01*
X208072939Y-101947133D01*
X208040932Y-101965380D01*
X208040928Y-101965384D01*
X208001380Y-102008830D01*
X207948226Y-102039134D01*
X207900279Y-102037177D01*
X207771964Y-101999500D01*
X207771961Y-101999500D01*
X207628039Y-101999500D01*
X207628035Y-101999500D01*
X207502087Y-102036482D01*
X207440927Y-102034734D01*
X207399644Y-102006630D01*
X207374956Y-101978374D01*
X207374955Y-101978373D01*
X207374954Y-101978372D01*
X207296444Y-101931464D01*
X207296442Y-101931463D01*
X207296440Y-101931462D01*
X207238250Y-101912556D01*
X207238251Y-101912556D01*
X207174754Y-101902500D01*
X207174751Y-101902500D01*
X206292899Y-101902500D01*
X206234708Y-101883593D01*
X206198744Y-101834093D01*
X206194067Y-101797743D01*
X206205585Y-101600008D01*
X206205585Y-101600007D01*
X206205585Y-101599999D01*
X206185262Y-101251073D01*
X206124569Y-100906864D01*
X206122513Y-100899997D01*
X208794353Y-100899997D01*
X208794353Y-100900002D01*
X208814834Y-101042456D01*
X208868038Y-101158954D01*
X208874623Y-101173373D01*
X208941950Y-101251073D01*
X208968873Y-101282144D01*
X209089942Y-101359950D01*
X209089947Y-101359953D01*
X209196403Y-101391211D01*
X209228035Y-101400499D01*
X209228036Y-101400499D01*
X209228039Y-101400500D01*
X209228041Y-101400500D01*
X209371959Y-101400500D01*
X209371961Y-101400500D01*
X209510053Y-101359953D01*
X209631128Y-101282143D01*
X209725377Y-101173373D01*
X209785165Y-101042457D01*
X209805647Y-100900000D01*
X209798458Y-100850002D01*
X209785165Y-100757543D01*
X209784002Y-100754996D01*
X209725377Y-100626627D01*
X209631128Y-100517857D01*
X209631127Y-100517856D01*
X209631126Y-100517855D01*
X209510057Y-100440049D01*
X209510054Y-100440047D01*
X209510053Y-100440047D01*
X209510050Y-100440046D01*
X209371964Y-100399500D01*
X209371961Y-100399500D01*
X209228039Y-100399500D01*
X209228035Y-100399500D01*
X209089949Y-100440046D01*
X209089942Y-100440049D01*
X208968873Y-100517855D01*
X208874622Y-100626628D01*
X208814834Y-100757543D01*
X208794353Y-100899997D01*
X206122513Y-100899997D01*
X206024326Y-100572029D01*
X205885889Y-100251096D01*
X205711130Y-99948404D01*
X205502412Y-99668047D01*
X205262558Y-99413817D01*
X204994811Y-99189151D01*
X204823729Y-99076628D01*
X204702794Y-98997087D01*
X204390453Y-98840224D01*
X204390452Y-98840223D01*
X204390451Y-98840223D01*
X204062011Y-98720681D01*
X204062012Y-98720681D01*
X204062006Y-98720679D01*
X203721924Y-98640078D01*
X203609089Y-98626889D01*
X203374759Y-98599500D01*
X203025241Y-98599500D01*
X202860497Y-98618756D01*
X202678075Y-98640078D01*
X202337993Y-98720679D01*
X202141191Y-98792309D01*
X202009549Y-98840223D01*
X202009548Y-98840223D01*
X202009546Y-98840224D01*
X201697205Y-98997087D01*
X201405190Y-99189150D01*
X201137443Y-99413815D01*
X200897591Y-99668043D01*
X200688871Y-99948402D01*
X200688869Y-99948405D01*
X200514111Y-100251095D01*
X200514108Y-100251102D01*
X200375674Y-100572027D01*
X200375672Y-100572034D01*
X200275430Y-100906865D01*
X200275430Y-100906866D01*
X200214738Y-101251070D01*
X200208396Y-101359953D01*
X200194415Y-101600000D01*
X200196318Y-101632683D01*
X200205932Y-101797744D01*
X200190439Y-101856936D01*
X200143114Y-101895717D01*
X200107099Y-101902500D01*
X196285105Y-101902500D01*
X196238562Y-101907840D01*
X196238561Y-101907840D01*
X196238554Y-101907841D01*
X196194880Y-101917997D01*
X196176325Y-101923240D01*
X196176322Y-101923242D01*
X196118991Y-101958134D01*
X196059453Y-101972236D01*
X196014000Y-101956849D01*
X195910053Y-101890047D01*
X195910050Y-101890046D01*
X195771964Y-101849500D01*
X195771961Y-101849500D01*
X195628039Y-101849500D01*
X195628035Y-101849500D01*
X195489949Y-101890046D01*
X195489942Y-101890049D01*
X195386108Y-101956779D01*
X195326933Y-101972334D01*
X195281809Y-101958482D01*
X195255620Y-101942835D01*
X195236588Y-101931464D01*
X195236586Y-101931463D01*
X195236584Y-101931462D01*
X195178394Y-101912556D01*
X195178395Y-101912556D01*
X195114898Y-101902500D01*
X195114895Y-101902500D01*
X194985105Y-101902500D01*
X194938562Y-101907840D01*
X194938561Y-101907840D01*
X194938554Y-101907841D01*
X194894880Y-101917997D01*
X194876325Y-101923240D01*
X194876324Y-101923241D01*
X194818989Y-101958135D01*
X194759451Y-101972236D01*
X194713998Y-101956849D01*
X194610057Y-101890050D01*
X194610054Y-101890048D01*
X194610053Y-101890048D01*
X194610050Y-101890047D01*
X194471964Y-101849501D01*
X194471961Y-101849501D01*
X194328039Y-101849501D01*
X194328035Y-101849501D01*
X194189949Y-101890047D01*
X194189942Y-101890050D01*
X194086108Y-101956780D01*
X194026933Y-101972335D01*
X193981809Y-101958482D01*
X193936588Y-101931464D01*
X193936586Y-101931463D01*
X193936584Y-101931462D01*
X193878394Y-101912556D01*
X193878395Y-101912556D01*
X193814898Y-101902500D01*
X193814895Y-101902500D01*
X193685106Y-101902500D01*
X193638563Y-101907840D01*
X193638562Y-101907840D01*
X193638555Y-101907841D01*
X193594881Y-101917997D01*
X193576326Y-101923240D01*
X193576323Y-101923242D01*
X193518992Y-101958134D01*
X193459454Y-101972236D01*
X193414001Y-101956849D01*
X193310054Y-101890047D01*
X193310051Y-101890046D01*
X193171965Y-101849500D01*
X193171962Y-101849500D01*
X193028040Y-101849500D01*
X193028036Y-101849500D01*
X192889950Y-101890046D01*
X192889943Y-101890049D01*
X192786109Y-101956779D01*
X192726934Y-101972334D01*
X192681810Y-101958482D01*
X192655621Y-101942835D01*
X192636589Y-101931464D01*
X192636587Y-101931463D01*
X192636585Y-101931462D01*
X192578395Y-101912556D01*
X192578396Y-101912556D01*
X192514899Y-101902500D01*
X192514896Y-101902500D01*
X192385105Y-101902500D01*
X192338562Y-101907840D01*
X192338561Y-101907840D01*
X192338554Y-101907841D01*
X192294880Y-101917997D01*
X192276325Y-101923240D01*
X192276322Y-101923242D01*
X192218991Y-101958134D01*
X192159453Y-101972236D01*
X192114000Y-101956849D01*
X192010053Y-101890047D01*
X192010050Y-101890046D01*
X191871964Y-101849500D01*
X191871961Y-101849500D01*
X191728039Y-101849500D01*
X191728035Y-101849500D01*
X191589949Y-101890046D01*
X191589942Y-101890049D01*
X191486108Y-101956779D01*
X191426933Y-101972334D01*
X191381809Y-101958482D01*
X191355620Y-101942835D01*
X191336588Y-101931464D01*
X191336586Y-101931463D01*
X191336584Y-101931462D01*
X191278394Y-101912556D01*
X191278395Y-101912556D01*
X191214898Y-101902500D01*
X191214895Y-101902500D01*
X191085105Y-101902500D01*
X191038562Y-101907840D01*
X191038561Y-101907840D01*
X191038554Y-101907841D01*
X190994880Y-101917997D01*
X190976325Y-101923240D01*
X190976322Y-101923242D01*
X190918991Y-101958134D01*
X190859453Y-101972236D01*
X190814000Y-101956849D01*
X190710053Y-101890047D01*
X190710050Y-101890046D01*
X190571964Y-101849500D01*
X190571961Y-101849500D01*
X190428039Y-101849500D01*
X190428035Y-101849500D01*
X190289949Y-101890046D01*
X190289942Y-101890049D01*
X190186108Y-101956779D01*
X190126933Y-101972334D01*
X190081809Y-101958482D01*
X190055620Y-101942835D01*
X190036588Y-101931464D01*
X190036586Y-101931463D01*
X190036584Y-101931462D01*
X189978394Y-101912556D01*
X189978395Y-101912556D01*
X189914898Y-101902500D01*
X189914895Y-101902500D01*
X189785105Y-101902500D01*
X189738562Y-101907840D01*
X189738561Y-101907840D01*
X189738554Y-101907841D01*
X189694880Y-101917997D01*
X189676325Y-101923240D01*
X189676322Y-101923242D01*
X189618991Y-101958134D01*
X189559453Y-101972236D01*
X189514000Y-101956849D01*
X189410053Y-101890047D01*
X189410050Y-101890046D01*
X189271964Y-101849500D01*
X189271961Y-101849500D01*
X189128039Y-101849500D01*
X189128035Y-101849500D01*
X188989949Y-101890046D01*
X188989942Y-101890049D01*
X188886108Y-101956779D01*
X188826933Y-101972334D01*
X188781809Y-101958482D01*
X188755620Y-101942835D01*
X188736588Y-101931464D01*
X188736586Y-101931463D01*
X188736584Y-101931462D01*
X188678394Y-101912556D01*
X188678395Y-101912556D01*
X188614898Y-101902500D01*
X188614895Y-101902500D01*
X188485104Y-101902500D01*
X188438561Y-101907840D01*
X188438560Y-101907840D01*
X188438553Y-101907841D01*
X188394879Y-101917997D01*
X188376324Y-101923240D01*
X188376321Y-101923242D01*
X188318990Y-101958134D01*
X188259452Y-101972236D01*
X188213999Y-101956849D01*
X188110052Y-101890047D01*
X188110049Y-101890046D01*
X187971963Y-101849500D01*
X187971960Y-101849500D01*
X187828038Y-101849500D01*
X187828034Y-101849500D01*
X187689948Y-101890046D01*
X187689941Y-101890049D01*
X187586107Y-101956779D01*
X187526932Y-101972334D01*
X187481808Y-101958482D01*
X187455619Y-101942835D01*
X187436587Y-101931464D01*
X187436585Y-101931463D01*
X187436583Y-101931462D01*
X187378393Y-101912556D01*
X187378394Y-101912556D01*
X187314897Y-101902500D01*
X187314894Y-101902500D01*
X187185105Y-101902500D01*
X187138562Y-101907840D01*
X187138561Y-101907840D01*
X187138554Y-101907841D01*
X187094880Y-101917997D01*
X187076325Y-101923240D01*
X187076324Y-101923241D01*
X187018989Y-101958135D01*
X186959451Y-101972236D01*
X186913998Y-101956849D01*
X186810057Y-101890050D01*
X186810054Y-101890048D01*
X186810053Y-101890048D01*
X186810050Y-101890047D01*
X186671964Y-101849501D01*
X186671961Y-101849501D01*
X186528039Y-101849501D01*
X186528035Y-101849501D01*
X186389949Y-101890047D01*
X186389942Y-101890050D01*
X186286108Y-101956780D01*
X186226933Y-101972335D01*
X186181809Y-101958482D01*
X186136588Y-101931464D01*
X186136586Y-101931463D01*
X186136584Y-101931462D01*
X186078394Y-101912556D01*
X186078395Y-101912556D01*
X186014898Y-101902500D01*
X186014895Y-101902500D01*
X185885105Y-101902500D01*
X185838562Y-101907840D01*
X185838561Y-101907840D01*
X185838554Y-101907841D01*
X185794880Y-101917997D01*
X185776325Y-101923240D01*
X185776322Y-101923242D01*
X185718991Y-101958134D01*
X185659453Y-101972236D01*
X185614000Y-101956849D01*
X185510053Y-101890047D01*
X185510050Y-101890046D01*
X185371964Y-101849500D01*
X185371961Y-101849500D01*
X185228039Y-101849500D01*
X185228035Y-101849500D01*
X185089949Y-101890046D01*
X185089942Y-101890049D01*
X184986108Y-101956779D01*
X184926933Y-101972334D01*
X184881809Y-101958482D01*
X184855620Y-101942835D01*
X184836588Y-101931464D01*
X184836586Y-101931463D01*
X184836584Y-101931462D01*
X184778394Y-101912556D01*
X184778395Y-101912556D01*
X184714898Y-101902500D01*
X184714895Y-101902500D01*
X182699500Y-101902500D01*
X182641309Y-101883593D01*
X182605345Y-101834093D01*
X182600500Y-101803500D01*
X182600500Y-100849997D01*
X184794353Y-100849997D01*
X184794353Y-100850002D01*
X184814834Y-100992456D01*
X184837669Y-101042456D01*
X184874623Y-101123373D01*
X184917948Y-101173373D01*
X184968873Y-101232144D01*
X185089942Y-101309950D01*
X185089947Y-101309953D01*
X185196403Y-101341211D01*
X185228035Y-101350499D01*
X185228036Y-101350499D01*
X185228039Y-101350500D01*
X185228041Y-101350500D01*
X185371959Y-101350500D01*
X185371961Y-101350500D01*
X185510053Y-101309953D01*
X185631128Y-101232143D01*
X185725377Y-101123373D01*
X185785165Y-100992457D01*
X185805647Y-100850000D01*
X185805646Y-100849996D01*
X186094353Y-100849996D01*
X186094353Y-100850001D01*
X186114834Y-100992455D01*
X186114835Y-100992457D01*
X186174623Y-101123372D01*
X186217947Y-101173371D01*
X186268873Y-101232143D01*
X186389942Y-101309949D01*
X186389947Y-101309952D01*
X186496403Y-101341210D01*
X186528035Y-101350498D01*
X186528036Y-101350498D01*
X186528039Y-101350499D01*
X186528041Y-101350499D01*
X186671959Y-101350499D01*
X186671961Y-101350499D01*
X186810053Y-101309952D01*
X186931128Y-101232142D01*
X187025377Y-101123372D01*
X187085165Y-100992456D01*
X187098458Y-100900000D01*
X187105647Y-100850001D01*
X187105647Y-100849997D01*
X187394352Y-100849997D01*
X187394352Y-100850002D01*
X187414833Y-100992456D01*
X187437668Y-101042456D01*
X187474622Y-101123373D01*
X187517947Y-101173373D01*
X187568872Y-101232144D01*
X187689941Y-101309950D01*
X187689946Y-101309953D01*
X187796402Y-101341211D01*
X187828034Y-101350499D01*
X187828035Y-101350499D01*
X187828038Y-101350500D01*
X187828040Y-101350500D01*
X187971958Y-101350500D01*
X187971960Y-101350500D01*
X188110052Y-101309953D01*
X188231127Y-101232143D01*
X188325376Y-101123373D01*
X188385164Y-100992457D01*
X188405646Y-100850000D01*
X188405645Y-100849997D01*
X188694353Y-100849997D01*
X188694353Y-100850002D01*
X188714834Y-100992456D01*
X188737669Y-101042456D01*
X188774623Y-101123373D01*
X188817948Y-101173373D01*
X188868873Y-101232144D01*
X188989942Y-101309950D01*
X188989947Y-101309953D01*
X189096403Y-101341211D01*
X189128035Y-101350499D01*
X189128036Y-101350499D01*
X189128039Y-101350500D01*
X189128041Y-101350500D01*
X189271959Y-101350500D01*
X189271961Y-101350500D01*
X189410053Y-101309953D01*
X189531128Y-101232143D01*
X189625377Y-101123373D01*
X189685165Y-100992457D01*
X189705647Y-100850000D01*
X189705646Y-100849997D01*
X189994353Y-100849997D01*
X189994353Y-100850002D01*
X190014834Y-100992456D01*
X190037669Y-101042456D01*
X190074623Y-101123373D01*
X190117948Y-101173373D01*
X190168873Y-101232144D01*
X190289942Y-101309950D01*
X190289947Y-101309953D01*
X190396403Y-101341211D01*
X190428035Y-101350499D01*
X190428036Y-101350499D01*
X190428039Y-101350500D01*
X190428041Y-101350500D01*
X190571959Y-101350500D01*
X190571961Y-101350500D01*
X190710053Y-101309953D01*
X190831128Y-101232143D01*
X190925377Y-101123373D01*
X190985165Y-100992457D01*
X191005647Y-100850000D01*
X191005646Y-100849997D01*
X191294353Y-100849997D01*
X191294353Y-100850002D01*
X191314834Y-100992456D01*
X191337669Y-101042456D01*
X191374623Y-101123373D01*
X191417948Y-101173373D01*
X191468873Y-101232144D01*
X191589942Y-101309950D01*
X191589947Y-101309953D01*
X191696403Y-101341211D01*
X191728035Y-101350499D01*
X191728036Y-101350499D01*
X191728039Y-101350500D01*
X191728041Y-101350500D01*
X191871959Y-101350500D01*
X191871961Y-101350500D01*
X192010053Y-101309953D01*
X192131128Y-101232143D01*
X192225377Y-101123373D01*
X192285165Y-100992457D01*
X192305647Y-100850000D01*
X192305646Y-100849997D01*
X192594354Y-100849997D01*
X192594354Y-100850002D01*
X192614835Y-100992456D01*
X192637670Y-101042456D01*
X192674624Y-101123373D01*
X192717949Y-101173373D01*
X192768874Y-101232144D01*
X192889943Y-101309950D01*
X192889948Y-101309953D01*
X192996404Y-101341211D01*
X193028036Y-101350499D01*
X193028037Y-101350499D01*
X193028040Y-101350500D01*
X193028042Y-101350500D01*
X193171960Y-101350500D01*
X193171962Y-101350500D01*
X193310054Y-101309953D01*
X193431129Y-101232143D01*
X193525378Y-101123373D01*
X193585166Y-100992457D01*
X193605648Y-100850000D01*
X193605647Y-100849996D01*
X193894353Y-100849996D01*
X193894353Y-100850001D01*
X193914834Y-100992455D01*
X193914835Y-100992457D01*
X193974623Y-101123372D01*
X194017947Y-101173371D01*
X194068873Y-101232143D01*
X194189942Y-101309949D01*
X194189947Y-101309952D01*
X194296403Y-101341210D01*
X194328035Y-101350498D01*
X194328036Y-101350498D01*
X194328039Y-101350499D01*
X194328041Y-101350499D01*
X194471959Y-101350499D01*
X194471961Y-101350499D01*
X194610053Y-101309952D01*
X194731128Y-101232142D01*
X194825377Y-101123372D01*
X194885165Y-100992456D01*
X194898458Y-100900000D01*
X194905647Y-100850001D01*
X194905647Y-100849997D01*
X195194353Y-100849997D01*
X195194353Y-100850002D01*
X195214834Y-100992456D01*
X195237669Y-101042456D01*
X195274623Y-101123373D01*
X195317948Y-101173373D01*
X195368873Y-101232144D01*
X195489942Y-101309950D01*
X195489947Y-101309953D01*
X195596403Y-101341211D01*
X195628035Y-101350499D01*
X195628036Y-101350499D01*
X195628039Y-101350500D01*
X195628041Y-101350500D01*
X195771959Y-101350500D01*
X195771961Y-101350500D01*
X195910053Y-101309953D01*
X196031128Y-101232143D01*
X196125377Y-101123373D01*
X196185165Y-100992457D01*
X196205647Y-100850000D01*
X196205646Y-100849996D01*
X196185165Y-100707543D01*
X196125377Y-100576628D01*
X196125377Y-100576627D01*
X196031128Y-100467857D01*
X196031127Y-100467856D01*
X196031126Y-100467855D01*
X195910057Y-100390049D01*
X195910054Y-100390047D01*
X195910053Y-100390047D01*
X195910050Y-100390046D01*
X195771964Y-100349500D01*
X195771961Y-100349500D01*
X195628039Y-100349500D01*
X195628035Y-100349500D01*
X195489949Y-100390046D01*
X195489942Y-100390049D01*
X195368873Y-100467855D01*
X195274622Y-100576628D01*
X195214834Y-100707543D01*
X195194353Y-100849997D01*
X194905647Y-100849997D01*
X194905647Y-100849996D01*
X194885165Y-100707542D01*
X194848212Y-100626627D01*
X194825377Y-100576626D01*
X194731128Y-100467856D01*
X194731127Y-100467855D01*
X194731126Y-100467854D01*
X194610057Y-100390048D01*
X194610054Y-100390046D01*
X194610053Y-100390046D01*
X194610050Y-100390045D01*
X194471964Y-100349499D01*
X194471961Y-100349499D01*
X194328039Y-100349499D01*
X194328035Y-100349499D01*
X194189949Y-100390045D01*
X194189942Y-100390048D01*
X194068873Y-100467854D01*
X193974622Y-100576627D01*
X193914834Y-100707542D01*
X193894353Y-100849996D01*
X193605647Y-100849996D01*
X193585166Y-100707543D01*
X193525378Y-100576628D01*
X193525378Y-100576627D01*
X193431129Y-100467857D01*
X193431128Y-100467856D01*
X193431127Y-100467855D01*
X193310058Y-100390049D01*
X193310055Y-100390047D01*
X193310054Y-100390047D01*
X193310051Y-100390046D01*
X193171965Y-100349500D01*
X193171962Y-100349500D01*
X193028040Y-100349500D01*
X193028036Y-100349500D01*
X192889950Y-100390046D01*
X192889943Y-100390049D01*
X192768874Y-100467855D01*
X192674623Y-100576628D01*
X192614835Y-100707543D01*
X192594354Y-100849997D01*
X192305646Y-100849997D01*
X192305646Y-100849996D01*
X192285165Y-100707543D01*
X192225377Y-100576628D01*
X192225377Y-100576627D01*
X192131128Y-100467857D01*
X192131127Y-100467856D01*
X192131126Y-100467855D01*
X192010057Y-100390049D01*
X192010054Y-100390047D01*
X192010053Y-100390047D01*
X192010050Y-100390046D01*
X191871964Y-100349500D01*
X191871961Y-100349500D01*
X191728039Y-100349500D01*
X191728035Y-100349500D01*
X191589949Y-100390046D01*
X191589942Y-100390049D01*
X191468873Y-100467855D01*
X191374622Y-100576628D01*
X191314834Y-100707543D01*
X191294353Y-100849997D01*
X191005646Y-100849997D01*
X191005646Y-100849996D01*
X190985165Y-100707543D01*
X190925377Y-100576628D01*
X190925377Y-100576627D01*
X190831128Y-100467857D01*
X190831127Y-100467856D01*
X190831126Y-100467855D01*
X190710057Y-100390049D01*
X190710054Y-100390047D01*
X190710053Y-100390047D01*
X190710050Y-100390046D01*
X190571964Y-100349500D01*
X190571961Y-100349500D01*
X190428039Y-100349500D01*
X190428035Y-100349500D01*
X190289949Y-100390046D01*
X190289942Y-100390049D01*
X190168873Y-100467855D01*
X190074622Y-100576628D01*
X190014834Y-100707543D01*
X189994353Y-100849997D01*
X189705646Y-100849997D01*
X189705646Y-100849996D01*
X189685165Y-100707543D01*
X189625377Y-100576628D01*
X189625377Y-100576627D01*
X189531128Y-100467857D01*
X189531127Y-100467856D01*
X189531126Y-100467855D01*
X189410057Y-100390049D01*
X189410054Y-100390047D01*
X189410053Y-100390047D01*
X189410050Y-100390046D01*
X189271964Y-100349500D01*
X189271961Y-100349500D01*
X189128039Y-100349500D01*
X189128035Y-100349500D01*
X188989949Y-100390046D01*
X188989942Y-100390049D01*
X188868873Y-100467855D01*
X188774622Y-100576628D01*
X188714834Y-100707543D01*
X188694353Y-100849997D01*
X188405645Y-100849997D01*
X188405645Y-100849996D01*
X188385164Y-100707543D01*
X188325376Y-100576628D01*
X188325376Y-100576627D01*
X188231127Y-100467857D01*
X188231126Y-100467856D01*
X188231125Y-100467855D01*
X188110056Y-100390049D01*
X188110053Y-100390047D01*
X188110052Y-100390047D01*
X188110049Y-100390046D01*
X187971963Y-100349500D01*
X187971960Y-100349500D01*
X187828038Y-100349500D01*
X187828034Y-100349500D01*
X187689948Y-100390046D01*
X187689941Y-100390049D01*
X187568872Y-100467855D01*
X187474621Y-100576628D01*
X187414833Y-100707543D01*
X187394352Y-100849997D01*
X187105647Y-100849997D01*
X187105647Y-100849996D01*
X187085165Y-100707542D01*
X187048212Y-100626627D01*
X187025377Y-100576626D01*
X186931128Y-100467856D01*
X186931127Y-100467855D01*
X186931126Y-100467854D01*
X186810057Y-100390048D01*
X186810054Y-100390046D01*
X186810053Y-100390046D01*
X186810050Y-100390045D01*
X186671964Y-100349499D01*
X186671961Y-100349499D01*
X186528039Y-100349499D01*
X186528035Y-100349499D01*
X186389949Y-100390045D01*
X186389942Y-100390048D01*
X186268873Y-100467854D01*
X186174622Y-100576627D01*
X186114834Y-100707542D01*
X186094353Y-100849996D01*
X185805646Y-100849996D01*
X185785165Y-100707543D01*
X185725377Y-100576628D01*
X185725377Y-100576627D01*
X185631128Y-100467857D01*
X185631127Y-100467856D01*
X185631126Y-100467855D01*
X185510057Y-100390049D01*
X185510054Y-100390047D01*
X185510053Y-100390047D01*
X185510050Y-100390046D01*
X185371964Y-100349500D01*
X185371961Y-100349500D01*
X185228039Y-100349500D01*
X185228035Y-100349500D01*
X185089949Y-100390046D01*
X185089942Y-100390049D01*
X184968873Y-100467855D01*
X184874622Y-100576628D01*
X184814834Y-100707543D01*
X184794353Y-100849997D01*
X182600500Y-100849997D01*
X182600500Y-99349997D01*
X184794353Y-99349997D01*
X184794353Y-99350002D01*
X184814834Y-99492456D01*
X184874622Y-99623371D01*
X184874623Y-99623373D01*
X184958089Y-99719699D01*
X184968873Y-99732144D01*
X185042978Y-99779768D01*
X185089947Y-99809953D01*
X185196403Y-99841211D01*
X185228035Y-99850499D01*
X185228036Y-99850499D01*
X185228039Y-99850500D01*
X185228041Y-99850500D01*
X185371959Y-99850500D01*
X185371961Y-99850500D01*
X185510053Y-99809953D01*
X185631128Y-99732143D01*
X185725377Y-99623373D01*
X185785165Y-99492457D01*
X185805647Y-99350000D01*
X185805647Y-99349997D01*
X186094353Y-99349997D01*
X186094353Y-99350002D01*
X186114834Y-99492456D01*
X186174622Y-99623371D01*
X186174623Y-99623373D01*
X186258089Y-99719699D01*
X186268873Y-99732144D01*
X186342978Y-99779768D01*
X186389947Y-99809953D01*
X186496403Y-99841211D01*
X186528035Y-99850499D01*
X186528036Y-99850499D01*
X186528039Y-99850500D01*
X186528041Y-99850500D01*
X186671959Y-99850500D01*
X186671961Y-99850500D01*
X186810053Y-99809953D01*
X186931128Y-99732143D01*
X187025377Y-99623373D01*
X187085165Y-99492457D01*
X187105647Y-99350000D01*
X187105647Y-99349997D01*
X187394353Y-99349997D01*
X187394353Y-99350002D01*
X187414834Y-99492456D01*
X187474622Y-99623371D01*
X187474623Y-99623373D01*
X187558089Y-99719699D01*
X187568873Y-99732144D01*
X187642978Y-99779768D01*
X187689947Y-99809953D01*
X187796403Y-99841211D01*
X187828035Y-99850499D01*
X187828036Y-99850499D01*
X187828039Y-99850500D01*
X187828041Y-99850500D01*
X187971959Y-99850500D01*
X187971961Y-99850500D01*
X188110053Y-99809953D01*
X188231128Y-99732143D01*
X188325377Y-99623373D01*
X188385165Y-99492457D01*
X188405647Y-99350000D01*
X188405647Y-99349997D01*
X188694353Y-99349997D01*
X188694353Y-99350002D01*
X188714834Y-99492456D01*
X188774622Y-99623371D01*
X188774623Y-99623373D01*
X188858089Y-99719699D01*
X188868873Y-99732144D01*
X188942978Y-99779768D01*
X188989947Y-99809953D01*
X189096403Y-99841211D01*
X189128035Y-99850499D01*
X189128036Y-99850499D01*
X189128039Y-99850500D01*
X189128041Y-99850500D01*
X189271959Y-99850500D01*
X189271961Y-99850500D01*
X189410053Y-99809953D01*
X189531128Y-99732143D01*
X189625377Y-99623373D01*
X189685165Y-99492457D01*
X189705647Y-99350000D01*
X189705647Y-99349997D01*
X189994353Y-99349997D01*
X189994353Y-99350002D01*
X190014834Y-99492456D01*
X190074622Y-99623371D01*
X190074623Y-99623373D01*
X190158089Y-99719699D01*
X190168873Y-99732144D01*
X190242978Y-99779768D01*
X190289947Y-99809953D01*
X190396403Y-99841211D01*
X190428035Y-99850499D01*
X190428036Y-99850499D01*
X190428039Y-99850500D01*
X190428041Y-99850500D01*
X190571959Y-99850500D01*
X190571961Y-99850500D01*
X190710053Y-99809953D01*
X190831128Y-99732143D01*
X190925377Y-99623373D01*
X190985165Y-99492457D01*
X191005647Y-99350000D01*
X191005647Y-99349997D01*
X191294353Y-99349997D01*
X191294353Y-99350002D01*
X191314834Y-99492456D01*
X191374622Y-99623371D01*
X191374623Y-99623373D01*
X191458089Y-99719699D01*
X191468873Y-99732144D01*
X191542978Y-99779768D01*
X191589947Y-99809953D01*
X191696403Y-99841211D01*
X191728035Y-99850499D01*
X191728036Y-99850499D01*
X191728039Y-99850500D01*
X191728041Y-99850500D01*
X191871959Y-99850500D01*
X191871961Y-99850500D01*
X192010053Y-99809953D01*
X192131128Y-99732143D01*
X192225377Y-99623373D01*
X192285165Y-99492457D01*
X192305647Y-99350000D01*
X192305647Y-99349997D01*
X192594353Y-99349997D01*
X192594353Y-99350002D01*
X192614834Y-99492456D01*
X192674622Y-99623371D01*
X192674623Y-99623373D01*
X192758089Y-99719699D01*
X192768873Y-99732144D01*
X192842978Y-99779768D01*
X192889947Y-99809953D01*
X192996403Y-99841211D01*
X193028035Y-99850499D01*
X193028036Y-99850499D01*
X193028039Y-99850500D01*
X193028041Y-99850500D01*
X193171959Y-99850500D01*
X193171961Y-99850500D01*
X193310053Y-99809953D01*
X193431128Y-99732143D01*
X193525377Y-99623373D01*
X193585165Y-99492457D01*
X193605647Y-99350000D01*
X193605647Y-99349997D01*
X193894353Y-99349997D01*
X193894353Y-99350002D01*
X193914834Y-99492456D01*
X193974622Y-99623371D01*
X193974623Y-99623373D01*
X194058089Y-99719699D01*
X194068873Y-99732144D01*
X194142978Y-99779768D01*
X194189947Y-99809953D01*
X194296403Y-99841211D01*
X194328035Y-99850499D01*
X194328036Y-99850499D01*
X194328039Y-99850500D01*
X194328041Y-99850500D01*
X194471959Y-99850500D01*
X194471961Y-99850500D01*
X194610053Y-99809953D01*
X194731128Y-99732143D01*
X194825377Y-99623373D01*
X194885165Y-99492457D01*
X194905647Y-99350000D01*
X194905647Y-99349997D01*
X195194353Y-99349997D01*
X195194353Y-99350002D01*
X195214834Y-99492456D01*
X195274622Y-99623371D01*
X195274623Y-99623373D01*
X195358089Y-99719699D01*
X195368873Y-99732144D01*
X195442978Y-99779768D01*
X195489947Y-99809953D01*
X195596403Y-99841211D01*
X195628035Y-99850499D01*
X195628036Y-99850499D01*
X195628039Y-99850500D01*
X195628041Y-99850500D01*
X195771959Y-99850500D01*
X195771961Y-99850500D01*
X195910053Y-99809953D01*
X196031128Y-99732143D01*
X196125377Y-99623373D01*
X196185165Y-99492457D01*
X196205647Y-99350000D01*
X196191312Y-99250300D01*
X196185165Y-99207543D01*
X196177259Y-99190231D01*
X196125377Y-99076627D01*
X196031128Y-98967857D01*
X196031127Y-98967856D01*
X196031126Y-98967855D01*
X195910057Y-98890049D01*
X195910054Y-98890047D01*
X195910053Y-98890047D01*
X195910050Y-98890046D01*
X195771964Y-98849500D01*
X195771961Y-98849500D01*
X195628039Y-98849500D01*
X195628035Y-98849500D01*
X195489949Y-98890046D01*
X195489942Y-98890049D01*
X195368873Y-98967855D01*
X195274622Y-99076628D01*
X195214834Y-99207543D01*
X195194353Y-99349997D01*
X194905647Y-99349997D01*
X194891312Y-99250300D01*
X194885165Y-99207543D01*
X194877259Y-99190231D01*
X194825377Y-99076627D01*
X194731128Y-98967857D01*
X194731127Y-98967856D01*
X194731126Y-98967855D01*
X194610057Y-98890049D01*
X194610054Y-98890047D01*
X194610053Y-98890047D01*
X194610050Y-98890046D01*
X194471964Y-98849500D01*
X194471961Y-98849500D01*
X194328039Y-98849500D01*
X194328035Y-98849500D01*
X194189949Y-98890046D01*
X194189942Y-98890049D01*
X194068873Y-98967855D01*
X193974622Y-99076628D01*
X193914834Y-99207543D01*
X193894353Y-99349997D01*
X193605647Y-99349997D01*
X193591312Y-99250300D01*
X193585165Y-99207543D01*
X193577259Y-99190231D01*
X193525377Y-99076627D01*
X193431128Y-98967857D01*
X193431127Y-98967856D01*
X193431126Y-98967855D01*
X193310057Y-98890049D01*
X193310054Y-98890047D01*
X193310053Y-98890047D01*
X193310050Y-98890046D01*
X193171964Y-98849500D01*
X193171961Y-98849500D01*
X193028039Y-98849500D01*
X193028035Y-98849500D01*
X192889949Y-98890046D01*
X192889942Y-98890049D01*
X192768873Y-98967855D01*
X192674622Y-99076628D01*
X192614834Y-99207543D01*
X192594353Y-99349997D01*
X192305647Y-99349997D01*
X192291312Y-99250300D01*
X192285165Y-99207543D01*
X192277259Y-99190231D01*
X192225377Y-99076627D01*
X192131128Y-98967857D01*
X192131127Y-98967856D01*
X192131126Y-98967855D01*
X192010057Y-98890049D01*
X192010054Y-98890047D01*
X192010053Y-98890047D01*
X192010050Y-98890046D01*
X191871964Y-98849500D01*
X191871961Y-98849500D01*
X191728039Y-98849500D01*
X191728035Y-98849500D01*
X191589949Y-98890046D01*
X191589942Y-98890049D01*
X191468873Y-98967855D01*
X191374622Y-99076628D01*
X191314834Y-99207543D01*
X191294353Y-99349997D01*
X191005647Y-99349997D01*
X190991312Y-99250300D01*
X190985165Y-99207543D01*
X190977259Y-99190231D01*
X190925377Y-99076627D01*
X190831128Y-98967857D01*
X190831127Y-98967856D01*
X190831126Y-98967855D01*
X190710057Y-98890049D01*
X190710054Y-98890047D01*
X190710053Y-98890047D01*
X190710050Y-98890046D01*
X190571964Y-98849500D01*
X190571961Y-98849500D01*
X190428039Y-98849500D01*
X190428035Y-98849500D01*
X190289949Y-98890046D01*
X190289942Y-98890049D01*
X190168873Y-98967855D01*
X190074622Y-99076628D01*
X190014834Y-99207543D01*
X189994353Y-99349997D01*
X189705647Y-99349997D01*
X189691312Y-99250300D01*
X189685165Y-99207543D01*
X189677259Y-99190231D01*
X189625377Y-99076627D01*
X189531128Y-98967857D01*
X189531127Y-98967856D01*
X189531126Y-98967855D01*
X189410057Y-98890049D01*
X189410054Y-98890047D01*
X189410053Y-98890047D01*
X189410050Y-98890046D01*
X189271964Y-98849500D01*
X189271961Y-98849500D01*
X189128039Y-98849500D01*
X189128035Y-98849500D01*
X188989949Y-98890046D01*
X188989942Y-98890049D01*
X188868873Y-98967855D01*
X188774622Y-99076628D01*
X188714834Y-99207543D01*
X188694353Y-99349997D01*
X188405647Y-99349997D01*
X188391312Y-99250300D01*
X188385165Y-99207543D01*
X188377259Y-99190231D01*
X188325377Y-99076627D01*
X188231128Y-98967857D01*
X188231127Y-98967856D01*
X188231126Y-98967855D01*
X188110057Y-98890049D01*
X188110054Y-98890047D01*
X188110053Y-98890047D01*
X188110050Y-98890046D01*
X187971964Y-98849500D01*
X187971961Y-98849500D01*
X187828039Y-98849500D01*
X187828035Y-98849500D01*
X187689949Y-98890046D01*
X187689942Y-98890049D01*
X187568873Y-98967855D01*
X187474622Y-99076628D01*
X187414834Y-99207543D01*
X187394353Y-99349997D01*
X187105647Y-99349997D01*
X187091312Y-99250300D01*
X187085165Y-99207543D01*
X187077259Y-99190231D01*
X187025377Y-99076627D01*
X186931128Y-98967857D01*
X186931127Y-98967856D01*
X186931126Y-98967855D01*
X186810057Y-98890049D01*
X186810054Y-98890047D01*
X186810053Y-98890047D01*
X186810050Y-98890046D01*
X186671964Y-98849500D01*
X186671961Y-98849500D01*
X186528039Y-98849500D01*
X186528035Y-98849500D01*
X186389949Y-98890046D01*
X186389942Y-98890049D01*
X186268873Y-98967855D01*
X186174622Y-99076628D01*
X186114834Y-99207543D01*
X186094353Y-99349997D01*
X185805647Y-99349997D01*
X185791312Y-99250300D01*
X185785165Y-99207543D01*
X185777259Y-99190231D01*
X185725377Y-99076627D01*
X185631128Y-98967857D01*
X185631127Y-98967856D01*
X185631126Y-98967855D01*
X185510057Y-98890049D01*
X185510054Y-98890047D01*
X185510053Y-98890047D01*
X185510050Y-98890046D01*
X185371964Y-98849500D01*
X185371961Y-98849500D01*
X185228039Y-98849500D01*
X185228035Y-98849500D01*
X185089949Y-98890046D01*
X185089942Y-98890049D01*
X184968873Y-98967855D01*
X184874622Y-99076628D01*
X184814834Y-99207543D01*
X184794353Y-99349997D01*
X182600500Y-99349997D01*
X182600500Y-98214996D01*
X210169417Y-98214996D01*
X210169417Y-98215003D01*
X210189698Y-98420929D01*
X210189699Y-98420934D01*
X210249768Y-98618954D01*
X210347316Y-98801452D01*
X210386748Y-98849500D01*
X210478590Y-98961410D01*
X210478595Y-98961414D01*
X210638547Y-99092683D01*
X210638548Y-99092683D01*
X210638550Y-99092685D01*
X210821046Y-99190232D01*
X210958997Y-99232078D01*
X211019065Y-99250300D01*
X211019070Y-99250301D01*
X211224997Y-99270583D01*
X211225000Y-99270583D01*
X211225003Y-99270583D01*
X211430929Y-99250301D01*
X211430934Y-99250300D01*
X211628954Y-99190232D01*
X211811450Y-99092685D01*
X211971410Y-98961410D01*
X212102685Y-98801450D01*
X212200232Y-98618954D01*
X212260300Y-98420934D01*
X212260301Y-98420929D01*
X212280583Y-98215003D01*
X212280583Y-98214996D01*
X212260301Y-98009070D01*
X212260300Y-98009065D01*
X212242078Y-97948997D01*
X212200232Y-97811046D01*
X212102685Y-97628550D01*
X211971410Y-97468590D01*
X211888442Y-97400500D01*
X211811452Y-97337316D01*
X211628954Y-97239768D01*
X211430934Y-97179699D01*
X211430929Y-97179698D01*
X211225003Y-97159417D01*
X211224997Y-97159417D01*
X211019070Y-97179698D01*
X211019065Y-97179699D01*
X210821045Y-97239768D01*
X210638547Y-97337316D01*
X210478595Y-97468585D01*
X210478585Y-97468595D01*
X210347316Y-97628547D01*
X210249768Y-97811045D01*
X210189699Y-98009065D01*
X210189698Y-98009070D01*
X210169417Y-98214996D01*
X182600500Y-98214996D01*
X182600500Y-96499997D01*
X193994353Y-96499997D01*
X193994353Y-96500002D01*
X194014834Y-96642456D01*
X194074622Y-96773371D01*
X194074623Y-96773373D01*
X194168872Y-96882143D01*
X194168873Y-96882144D01*
X194196653Y-96899997D01*
X194289947Y-96959953D01*
X194396403Y-96991211D01*
X194428035Y-97000499D01*
X194428036Y-97000499D01*
X194428039Y-97000500D01*
X194428041Y-97000500D01*
X194571959Y-97000500D01*
X194571961Y-97000500D01*
X194710053Y-96959953D01*
X194831128Y-96882143D01*
X194925377Y-96773373D01*
X194985165Y-96642457D01*
X194998072Y-96552685D01*
X195005647Y-96500002D01*
X195005647Y-96499997D01*
X196594353Y-96499997D01*
X196594353Y-96500002D01*
X196614834Y-96642456D01*
X196674622Y-96773371D01*
X196674623Y-96773373D01*
X196768872Y-96882143D01*
X196768873Y-96882144D01*
X196796653Y-96899997D01*
X196889947Y-96959953D01*
X196996403Y-96991211D01*
X197028035Y-97000499D01*
X197028036Y-97000499D01*
X197028039Y-97000500D01*
X197028041Y-97000500D01*
X197171959Y-97000500D01*
X197171961Y-97000500D01*
X197310053Y-96959953D01*
X197403347Y-96899997D01*
X199444353Y-96899997D01*
X199444353Y-96900002D01*
X199464834Y-97042456D01*
X199518249Y-97159417D01*
X199524623Y-97173373D01*
X199618872Y-97282143D01*
X199618873Y-97282144D01*
X199704723Y-97337316D01*
X199739947Y-97359953D01*
X199846403Y-97391211D01*
X199878035Y-97400499D01*
X199878036Y-97400499D01*
X199878039Y-97400500D01*
X199878041Y-97400500D01*
X200021959Y-97400500D01*
X200021961Y-97400500D01*
X200160053Y-97359953D01*
X200281128Y-97282143D01*
X200375377Y-97173373D01*
X200435165Y-97042457D01*
X200455647Y-96900000D01*
X200435165Y-96757543D01*
X200375377Y-96626627D01*
X200281128Y-96517857D01*
X200281127Y-96517856D01*
X200281126Y-96517855D01*
X200160057Y-96440049D01*
X200160054Y-96440047D01*
X200160053Y-96440047D01*
X200160050Y-96440046D01*
X200021964Y-96399500D01*
X200021961Y-96399500D01*
X199878039Y-96399500D01*
X199878035Y-96399500D01*
X199739949Y-96440046D01*
X199739942Y-96440049D01*
X199618873Y-96517855D01*
X199524622Y-96626628D01*
X199464834Y-96757543D01*
X199444353Y-96899997D01*
X197403347Y-96899997D01*
X197431128Y-96882143D01*
X197525377Y-96773373D01*
X197585165Y-96642457D01*
X197598072Y-96552685D01*
X197605647Y-96500002D01*
X197605647Y-96499997D01*
X197585165Y-96357543D01*
X197573252Y-96331458D01*
X197525377Y-96226627D01*
X197431128Y-96117857D01*
X197431127Y-96117856D01*
X197431126Y-96117855D01*
X197310057Y-96040049D01*
X197310054Y-96040047D01*
X197310053Y-96040047D01*
X197310050Y-96040046D01*
X197171964Y-95999500D01*
X197171961Y-95999500D01*
X197028039Y-95999500D01*
X197028035Y-95999500D01*
X196889949Y-96040046D01*
X196889942Y-96040049D01*
X196768873Y-96117855D01*
X196674622Y-96226628D01*
X196614834Y-96357543D01*
X196594353Y-96499997D01*
X195005647Y-96499997D01*
X194985165Y-96357543D01*
X194973252Y-96331458D01*
X194925377Y-96226627D01*
X194831128Y-96117857D01*
X194831127Y-96117856D01*
X194831126Y-96117855D01*
X194710057Y-96040049D01*
X194710054Y-96040047D01*
X194710053Y-96040047D01*
X194710050Y-96040046D01*
X194571964Y-95999500D01*
X194571961Y-95999500D01*
X194428039Y-95999500D01*
X194428035Y-95999500D01*
X194289949Y-96040046D01*
X194289942Y-96040049D01*
X194168873Y-96117855D01*
X194074622Y-96226628D01*
X194014834Y-96357543D01*
X193994353Y-96499997D01*
X182600500Y-96499997D01*
X182600500Y-96353893D01*
X182619407Y-96295702D01*
X182626741Y-96287711D01*
X182626491Y-96287494D01*
X182631128Y-96282143D01*
X182725377Y-96173373D01*
X182785165Y-96042457D01*
X182805647Y-95900000D01*
X182785165Y-95757543D01*
X182725377Y-95626627D01*
X182631128Y-95517857D01*
X182631127Y-95517856D01*
X182631126Y-95517855D01*
X182510057Y-95440049D01*
X182510054Y-95440047D01*
X182510053Y-95440047D01*
X182510050Y-95440046D01*
X182371964Y-95399500D01*
X182371961Y-95399500D01*
X182228039Y-95399500D01*
X182228035Y-95399500D01*
X182089949Y-95440046D01*
X182089942Y-95440049D01*
X181968873Y-95517855D01*
X181874622Y-95626628D01*
X181814834Y-95757543D01*
X181794353Y-95899997D01*
X181794353Y-95900002D01*
X181814834Y-96042456D01*
X181849268Y-96117855D01*
X181874623Y-96173373D01*
X181950943Y-96261452D01*
X181973509Y-96287494D01*
X181971471Y-96289259D01*
X181996925Y-96331458D01*
X181999500Y-96353893D01*
X181999500Y-101803500D01*
X181980593Y-101861691D01*
X181931093Y-101897655D01*
X181900500Y-101902500D01*
X180892899Y-101902500D01*
X180834708Y-101883593D01*
X180798744Y-101834093D01*
X180794067Y-101797743D01*
X180805585Y-101600008D01*
X180805585Y-101600007D01*
X180805585Y-101599999D01*
X180785262Y-101251073D01*
X180724569Y-100906864D01*
X180624326Y-100572029D01*
X180485889Y-100251096D01*
X180311130Y-99948404D01*
X180102412Y-99668047D01*
X179862558Y-99413817D01*
X179594811Y-99189151D01*
X179423729Y-99076628D01*
X179302794Y-98997087D01*
X178990453Y-98840224D01*
X178990452Y-98840223D01*
X178990451Y-98840223D01*
X178662011Y-98720681D01*
X178662012Y-98720681D01*
X178662006Y-98720679D01*
X178321924Y-98640078D01*
X178209089Y-98626889D01*
X177974759Y-98599500D01*
X177625241Y-98599500D01*
X177460497Y-98618756D01*
X177278075Y-98640078D01*
X176937993Y-98720679D01*
X176741191Y-98792309D01*
X176609549Y-98840223D01*
X176609548Y-98840223D01*
X176609546Y-98840224D01*
X176297205Y-98997087D01*
X176005190Y-99189150D01*
X175737443Y-99413815D01*
X175497591Y-99668043D01*
X175288871Y-99948402D01*
X175288869Y-99948405D01*
X175114111Y-100251095D01*
X175114108Y-100251102D01*
X174975674Y-100572027D01*
X174975672Y-100572034D01*
X174875430Y-100906865D01*
X174875430Y-100906866D01*
X174814738Y-101251070D01*
X174794415Y-101600000D01*
X174814738Y-101948929D01*
X174875430Y-102293133D01*
X174875430Y-102293134D01*
X174875431Y-102293136D01*
X174975674Y-102627971D01*
X175114111Y-102948904D01*
X175288870Y-103251596D01*
X175497588Y-103531953D01*
X175737442Y-103786183D01*
X176005189Y-104010849D01*
X176297207Y-104202913D01*
X176609549Y-104359777D01*
X176937989Y-104479319D01*
X176937992Y-104479319D01*
X176937993Y-104479320D01*
X177278075Y-104559921D01*
X177278080Y-104559921D01*
X177278086Y-104559923D01*
X177625241Y-104600500D01*
X177625244Y-104600500D01*
X177974756Y-104600500D01*
X177974759Y-104600500D01*
X178321914Y-104559923D01*
X178321920Y-104559921D01*
X178321924Y-104559921D01*
X178574763Y-104499997D01*
X178662011Y-104479319D01*
X178985643Y-104361526D01*
X179046788Y-104359392D01*
X179097513Y-104393606D01*
X179118440Y-104451102D01*
X179118500Y-104454557D01*
X179118500Y-124145442D01*
X179099593Y-124203633D01*
X179050093Y-124239597D01*
X178988907Y-124239597D01*
X178985640Y-124238472D01*
X178662006Y-124120679D01*
X178321924Y-124040078D01*
X178209089Y-124026889D01*
X177974759Y-123999500D01*
X177625241Y-123999500D01*
X177433950Y-124021858D01*
X177278075Y-124040078D01*
X176937993Y-124120679D01*
X176869958Y-124145442D01*
X176609549Y-124240223D01*
X176609548Y-124240223D01*
X176609546Y-124240224D01*
X176297205Y-124397087D01*
X176005190Y-124589150D01*
X175737443Y-124813815D01*
X175497591Y-125068043D01*
X175288871Y-125348402D01*
X175288869Y-125348405D01*
X175114111Y-125651095D01*
X175114108Y-125651102D01*
X174975674Y-125972027D01*
X174975672Y-125972034D01*
X174875430Y-126306865D01*
X174875430Y-126306866D01*
X174814738Y-126651070D01*
X174794415Y-127000000D01*
X174814738Y-127348929D01*
X174875430Y-127693133D01*
X174875430Y-127693134D01*
X174875431Y-127693136D01*
X174975674Y-128027971D01*
X175114111Y-128348904D01*
X175288870Y-128651596D01*
X175497588Y-128931953D01*
X175737442Y-129186183D01*
X176005189Y-129410849D01*
X176297207Y-129602913D01*
X176609549Y-129759777D01*
X176937989Y-129879319D01*
X176937992Y-129879319D01*
X176937993Y-129879320D01*
X177278075Y-129959921D01*
X177278080Y-129959921D01*
X177278086Y-129959923D01*
X177625241Y-130000500D01*
X177625244Y-130000500D01*
X177974756Y-130000500D01*
X177974759Y-130000500D01*
X178321914Y-129959923D01*
X178321920Y-129959921D01*
X178321924Y-129959921D01*
X178548645Y-129906187D01*
X178662011Y-129879319D01*
X178985643Y-129761526D01*
X179046788Y-129759392D01*
X179097513Y-129793606D01*
X179118440Y-129851102D01*
X179118500Y-129854557D01*
X179118500Y-133331000D01*
X179099593Y-133389191D01*
X179050093Y-133425155D01*
X179019500Y-133430000D01*
X178928070Y-133430000D01*
X178727683Y-133467458D01*
X178537586Y-133541101D01*
X178537584Y-133541102D01*
X178405640Y-133622797D01*
X178844823Y-134061981D01*
X178837008Y-134064076D01*
X178722994Y-134129902D01*
X178629902Y-134222994D01*
X178564076Y-134337008D01*
X178561981Y-134344825D01*
X178122957Y-133905801D01*
X178090755Y-133948442D01*
X178090750Y-133948451D01*
X177999887Y-134130929D01*
X177944097Y-134327010D01*
X177925287Y-134530000D01*
X177944097Y-134732989D01*
X177999887Y-134929070D01*
X178090752Y-135111552D01*
X178090761Y-135111567D01*
X178122955Y-135154198D01*
X178561980Y-134715172D01*
X178564076Y-134722992D01*
X178629902Y-134837006D01*
X178722994Y-134930098D01*
X178837008Y-134995924D01*
X178844822Y-134998017D01*
X178405640Y-135437201D01*
X178537581Y-135518895D01*
X178537586Y-135518898D01*
X178727683Y-135592541D01*
X178928070Y-135630000D01*
X179019500Y-135630000D01*
X179077691Y-135648907D01*
X179113655Y-135698407D01*
X179118500Y-135729000D01*
X179118500Y-135871000D01*
X179099593Y-135929191D01*
X179050093Y-135965155D01*
X179019500Y-135970000D01*
X178928070Y-135970000D01*
X178727683Y-136007458D01*
X178537586Y-136081101D01*
X178537584Y-136081102D01*
X178405640Y-136162797D01*
X178844823Y-136601981D01*
X178837008Y-136604076D01*
X178722994Y-136669902D01*
X178629902Y-136762994D01*
X178564076Y-136877008D01*
X178561981Y-136884825D01*
X178122957Y-136445801D01*
X178090755Y-136488442D01*
X178090750Y-136488451D01*
X177999887Y-136670929D01*
X177944097Y-136867010D01*
X177925287Y-137070000D01*
X177944097Y-137272989D01*
X177999887Y-137469070D01*
X178090752Y-137651552D01*
X178090761Y-137651567D01*
X178122955Y-137694198D01*
X178561980Y-137255172D01*
X178564076Y-137262992D01*
X178629902Y-137377006D01*
X178722994Y-137470098D01*
X178837008Y-137535924D01*
X178844822Y-137538017D01*
X178405640Y-137977201D01*
X178537581Y-138058895D01*
X178537586Y-138058898D01*
X178727683Y-138132541D01*
X178928070Y-138170000D01*
X179019500Y-138170000D01*
X179077691Y-138188907D01*
X179113655Y-138238407D01*
X179118500Y-138269000D01*
X179118500Y-138600500D01*
X179099593Y-138658691D01*
X179050093Y-138694655D01*
X179019500Y-138699500D01*
X166199500Y-138699500D01*
X166141309Y-138680593D01*
X166105345Y-138631093D01*
X166100500Y-138600500D01*
X166100500Y-132930253D01*
X167047000Y-132930253D01*
X167047000Y-135069746D01*
X167047001Y-135069758D01*
X167058632Y-135128227D01*
X167058634Y-135128233D01*
X167102945Y-135194548D01*
X167102948Y-135194552D01*
X167169269Y-135238867D01*
X167211574Y-135247282D01*
X167227741Y-135250498D01*
X167227746Y-135250498D01*
X167227752Y-135250500D01*
X167227753Y-135250500D01*
X169367247Y-135250500D01*
X169367248Y-135250500D01*
X169425731Y-135238867D01*
X169492052Y-135194552D01*
X169536367Y-135128231D01*
X169548000Y-135069748D01*
X169548000Y-133999996D01*
X170542223Y-133999996D01*
X170542223Y-134000003D01*
X170561291Y-134217969D01*
X170561292Y-134217976D01*
X170561293Y-134217977D01*
X170617925Y-134429330D01*
X170695563Y-134595826D01*
X170710397Y-134627637D01*
X170790070Y-134741423D01*
X170835902Y-134806877D01*
X170990623Y-134961598D01*
X171169861Y-135087102D01*
X171368170Y-135179575D01*
X171579523Y-135236207D01*
X171579527Y-135236207D01*
X171579530Y-135236208D01*
X171797497Y-135255277D01*
X171797500Y-135255277D01*
X171797503Y-135255277D01*
X172015469Y-135236208D01*
X172015470Y-135236207D01*
X172015477Y-135236207D01*
X172226830Y-135179575D01*
X172425139Y-135087102D01*
X172604377Y-134961598D01*
X172759098Y-134806877D01*
X172884602Y-134627639D01*
X172977075Y-134429330D01*
X173033707Y-134217977D01*
X173041413Y-134129902D01*
X173052777Y-134000003D01*
X173052777Y-133999996D01*
X174042223Y-133999996D01*
X174042223Y-134000003D01*
X174061291Y-134217969D01*
X174061292Y-134217976D01*
X174061293Y-134217977D01*
X174117925Y-134429330D01*
X174195563Y-134595826D01*
X174210397Y-134627637D01*
X174290070Y-134741423D01*
X174335902Y-134806877D01*
X174490623Y-134961598D01*
X174669861Y-135087102D01*
X174868170Y-135179575D01*
X175079523Y-135236207D01*
X175079527Y-135236207D01*
X175079530Y-135236208D01*
X175297497Y-135255277D01*
X175297500Y-135255277D01*
X175297503Y-135255277D01*
X175515469Y-135236208D01*
X175515470Y-135236207D01*
X175515477Y-135236207D01*
X175726830Y-135179575D01*
X175925139Y-135087102D01*
X176104377Y-134961598D01*
X176259098Y-134806877D01*
X176384602Y-134627639D01*
X176477075Y-134429330D01*
X176533707Y-134217977D01*
X176541413Y-134129902D01*
X176552777Y-134000003D01*
X176552777Y-133999996D01*
X176533708Y-133782030D01*
X176533707Y-133782027D01*
X176533707Y-133782023D01*
X176477075Y-133570670D01*
X176384602Y-133372362D01*
X176259098Y-133193123D01*
X176104377Y-133038402D01*
X176104373Y-133038399D01*
X176104372Y-133038398D01*
X175949907Y-132930241D01*
X175925139Y-132912898D01*
X175726830Y-132820425D01*
X175515477Y-132763793D01*
X175515476Y-132763792D01*
X175515469Y-132763791D01*
X175297503Y-132744723D01*
X175297497Y-132744723D01*
X175079530Y-132763791D01*
X174868166Y-132820426D01*
X174669872Y-132912892D01*
X174669864Y-132912896D01*
X174490627Y-133038398D01*
X174335898Y-133193127D01*
X174210396Y-133372364D01*
X174210392Y-133372372D01*
X174117926Y-133570666D01*
X174061291Y-133782030D01*
X174042223Y-133999996D01*
X173052777Y-133999996D01*
X173033708Y-133782030D01*
X173033707Y-133782027D01*
X173033707Y-133782023D01*
X172977075Y-133570670D01*
X172884602Y-133372362D01*
X172759098Y-133193123D01*
X172604377Y-133038402D01*
X172604373Y-133038399D01*
X172604372Y-133038398D01*
X172449907Y-132930241D01*
X172425139Y-132912898D01*
X172226830Y-132820425D01*
X172015477Y-132763793D01*
X172015476Y-132763792D01*
X172015469Y-132763791D01*
X171797503Y-132744723D01*
X171797497Y-132744723D01*
X171579530Y-132763791D01*
X171368166Y-132820426D01*
X171169872Y-132912892D01*
X171169864Y-132912896D01*
X170990627Y-133038398D01*
X170835898Y-133193127D01*
X170710396Y-133372364D01*
X170710392Y-133372372D01*
X170617926Y-133570666D01*
X170561291Y-133782030D01*
X170542223Y-133999996D01*
X169548000Y-133999996D01*
X169548000Y-132930252D01*
X169536367Y-132871769D01*
X169492052Y-132805448D01*
X169429709Y-132763791D01*
X169425733Y-132761134D01*
X169425731Y-132761133D01*
X169425728Y-132761132D01*
X169425727Y-132761132D01*
X169367258Y-132749501D01*
X169367248Y-132749500D01*
X167227752Y-132749500D01*
X167227751Y-132749500D01*
X167227741Y-132749501D01*
X167169272Y-132761132D01*
X167169266Y-132761134D01*
X167102951Y-132805445D01*
X167102945Y-132805451D01*
X167058634Y-132871766D01*
X167058632Y-132871772D01*
X167047001Y-132930241D01*
X167047000Y-132930253D01*
X166100500Y-132930253D01*
X166100500Y-120800000D01*
X170994357Y-120800000D01*
X171014891Y-121047819D01*
X171014892Y-121047821D01*
X171075937Y-121288881D01*
X171175827Y-121516607D01*
X171311836Y-121724785D01*
X171480256Y-121907738D01*
X171676491Y-122060474D01*
X171895190Y-122178828D01*
X172130386Y-122259571D01*
X172375665Y-122300500D01*
X172624335Y-122300500D01*
X172869614Y-122259571D01*
X173104810Y-122178828D01*
X173323509Y-122060474D01*
X173519744Y-121907738D01*
X173688164Y-121724785D01*
X173824173Y-121516607D01*
X173924063Y-121288881D01*
X173985108Y-121047821D01*
X174005643Y-120800000D01*
X173985108Y-120552179D01*
X173924063Y-120311119D01*
X173824173Y-120083393D01*
X173688164Y-119875215D01*
X173519744Y-119692262D01*
X173323509Y-119539526D01*
X173104813Y-119421173D01*
X172869611Y-119340428D01*
X172624335Y-119299500D01*
X172375665Y-119299500D01*
X172130388Y-119340428D01*
X171895186Y-119421173D01*
X171676490Y-119539526D01*
X171676487Y-119539528D01*
X171480259Y-119692259D01*
X171311835Y-119875216D01*
X171175826Y-120083395D01*
X171075937Y-120311120D01*
X171014891Y-120552180D01*
X170994357Y-120800000D01*
X166100500Y-120800000D01*
X166100500Y-115800000D01*
X170994357Y-115800000D01*
X171014891Y-116047819D01*
X171014892Y-116047821D01*
X171075937Y-116288881D01*
X171175827Y-116516607D01*
X171311836Y-116724785D01*
X171480256Y-116907738D01*
X171676491Y-117060474D01*
X171895190Y-117178828D01*
X172130386Y-117259571D01*
X172375665Y-117300500D01*
X172624335Y-117300500D01*
X172869614Y-117259571D01*
X173104810Y-117178828D01*
X173323509Y-117060474D01*
X173519744Y-116907738D01*
X173688164Y-116724785D01*
X173824173Y-116516607D01*
X173924063Y-116288881D01*
X173985108Y-116047821D01*
X174005643Y-115800000D01*
X173985108Y-115552179D01*
X173924063Y-115311119D01*
X173824173Y-115083393D01*
X173688164Y-114875215D01*
X173519744Y-114692262D01*
X173323509Y-114539526D01*
X173104813Y-114421173D01*
X172869611Y-114340428D01*
X172624335Y-114299500D01*
X172375665Y-114299500D01*
X172130388Y-114340428D01*
X171895186Y-114421173D01*
X171676490Y-114539526D01*
X171676487Y-114539528D01*
X171480259Y-114692259D01*
X171311835Y-114875216D01*
X171175826Y-115083395D01*
X171075937Y-115311120D01*
X171014891Y-115552180D01*
X170994357Y-115800000D01*
X166100500Y-115800000D01*
X166100500Y-110999996D01*
X171894659Y-110999996D01*
X171894659Y-111000003D01*
X171913974Y-111196126D01*
X171913975Y-111196129D01*
X171971187Y-111384730D01*
X171971188Y-111384732D01*
X172042218Y-111517618D01*
X172064090Y-111558538D01*
X172064092Y-111558540D01*
X172064093Y-111558542D01*
X172189112Y-111710878D01*
X172189121Y-111710887D01*
X172341457Y-111835906D01*
X172341462Y-111835910D01*
X172515273Y-111928814D01*
X172703868Y-111986024D01*
X172703870Y-111986024D01*
X172703873Y-111986025D01*
X172899997Y-112005341D01*
X172900000Y-112005341D01*
X172900003Y-112005341D01*
X173096126Y-111986025D01*
X173096127Y-111986024D01*
X173096132Y-111986024D01*
X173284727Y-111928814D01*
X173458538Y-111835910D01*
X173610883Y-111710883D01*
X173735910Y-111558538D01*
X173828814Y-111384727D01*
X173886024Y-111196132D01*
X173894005Y-111115105D01*
X173905341Y-111000003D01*
X173905341Y-110999996D01*
X174894659Y-110999996D01*
X174894659Y-111000003D01*
X174913974Y-111196126D01*
X174913975Y-111196129D01*
X174971187Y-111384730D01*
X174971188Y-111384732D01*
X175042218Y-111517618D01*
X175064090Y-111558538D01*
X175064092Y-111558540D01*
X175064093Y-111558542D01*
X175189112Y-111710878D01*
X175189121Y-111710887D01*
X175341457Y-111835906D01*
X175341462Y-111835910D01*
X175515273Y-111928814D01*
X175703868Y-111986024D01*
X175703870Y-111986024D01*
X175703873Y-111986025D01*
X175899997Y-112005341D01*
X175900000Y-112005341D01*
X175900003Y-112005341D01*
X176096126Y-111986025D01*
X176096127Y-111986024D01*
X176096132Y-111986024D01*
X176284727Y-111928814D01*
X176458538Y-111835910D01*
X176610883Y-111710883D01*
X176735910Y-111558538D01*
X176828814Y-111384727D01*
X176886024Y-111196132D01*
X176894005Y-111115105D01*
X176905341Y-111000003D01*
X176905341Y-110999996D01*
X176886025Y-110803873D01*
X176886024Y-110803870D01*
X176886024Y-110803868D01*
X176828814Y-110615273D01*
X176735910Y-110441462D01*
X176735906Y-110441457D01*
X176610887Y-110289121D01*
X176610878Y-110289112D01*
X176458542Y-110164093D01*
X176458540Y-110164092D01*
X176458538Y-110164090D01*
X176417618Y-110142218D01*
X176284732Y-110071188D01*
X176284730Y-110071187D01*
X176096129Y-110013975D01*
X176096126Y-110013974D01*
X175900003Y-109994659D01*
X175899997Y-109994659D01*
X175703873Y-110013974D01*
X175703870Y-110013975D01*
X175515269Y-110071187D01*
X175515267Y-110071188D01*
X175341467Y-110164087D01*
X175341457Y-110164093D01*
X175189121Y-110289112D01*
X175189112Y-110289121D01*
X175064093Y-110441457D01*
X175064087Y-110441467D01*
X174971188Y-110615267D01*
X174971187Y-110615269D01*
X174913975Y-110803870D01*
X174913974Y-110803873D01*
X174894659Y-110999996D01*
X173905341Y-110999996D01*
X173886025Y-110803873D01*
X173886024Y-110803870D01*
X173886024Y-110803868D01*
X173828814Y-110615273D01*
X173735910Y-110441462D01*
X173735906Y-110441457D01*
X173610887Y-110289121D01*
X173610878Y-110289112D01*
X173458542Y-110164093D01*
X173458540Y-110164092D01*
X173458538Y-110164090D01*
X173417618Y-110142218D01*
X173284732Y-110071188D01*
X173284730Y-110071187D01*
X173096129Y-110013975D01*
X173096126Y-110013974D01*
X172900003Y-109994659D01*
X172899997Y-109994659D01*
X172703873Y-110013974D01*
X172703870Y-110013975D01*
X172515269Y-110071187D01*
X172515267Y-110071188D01*
X172341467Y-110164087D01*
X172341457Y-110164093D01*
X172189121Y-110289112D01*
X172189112Y-110289121D01*
X172064093Y-110441457D01*
X172064087Y-110441467D01*
X171971188Y-110615267D01*
X171971187Y-110615269D01*
X171913975Y-110803870D01*
X171913974Y-110803873D01*
X171894659Y-110999996D01*
X166100500Y-110999996D01*
X166100500Y-105499997D01*
X167791853Y-105499997D01*
X167791853Y-105500002D01*
X167812334Y-105642456D01*
X167872122Y-105773371D01*
X167872123Y-105773373D01*
X167925523Y-105835000D01*
X167966373Y-105882144D01*
X168087442Y-105959950D01*
X168087447Y-105959953D01*
X168193903Y-105991211D01*
X168225535Y-106000499D01*
X168225536Y-106000499D01*
X168225539Y-106000500D01*
X168225541Y-106000500D01*
X168369459Y-106000500D01*
X168369461Y-106000500D01*
X168371177Y-105999996D01*
X171894659Y-105999996D01*
X171894659Y-106000003D01*
X171913974Y-106196126D01*
X171913975Y-106196129D01*
X171971187Y-106384730D01*
X171971188Y-106384732D01*
X172023645Y-106482871D01*
X172064090Y-106558538D01*
X172064092Y-106558540D01*
X172064093Y-106558542D01*
X172189112Y-106710878D01*
X172189121Y-106710887D01*
X172341457Y-106835906D01*
X172341462Y-106835910D01*
X172515273Y-106928814D01*
X172703868Y-106986024D01*
X172703870Y-106986024D01*
X172703873Y-106986025D01*
X172899997Y-107005341D01*
X172900000Y-107005341D01*
X172900003Y-107005341D01*
X173096126Y-106986025D01*
X173096127Y-106986024D01*
X173096132Y-106986024D01*
X173284727Y-106928814D01*
X173458538Y-106835910D01*
X173610883Y-106710883D01*
X173735910Y-106558538D01*
X173828814Y-106384727D01*
X173886024Y-106196132D01*
X173901093Y-106043137D01*
X173905341Y-106000003D01*
X173905341Y-105999996D01*
X174894659Y-105999996D01*
X174894659Y-106000003D01*
X174913974Y-106196126D01*
X174913975Y-106196129D01*
X174971187Y-106384730D01*
X174971188Y-106384732D01*
X175023645Y-106482871D01*
X175064090Y-106558538D01*
X175064092Y-106558540D01*
X175064093Y-106558542D01*
X175189112Y-106710878D01*
X175189121Y-106710887D01*
X175341457Y-106835906D01*
X175341462Y-106835910D01*
X175515273Y-106928814D01*
X175703868Y-106986024D01*
X175703870Y-106986024D01*
X175703873Y-106986025D01*
X175899997Y-107005341D01*
X175900000Y-107005341D01*
X175900003Y-107005341D01*
X176096126Y-106986025D01*
X176096127Y-106986024D01*
X176096132Y-106986024D01*
X176284727Y-106928814D01*
X176458538Y-106835910D01*
X176610883Y-106710883D01*
X176735910Y-106558538D01*
X176828814Y-106384727D01*
X176886024Y-106196132D01*
X176901093Y-106043137D01*
X176905341Y-106000003D01*
X176905341Y-105999996D01*
X176886025Y-105803873D01*
X176886024Y-105803870D01*
X176886024Y-105803868D01*
X176828814Y-105615273D01*
X176735910Y-105441462D01*
X176735906Y-105441457D01*
X176610887Y-105289121D01*
X176610878Y-105289112D01*
X176458542Y-105164093D01*
X176458540Y-105164092D01*
X176458538Y-105164090D01*
X176417618Y-105142218D01*
X176284732Y-105071188D01*
X176284730Y-105071187D01*
X176096129Y-105013975D01*
X176096126Y-105013974D01*
X175900003Y-104994659D01*
X175899997Y-104994659D01*
X175703873Y-105013974D01*
X175703870Y-105013975D01*
X175515269Y-105071187D01*
X175515267Y-105071188D01*
X175341467Y-105164087D01*
X175341457Y-105164093D01*
X175189121Y-105289112D01*
X175189112Y-105289121D01*
X175064093Y-105441457D01*
X175064087Y-105441467D01*
X174971188Y-105615267D01*
X174971187Y-105615269D01*
X174913975Y-105803870D01*
X174913974Y-105803873D01*
X174894659Y-105999996D01*
X173905341Y-105999996D01*
X173886025Y-105803873D01*
X173886024Y-105803870D01*
X173886024Y-105803868D01*
X173828814Y-105615273D01*
X173735910Y-105441462D01*
X173735906Y-105441457D01*
X173610887Y-105289121D01*
X173610878Y-105289112D01*
X173458542Y-105164093D01*
X173458540Y-105164092D01*
X173458538Y-105164090D01*
X173417618Y-105142218D01*
X173284732Y-105071188D01*
X173284730Y-105071187D01*
X173096129Y-105013975D01*
X173096126Y-105013974D01*
X172900003Y-104994659D01*
X172899997Y-104994659D01*
X172703873Y-105013974D01*
X172703870Y-105013975D01*
X172515269Y-105071187D01*
X172515267Y-105071188D01*
X172341467Y-105164087D01*
X172341457Y-105164093D01*
X172189121Y-105289112D01*
X172189112Y-105289121D01*
X172064093Y-105441457D01*
X172064087Y-105441467D01*
X171971188Y-105615267D01*
X171971187Y-105615269D01*
X171913975Y-105803870D01*
X171913974Y-105803873D01*
X171894659Y-105999996D01*
X168371177Y-105999996D01*
X168507553Y-105959953D01*
X168628628Y-105882143D01*
X168722877Y-105773373D01*
X168782665Y-105642457D01*
X168803147Y-105500000D01*
X168794731Y-105441467D01*
X168782665Y-105357543D01*
X168751417Y-105289121D01*
X168722877Y-105226627D01*
X168628628Y-105117857D01*
X168628627Y-105117856D01*
X168628626Y-105117855D01*
X168507557Y-105040049D01*
X168507554Y-105040047D01*
X168507553Y-105040047D01*
X168507550Y-105040046D01*
X168369464Y-104999500D01*
X168369461Y-104999500D01*
X168225539Y-104999500D01*
X168225535Y-104999500D01*
X168087449Y-105040046D01*
X168087442Y-105040049D01*
X167966373Y-105117855D01*
X167872122Y-105226628D01*
X167812334Y-105357543D01*
X167791853Y-105499997D01*
X166100500Y-105499997D01*
X166100500Y-104499997D01*
X169394353Y-104499997D01*
X169394353Y-104500002D01*
X169414834Y-104642456D01*
X169474622Y-104773371D01*
X169474623Y-104773373D01*
X169568872Y-104882143D01*
X169568873Y-104882144D01*
X169689942Y-104959950D01*
X169689947Y-104959953D01*
X169796403Y-104991211D01*
X169828035Y-105000499D01*
X169828036Y-105000499D01*
X169828039Y-105000500D01*
X169828041Y-105000500D01*
X169971959Y-105000500D01*
X169971961Y-105000500D01*
X170110053Y-104959953D01*
X170231128Y-104882143D01*
X170325377Y-104773373D01*
X170385165Y-104642457D01*
X170391992Y-104594971D01*
X170405647Y-104500002D01*
X170405647Y-104499997D01*
X170385165Y-104357543D01*
X170325377Y-104226628D01*
X170325377Y-104226627D01*
X170231128Y-104117857D01*
X170231127Y-104117856D01*
X170231126Y-104117855D01*
X170110057Y-104040049D01*
X170110054Y-104040047D01*
X170110053Y-104040047D01*
X170110050Y-104040046D01*
X169971964Y-103999500D01*
X169971961Y-103999500D01*
X169828039Y-103999500D01*
X169828035Y-103999500D01*
X169689949Y-104040046D01*
X169689942Y-104040049D01*
X169568873Y-104117855D01*
X169474622Y-104226628D01*
X169414834Y-104357543D01*
X169394353Y-104499997D01*
X166100500Y-104499997D01*
X166100500Y-103499997D01*
X168594353Y-103499997D01*
X168594353Y-103500002D01*
X168614834Y-103642456D01*
X168674622Y-103773371D01*
X168674623Y-103773373D01*
X168685724Y-103786184D01*
X168768873Y-103882144D01*
X168889942Y-103959950D01*
X168889947Y-103959953D01*
X168996403Y-103991211D01*
X169028035Y-104000499D01*
X169028036Y-104000499D01*
X169028039Y-104000500D01*
X169028041Y-104000500D01*
X169171959Y-104000500D01*
X169171961Y-104000500D01*
X169310053Y-103959953D01*
X169431128Y-103882143D01*
X169525377Y-103773373D01*
X169585165Y-103642457D01*
X169591992Y-103594971D01*
X169605647Y-103500002D01*
X169605647Y-103499997D01*
X169585165Y-103357543D01*
X169556602Y-103295000D01*
X169525377Y-103226627D01*
X169431128Y-103117857D01*
X169431127Y-103117856D01*
X169431126Y-103117855D01*
X169310057Y-103040049D01*
X169310054Y-103040047D01*
X169310053Y-103040047D01*
X169310050Y-103040046D01*
X169171964Y-102999500D01*
X169171961Y-102999500D01*
X169028039Y-102999500D01*
X169028035Y-102999500D01*
X168889949Y-103040046D01*
X168889942Y-103040049D01*
X168768873Y-103117855D01*
X168674622Y-103226628D01*
X168614834Y-103357543D01*
X168594353Y-103499997D01*
X166100500Y-103499997D01*
X166100500Y-96899997D01*
X171394353Y-96899997D01*
X171394353Y-96900002D01*
X171414834Y-97042456D01*
X171468249Y-97159417D01*
X171474623Y-97173373D01*
X171568872Y-97282143D01*
X171568873Y-97282144D01*
X171654723Y-97337316D01*
X171689947Y-97359953D01*
X171796403Y-97391211D01*
X171828035Y-97400499D01*
X171828036Y-97400499D01*
X171828039Y-97400500D01*
X171828041Y-97400500D01*
X171971959Y-97400500D01*
X171971961Y-97400500D01*
X172110053Y-97359953D01*
X172231128Y-97282143D01*
X172325377Y-97173373D01*
X172385165Y-97042457D01*
X172405647Y-96900000D01*
X172385165Y-96757543D01*
X172325377Y-96626627D01*
X172231128Y-96517857D01*
X172231127Y-96517856D01*
X172231126Y-96517855D01*
X172110057Y-96440049D01*
X172110054Y-96440047D01*
X172110053Y-96440047D01*
X172110050Y-96440046D01*
X171971964Y-96399500D01*
X171971961Y-96399500D01*
X171828039Y-96399500D01*
X171828035Y-96399500D01*
X171689949Y-96440046D01*
X171689942Y-96440049D01*
X171568873Y-96517855D01*
X171474622Y-96626628D01*
X171414834Y-96757543D01*
X171394353Y-96899997D01*
X166100500Y-96899997D01*
X166100500Y-95899997D01*
X178794353Y-95899997D01*
X178794353Y-95900002D01*
X178814834Y-96042456D01*
X178849268Y-96117855D01*
X178874623Y-96173373D01*
X178968872Y-96282143D01*
X178968873Y-96282144D01*
X179080517Y-96353893D01*
X179089947Y-96359953D01*
X179196403Y-96391211D01*
X179228035Y-96400499D01*
X179228036Y-96400499D01*
X179228039Y-96400500D01*
X179228041Y-96400500D01*
X179371959Y-96400500D01*
X179371961Y-96400500D01*
X179510053Y-96359953D01*
X179631128Y-96282143D01*
X179725377Y-96173373D01*
X179785165Y-96042457D01*
X179805647Y-95900000D01*
X179785165Y-95757543D01*
X179725377Y-95626627D01*
X179631128Y-95517857D01*
X179631127Y-95517856D01*
X179631126Y-95517855D01*
X179510057Y-95440049D01*
X179510054Y-95440047D01*
X179510053Y-95440047D01*
X179510050Y-95440046D01*
X179371964Y-95399500D01*
X179371961Y-95399500D01*
X179228039Y-95399500D01*
X179228035Y-95399500D01*
X179089949Y-95440046D01*
X179089942Y-95440049D01*
X178968873Y-95517855D01*
X178874622Y-95626628D01*
X178814834Y-95757543D01*
X178794353Y-95899997D01*
X166100500Y-95899997D01*
X166100500Y-94899997D01*
X175794353Y-94899997D01*
X175794353Y-94900002D01*
X175814834Y-95042456D01*
X175835885Y-95088550D01*
X175874623Y-95173373D01*
X175968872Y-95282143D01*
X175968873Y-95282144D01*
X176089942Y-95359950D01*
X176089947Y-95359953D01*
X176196403Y-95391211D01*
X176228035Y-95400499D01*
X176228036Y-95400499D01*
X176228039Y-95400500D01*
X176228041Y-95400500D01*
X176371959Y-95400500D01*
X176371961Y-95400500D01*
X176510053Y-95359953D01*
X176631128Y-95282143D01*
X176725377Y-95173373D01*
X176758887Y-95099997D01*
X199194353Y-95099997D01*
X199194353Y-95100002D01*
X199214834Y-95242456D01*
X199268493Y-95359950D01*
X199274623Y-95373373D01*
X199332395Y-95440046D01*
X199368873Y-95482144D01*
X199424441Y-95517855D01*
X199489947Y-95559953D01*
X199596403Y-95591211D01*
X199628035Y-95600499D01*
X199628036Y-95600499D01*
X199628039Y-95600500D01*
X199628041Y-95600500D01*
X199771959Y-95600500D01*
X199771961Y-95600500D01*
X199910053Y-95559953D01*
X200031128Y-95482143D01*
X200125377Y-95373373D01*
X200185165Y-95242457D01*
X200205647Y-95100000D01*
X200204000Y-95088547D01*
X200185165Y-94957543D01*
X200171940Y-94928585D01*
X200125377Y-94826627D01*
X200106856Y-94805253D01*
X210174500Y-94805253D01*
X210174500Y-96544746D01*
X210174501Y-96544758D01*
X210186132Y-96603227D01*
X210186134Y-96603233D01*
X210230445Y-96669548D01*
X210230448Y-96669552D01*
X210296769Y-96713867D01*
X210341231Y-96722711D01*
X210355241Y-96725498D01*
X210355246Y-96725498D01*
X210355252Y-96725500D01*
X210355253Y-96725500D01*
X212094747Y-96725500D01*
X212094748Y-96725500D01*
X212153231Y-96713867D01*
X212219552Y-96669552D01*
X212263867Y-96603231D01*
X212275500Y-96544748D01*
X212275500Y-94805252D01*
X212273921Y-94797316D01*
X212266489Y-94759953D01*
X212263867Y-94746769D01*
X212219552Y-94680448D01*
X212159089Y-94640047D01*
X212153233Y-94636134D01*
X212153231Y-94636133D01*
X212153228Y-94636132D01*
X212153227Y-94636132D01*
X212094758Y-94624501D01*
X212094748Y-94624500D01*
X210355252Y-94624500D01*
X210355251Y-94624500D01*
X210355241Y-94624501D01*
X210296772Y-94636132D01*
X210296766Y-94636134D01*
X210230451Y-94680445D01*
X210230445Y-94680451D01*
X210186134Y-94746766D01*
X210186132Y-94746772D01*
X210174501Y-94805241D01*
X210174500Y-94805253D01*
X200106856Y-94805253D01*
X200031128Y-94717857D01*
X200031127Y-94717856D01*
X200031126Y-94717855D01*
X199910057Y-94640049D01*
X199910054Y-94640047D01*
X199910053Y-94640047D01*
X199910050Y-94640046D01*
X199771964Y-94599500D01*
X199771961Y-94599500D01*
X199628039Y-94599500D01*
X199628035Y-94599500D01*
X199489949Y-94640046D01*
X199489942Y-94640049D01*
X199368873Y-94717855D01*
X199274622Y-94826628D01*
X199214834Y-94957543D01*
X199194353Y-95099997D01*
X176758887Y-95099997D01*
X176785165Y-95042457D01*
X176801536Y-94928595D01*
X176805647Y-94900002D01*
X176805647Y-94899997D01*
X176785165Y-94757543D01*
X176750731Y-94682144D01*
X176725377Y-94626627D01*
X176631128Y-94517857D01*
X176631127Y-94517856D01*
X176631126Y-94517855D01*
X176510057Y-94440049D01*
X176510054Y-94440047D01*
X176510053Y-94440047D01*
X176510050Y-94440046D01*
X176371964Y-94399500D01*
X176371961Y-94399500D01*
X176228039Y-94399500D01*
X176228035Y-94399500D01*
X176089949Y-94440046D01*
X176089942Y-94440049D01*
X175968873Y-94517855D01*
X175874622Y-94626628D01*
X175814834Y-94757543D01*
X175794353Y-94899997D01*
X166100500Y-94899997D01*
X166100500Y-93899997D01*
X173194353Y-93899997D01*
X173194353Y-93900002D01*
X173214834Y-94042456D01*
X173274622Y-94173371D01*
X173274623Y-94173373D01*
X173368872Y-94282143D01*
X173368873Y-94282144D01*
X173396653Y-94299997D01*
X173489947Y-94359953D01*
X173596403Y-94391211D01*
X173628035Y-94400499D01*
X173628036Y-94400499D01*
X173628039Y-94400500D01*
X173628041Y-94400500D01*
X173771959Y-94400500D01*
X173771961Y-94400500D01*
X173910053Y-94359953D01*
X174003347Y-94299997D01*
X178794353Y-94299997D01*
X178794353Y-94300002D01*
X178814834Y-94442456D01*
X178849268Y-94517855D01*
X178874623Y-94573373D01*
X178932395Y-94640046D01*
X178968873Y-94682144D01*
X179069432Y-94746769D01*
X179089947Y-94759953D01*
X179196403Y-94791211D01*
X179228035Y-94800499D01*
X179228036Y-94800499D01*
X179228039Y-94800500D01*
X179228041Y-94800500D01*
X179371959Y-94800500D01*
X179371961Y-94800500D01*
X179510053Y-94759953D01*
X179631128Y-94682143D01*
X179725377Y-94573373D01*
X179785165Y-94442457D01*
X179805647Y-94300000D01*
X179805647Y-94299997D01*
X184994353Y-94299997D01*
X184994353Y-94300002D01*
X185014834Y-94442456D01*
X185049268Y-94517855D01*
X185074623Y-94573373D01*
X185132395Y-94640046D01*
X185168873Y-94682144D01*
X185269432Y-94746769D01*
X185289947Y-94759953D01*
X185396403Y-94791211D01*
X185428035Y-94800499D01*
X185428036Y-94800499D01*
X185428039Y-94800500D01*
X185428041Y-94800500D01*
X185571959Y-94800500D01*
X185571961Y-94800500D01*
X185710053Y-94759953D01*
X185831128Y-94682143D01*
X185925377Y-94573373D01*
X185985165Y-94442457D01*
X186005647Y-94300000D01*
X186005647Y-94299997D01*
X189794353Y-94299997D01*
X189794353Y-94300002D01*
X189814834Y-94442456D01*
X189849268Y-94517855D01*
X189874623Y-94573373D01*
X189932395Y-94640046D01*
X189968873Y-94682144D01*
X190069432Y-94746769D01*
X190089947Y-94759953D01*
X190196403Y-94791211D01*
X190228035Y-94800499D01*
X190228036Y-94800499D01*
X190228039Y-94800500D01*
X190228041Y-94800500D01*
X190371959Y-94800500D01*
X190371961Y-94800500D01*
X190510053Y-94759953D01*
X190631128Y-94682143D01*
X190725377Y-94573373D01*
X190785165Y-94442457D01*
X190805647Y-94300000D01*
X190805647Y-94299997D01*
X192994353Y-94299997D01*
X192994353Y-94300002D01*
X193014834Y-94442456D01*
X193049268Y-94517855D01*
X193074623Y-94573373D01*
X193132395Y-94640046D01*
X193168873Y-94682144D01*
X193269432Y-94746769D01*
X193289947Y-94759953D01*
X193396403Y-94791211D01*
X193428035Y-94800499D01*
X193428036Y-94800499D01*
X193428039Y-94800500D01*
X193428041Y-94800500D01*
X193571959Y-94800500D01*
X193571961Y-94800500D01*
X193710053Y-94759953D01*
X193831128Y-94682143D01*
X193925377Y-94573373D01*
X193985165Y-94442457D01*
X194005647Y-94300000D01*
X193985165Y-94157543D01*
X193925377Y-94026627D01*
X193831128Y-93917857D01*
X193831127Y-93917856D01*
X193831126Y-93917855D01*
X193710057Y-93840049D01*
X193710054Y-93840047D01*
X193710053Y-93840047D01*
X193710050Y-93840046D01*
X193571964Y-93799500D01*
X193571961Y-93799500D01*
X193428039Y-93799500D01*
X193428035Y-93799500D01*
X193289949Y-93840046D01*
X193289942Y-93840049D01*
X193168873Y-93917855D01*
X193074622Y-94026628D01*
X193014834Y-94157543D01*
X192994353Y-94299997D01*
X190805647Y-94299997D01*
X190785165Y-94157543D01*
X190725377Y-94026627D01*
X190631128Y-93917857D01*
X190631127Y-93917856D01*
X190631126Y-93917855D01*
X190510057Y-93840049D01*
X190510054Y-93840047D01*
X190510053Y-93840047D01*
X190510050Y-93840046D01*
X190371964Y-93799500D01*
X190371961Y-93799500D01*
X190228039Y-93799500D01*
X190228035Y-93799500D01*
X190089949Y-93840046D01*
X190089942Y-93840049D01*
X189968873Y-93917855D01*
X189874622Y-94026628D01*
X189814834Y-94157543D01*
X189794353Y-94299997D01*
X186005647Y-94299997D01*
X185985165Y-94157543D01*
X185925377Y-94026627D01*
X185831128Y-93917857D01*
X185831127Y-93917856D01*
X185831126Y-93917855D01*
X185710057Y-93840049D01*
X185710054Y-93840047D01*
X185710053Y-93840047D01*
X185710050Y-93840046D01*
X185571964Y-93799500D01*
X185571961Y-93799500D01*
X185428039Y-93799500D01*
X185428035Y-93799500D01*
X185289949Y-93840046D01*
X185289942Y-93840049D01*
X185168873Y-93917855D01*
X185074622Y-94026628D01*
X185014834Y-94157543D01*
X184994353Y-94299997D01*
X179805647Y-94299997D01*
X179785165Y-94157543D01*
X179725377Y-94026627D01*
X179631128Y-93917857D01*
X179631127Y-93917856D01*
X179631126Y-93917855D01*
X179510057Y-93840049D01*
X179510054Y-93840047D01*
X179510053Y-93840047D01*
X179510050Y-93840046D01*
X179371964Y-93799500D01*
X179371961Y-93799500D01*
X179228039Y-93799500D01*
X179228035Y-93799500D01*
X179089949Y-93840046D01*
X179089942Y-93840049D01*
X178968873Y-93917855D01*
X178874622Y-94026628D01*
X178814834Y-94157543D01*
X178794353Y-94299997D01*
X174003347Y-94299997D01*
X174031128Y-94282143D01*
X174125377Y-94173373D01*
X174185165Y-94042457D01*
X174205647Y-93900000D01*
X174197027Y-93840049D01*
X174185165Y-93757543D01*
X174125377Y-93626628D01*
X174125377Y-93626627D01*
X174031128Y-93517857D01*
X174031127Y-93517856D01*
X174031126Y-93517855D01*
X173910057Y-93440049D01*
X173910054Y-93440047D01*
X173910053Y-93440047D01*
X173910050Y-93440046D01*
X173771964Y-93399500D01*
X173771961Y-93399500D01*
X173628039Y-93399500D01*
X173628035Y-93399500D01*
X173489949Y-93440046D01*
X173489942Y-93440049D01*
X173368873Y-93517855D01*
X173274622Y-93626628D01*
X173214834Y-93757543D01*
X173194353Y-93899997D01*
X166100500Y-93899997D01*
X166100500Y-93099997D01*
X174994353Y-93099997D01*
X174994353Y-93100002D01*
X175014834Y-93242456D01*
X175074622Y-93373371D01*
X175074623Y-93373373D01*
X175132395Y-93440046D01*
X175168873Y-93482144D01*
X175224441Y-93517855D01*
X175289947Y-93559953D01*
X175396403Y-93591211D01*
X175428035Y-93600499D01*
X175428036Y-93600499D01*
X175428039Y-93600500D01*
X175428041Y-93600500D01*
X175571959Y-93600500D01*
X175571961Y-93600500D01*
X175710053Y-93559953D01*
X175831128Y-93482143D01*
X175925377Y-93373373D01*
X175985165Y-93242457D01*
X176005647Y-93100000D01*
X176005647Y-93099997D01*
X199194353Y-93099997D01*
X199194353Y-93100002D01*
X199214834Y-93242456D01*
X199274622Y-93373371D01*
X199274623Y-93373373D01*
X199332395Y-93440046D01*
X199368873Y-93482144D01*
X199424441Y-93517855D01*
X199489947Y-93559953D01*
X199596403Y-93591211D01*
X199628035Y-93600499D01*
X199628036Y-93600499D01*
X199628039Y-93600500D01*
X199628041Y-93600500D01*
X199771959Y-93600500D01*
X199771961Y-93600500D01*
X199910053Y-93559953D01*
X200031128Y-93482143D01*
X200125377Y-93373373D01*
X200185165Y-93242457D01*
X200205647Y-93100000D01*
X200185165Y-92957543D01*
X200125377Y-92826627D01*
X200031128Y-92717857D01*
X200031127Y-92717856D01*
X200031126Y-92717855D01*
X199910057Y-92640049D01*
X199910054Y-92640047D01*
X199910053Y-92640047D01*
X199910050Y-92640046D01*
X199771964Y-92599500D01*
X199771961Y-92599500D01*
X199628039Y-92599500D01*
X199628035Y-92599500D01*
X199489949Y-92640046D01*
X199489942Y-92640049D01*
X199368873Y-92717855D01*
X199274622Y-92826628D01*
X199214834Y-92957543D01*
X199194353Y-93099997D01*
X176005647Y-93099997D01*
X175985165Y-92957543D01*
X175925377Y-92826627D01*
X175831128Y-92717857D01*
X175831127Y-92717856D01*
X175831126Y-92717855D01*
X175710057Y-92640049D01*
X175710054Y-92640047D01*
X175710053Y-92640047D01*
X175710050Y-92640046D01*
X175571964Y-92599500D01*
X175571961Y-92599500D01*
X175428039Y-92599500D01*
X175428035Y-92599500D01*
X175289949Y-92640046D01*
X175289942Y-92640049D01*
X175168873Y-92717855D01*
X175074622Y-92826628D01*
X175014834Y-92957543D01*
X174994353Y-93099997D01*
X166100500Y-93099997D01*
X166100500Y-92499997D01*
X184194353Y-92499997D01*
X184194353Y-92500002D01*
X184214834Y-92642456D01*
X184249268Y-92717855D01*
X184274623Y-92773373D01*
X184368872Y-92882143D01*
X184368873Y-92882144D01*
X184486197Y-92957543D01*
X184489947Y-92959953D01*
X184596403Y-92991211D01*
X184628035Y-93000499D01*
X184628036Y-93000499D01*
X184628039Y-93000500D01*
X184628041Y-93000500D01*
X184771959Y-93000500D01*
X184771961Y-93000500D01*
X184910053Y-92959953D01*
X185031128Y-92882143D01*
X185125377Y-92773373D01*
X185185165Y-92642457D01*
X185205647Y-92500000D01*
X185185165Y-92357543D01*
X185125377Y-92226627D01*
X185031128Y-92117857D01*
X185031127Y-92117856D01*
X185031126Y-92117855D01*
X184910057Y-92040049D01*
X184910054Y-92040047D01*
X184910053Y-92040047D01*
X184910050Y-92040046D01*
X184771964Y-91999500D01*
X184771961Y-91999500D01*
X184628039Y-91999500D01*
X184628035Y-91999500D01*
X184489949Y-92040046D01*
X184489942Y-92040049D01*
X184368873Y-92117855D01*
X184274622Y-92226628D01*
X184214834Y-92357543D01*
X184194353Y-92499997D01*
X166100500Y-92499997D01*
X166100500Y-91899997D01*
X193794353Y-91899997D01*
X193794353Y-91900002D01*
X193814834Y-92042456D01*
X193849268Y-92117855D01*
X193874623Y-92173373D01*
X193968872Y-92282143D01*
X193968873Y-92282144D01*
X194086197Y-92357543D01*
X194089947Y-92359953D01*
X194196403Y-92391211D01*
X194228035Y-92400499D01*
X194228036Y-92400499D01*
X194228039Y-92400500D01*
X194228041Y-92400500D01*
X194371959Y-92400500D01*
X194371961Y-92400500D01*
X194510053Y-92359953D01*
X194631128Y-92282143D01*
X194725377Y-92173373D01*
X194785165Y-92042457D01*
X194805647Y-91900000D01*
X194785165Y-91757543D01*
X194725377Y-91626627D01*
X194631128Y-91517857D01*
X194631127Y-91517856D01*
X194631126Y-91517855D01*
X194510057Y-91440049D01*
X194510054Y-91440047D01*
X194510053Y-91440047D01*
X194510050Y-91440046D01*
X194371964Y-91399500D01*
X194371961Y-91399500D01*
X194228039Y-91399500D01*
X194228035Y-91399500D01*
X194089949Y-91440046D01*
X194089942Y-91440049D01*
X193968873Y-91517855D01*
X193874622Y-91626628D01*
X193814834Y-91757543D01*
X193794353Y-91899997D01*
X166100500Y-91899997D01*
X166100500Y-91299997D01*
X187394353Y-91299997D01*
X187394353Y-91300002D01*
X187414834Y-91442456D01*
X187449268Y-91517855D01*
X187474623Y-91573373D01*
X187568872Y-91682143D01*
X187568873Y-91682144D01*
X187686197Y-91757543D01*
X187689947Y-91759953D01*
X187796403Y-91791211D01*
X187828035Y-91800499D01*
X187828036Y-91800499D01*
X187828039Y-91800500D01*
X187828041Y-91800500D01*
X187971959Y-91800500D01*
X187971961Y-91800500D01*
X188110053Y-91759953D01*
X188231128Y-91682143D01*
X188325377Y-91573373D01*
X188385165Y-91442457D01*
X188405647Y-91300000D01*
X188405647Y-91299997D01*
X195394353Y-91299997D01*
X195394353Y-91300002D01*
X195414834Y-91442456D01*
X195449268Y-91517855D01*
X195474623Y-91573373D01*
X195568872Y-91682143D01*
X195568873Y-91682144D01*
X195686197Y-91757543D01*
X195689947Y-91759953D01*
X195796403Y-91791211D01*
X195828035Y-91800499D01*
X195828036Y-91800499D01*
X195828039Y-91800500D01*
X195828041Y-91800500D01*
X195971959Y-91800500D01*
X195971961Y-91800500D01*
X196110053Y-91759953D01*
X196231128Y-91682143D01*
X196325377Y-91573373D01*
X196385165Y-91442457D01*
X196405647Y-91300000D01*
X196385165Y-91157543D01*
X196325377Y-91026627D01*
X196231128Y-90917857D01*
X196231127Y-90917856D01*
X196231126Y-90917855D01*
X196110057Y-90840049D01*
X196110054Y-90840047D01*
X196110053Y-90840047D01*
X196110050Y-90840046D01*
X195971964Y-90799500D01*
X195971961Y-90799500D01*
X195828039Y-90799500D01*
X195828035Y-90799500D01*
X195689949Y-90840046D01*
X195689942Y-90840049D01*
X195568873Y-90917855D01*
X195474622Y-91026628D01*
X195414834Y-91157543D01*
X195394353Y-91299997D01*
X188405647Y-91299997D01*
X188385165Y-91157543D01*
X188325377Y-91026627D01*
X188231128Y-90917857D01*
X188231127Y-90917856D01*
X188231126Y-90917855D01*
X188110057Y-90840049D01*
X188110054Y-90840047D01*
X188110053Y-90840047D01*
X188110050Y-90840046D01*
X187971964Y-90799500D01*
X187971961Y-90799500D01*
X187828039Y-90799500D01*
X187828035Y-90799500D01*
X187689949Y-90840046D01*
X187689942Y-90840049D01*
X187568873Y-90917855D01*
X187474622Y-91026628D01*
X187414834Y-91157543D01*
X187394353Y-91299997D01*
X166100500Y-91299997D01*
X166100500Y-90699997D01*
X204994353Y-90699997D01*
X204994353Y-90700002D01*
X205014834Y-90842456D01*
X205049268Y-90917855D01*
X205074623Y-90973373D01*
X205168872Y-91082143D01*
X205168873Y-91082144D01*
X205286197Y-91157543D01*
X205289947Y-91159953D01*
X205396403Y-91191211D01*
X205428035Y-91200499D01*
X205428036Y-91200499D01*
X205428039Y-91200500D01*
X205428041Y-91200500D01*
X205571959Y-91200500D01*
X205571961Y-91200500D01*
X205710053Y-91159953D01*
X205831128Y-91082143D01*
X205925377Y-90973373D01*
X205985165Y-90842457D01*
X206005647Y-90700000D01*
X205985165Y-90557543D01*
X205925377Y-90426627D01*
X205831128Y-90317857D01*
X205831127Y-90317856D01*
X205831126Y-90317855D01*
X205710057Y-90240049D01*
X205710054Y-90240047D01*
X205710053Y-90240047D01*
X205710050Y-90240046D01*
X205571964Y-90199500D01*
X205571961Y-90199500D01*
X205428039Y-90199500D01*
X205428035Y-90199500D01*
X205289949Y-90240046D01*
X205289942Y-90240049D01*
X205168873Y-90317855D01*
X205074622Y-90426628D01*
X205014834Y-90557543D01*
X204994353Y-90699997D01*
X166100500Y-90699997D01*
X166100500Y-89999500D01*
X166119407Y-89941309D01*
X166168907Y-89905345D01*
X166199500Y-89900500D01*
X214800500Y-89900500D01*
X214858691Y-89919407D01*
G37*
%TD.AperFunction*%
%TD*%
M02*
