%TF.GenerationSoftware,KiCad,Pcbnew,8.0.8*%
%TF.CreationDate,2025-03-09T11:47:17+01:00*%
%TF.ProjectId,01-2x30w_audio_amp,30312d32-7833-4307-975f-617564696f5f,rev?*%
%TF.SameCoordinates,Original*%
%TF.FileFunction,Paste,Bot*%
%TF.FilePolarity,Positive*%
%FSLAX46Y46*%
G04 Gerber Fmt 4.6, Leading zero omitted, Abs format (unit mm)*
G04 Created by KiCad (PCBNEW 8.0.8) date 2025-03-09 11:47:17*
%MOMM*%
%LPD*%
G01*
G04 APERTURE LIST*
G04 Aperture macros list*
%AMRoundRect*
0 Rectangle with rounded corners*
0 $1 Rounding radius*
0 $2 $3 $4 $5 $6 $7 $8 $9 X,Y pos of 4 corners*
0 Add a 4 corners polygon primitive as box body*
4,1,4,$2,$3,$4,$5,$6,$7,$8,$9,$2,$3,0*
0 Add four circle primitives for the rounded corners*
1,1,$1+$1,$2,$3*
1,1,$1+$1,$4,$5*
1,1,$1+$1,$6,$7*
1,1,$1+$1,$8,$9*
0 Add four rect primitives between the rounded corners*
20,1,$1+$1,$2,$3,$4,$5,0*
20,1,$1+$1,$4,$5,$6,$7,0*
20,1,$1+$1,$6,$7,$8,$9,0*
20,1,$1+$1,$8,$9,$2,$3,0*%
%AMFreePoly0*
4,1,9,3.862500,-0.866500,0.737500,-0.866500,0.737500,-0.450000,-0.737500,-0.450000,-0.737500,0.450000,0.737500,0.450000,0.737500,0.866500,3.862500,0.866500,3.862500,-0.866500,3.862500,-0.866500,$1*%
G04 Aperture macros list end*
%ADD10RoundRect,0.200000X0.200000X0.275000X-0.200000X0.275000X-0.200000X-0.275000X0.200000X-0.275000X0*%
%ADD11RoundRect,0.150000X0.512500X0.150000X-0.512500X0.150000X-0.512500X-0.150000X0.512500X-0.150000X0*%
%ADD12RoundRect,0.225000X-0.225000X-0.250000X0.225000X-0.250000X0.225000X0.250000X-0.225000X0.250000X0*%
%ADD13RoundRect,0.200000X-0.275000X0.200000X-0.275000X-0.200000X0.275000X-0.200000X0.275000X0.200000X0*%
%ADD14RoundRect,0.200000X0.275000X-0.200000X0.275000X0.200000X-0.275000X0.200000X-0.275000X-0.200000X0*%
%ADD15RoundRect,0.225000X-0.250000X0.225000X-0.250000X-0.225000X0.250000X-0.225000X0.250000X0.225000X0*%
%ADD16RoundRect,0.225000X0.250000X-0.225000X0.250000X0.225000X-0.250000X0.225000X-0.250000X-0.225000X0*%
%ADD17RoundRect,0.200000X-0.200000X-0.275000X0.200000X-0.275000X0.200000X0.275000X-0.200000X0.275000X0*%
%ADD18RoundRect,0.112500X0.112500X-0.187500X0.112500X0.187500X-0.112500X0.187500X-0.112500X-0.187500X0*%
%ADD19RoundRect,0.225000X0.225000X0.250000X-0.225000X0.250000X-0.225000X-0.250000X0.225000X-0.250000X0*%
%ADD20RoundRect,0.150000X0.587500X0.150000X-0.587500X0.150000X-0.587500X-0.150000X0.587500X-0.150000X0*%
%ADD21RoundRect,0.150000X-0.512500X-0.150000X0.512500X-0.150000X0.512500X0.150000X-0.512500X0.150000X0*%
%ADD22R,0.550000X0.930000*%
%ADD23R,1.000000X0.930000*%
%ADD24R,0.550000X1.200000*%
%ADD25R,1.000000X1.200000*%
%ADD26R,0.400000X1.200000*%
%ADD27RoundRect,0.225000X0.425000X0.225000X-0.425000X0.225000X-0.425000X-0.225000X0.425000X-0.225000X0*%
%ADD28FreePoly0,180.000000*%
%ADD29RoundRect,0.112500X-0.112500X0.187500X-0.112500X-0.187500X0.112500X-0.187500X0.112500X0.187500X0*%
%ADD30RoundRect,0.250000X1.000000X0.900000X-1.000000X0.900000X-1.000000X-0.900000X1.000000X-0.900000X0*%
G04 APERTURE END LIST*
D10*
%TO.C,R34*%
X180125000Y-96700000D03*
X178475000Y-96700000D03*
%TD*%
D11*
%TO.C,U3*%
X193437500Y-126350000D03*
X193437500Y-127300000D03*
X193437500Y-128250000D03*
X191162500Y-128250000D03*
X191162500Y-126350000D03*
%TD*%
D12*
%TO.C,C21*%
X191125000Y-107500000D03*
X192675000Y-107500000D03*
%TD*%
D13*
%TO.C,R28*%
X186900000Y-120075000D03*
X186900000Y-121725000D03*
%TD*%
D14*
%TO.C,R3*%
X171900000Y-100525000D03*
X171900000Y-98875000D03*
%TD*%
D15*
%TO.C,C36*%
X206125000Y-120150000D03*
X206125000Y-121700000D03*
%TD*%
D16*
%TO.C,C23*%
X183900000Y-105275000D03*
X183900000Y-103725000D03*
%TD*%
%TO.C,C5*%
X170500000Y-126275000D03*
X170500000Y-124725000D03*
%TD*%
D10*
%TO.C,R19*%
X189125000Y-129700000D03*
X187475000Y-129700000D03*
%TD*%
D14*
%TO.C,R33*%
X190700000Y-131325000D03*
X190700000Y-129675000D03*
%TD*%
D12*
%TO.C,C7*%
X206925000Y-103300000D03*
X208475000Y-103300000D03*
%TD*%
D17*
%TO.C,R16*%
X178475000Y-93500000D03*
X180125000Y-93500000D03*
%TD*%
D15*
%TO.C,C13*%
X195900000Y-93525000D03*
X195900000Y-95075000D03*
%TD*%
D10*
%TO.C,R20*%
X189125000Y-131300000D03*
X187475000Y-131300000D03*
%TD*%
D15*
%TO.C,C39*%
X200500000Y-120150000D03*
X200500000Y-121700000D03*
%TD*%
D12*
%TO.C,C15*%
X191525000Y-124700000D03*
X193075000Y-124700000D03*
%TD*%
D15*
%TO.C,C33*%
X170125000Y-120150000D03*
X170125000Y-121700000D03*
%TD*%
D14*
%TO.C,R12*%
X169100000Y-97325000D03*
X169100000Y-95675000D03*
%TD*%
D16*
%TO.C,C26*%
X198500000Y-105275000D03*
X198500000Y-103725000D03*
%TD*%
D15*
%TO.C,C12*%
X194300000Y-93525000D03*
X194300000Y-95075000D03*
%TD*%
D18*
%TO.C,D3*%
X209100000Y-93750000D03*
X209100000Y-91650000D03*
%TD*%
D17*
%TO.C,R26*%
X181475000Y-96700000D03*
X183125000Y-96700000D03*
%TD*%
D11*
%TO.C,U5*%
X173037500Y-95550000D03*
X173037500Y-96500000D03*
X173037500Y-97450000D03*
X170762500Y-97450000D03*
X170762500Y-95550000D03*
%TD*%
D15*
%TO.C,C35*%
X194125000Y-120150000D03*
X194125000Y-121700000D03*
%TD*%
D14*
%TO.C,R23*%
X192700000Y-95125000D03*
X192700000Y-93475000D03*
%TD*%
D16*
%TO.C,C1*%
X171900000Y-103475000D03*
X171900000Y-101925000D03*
%TD*%
D15*
%TO.C,C38*%
X188500000Y-120125000D03*
X188500000Y-121675000D03*
%TD*%
D10*
%TO.C,R11*%
X205525000Y-96900000D03*
X203875000Y-96900000D03*
%TD*%
D19*
%TO.C,C42*%
X202475000Y-96900000D03*
X200925000Y-96900000D03*
%TD*%
%TO.C,C20*%
X189875000Y-107500000D03*
X188325000Y-107500000D03*
%TD*%
%TO.C,C22*%
X195675000Y-107500000D03*
X194125000Y-107500000D03*
%TD*%
D13*
%TO.C,R30*%
X210900000Y-120100000D03*
X210900000Y-121750000D03*
%TD*%
D10*
%TO.C,R8*%
X173725000Y-126300000D03*
X172075000Y-126300000D03*
%TD*%
D17*
%TO.C,R24*%
X181475000Y-95100000D03*
X183125000Y-95100000D03*
%TD*%
%TO.C,R1*%
X203875000Y-91700000D03*
X205525000Y-91700000D03*
%TD*%
D13*
%TO.C,R27*%
X174900000Y-120100000D03*
X174900000Y-121750000D03*
%TD*%
D14*
%TO.C,R6*%
X176300000Y-97525000D03*
X176300000Y-95875000D03*
%TD*%
D15*
%TO.C,C10*%
X184700000Y-93525000D03*
X184700000Y-95075000D03*
%TD*%
D12*
%TO.C,C41*%
X171125000Y-93900000D03*
X172675000Y-93900000D03*
%TD*%
%TO.C,C14*%
X181525000Y-93500000D03*
X183075000Y-93500000D03*
%TD*%
D20*
%TO.C,D1*%
X207037500Y-93350000D03*
X207037500Y-95250000D03*
X205162499Y-94300000D03*
%TD*%
D15*
%TO.C,C37*%
X176500000Y-120150000D03*
X176500000Y-121700000D03*
%TD*%
D16*
%TO.C,C2*%
X170300000Y-103475000D03*
X170300000Y-101925000D03*
%TD*%
D10*
%TO.C,R9*%
X173725000Y-124700000D03*
X172075000Y-124700000D03*
%TD*%
D16*
%TO.C,C18*%
X198700000Y-99275000D03*
X198700000Y-97725000D03*
%TD*%
D21*
%TO.C,U1*%
X200962500Y-95249999D03*
X200962500Y-94300000D03*
X200962500Y-93350001D03*
X203237500Y-93350001D03*
X203237500Y-95249999D03*
%TD*%
D22*
%TO.C,U4*%
X192225000Y-100235000D03*
D23*
X191150000Y-100235000D03*
X189850000Y-100235000D03*
D22*
X188775000Y-100235000D03*
D24*
X192225000Y-101600000D03*
D25*
X191149999Y-101600000D03*
X189850001Y-101600000D03*
D24*
X188775000Y-101600000D03*
D22*
X192225000Y-102965000D03*
D23*
X191150000Y-102965000D03*
X189850000Y-102965000D03*
D22*
X188775000Y-102965000D03*
D26*
X185625000Y-97950000D03*
X186275000Y-97950000D03*
X186925000Y-97950000D03*
X187575000Y-97950000D03*
X188225000Y-97950000D03*
X188875000Y-97950000D03*
X189525000Y-97950000D03*
X190175000Y-97950000D03*
X190825000Y-97950000D03*
X191475000Y-97950000D03*
X192125000Y-97950000D03*
X192775000Y-97950000D03*
X193425000Y-97950000D03*
X194075000Y-97950000D03*
X194725000Y-97950000D03*
X195375000Y-97950000D03*
X195375000Y-105250000D03*
X194725000Y-105250000D03*
X194075000Y-105250000D03*
X193425000Y-105250000D03*
X192775000Y-105250000D03*
X192125000Y-105250000D03*
X191475000Y-105250000D03*
X190825000Y-105250000D03*
X190175000Y-105250000D03*
X189525000Y-105250000D03*
X188875000Y-105250000D03*
X188225000Y-105250000D03*
X187575000Y-105250000D03*
X186925000Y-105250000D03*
X186275000Y-105250000D03*
X185625000Y-105250000D03*
%TD*%
D12*
%TO.C,C4*%
X195525000Y-128100000D03*
X197075000Y-128100000D03*
%TD*%
D17*
%TO.C,R2*%
X200875000Y-91700000D03*
X202525000Y-91700000D03*
%TD*%
D14*
%TO.C,R17*%
X189100000Y-128125000D03*
X189100000Y-126475000D03*
%TD*%
%TO.C,R10*%
X212900000Y-93525000D03*
X212900000Y-91875000D03*
%TD*%
D27*
%TO.C,U2*%
X173512499Y-128237500D03*
D28*
X173424998Y-129737500D03*
D27*
X173512499Y-131237500D03*
%TD*%
D14*
%TO.C,R5*%
X173500000Y-100525000D03*
X173500000Y-98875000D03*
%TD*%
D17*
%TO.C,R15*%
X206875000Y-101700000D03*
X208525000Y-101700000D03*
%TD*%
D15*
%TO.C,C34*%
X182100000Y-120125000D03*
X182100000Y-121675000D03*
%TD*%
%TO.C,C40*%
X212500000Y-120150000D03*
X212500000Y-121700000D03*
%TD*%
D13*
%TO.C,R31*%
X192300000Y-129675000D03*
X192300000Y-131325000D03*
%TD*%
D14*
%TO.C,R4*%
X170300000Y-100525000D03*
X170300000Y-98875000D03*
%TD*%
D16*
%TO.C,C25*%
X182500000Y-105275000D03*
X182500000Y-103725000D03*
%TD*%
D13*
%TO.C,R22*%
X191100000Y-93475000D03*
X191100000Y-95125000D03*
%TD*%
D16*
%TO.C,C24*%
X197100000Y-105275000D03*
X197100000Y-103725000D03*
%TD*%
D15*
%TO.C,C11*%
X187900000Y-93525000D03*
X187900000Y-95075000D03*
%TD*%
D10*
%TO.C,R32*%
X197125000Y-129700000D03*
X195475000Y-129700000D03*
%TD*%
D13*
%TO.C,R18*%
X193900000Y-129675000D03*
X193900000Y-131325000D03*
%TD*%
D15*
%TO.C,C17*%
X189500000Y-93525000D03*
X189500000Y-95075000D03*
%TD*%
D13*
%TO.C,R21*%
X197100000Y-97675000D03*
X197100000Y-99325000D03*
%TD*%
D15*
%TO.C,C16*%
X186300000Y-93525000D03*
X186300000Y-95075000D03*
%TD*%
D13*
%TO.C,R29*%
X198900000Y-120100000D03*
X198900000Y-121750000D03*
%TD*%
D17*
%TO.C,R13*%
X206875000Y-96900000D03*
X208525000Y-96900000D03*
%TD*%
D29*
%TO.C,D2*%
X211100000Y-91650000D03*
X211100000Y-93750000D03*
%TD*%
D19*
%TO.C,C6*%
X208475000Y-100100000D03*
X206925000Y-100100000D03*
%TD*%
D13*
%TO.C,R7*%
X174700000Y-95875000D03*
X174700000Y-97525000D03*
%TD*%
D12*
%TO.C,C19*%
X185325000Y-107500000D03*
X186875000Y-107500000D03*
%TD*%
%TO.C,C9*%
X178525000Y-95100000D03*
X180075000Y-95100000D03*
%TD*%
D16*
%TO.C,C3*%
X173500000Y-103475000D03*
X173500000Y-101925000D03*
%TD*%
D30*
%TO.C,D5*%
X213150000Y-130175000D03*
X208850000Y-130175000D03*
%TD*%
D10*
%TO.C,R14*%
X208525000Y-98500000D03*
X206875000Y-98500000D03*
%TD*%
D14*
%TO.C,R25*%
X183100000Y-99725000D03*
X183100000Y-98075000D03*
%TD*%
M02*
