%TF.GenerationSoftware,KiCad,Pcbnew,8.0.8*%
%TF.CreationDate,2025-03-09T11:47:17+01:00*%
%TF.ProjectId,01-2x30w_audio_amp,30312d32-7833-4307-975f-617564696f5f,rev?*%
%TF.SameCoordinates,Original*%
%TF.FileFunction,Legend,Top*%
%TF.FilePolarity,Positive*%
%FSLAX46Y46*%
G04 Gerber Fmt 4.6, Leading zero omitted, Abs format (unit mm)*
G04 Created by KiCad (PCBNEW 8.0.8) date 2025-03-09 11:47:17*
%MOMM*%
%LPD*%
G01*
G04 APERTURE LIST*
G04 Aperture macros list*
%AMRoundRect*
0 Rectangle with rounded corners*
0 $1 Rounding radius*
0 $2 $3 $4 $5 $6 $7 $8 $9 X,Y pos of 4 corners*
0 Add a 4 corners polygon primitive as box body*
4,1,4,$2,$3,$4,$5,$6,$7,$8,$9,$2,$3,0*
0 Add four circle primitives for the rounded corners*
1,1,$1+$1,$2,$3*
1,1,$1+$1,$4,$5*
1,1,$1+$1,$6,$7*
1,1,$1+$1,$8,$9*
0 Add four rect primitives between the rounded corners*
20,1,$1+$1,$2,$3,$4,$5,0*
20,1,$1+$1,$4,$5,$6,$7,0*
20,1,$1+$1,$6,$7,$8,$9,0*
20,1,$1+$1,$8,$9,$2,$3,0*%
%AMRotRect*
0 Rectangle, with rotation*
0 The origin of the aperture is its center*
0 $1 length*
0 $2 width*
0 $3 Rotation angle, in degrees counterclockwise*
0 Add horizontal line*
21,1,$1,$2,0,0,$3*%
G04 Aperture macros list end*
%ADD10C,0.300000*%
%ADD11C,0.200000*%
%ADD12C,0.250000*%
%ADD13C,0.120000*%
%ADD14C,0.127000*%
%ADD15C,0.010000*%
%ADD16C,0.100000*%
%ADD17C,1.800000*%
%ADD18C,2.600000*%
%ADD19C,1.600000*%
%ADD20RotRect,1.600000X1.600000X225.000000*%
%ADD21C,1.620000*%
%ADD22RoundRect,0.102000X-1.050000X-1.050000X1.050000X-1.050000X1.050000X1.050000X-1.050000X1.050000X0*%
%ADD23C,2.304000*%
%ADD24R,1.700000X1.700000*%
%ADD25O,1.700000X1.700000*%
%ADD26C,5.600000*%
%ADD27RotRect,1.600000X1.600000X315.000000*%
G04 APERTURE END LIST*
D10*
X172308332Y-93134144D02*
X172308332Y-91734144D01*
X172308332Y-91734144D02*
X172841665Y-91734144D01*
X172841665Y-91734144D02*
X172974999Y-91800811D01*
X172974999Y-91800811D02*
X173041665Y-91867478D01*
X173041665Y-91867478D02*
X173108332Y-92000811D01*
X173108332Y-92000811D02*
X173108332Y-92200811D01*
X173108332Y-92200811D02*
X173041665Y-92334144D01*
X173041665Y-92334144D02*
X172974999Y-92400811D01*
X172974999Y-92400811D02*
X172841665Y-92467478D01*
X172841665Y-92467478D02*
X172308332Y-92467478D01*
X174241665Y-93067478D02*
X174108332Y-93134144D01*
X174108332Y-93134144D02*
X173841665Y-93134144D01*
X173841665Y-93134144D02*
X173708332Y-93067478D01*
X173708332Y-93067478D02*
X173641665Y-92934144D01*
X173641665Y-92934144D02*
X173641665Y-92400811D01*
X173641665Y-92400811D02*
X173708332Y-92267478D01*
X173708332Y-92267478D02*
X173841665Y-92200811D01*
X173841665Y-92200811D02*
X174108332Y-92200811D01*
X174108332Y-92200811D02*
X174241665Y-92267478D01*
X174241665Y-92267478D02*
X174308332Y-92400811D01*
X174308332Y-92400811D02*
X174308332Y-92534144D01*
X174308332Y-92534144D02*
X173641665Y-92667478D01*
X175508332Y-92200811D02*
X175508332Y-93334144D01*
X175508332Y-93334144D02*
X175441665Y-93467478D01*
X175441665Y-93467478D02*
X175374999Y-93534144D01*
X175374999Y-93534144D02*
X175241665Y-93600811D01*
X175241665Y-93600811D02*
X175041665Y-93600811D01*
X175041665Y-93600811D02*
X174908332Y-93534144D01*
X175508332Y-93067478D02*
X175374999Y-93134144D01*
X175374999Y-93134144D02*
X175108332Y-93134144D01*
X175108332Y-93134144D02*
X174974999Y-93067478D01*
X174974999Y-93067478D02*
X174908332Y-93000811D01*
X174908332Y-93000811D02*
X174841665Y-92867478D01*
X174841665Y-92867478D02*
X174841665Y-92467478D01*
X174841665Y-92467478D02*
X174908332Y-92334144D01*
X174908332Y-92334144D02*
X174974999Y-92267478D01*
X174974999Y-92267478D02*
X175108332Y-92200811D01*
X175108332Y-92200811D02*
X175374999Y-92200811D01*
X175374999Y-92200811D02*
X175508332Y-92267478D01*
X176174999Y-93134144D02*
X176174999Y-91734144D01*
X176174999Y-92267478D02*
X176308332Y-92200811D01*
X176308332Y-92200811D02*
X176574999Y-92200811D01*
X176574999Y-92200811D02*
X176708332Y-92267478D01*
X176708332Y-92267478D02*
X176774999Y-92334144D01*
X176774999Y-92334144D02*
X176841666Y-92467478D01*
X176841666Y-92467478D02*
X176841666Y-92867478D01*
X176841666Y-92867478D02*
X176774999Y-93000811D01*
X176774999Y-93000811D02*
X176708332Y-93067478D01*
X176708332Y-93067478D02*
X176574999Y-93134144D01*
X176574999Y-93134144D02*
X176308332Y-93134144D01*
X176308332Y-93134144D02*
X176174999Y-93067478D01*
X177641666Y-93134144D02*
X177508333Y-93067478D01*
X177508333Y-93067478D02*
X177441666Y-93000811D01*
X177441666Y-93000811D02*
X177374999Y-92867478D01*
X177374999Y-92867478D02*
X177374999Y-92467478D01*
X177374999Y-92467478D02*
X177441666Y-92334144D01*
X177441666Y-92334144D02*
X177508333Y-92267478D01*
X177508333Y-92267478D02*
X177641666Y-92200811D01*
X177641666Y-92200811D02*
X177841666Y-92200811D01*
X177841666Y-92200811D02*
X177974999Y-92267478D01*
X177974999Y-92267478D02*
X178041666Y-92334144D01*
X178041666Y-92334144D02*
X178108333Y-92467478D01*
X178108333Y-92467478D02*
X178108333Y-92867478D01*
X178108333Y-92867478D02*
X178041666Y-93000811D01*
X178041666Y-93000811D02*
X177974999Y-93067478D01*
X177974999Y-93067478D02*
X177841666Y-93134144D01*
X177841666Y-93134144D02*
X177641666Y-93134144D01*
X179308333Y-93134144D02*
X179308333Y-92400811D01*
X179308333Y-92400811D02*
X179241666Y-92267478D01*
X179241666Y-92267478D02*
X179108333Y-92200811D01*
X179108333Y-92200811D02*
X178841666Y-92200811D01*
X178841666Y-92200811D02*
X178708333Y-92267478D01*
X179308333Y-93067478D02*
X179175000Y-93134144D01*
X179175000Y-93134144D02*
X178841666Y-93134144D01*
X178841666Y-93134144D02*
X178708333Y-93067478D01*
X178708333Y-93067478D02*
X178641666Y-92934144D01*
X178641666Y-92934144D02*
X178641666Y-92800811D01*
X178641666Y-92800811D02*
X178708333Y-92667478D01*
X178708333Y-92667478D02*
X178841666Y-92600811D01*
X178841666Y-92600811D02*
X179175000Y-92600811D01*
X179175000Y-92600811D02*
X179308333Y-92534144D01*
X179975000Y-93134144D02*
X179975000Y-92200811D01*
X179975000Y-92467478D02*
X180041667Y-92334144D01*
X180041667Y-92334144D02*
X180108333Y-92267478D01*
X180108333Y-92267478D02*
X180241667Y-92200811D01*
X180241667Y-92200811D02*
X180375000Y-92200811D01*
X181441667Y-93134144D02*
X181441667Y-91734144D01*
X181441667Y-93067478D02*
X181308334Y-93134144D01*
X181308334Y-93134144D02*
X181041667Y-93134144D01*
X181041667Y-93134144D02*
X180908334Y-93067478D01*
X180908334Y-93067478D02*
X180841667Y-93000811D01*
X180841667Y-93000811D02*
X180775000Y-92867478D01*
X180775000Y-92867478D02*
X180775000Y-92467478D01*
X180775000Y-92467478D02*
X180841667Y-92334144D01*
X180841667Y-92334144D02*
X180908334Y-92267478D01*
X180908334Y-92267478D02*
X181041667Y-92200811D01*
X181041667Y-92200811D02*
X181308334Y-92200811D01*
X181308334Y-92200811D02*
X181441667Y-92267478D01*
X183441668Y-91734144D02*
X183575001Y-91734144D01*
X183575001Y-91734144D02*
X183708334Y-91800811D01*
X183708334Y-91800811D02*
X183775001Y-91867478D01*
X183775001Y-91867478D02*
X183841668Y-92000811D01*
X183841668Y-92000811D02*
X183908334Y-92267478D01*
X183908334Y-92267478D02*
X183908334Y-92600811D01*
X183908334Y-92600811D02*
X183841668Y-92867478D01*
X183841668Y-92867478D02*
X183775001Y-93000811D01*
X183775001Y-93000811D02*
X183708334Y-93067478D01*
X183708334Y-93067478D02*
X183575001Y-93134144D01*
X183575001Y-93134144D02*
X183441668Y-93134144D01*
X183441668Y-93134144D02*
X183308334Y-93067478D01*
X183308334Y-93067478D02*
X183241668Y-93000811D01*
X183241668Y-93000811D02*
X183175001Y-92867478D01*
X183175001Y-92867478D02*
X183108334Y-92600811D01*
X183108334Y-92600811D02*
X183108334Y-92267478D01*
X183108334Y-92267478D02*
X183175001Y-92000811D01*
X183175001Y-92000811D02*
X183241668Y-91867478D01*
X183241668Y-91867478D02*
X183308334Y-91800811D01*
X183308334Y-91800811D02*
X183441668Y-91734144D01*
X185241667Y-93134144D02*
X184441667Y-93134144D01*
X184841667Y-93134144D02*
X184841667Y-91734144D01*
X184841667Y-91734144D02*
X184708334Y-91934144D01*
X184708334Y-91934144D02*
X184575001Y-92067478D01*
X184575001Y-92067478D02*
X184441667Y-92134144D01*
X186775001Y-92200811D02*
X187108334Y-93134144D01*
X187108334Y-93134144D02*
X187441667Y-92200811D01*
X188708334Y-93134144D02*
X187908334Y-93134144D01*
X188308334Y-93134144D02*
X188308334Y-91734144D01*
X188308334Y-91734144D02*
X188175001Y-91934144D01*
X188175001Y-91934144D02*
X188041668Y-92067478D01*
X188041668Y-92067478D02*
X187908334Y-92134144D01*
X189308334Y-93000811D02*
X189375001Y-93067478D01*
X189375001Y-93067478D02*
X189308334Y-93134144D01*
X189308334Y-93134144D02*
X189241667Y-93067478D01*
X189241667Y-93067478D02*
X189308334Y-93000811D01*
X189308334Y-93000811D02*
X189308334Y-93134144D01*
X190241668Y-91734144D02*
X190375001Y-91734144D01*
X190375001Y-91734144D02*
X190508334Y-91800811D01*
X190508334Y-91800811D02*
X190575001Y-91867478D01*
X190575001Y-91867478D02*
X190641668Y-92000811D01*
X190641668Y-92000811D02*
X190708334Y-92267478D01*
X190708334Y-92267478D02*
X190708334Y-92600811D01*
X190708334Y-92600811D02*
X190641668Y-92867478D01*
X190641668Y-92867478D02*
X190575001Y-93000811D01*
X190575001Y-93000811D02*
X190508334Y-93067478D01*
X190508334Y-93067478D02*
X190375001Y-93134144D01*
X190375001Y-93134144D02*
X190241668Y-93134144D01*
X190241668Y-93134144D02*
X190108334Y-93067478D01*
X190108334Y-93067478D02*
X190041668Y-93000811D01*
X190041668Y-93000811D02*
X189975001Y-92867478D01*
X189975001Y-92867478D02*
X189908334Y-92600811D01*
X189908334Y-92600811D02*
X189908334Y-92267478D01*
X189908334Y-92267478D02*
X189975001Y-92000811D01*
X189975001Y-92000811D02*
X190041668Y-91867478D01*
X190041668Y-91867478D02*
X190108334Y-91800811D01*
X190108334Y-91800811D02*
X190241668Y-91734144D01*
X172308332Y-94121400D02*
X172374999Y-94054733D01*
X172374999Y-94054733D02*
X172508332Y-93988066D01*
X172508332Y-93988066D02*
X172841666Y-93988066D01*
X172841666Y-93988066D02*
X172974999Y-94054733D01*
X172974999Y-94054733D02*
X173041666Y-94121400D01*
X173041666Y-94121400D02*
X173108332Y-94254733D01*
X173108332Y-94254733D02*
X173108332Y-94388066D01*
X173108332Y-94388066D02*
X173041666Y-94588066D01*
X173041666Y-94588066D02*
X172241666Y-95388066D01*
X172241666Y-95388066D02*
X173108332Y-95388066D01*
X173574999Y-95388066D02*
X174308332Y-94454733D01*
X173574999Y-94454733D02*
X174308332Y-95388066D01*
X174708332Y-93988066D02*
X175574998Y-93988066D01*
X175574998Y-93988066D02*
X175108332Y-94521400D01*
X175108332Y-94521400D02*
X175308332Y-94521400D01*
X175308332Y-94521400D02*
X175441665Y-94588066D01*
X175441665Y-94588066D02*
X175508332Y-94654733D01*
X175508332Y-94654733D02*
X175574998Y-94788066D01*
X175574998Y-94788066D02*
X175574998Y-95121400D01*
X175574998Y-95121400D02*
X175508332Y-95254733D01*
X175508332Y-95254733D02*
X175441665Y-95321400D01*
X175441665Y-95321400D02*
X175308332Y-95388066D01*
X175308332Y-95388066D02*
X174908332Y-95388066D01*
X174908332Y-95388066D02*
X174774998Y-95321400D01*
X174774998Y-95321400D02*
X174708332Y-95254733D01*
X176441665Y-93988066D02*
X176574998Y-93988066D01*
X176574998Y-93988066D02*
X176708331Y-94054733D01*
X176708331Y-94054733D02*
X176774998Y-94121400D01*
X176774998Y-94121400D02*
X176841665Y-94254733D01*
X176841665Y-94254733D02*
X176908331Y-94521400D01*
X176908331Y-94521400D02*
X176908331Y-94854733D01*
X176908331Y-94854733D02*
X176841665Y-95121400D01*
X176841665Y-95121400D02*
X176774998Y-95254733D01*
X176774998Y-95254733D02*
X176708331Y-95321400D01*
X176708331Y-95321400D02*
X176574998Y-95388066D01*
X176574998Y-95388066D02*
X176441665Y-95388066D01*
X176441665Y-95388066D02*
X176308331Y-95321400D01*
X176308331Y-95321400D02*
X176241665Y-95254733D01*
X176241665Y-95254733D02*
X176174998Y-95121400D01*
X176174998Y-95121400D02*
X176108331Y-94854733D01*
X176108331Y-94854733D02*
X176108331Y-94521400D01*
X176108331Y-94521400D02*
X176174998Y-94254733D01*
X176174998Y-94254733D02*
X176241665Y-94121400D01*
X176241665Y-94121400D02*
X176308331Y-94054733D01*
X176308331Y-94054733D02*
X176441665Y-93988066D01*
X177374998Y-93988066D02*
X177708331Y-95388066D01*
X177708331Y-95388066D02*
X177974998Y-94388066D01*
X177974998Y-94388066D02*
X178241664Y-95388066D01*
X178241664Y-95388066D02*
X178574998Y-93988066D01*
X180108331Y-94988066D02*
X180774998Y-94988066D01*
X179974998Y-95388066D02*
X180441665Y-93988066D01*
X180441665Y-93988066D02*
X180908331Y-95388066D01*
X181974998Y-94454733D02*
X181974998Y-95388066D01*
X181374998Y-94454733D02*
X181374998Y-95188066D01*
X181374998Y-95188066D02*
X181441665Y-95321400D01*
X181441665Y-95321400D02*
X181574998Y-95388066D01*
X181574998Y-95388066D02*
X181774998Y-95388066D01*
X181774998Y-95388066D02*
X181908331Y-95321400D01*
X181908331Y-95321400D02*
X181974998Y-95254733D01*
X183241665Y-95388066D02*
X183241665Y-93988066D01*
X183241665Y-95321400D02*
X183108332Y-95388066D01*
X183108332Y-95388066D02*
X182841665Y-95388066D01*
X182841665Y-95388066D02*
X182708332Y-95321400D01*
X182708332Y-95321400D02*
X182641665Y-95254733D01*
X182641665Y-95254733D02*
X182574998Y-95121400D01*
X182574998Y-95121400D02*
X182574998Y-94721400D01*
X182574998Y-94721400D02*
X182641665Y-94588066D01*
X182641665Y-94588066D02*
X182708332Y-94521400D01*
X182708332Y-94521400D02*
X182841665Y-94454733D01*
X182841665Y-94454733D02*
X183108332Y-94454733D01*
X183108332Y-94454733D02*
X183241665Y-94521400D01*
X183908332Y-95388066D02*
X183908332Y-94454733D01*
X183908332Y-93988066D02*
X183841665Y-94054733D01*
X183841665Y-94054733D02*
X183908332Y-94121400D01*
X183908332Y-94121400D02*
X183974999Y-94054733D01*
X183974999Y-94054733D02*
X183908332Y-93988066D01*
X183908332Y-93988066D02*
X183908332Y-94121400D01*
X184774999Y-95388066D02*
X184641666Y-95321400D01*
X184641666Y-95321400D02*
X184574999Y-95254733D01*
X184574999Y-95254733D02*
X184508332Y-95121400D01*
X184508332Y-95121400D02*
X184508332Y-94721400D01*
X184508332Y-94721400D02*
X184574999Y-94588066D01*
X184574999Y-94588066D02*
X184641666Y-94521400D01*
X184641666Y-94521400D02*
X184774999Y-94454733D01*
X184774999Y-94454733D02*
X184974999Y-94454733D01*
X184974999Y-94454733D02*
X185108332Y-94521400D01*
X185108332Y-94521400D02*
X185174999Y-94588066D01*
X185174999Y-94588066D02*
X185241666Y-94721400D01*
X185241666Y-94721400D02*
X185241666Y-95121400D01*
X185241666Y-95121400D02*
X185174999Y-95254733D01*
X185174999Y-95254733D02*
X185108332Y-95321400D01*
X185108332Y-95321400D02*
X184974999Y-95388066D01*
X184974999Y-95388066D02*
X184774999Y-95388066D01*
X186841666Y-94988066D02*
X187508333Y-94988066D01*
X186708333Y-95388066D02*
X187175000Y-93988066D01*
X187175000Y-93988066D02*
X187641666Y-95388066D01*
X188108333Y-95388066D02*
X188108333Y-94454733D01*
X188108333Y-94588066D02*
X188175000Y-94521400D01*
X188175000Y-94521400D02*
X188308333Y-94454733D01*
X188308333Y-94454733D02*
X188508333Y-94454733D01*
X188508333Y-94454733D02*
X188641666Y-94521400D01*
X188641666Y-94521400D02*
X188708333Y-94654733D01*
X188708333Y-94654733D02*
X188708333Y-95388066D01*
X188708333Y-94654733D02*
X188775000Y-94521400D01*
X188775000Y-94521400D02*
X188908333Y-94454733D01*
X188908333Y-94454733D02*
X189108333Y-94454733D01*
X189108333Y-94454733D02*
X189241666Y-94521400D01*
X189241666Y-94521400D02*
X189308333Y-94654733D01*
X189308333Y-94654733D02*
X189308333Y-95388066D01*
X189975000Y-94454733D02*
X189975000Y-95854733D01*
X189975000Y-94521400D02*
X190108333Y-94454733D01*
X190108333Y-94454733D02*
X190375000Y-94454733D01*
X190375000Y-94454733D02*
X190508333Y-94521400D01*
X190508333Y-94521400D02*
X190575000Y-94588066D01*
X190575000Y-94588066D02*
X190641667Y-94721400D01*
X190641667Y-94721400D02*
X190641667Y-95121400D01*
X190641667Y-95121400D02*
X190575000Y-95254733D01*
X190575000Y-95254733D02*
X190508333Y-95321400D01*
X190508333Y-95321400D02*
X190375000Y-95388066D01*
X190375000Y-95388066D02*
X190108333Y-95388066D01*
X190108333Y-95388066D02*
X189975000Y-95321400D01*
D11*
X168828571Y-130357275D02*
X168352381Y-130357275D01*
X168352381Y-130357275D02*
X168352381Y-129357275D01*
X169161905Y-130357275D02*
X169161905Y-129690608D01*
X169161905Y-129357275D02*
X169114286Y-129404894D01*
X169114286Y-129404894D02*
X169161905Y-129452513D01*
X169161905Y-129452513D02*
X169209524Y-129404894D01*
X169209524Y-129404894D02*
X169161905Y-129357275D01*
X169161905Y-129357275D02*
X169161905Y-129452513D01*
X169638095Y-129690608D02*
X169638095Y-130357275D01*
X169638095Y-129785846D02*
X169685714Y-129738227D01*
X169685714Y-129738227D02*
X169780952Y-129690608D01*
X169780952Y-129690608D02*
X169923809Y-129690608D01*
X169923809Y-129690608D02*
X170019047Y-129738227D01*
X170019047Y-129738227D02*
X170066666Y-129833465D01*
X170066666Y-129833465D02*
X170066666Y-130357275D01*
X170923809Y-130309656D02*
X170828571Y-130357275D01*
X170828571Y-130357275D02*
X170638095Y-130357275D01*
X170638095Y-130357275D02*
X170542857Y-130309656D01*
X170542857Y-130309656D02*
X170495238Y-130214417D01*
X170495238Y-130214417D02*
X170495238Y-129833465D01*
X170495238Y-129833465D02*
X170542857Y-129738227D01*
X170542857Y-129738227D02*
X170638095Y-129690608D01*
X170638095Y-129690608D02*
X170828571Y-129690608D01*
X170828571Y-129690608D02*
X170923809Y-129738227D01*
X170923809Y-129738227D02*
X170971428Y-129833465D01*
X170971428Y-129833465D02*
X170971428Y-129928703D01*
X170971428Y-129928703D02*
X170495238Y-130023941D01*
X172161905Y-130357275D02*
X172161905Y-129357275D01*
X172638095Y-129690608D02*
X172638095Y-130357275D01*
X172638095Y-129785846D02*
X172685714Y-129738227D01*
X172685714Y-129738227D02*
X172780952Y-129690608D01*
X172780952Y-129690608D02*
X172923809Y-129690608D01*
X172923809Y-129690608D02*
X173019047Y-129738227D01*
X173019047Y-129738227D02*
X173066666Y-129833465D01*
X173066666Y-129833465D02*
X173066666Y-130357275D01*
X173542857Y-129690608D02*
X173542857Y-130690608D01*
X173542857Y-129738227D02*
X173638095Y-129690608D01*
X173638095Y-129690608D02*
X173828571Y-129690608D01*
X173828571Y-129690608D02*
X173923809Y-129738227D01*
X173923809Y-129738227D02*
X173971428Y-129785846D01*
X173971428Y-129785846D02*
X174019047Y-129881084D01*
X174019047Y-129881084D02*
X174019047Y-130166798D01*
X174019047Y-130166798D02*
X173971428Y-130262036D01*
X173971428Y-130262036D02*
X173923809Y-130309656D01*
X173923809Y-130309656D02*
X173828571Y-130357275D01*
X173828571Y-130357275D02*
X173638095Y-130357275D01*
X173638095Y-130357275D02*
X173542857Y-130309656D01*
X174876190Y-129690608D02*
X174876190Y-130357275D01*
X174447619Y-129690608D02*
X174447619Y-130214417D01*
X174447619Y-130214417D02*
X174495238Y-130309656D01*
X174495238Y-130309656D02*
X174590476Y-130357275D01*
X174590476Y-130357275D02*
X174733333Y-130357275D01*
X174733333Y-130357275D02*
X174828571Y-130309656D01*
X174828571Y-130309656D02*
X174876190Y-130262036D01*
X175209524Y-129690608D02*
X175590476Y-129690608D01*
X175352381Y-129357275D02*
X175352381Y-130214417D01*
X175352381Y-130214417D02*
X175400000Y-130309656D01*
X175400000Y-130309656D02*
X175495238Y-130357275D01*
X175495238Y-130357275D02*
X175590476Y-130357275D01*
X169733332Y-131014838D02*
X169638094Y-130967219D01*
X169638094Y-130967219D02*
X169495237Y-130967219D01*
X169495237Y-130967219D02*
X169352380Y-131014838D01*
X169352380Y-131014838D02*
X169257142Y-131110076D01*
X169257142Y-131110076D02*
X169209523Y-131205314D01*
X169209523Y-131205314D02*
X169161904Y-131395790D01*
X169161904Y-131395790D02*
X169161904Y-131538647D01*
X169161904Y-131538647D02*
X169209523Y-131729123D01*
X169209523Y-131729123D02*
X169257142Y-131824361D01*
X169257142Y-131824361D02*
X169352380Y-131919600D01*
X169352380Y-131919600D02*
X169495237Y-131967219D01*
X169495237Y-131967219D02*
X169590475Y-131967219D01*
X169590475Y-131967219D02*
X169733332Y-131919600D01*
X169733332Y-131919600D02*
X169780951Y-131871980D01*
X169780951Y-131871980D02*
X169780951Y-131538647D01*
X169780951Y-131538647D02*
X169590475Y-131538647D01*
X172209523Y-131967219D02*
X171733333Y-131967219D01*
X171733333Y-131967219D02*
X171733333Y-130967219D01*
X174638095Y-131967219D02*
X174304762Y-131491028D01*
X174066667Y-131967219D02*
X174066667Y-130967219D01*
X174066667Y-130967219D02*
X174447619Y-130967219D01*
X174447619Y-130967219D02*
X174542857Y-131014838D01*
X174542857Y-131014838D02*
X174590476Y-131062457D01*
X174590476Y-131062457D02*
X174638095Y-131157695D01*
X174638095Y-131157695D02*
X174638095Y-131300552D01*
X174638095Y-131300552D02*
X174590476Y-131395790D01*
X174590476Y-131395790D02*
X174542857Y-131443409D01*
X174542857Y-131443409D02*
X174447619Y-131491028D01*
X174447619Y-131491028D02*
X174066667Y-131491028D01*
X209195238Y-130357275D02*
X209195238Y-129357275D01*
X209195238Y-129357275D02*
X209433333Y-129357275D01*
X209433333Y-129357275D02*
X209576190Y-129404894D01*
X209576190Y-129404894D02*
X209671428Y-129500132D01*
X209671428Y-129500132D02*
X209719047Y-129595370D01*
X209719047Y-129595370D02*
X209766666Y-129785846D01*
X209766666Y-129785846D02*
X209766666Y-129928703D01*
X209766666Y-129928703D02*
X209719047Y-130119179D01*
X209719047Y-130119179D02*
X209671428Y-130214417D01*
X209671428Y-130214417D02*
X209576190Y-130309656D01*
X209576190Y-130309656D02*
X209433333Y-130357275D01*
X209433333Y-130357275D02*
X209195238Y-130357275D01*
X210766666Y-130262036D02*
X210719047Y-130309656D01*
X210719047Y-130309656D02*
X210576190Y-130357275D01*
X210576190Y-130357275D02*
X210480952Y-130357275D01*
X210480952Y-130357275D02*
X210338095Y-130309656D01*
X210338095Y-130309656D02*
X210242857Y-130214417D01*
X210242857Y-130214417D02*
X210195238Y-130119179D01*
X210195238Y-130119179D02*
X210147619Y-129928703D01*
X210147619Y-129928703D02*
X210147619Y-129785846D01*
X210147619Y-129785846D02*
X210195238Y-129595370D01*
X210195238Y-129595370D02*
X210242857Y-129500132D01*
X210242857Y-129500132D02*
X210338095Y-129404894D01*
X210338095Y-129404894D02*
X210480952Y-129357275D01*
X210480952Y-129357275D02*
X210576190Y-129357275D01*
X210576190Y-129357275D02*
X210719047Y-129404894D01*
X210719047Y-129404894D02*
X210766666Y-129452513D01*
X211957143Y-130357275D02*
X211957143Y-129357275D01*
X212433333Y-130357275D02*
X212433333Y-129357275D01*
X212433333Y-129357275D02*
X213004761Y-130357275D01*
X213004761Y-130357275D02*
X213004761Y-129357275D01*
X207957142Y-131014838D02*
X207861904Y-130967219D01*
X207861904Y-130967219D02*
X207719047Y-130967219D01*
X207719047Y-130967219D02*
X207576190Y-131014838D01*
X207576190Y-131014838D02*
X207480952Y-131110076D01*
X207480952Y-131110076D02*
X207433333Y-131205314D01*
X207433333Y-131205314D02*
X207385714Y-131395790D01*
X207385714Y-131395790D02*
X207385714Y-131538647D01*
X207385714Y-131538647D02*
X207433333Y-131729123D01*
X207433333Y-131729123D02*
X207480952Y-131824361D01*
X207480952Y-131824361D02*
X207576190Y-131919600D01*
X207576190Y-131919600D02*
X207719047Y-131967219D01*
X207719047Y-131967219D02*
X207814285Y-131967219D01*
X207814285Y-131967219D02*
X207957142Y-131919600D01*
X207957142Y-131919600D02*
X208004761Y-131871980D01*
X208004761Y-131871980D02*
X208004761Y-131538647D01*
X208004761Y-131538647D02*
X207814285Y-131538647D01*
X208433333Y-131967219D02*
X208433333Y-130967219D01*
X208433333Y-130967219D02*
X209004761Y-131967219D01*
X209004761Y-131967219D02*
X209004761Y-130967219D01*
X209480952Y-131967219D02*
X209480952Y-130967219D01*
X209480952Y-130967219D02*
X209719047Y-130967219D01*
X209719047Y-130967219D02*
X209861904Y-131014838D01*
X209861904Y-131014838D02*
X209957142Y-131110076D01*
X209957142Y-131110076D02*
X210004761Y-131205314D01*
X210004761Y-131205314D02*
X210052380Y-131395790D01*
X210052380Y-131395790D02*
X210052380Y-131538647D01*
X210052380Y-131538647D02*
X210004761Y-131729123D01*
X210004761Y-131729123D02*
X209957142Y-131824361D01*
X209957142Y-131824361D02*
X209861904Y-131919600D01*
X209861904Y-131919600D02*
X209719047Y-131967219D01*
X209719047Y-131967219D02*
X209480952Y-131967219D01*
X211242857Y-131586266D02*
X212004762Y-131586266D01*
X211623809Y-131967219D02*
X211623809Y-131205314D01*
X212433333Y-131062457D02*
X212480952Y-131014838D01*
X212480952Y-131014838D02*
X212576190Y-130967219D01*
X212576190Y-130967219D02*
X212814285Y-130967219D01*
X212814285Y-130967219D02*
X212909523Y-131014838D01*
X212909523Y-131014838D02*
X212957142Y-131062457D01*
X212957142Y-131062457D02*
X213004761Y-131157695D01*
X213004761Y-131157695D02*
X213004761Y-131252933D01*
X213004761Y-131252933D02*
X212957142Y-131395790D01*
X212957142Y-131395790D02*
X212385714Y-131967219D01*
X212385714Y-131967219D02*
X213004761Y-131967219D01*
X213861904Y-131300552D02*
X213861904Y-131967219D01*
X213623809Y-130919600D02*
X213385714Y-131633885D01*
X213385714Y-131633885D02*
X214004761Y-131633885D01*
X214242857Y-130967219D02*
X214576190Y-131967219D01*
X214576190Y-131967219D02*
X214909523Y-130967219D01*
X198642857Y-132357275D02*
X198642857Y-131357275D01*
X198642857Y-131357275D02*
X199214285Y-132357275D01*
X199214285Y-132357275D02*
X199214285Y-131357275D01*
X199833333Y-132357275D02*
X199738095Y-132309656D01*
X199738095Y-132309656D02*
X199690476Y-132262036D01*
X199690476Y-132262036D02*
X199642857Y-132166798D01*
X199642857Y-132166798D02*
X199642857Y-131881084D01*
X199642857Y-131881084D02*
X199690476Y-131785846D01*
X199690476Y-131785846D02*
X199738095Y-131738227D01*
X199738095Y-131738227D02*
X199833333Y-131690608D01*
X199833333Y-131690608D02*
X199976190Y-131690608D01*
X199976190Y-131690608D02*
X200071428Y-131738227D01*
X200071428Y-131738227D02*
X200119047Y-131785846D01*
X200119047Y-131785846D02*
X200166666Y-131881084D01*
X200166666Y-131881084D02*
X200166666Y-132166798D01*
X200166666Y-132166798D02*
X200119047Y-132262036D01*
X200119047Y-132262036D02*
X200071428Y-132309656D01*
X200071428Y-132309656D02*
X199976190Y-132357275D01*
X199976190Y-132357275D02*
X199833333Y-132357275D01*
X200595238Y-132357275D02*
X200595238Y-131690608D01*
X200595238Y-131357275D02*
X200547619Y-131404894D01*
X200547619Y-131404894D02*
X200595238Y-131452513D01*
X200595238Y-131452513D02*
X200642857Y-131404894D01*
X200642857Y-131404894D02*
X200595238Y-131357275D01*
X200595238Y-131357275D02*
X200595238Y-131452513D01*
X201023809Y-132309656D02*
X201119047Y-132357275D01*
X201119047Y-132357275D02*
X201309523Y-132357275D01*
X201309523Y-132357275D02*
X201404761Y-132309656D01*
X201404761Y-132309656D02*
X201452380Y-132214417D01*
X201452380Y-132214417D02*
X201452380Y-132166798D01*
X201452380Y-132166798D02*
X201404761Y-132071560D01*
X201404761Y-132071560D02*
X201309523Y-132023941D01*
X201309523Y-132023941D02*
X201166666Y-132023941D01*
X201166666Y-132023941D02*
X201071428Y-131976322D01*
X201071428Y-131976322D02*
X201023809Y-131881084D01*
X201023809Y-131881084D02*
X201023809Y-131833465D01*
X201023809Y-131833465D02*
X201071428Y-131738227D01*
X201071428Y-131738227D02*
X201166666Y-131690608D01*
X201166666Y-131690608D02*
X201309523Y-131690608D01*
X201309523Y-131690608D02*
X201404761Y-131738227D01*
X202261904Y-132309656D02*
X202166666Y-132357275D01*
X202166666Y-132357275D02*
X201976190Y-132357275D01*
X201976190Y-132357275D02*
X201880952Y-132309656D01*
X201880952Y-132309656D02*
X201833333Y-132214417D01*
X201833333Y-132214417D02*
X201833333Y-131833465D01*
X201833333Y-131833465D02*
X201880952Y-131738227D01*
X201880952Y-131738227D02*
X201976190Y-131690608D01*
X201976190Y-131690608D02*
X202166666Y-131690608D01*
X202166666Y-131690608D02*
X202261904Y-131738227D01*
X202261904Y-131738227D02*
X202309523Y-131833465D01*
X202309523Y-131833465D02*
X202309523Y-131928703D01*
X202309523Y-131928703D02*
X201833333Y-132023941D01*
X204023809Y-131404894D02*
X203928571Y-131357275D01*
X203928571Y-131357275D02*
X203785714Y-131357275D01*
X203785714Y-131357275D02*
X203642857Y-131404894D01*
X203642857Y-131404894D02*
X203547619Y-131500132D01*
X203547619Y-131500132D02*
X203500000Y-131595370D01*
X203500000Y-131595370D02*
X203452381Y-131785846D01*
X203452381Y-131785846D02*
X203452381Y-131928703D01*
X203452381Y-131928703D02*
X203500000Y-132119179D01*
X203500000Y-132119179D02*
X203547619Y-132214417D01*
X203547619Y-132214417D02*
X203642857Y-132309656D01*
X203642857Y-132309656D02*
X203785714Y-132357275D01*
X203785714Y-132357275D02*
X203880952Y-132357275D01*
X203880952Y-132357275D02*
X204023809Y-132309656D01*
X204023809Y-132309656D02*
X204071428Y-132262036D01*
X204071428Y-132262036D02*
X204071428Y-131928703D01*
X204071428Y-131928703D02*
X203880952Y-131928703D01*
X204928571Y-132357275D02*
X204928571Y-131833465D01*
X204928571Y-131833465D02*
X204880952Y-131738227D01*
X204880952Y-131738227D02*
X204785714Y-131690608D01*
X204785714Y-131690608D02*
X204595238Y-131690608D01*
X204595238Y-131690608D02*
X204500000Y-131738227D01*
X204928571Y-132309656D02*
X204833333Y-132357275D01*
X204833333Y-132357275D02*
X204595238Y-132357275D01*
X204595238Y-132357275D02*
X204500000Y-132309656D01*
X204500000Y-132309656D02*
X204452381Y-132214417D01*
X204452381Y-132214417D02*
X204452381Y-132119179D01*
X204452381Y-132119179D02*
X204500000Y-132023941D01*
X204500000Y-132023941D02*
X204595238Y-131976322D01*
X204595238Y-131976322D02*
X204833333Y-131976322D01*
X204833333Y-131976322D02*
X204928571Y-131928703D01*
X205261905Y-131690608D02*
X205642857Y-131690608D01*
X205404762Y-131357275D02*
X205404762Y-132214417D01*
X205404762Y-132214417D02*
X205452381Y-132309656D01*
X205452381Y-132309656D02*
X205547619Y-132357275D01*
X205547619Y-132357275D02*
X205642857Y-132357275D01*
X206357143Y-132309656D02*
X206261905Y-132357275D01*
X206261905Y-132357275D02*
X206071429Y-132357275D01*
X206071429Y-132357275D02*
X205976191Y-132309656D01*
X205976191Y-132309656D02*
X205928572Y-132214417D01*
X205928572Y-132214417D02*
X205928572Y-131833465D01*
X205928572Y-131833465D02*
X205976191Y-131738227D01*
X205976191Y-131738227D02*
X206071429Y-131690608D01*
X206071429Y-131690608D02*
X206261905Y-131690608D01*
X206261905Y-131690608D02*
X206357143Y-131738227D01*
X206357143Y-131738227D02*
X206404762Y-131833465D01*
X206404762Y-131833465D02*
X206404762Y-131928703D01*
X206404762Y-131928703D02*
X205928572Y-132023941D01*
X200190475Y-133967219D02*
X199714285Y-133967219D01*
X199714285Y-133967219D02*
X199714285Y-132967219D01*
X200428571Y-133300552D02*
X200666666Y-133967219D01*
X200666666Y-133967219D02*
X200904761Y-133300552D01*
X201428571Y-133967219D02*
X201333333Y-133919600D01*
X201333333Y-133919600D02*
X201285714Y-133824361D01*
X201285714Y-133824361D02*
X201285714Y-132967219D01*
X202428572Y-132967219D02*
X203000000Y-132967219D01*
X202714286Y-133967219D02*
X202714286Y-132967219D01*
X203333334Y-133967219D02*
X203333334Y-133300552D01*
X203333334Y-133491028D02*
X203380953Y-133395790D01*
X203380953Y-133395790D02*
X203428572Y-133348171D01*
X203428572Y-133348171D02*
X203523810Y-133300552D01*
X203523810Y-133300552D02*
X203619048Y-133300552D01*
X203952382Y-133967219D02*
X203952382Y-133300552D01*
X203952382Y-132967219D02*
X203904763Y-133014838D01*
X203904763Y-133014838D02*
X203952382Y-133062457D01*
X203952382Y-133062457D02*
X204000001Y-133014838D01*
X204000001Y-133014838D02*
X203952382Y-132967219D01*
X203952382Y-132967219D02*
X203952382Y-133062457D01*
X204428572Y-133967219D02*
X204428572Y-133300552D01*
X204428572Y-133395790D02*
X204476191Y-133348171D01*
X204476191Y-133348171D02*
X204571429Y-133300552D01*
X204571429Y-133300552D02*
X204714286Y-133300552D01*
X204714286Y-133300552D02*
X204809524Y-133348171D01*
X204809524Y-133348171D02*
X204857143Y-133443409D01*
X204857143Y-133443409D02*
X204857143Y-133967219D01*
X204857143Y-133443409D02*
X204904762Y-133348171D01*
X204904762Y-133348171D02*
X205000000Y-133300552D01*
X205000000Y-133300552D02*
X205142857Y-133300552D01*
X205142857Y-133300552D02*
X205238096Y-133348171D01*
X205238096Y-133348171D02*
X205285715Y-133443409D01*
X205285715Y-133443409D02*
X205285715Y-133967219D01*
X185104761Y-130309656D02*
X185247618Y-130357275D01*
X185247618Y-130357275D02*
X185485713Y-130357275D01*
X185485713Y-130357275D02*
X185580951Y-130309656D01*
X185580951Y-130309656D02*
X185628570Y-130262036D01*
X185628570Y-130262036D02*
X185676189Y-130166798D01*
X185676189Y-130166798D02*
X185676189Y-130071560D01*
X185676189Y-130071560D02*
X185628570Y-129976322D01*
X185628570Y-129976322D02*
X185580951Y-129928703D01*
X185580951Y-129928703D02*
X185485713Y-129881084D01*
X185485713Y-129881084D02*
X185295237Y-129833465D01*
X185295237Y-129833465D02*
X185199999Y-129785846D01*
X185199999Y-129785846D02*
X185152380Y-129738227D01*
X185152380Y-129738227D02*
X185104761Y-129642989D01*
X185104761Y-129642989D02*
X185104761Y-129547751D01*
X185104761Y-129547751D02*
X185152380Y-129452513D01*
X185152380Y-129452513D02*
X185199999Y-129404894D01*
X185199999Y-129404894D02*
X185295237Y-129357275D01*
X185295237Y-129357275D02*
X185533332Y-129357275D01*
X185533332Y-129357275D02*
X185676189Y-129404894D01*
X186104761Y-129690608D02*
X186104761Y-130690608D01*
X186104761Y-129738227D02*
X186199999Y-129690608D01*
X186199999Y-129690608D02*
X186390475Y-129690608D01*
X186390475Y-129690608D02*
X186485713Y-129738227D01*
X186485713Y-129738227D02*
X186533332Y-129785846D01*
X186533332Y-129785846D02*
X186580951Y-129881084D01*
X186580951Y-129881084D02*
X186580951Y-130166798D01*
X186580951Y-130166798D02*
X186533332Y-130262036D01*
X186533332Y-130262036D02*
X186485713Y-130309656D01*
X186485713Y-130309656D02*
X186390475Y-130357275D01*
X186390475Y-130357275D02*
X186199999Y-130357275D01*
X186199999Y-130357275D02*
X186104761Y-130309656D01*
X187390475Y-130309656D02*
X187295237Y-130357275D01*
X187295237Y-130357275D02*
X187104761Y-130357275D01*
X187104761Y-130357275D02*
X187009523Y-130309656D01*
X187009523Y-130309656D02*
X186961904Y-130214417D01*
X186961904Y-130214417D02*
X186961904Y-129833465D01*
X186961904Y-129833465D02*
X187009523Y-129738227D01*
X187009523Y-129738227D02*
X187104761Y-129690608D01*
X187104761Y-129690608D02*
X187295237Y-129690608D01*
X187295237Y-129690608D02*
X187390475Y-129738227D01*
X187390475Y-129738227D02*
X187438094Y-129833465D01*
X187438094Y-129833465D02*
X187438094Y-129928703D01*
X187438094Y-129928703D02*
X186961904Y-130023941D01*
X188295237Y-130357275D02*
X188295237Y-129833465D01*
X188295237Y-129833465D02*
X188247618Y-129738227D01*
X188247618Y-129738227D02*
X188152380Y-129690608D01*
X188152380Y-129690608D02*
X187961904Y-129690608D01*
X187961904Y-129690608D02*
X187866666Y-129738227D01*
X188295237Y-130309656D02*
X188199999Y-130357275D01*
X188199999Y-130357275D02*
X187961904Y-130357275D01*
X187961904Y-130357275D02*
X187866666Y-130309656D01*
X187866666Y-130309656D02*
X187819047Y-130214417D01*
X187819047Y-130214417D02*
X187819047Y-130119179D01*
X187819047Y-130119179D02*
X187866666Y-130023941D01*
X187866666Y-130023941D02*
X187961904Y-129976322D01*
X187961904Y-129976322D02*
X188199999Y-129976322D01*
X188199999Y-129976322D02*
X188295237Y-129928703D01*
X188771428Y-130357275D02*
X188771428Y-129357275D01*
X188866666Y-129976322D02*
X189152380Y-130357275D01*
X189152380Y-129690608D02*
X188771428Y-130071560D01*
X189961904Y-130309656D02*
X189866666Y-130357275D01*
X189866666Y-130357275D02*
X189676190Y-130357275D01*
X189676190Y-130357275D02*
X189580952Y-130309656D01*
X189580952Y-130309656D02*
X189533333Y-130214417D01*
X189533333Y-130214417D02*
X189533333Y-129833465D01*
X189533333Y-129833465D02*
X189580952Y-129738227D01*
X189580952Y-129738227D02*
X189676190Y-129690608D01*
X189676190Y-129690608D02*
X189866666Y-129690608D01*
X189866666Y-129690608D02*
X189961904Y-129738227D01*
X189961904Y-129738227D02*
X190009523Y-129833465D01*
X190009523Y-129833465D02*
X190009523Y-129928703D01*
X190009523Y-129928703D02*
X189533333Y-130023941D01*
X190438095Y-130357275D02*
X190438095Y-129690608D01*
X190438095Y-129881084D02*
X190485714Y-129785846D01*
X190485714Y-129785846D02*
X190533333Y-129738227D01*
X190533333Y-129738227D02*
X190628571Y-129690608D01*
X190628571Y-129690608D02*
X190723809Y-129690608D01*
X192009524Y-129357275D02*
X192200000Y-129357275D01*
X192200000Y-129357275D02*
X192295238Y-129404894D01*
X192295238Y-129404894D02*
X192390476Y-129500132D01*
X192390476Y-129500132D02*
X192438095Y-129690608D01*
X192438095Y-129690608D02*
X192438095Y-130023941D01*
X192438095Y-130023941D02*
X192390476Y-130214417D01*
X192390476Y-130214417D02*
X192295238Y-130309656D01*
X192295238Y-130309656D02*
X192200000Y-130357275D01*
X192200000Y-130357275D02*
X192009524Y-130357275D01*
X192009524Y-130357275D02*
X191914286Y-130309656D01*
X191914286Y-130309656D02*
X191819048Y-130214417D01*
X191819048Y-130214417D02*
X191771429Y-130023941D01*
X191771429Y-130023941D02*
X191771429Y-129690608D01*
X191771429Y-129690608D02*
X191819048Y-129500132D01*
X191819048Y-129500132D02*
X191914286Y-129404894D01*
X191914286Y-129404894D02*
X192009524Y-129357275D01*
X193295238Y-129690608D02*
X193295238Y-130357275D01*
X192866667Y-129690608D02*
X192866667Y-130214417D01*
X192866667Y-130214417D02*
X192914286Y-130309656D01*
X192914286Y-130309656D02*
X193009524Y-130357275D01*
X193009524Y-130357275D02*
X193152381Y-130357275D01*
X193152381Y-130357275D02*
X193247619Y-130309656D01*
X193247619Y-130309656D02*
X193295238Y-130262036D01*
X193628572Y-129690608D02*
X194009524Y-129690608D01*
X193771429Y-129357275D02*
X193771429Y-130214417D01*
X193771429Y-130214417D02*
X193819048Y-130309656D01*
X193819048Y-130309656D02*
X193914286Y-130357275D01*
X193914286Y-130357275D02*
X194009524Y-130357275D01*
X194342858Y-129690608D02*
X194342858Y-130690608D01*
X194342858Y-129738227D02*
X194438096Y-129690608D01*
X194438096Y-129690608D02*
X194628572Y-129690608D01*
X194628572Y-129690608D02*
X194723810Y-129738227D01*
X194723810Y-129738227D02*
X194771429Y-129785846D01*
X194771429Y-129785846D02*
X194819048Y-129881084D01*
X194819048Y-129881084D02*
X194819048Y-130166798D01*
X194819048Y-130166798D02*
X194771429Y-130262036D01*
X194771429Y-130262036D02*
X194723810Y-130309656D01*
X194723810Y-130309656D02*
X194628572Y-130357275D01*
X194628572Y-130357275D02*
X194438096Y-130357275D01*
X194438096Y-130357275D02*
X194342858Y-130309656D01*
X195676191Y-129690608D02*
X195676191Y-130357275D01*
X195247620Y-129690608D02*
X195247620Y-130214417D01*
X195247620Y-130214417D02*
X195295239Y-130309656D01*
X195295239Y-130309656D02*
X195390477Y-130357275D01*
X195390477Y-130357275D02*
X195533334Y-130357275D01*
X195533334Y-130357275D02*
X195628572Y-130309656D01*
X195628572Y-130309656D02*
X195676191Y-130262036D01*
X196009525Y-129690608D02*
X196390477Y-129690608D01*
X196152382Y-129357275D02*
X196152382Y-130214417D01*
X196152382Y-130214417D02*
X196200001Y-130309656D01*
X196200001Y-130309656D02*
X196295239Y-130357275D01*
X196295239Y-130357275D02*
X196390477Y-130357275D01*
X184938094Y-131967219D02*
X184604761Y-131491028D01*
X184366666Y-131967219D02*
X184366666Y-130967219D01*
X184366666Y-130967219D02*
X184747618Y-130967219D01*
X184747618Y-130967219D02*
X184842856Y-131014838D01*
X184842856Y-131014838D02*
X184890475Y-131062457D01*
X184890475Y-131062457D02*
X184938094Y-131157695D01*
X184938094Y-131157695D02*
X184938094Y-131300552D01*
X184938094Y-131300552D02*
X184890475Y-131395790D01*
X184890475Y-131395790D02*
X184842856Y-131443409D01*
X184842856Y-131443409D02*
X184747618Y-131491028D01*
X184747618Y-131491028D02*
X184366666Y-131491028D01*
X185366666Y-131586266D02*
X186128571Y-131586266D01*
X185747618Y-131967219D02*
X185747618Y-131205314D01*
X188699999Y-131967219D02*
X188366666Y-131491028D01*
X188128571Y-131967219D02*
X188128571Y-130967219D01*
X188128571Y-130967219D02*
X188509523Y-130967219D01*
X188509523Y-130967219D02*
X188604761Y-131014838D01*
X188604761Y-131014838D02*
X188652380Y-131062457D01*
X188652380Y-131062457D02*
X188699999Y-131157695D01*
X188699999Y-131157695D02*
X188699999Y-131300552D01*
X188699999Y-131300552D02*
X188652380Y-131395790D01*
X188652380Y-131395790D02*
X188604761Y-131443409D01*
X188604761Y-131443409D02*
X188509523Y-131491028D01*
X188509523Y-131491028D02*
X188128571Y-131491028D01*
X189128571Y-131586266D02*
X189890476Y-131586266D01*
X192366666Y-131967219D02*
X191890476Y-131967219D01*
X191890476Y-131967219D02*
X191890476Y-130967219D01*
X192700000Y-131586266D02*
X193461905Y-131586266D01*
X193080952Y-131967219D02*
X193080952Y-131205314D01*
X195938095Y-131967219D02*
X195461905Y-131967219D01*
X195461905Y-131967219D02*
X195461905Y-130967219D01*
X196271429Y-131586266D02*
X197033334Y-131586266D01*
D12*
%TO.C,D4*%
X178150000Y-133120000D02*
X178150000Y-133820000D01*
X178150000Y-135240000D02*
X178150000Y-136360000D01*
X178150000Y-137780000D02*
X178150000Y-142120000D01*
X178780000Y-142220000D02*
X178870000Y-142120000D01*
X178780000Y-143420000D02*
X178780000Y-142220000D01*
X181780000Y-143420000D02*
X181780000Y-142120000D01*
X182450000Y-133120000D02*
X178150000Y-133120000D01*
X182450000Y-133120000D02*
X182450000Y-133820000D01*
X182450000Y-135240000D02*
X182450000Y-136360000D01*
X182450000Y-137780000D02*
X182450000Y-142120000D01*
X182450000Y-142120000D02*
X178150000Y-142120000D01*
X181779772Y-143446179D02*
G75*
G02*
X181780000Y-143420000I-1499772J26152D01*
G01*
D13*
%TO.C,L3*%
X201869999Y-118300000D02*
G75*
G02*
X191130001Y-118300000I-5369999J0D01*
G01*
X191130001Y-118300000D02*
G75*
G02*
X201869999Y-118300000I5369999J0D01*
G01*
%TO.C,L1*%
X177869999Y-118300000D02*
G75*
G02*
X167130001Y-118300000I-5369999J0D01*
G01*
X167130001Y-118300000D02*
G75*
G02*
X177869999Y-118300000I5369999J0D01*
G01*
%TO.C,C30*%
X174530000Y-104780000D02*
X177270000Y-104780000D01*
X174530000Y-112220000D02*
X174530000Y-104780000D01*
X174530000Y-112220000D02*
X177270000Y-112220000D01*
X177270000Y-112220000D02*
X177270000Y-104780000D01*
%TO.C,C27*%
X179143451Y-109785767D02*
X177744087Y-108386402D01*
X179171736Y-109757482D02*
X177746915Y-108332662D01*
X179200020Y-109729198D02*
X177750451Y-108279629D01*
X179228304Y-109700914D02*
X177754694Y-108227303D01*
X179256588Y-109672630D02*
X177760350Y-108176392D01*
X179284873Y-109644345D02*
X177765300Y-108124773D01*
X179313157Y-109616061D02*
X177771664Y-108074568D01*
X179322349Y-111831427D02*
X178568573Y-111077651D01*
X179341441Y-109587777D02*
X177778735Y-108025071D01*
X179369725Y-109559492D02*
X177785806Y-107975573D01*
X179398010Y-109531208D02*
X177793584Y-107926783D01*
X179426294Y-109502924D02*
X177801363Y-107877993D01*
X179454578Y-109474640D02*
X177810555Y-107830616D01*
X179482863Y-109446355D02*
X177819747Y-107783240D01*
X179511147Y-109418071D02*
X177829647Y-107736571D01*
X179516804Y-111969312D02*
X178430688Y-110883196D01*
X179539431Y-109389787D02*
X177839546Y-107689902D01*
X179567715Y-109361503D02*
X177850153Y-107643940D01*
X179596000Y-109333218D02*
X177861467Y-107598685D01*
X179624284Y-109304934D02*
X177872780Y-107553431D01*
X179652568Y-109276650D02*
X177884801Y-107508883D01*
X179672367Y-112068307D02*
X178331693Y-110727633D01*
X179680852Y-109248365D02*
X177897529Y-107465042D01*
X179709137Y-109220081D02*
X177910257Y-107421202D01*
X179737421Y-109191797D02*
X177922985Y-107377361D01*
X179765705Y-109163513D02*
X177936420Y-107334227D01*
X179793989Y-109135228D02*
X177950562Y-107291801D01*
X179806717Y-112146089D02*
X178253911Y-110593283D01*
X179822274Y-109106944D02*
X177965411Y-107250082D01*
X179850558Y-109078660D02*
X177979553Y-107207655D01*
X179878842Y-109050376D02*
X177995110Y-107166643D01*
X179907127Y-109022091D02*
X178010666Y-107125631D01*
X179927633Y-112210436D02*
X178189564Y-110472367D01*
X179935411Y-108993807D02*
X178026223Y-107084619D01*
X179963695Y-108965523D02*
X178042486Y-107044314D01*
X179991979Y-108937239D02*
X178058749Y-107004009D01*
X180020264Y-108908954D02*
X178075720Y-106964411D01*
X180038648Y-112264883D02*
X178135117Y-110361352D01*
X180048548Y-108880670D02*
X178093398Y-106925520D01*
X180076832Y-108852386D02*
X178110368Y-106885922D01*
X180105116Y-108824101D02*
X178128753Y-106847738D01*
X180133401Y-108795817D02*
X178146431Y-106808847D01*
X180142593Y-112312259D02*
X178087741Y-110257407D01*
X180161685Y-108767533D02*
X178165523Y-106771370D01*
X180189969Y-108739249D02*
X178183907Y-106733187D01*
X180218254Y-108710964D02*
X178203706Y-106696417D01*
X180240881Y-112353978D02*
X178046022Y-110159119D01*
X180246538Y-108682680D02*
X178222798Y-106658940D01*
X180274822Y-108654396D02*
X178242597Y-106622171D01*
X180303106Y-108626112D02*
X178263103Y-106586108D01*
X180331391Y-108597827D02*
X178283609Y-106550046D01*
X180334926Y-112391455D02*
X178008545Y-110065074D01*
X180359675Y-108569543D02*
X178304116Y-106513984D01*
X180387959Y-108541259D02*
X178325329Y-106478628D01*
X180416243Y-108512974D02*
X178346542Y-106443273D01*
X180424022Y-112423982D02*
X177976018Y-109975978D01*
X180444528Y-108484690D02*
X178368462Y-106408625D01*
X180472812Y-108456406D02*
X178390383Y-106373976D01*
X180501096Y-108428122D02*
X178412303Y-106339328D01*
X180510289Y-112453681D02*
X177946319Y-109889711D01*
X180529381Y-108399837D02*
X178434930Y-106305387D01*
X180557665Y-108371553D02*
X178457558Y-106271446D01*
X180585949Y-108343269D02*
X178480892Y-106238212D01*
X180593020Y-112479843D02*
X177920157Y-109806980D01*
X180673630Y-112503885D02*
X177896115Y-109726370D01*
X180751412Y-112525098D02*
X177874902Y-109648588D01*
X180827780Y-112544897D02*
X177855103Y-109572220D01*
X180901319Y-112561868D02*
X177838132Y-109498681D01*
X180973444Y-112577424D02*
X177822576Y-109426556D01*
X181043447Y-112590859D02*
X177809141Y-109356553D01*
X181112744Y-112603587D02*
X177796413Y-109287256D01*
X181179919Y-112614194D02*
X177785806Y-109220081D01*
X181246387Y-112624093D02*
X177775907Y-109153613D01*
X181310734Y-112631871D02*
X177768129Y-109089266D01*
X181375080Y-112639650D02*
X177760350Y-109024920D01*
X181437306Y-112645306D02*
X177754694Y-108962694D01*
X181498824Y-112650256D02*
X177749744Y-108901176D01*
X181559635Y-112654499D02*
X177745501Y-108840365D01*
X181619032Y-112657327D02*
X177742673Y-108780968D01*
X181677722Y-112659449D02*
X177740551Y-108722278D01*
X181735705Y-112660863D02*
X177739137Y-108664295D01*
X181792980Y-112661570D02*
X177738430Y-108607020D01*
X181849549Y-112661570D02*
X177738430Y-108550451D01*
X181904703Y-112660156D02*
X177739844Y-108495297D01*
X181959858Y-112658741D02*
X177741259Y-108440142D01*
X182013598Y-112655913D02*
X180614233Y-111256549D01*
X182067338Y-112653085D02*
X180642518Y-111228264D01*
X182120371Y-112649549D02*
X180670802Y-111199980D01*
X182172697Y-112645306D02*
X180699086Y-111171696D01*
X182223608Y-112639650D02*
X180727370Y-111143412D01*
X182275227Y-112634700D02*
X180755655Y-111115127D01*
X182325432Y-112628336D02*
X180783939Y-111086843D01*
X182374929Y-112621265D02*
X180812223Y-111058559D01*
X182424427Y-112614194D02*
X180840508Y-111030275D01*
X182473217Y-112606416D02*
X180868792Y-111001990D01*
X182522007Y-112598637D02*
X180897076Y-110973706D01*
X182569384Y-112589445D02*
X180925360Y-110945422D01*
X182616760Y-112580253D02*
X180953645Y-110917137D01*
X182663429Y-112570353D02*
X180981929Y-110888853D01*
X182710098Y-112560454D02*
X181010213Y-110860569D01*
X182756060Y-112549847D02*
X181038497Y-110832285D01*
X182801315Y-112538533D02*
X181066782Y-110804000D01*
X182846569Y-112527220D02*
X181095066Y-110775716D01*
X182891117Y-112515199D02*
X181123350Y-110747432D01*
X182934958Y-112502471D02*
X181151635Y-110719148D01*
X182978798Y-112489743D02*
X181179919Y-110690863D01*
X183022639Y-112477015D02*
X181208203Y-110662579D01*
X183065773Y-112463580D02*
X181236487Y-110634295D01*
X183108199Y-112449438D02*
X181264772Y-110606011D01*
X183149918Y-112434589D02*
X181293056Y-110577726D01*
X183192345Y-112420447D02*
X181321340Y-110549442D01*
X183233357Y-112404890D02*
X181349624Y-110521158D01*
X183274369Y-112389334D02*
X181377909Y-110492873D01*
X183315381Y-112373777D02*
X181406193Y-110464589D01*
X183355686Y-112357514D02*
X181434477Y-110436305D01*
X183395991Y-112341251D02*
X181462761Y-110408021D01*
X183435589Y-112324280D02*
X181491046Y-110379736D01*
X183474480Y-112306602D02*
X181519330Y-110351452D01*
X183514078Y-112289632D02*
X181547614Y-110323168D01*
X183552262Y-112271247D02*
X181575899Y-110294884D01*
X183591153Y-112253569D02*
X181604183Y-110266599D01*
X183628630Y-112234477D02*
X181632467Y-110238315D01*
X183666813Y-112216093D02*
X181660751Y-110210031D01*
X183703583Y-112196294D02*
X181689036Y-110181746D01*
X183741060Y-112177202D02*
X181717320Y-110153462D01*
X183777829Y-112157403D02*
X181745604Y-110125178D01*
X183813892Y-112136897D02*
X181773888Y-110096894D01*
X183849954Y-112116391D02*
X181802173Y-110068609D01*
X183886016Y-112095884D02*
X181830457Y-110040325D01*
X183921372Y-112074671D02*
X181858741Y-110012041D01*
X183956727Y-112053458D02*
X181887026Y-109983757D01*
X183991375Y-112031538D02*
X181915310Y-109955472D01*
X184026024Y-112009617D02*
X181943594Y-109927188D01*
X184060672Y-111987697D02*
X181971878Y-109898904D01*
X184094613Y-111965070D02*
X182000163Y-109870619D01*
X184128554Y-111942442D02*
X182028447Y-109842335D01*
X184161788Y-111919108D02*
X182056731Y-109814051D01*
X184195729Y-111895066D02*
X178504934Y-106204271D01*
X184228256Y-111871025D02*
X178528975Y-106171744D01*
X184261490Y-111847690D02*
X178552310Y-106138510D01*
X184293310Y-111822941D02*
X178577059Y-106106690D01*
X184325837Y-111798900D02*
X178601100Y-106074163D01*
X184356950Y-111773444D02*
X178626556Y-106043050D01*
X184388769Y-111748695D02*
X178651305Y-106011231D01*
X184419882Y-111723239D02*
X178676761Y-105980118D01*
X184450995Y-111697783D02*
X178702217Y-105949005D01*
X184481400Y-111671620D02*
X178728380Y-105918600D01*
X184511806Y-111645457D02*
X178754543Y-105888194D01*
X184542212Y-111619295D02*
X178780705Y-105857788D01*
X184571910Y-111592424D02*
X178807576Y-105828090D01*
X184600901Y-111564847D02*
X178835153Y-105799099D01*
X184630600Y-111537977D02*
X178862023Y-105769400D01*
X184659591Y-111510400D02*
X178889600Y-105740409D01*
X184687876Y-111482116D02*
X178917884Y-105712124D01*
X184716160Y-111453832D02*
X178946168Y-105683840D01*
X186586244Y-107087661D02*
X186020558Y-107653346D01*
X186586244Y-107653346D02*
X186020558Y-107087661D01*
X185951164Y-108568836D02*
G75*
G02*
X177711164Y-108568836I-4120000J0D01*
G01*
X177711164Y-108568836D02*
G75*
G02*
X185951164Y-108568836I4120000J0D01*
G01*
%TO.C,C29*%
X171530000Y-104780000D02*
X171530000Y-112220000D01*
X174270000Y-104780000D02*
X171530000Y-104780000D01*
X174270000Y-104780000D02*
X174270000Y-112220000D01*
X174270000Y-112220000D02*
X171530000Y-112220000D01*
%TO.C,C32*%
X206730000Y-104780000D02*
X206730000Y-112220000D01*
X209470000Y-104780000D02*
X206730000Y-104780000D01*
X209470000Y-104780000D02*
X209470000Y-112220000D01*
X209470000Y-112220000D02*
X206730000Y-112220000D01*
%TO.C,RV1*%
X199230000Y-136300000D02*
X199230000Y-138995000D01*
X201380000Y-135254000D02*
X201380000Y-138995000D01*
X203620000Y-135254000D02*
X201380000Y-135254000D01*
X203620000Y-135254000D02*
X203620000Y-138995000D01*
X203620000Y-138995000D02*
X201380000Y-138995000D01*
X203934000Y-135254000D02*
X201065000Y-135254000D01*
X205770000Y-136300000D02*
X205770000Y-138995000D01*
X205770000Y-138995000D02*
X199230000Y-138995000D01*
D14*
%TO.C,J4*%
X182897500Y-132800000D02*
X182897500Y-142000000D01*
X182897500Y-132800000D02*
X183597500Y-132800000D01*
X182897500Y-142000000D02*
X198097500Y-142000000D01*
X197397500Y-132799999D02*
X198097500Y-132800000D01*
X198097500Y-142000000D02*
X198097500Y-132800000D01*
D11*
X182127500Y-134000000D02*
G75*
G02*
X181927500Y-134000000I-100000J0D01*
G01*
X181927500Y-134000000D02*
G75*
G02*
X182127500Y-134000000I100000J0D01*
G01*
D13*
%TO.C,J3*%
X209895000Y-94345000D02*
X211225000Y-94345000D01*
X209895000Y-95675000D02*
X209895000Y-94345000D01*
X209895000Y-96945000D02*
X209895000Y-112245000D01*
X209895000Y-96945000D02*
X212495000Y-96945000D01*
X209895000Y-112245000D02*
X215095000Y-112245000D01*
X212495000Y-94345000D02*
X215095000Y-94345000D01*
X212495000Y-96945000D02*
X212495000Y-94345000D01*
X215095000Y-94345000D02*
X215095000Y-112245000D01*
D15*
%TO.C,SYM1*%
X204491388Y-96237645D02*
X204548865Y-96255206D01*
X204585872Y-96277395D01*
X204597927Y-96294942D01*
X204594609Y-96315742D01*
X204573079Y-96348419D01*
X204554874Y-96371562D01*
X204517344Y-96413402D01*
X204489148Y-96431005D01*
X204465111Y-96429856D01*
X204393808Y-96411710D01*
X204341442Y-96412534D01*
X204298918Y-96433098D01*
X204284642Y-96445134D01*
X204238947Y-96487483D01*
X204238947Y-97040526D01*
X204055131Y-97040526D01*
X204055131Y-96238421D01*
X204147039Y-96238421D01*
X204202219Y-96240603D01*
X204230688Y-96248351D01*
X204238943Y-96263468D01*
X204238947Y-96263916D01*
X204242845Y-96279749D01*
X204260474Y-96277684D01*
X204284901Y-96266261D01*
X204335350Y-96245005D01*
X204376316Y-96232216D01*
X204429028Y-96228938D01*
X204491388Y-96237645D01*
G36*
X204491388Y-96237645D02*
G01*
X204548865Y-96255206D01*
X204585872Y-96277395D01*
X204597927Y-96294942D01*
X204594609Y-96315742D01*
X204573079Y-96348419D01*
X204554874Y-96371562D01*
X204517344Y-96413402D01*
X204489148Y-96431005D01*
X204465111Y-96429856D01*
X204393808Y-96411710D01*
X204341442Y-96412534D01*
X204298918Y-96433098D01*
X204284642Y-96445134D01*
X204238947Y-96487483D01*
X204238947Y-97040526D01*
X204055131Y-97040526D01*
X204055131Y-96238421D01*
X204147039Y-96238421D01*
X204202219Y-96240603D01*
X204230688Y-96248351D01*
X204238943Y-96263468D01*
X204238947Y-96263916D01*
X204242845Y-96279749D01*
X204260474Y-96277684D01*
X204284901Y-96266261D01*
X204335350Y-96245005D01*
X204376316Y-96232216D01*
X204429028Y-96228938D01*
X204491388Y-96237645D01*
G37*
X204273167Y-97491447D02*
X204337408Y-97504112D01*
X204373980Y-97522864D01*
X204412453Y-97554017D01*
X204357717Y-97623127D01*
X204323969Y-97664979D01*
X204301053Y-97685398D01*
X204278279Y-97688517D01*
X204244956Y-97678472D01*
X204229314Y-97672789D01*
X204165542Y-97664404D01*
X204107140Y-97682378D01*
X204064264Y-97722982D01*
X204057299Y-97735929D01*
X204049713Y-97770224D01*
X204043859Y-97833427D01*
X204040011Y-97921060D01*
X204038443Y-98028640D01*
X204038421Y-98043944D01*
X204038421Y-98310526D01*
X203854605Y-98310526D01*
X203854605Y-97491710D01*
X203946513Y-97491710D01*
X203999507Y-97493094D01*
X204027115Y-97499252D01*
X204037324Y-97513194D01*
X204038421Y-97526344D01*
X204038421Y-97560978D01*
X204082450Y-97526344D01*
X204132937Y-97502716D01*
X204200760Y-97491033D01*
X204273167Y-97491447D01*
G36*
X204273167Y-97491447D02*
G01*
X204337408Y-97504112D01*
X204373980Y-97522864D01*
X204412453Y-97554017D01*
X204357717Y-97623127D01*
X204323969Y-97664979D01*
X204301053Y-97685398D01*
X204278279Y-97688517D01*
X204244956Y-97678472D01*
X204229314Y-97672789D01*
X204165542Y-97664404D01*
X204107140Y-97682378D01*
X204064264Y-97722982D01*
X204057299Y-97735929D01*
X204049713Y-97770224D01*
X204043859Y-97833427D01*
X204040011Y-97921060D01*
X204038443Y-98028640D01*
X204038421Y-98043944D01*
X204038421Y-98310526D01*
X203854605Y-98310526D01*
X203854605Y-97491710D01*
X203946513Y-97491710D01*
X203999507Y-97493094D01*
X204027115Y-97499252D01*
X204037324Y-97513194D01*
X204038421Y-97526344D01*
X204038421Y-97560978D01*
X204082450Y-97526344D01*
X204132937Y-97502716D01*
X204200760Y-97491033D01*
X204273167Y-97491447D01*
G37*
X200779881Y-97493486D02*
X200804888Y-97500982D01*
X200812950Y-97517451D01*
X200813289Y-97524886D01*
X200814736Y-97545594D01*
X200824698Y-97548845D01*
X200851612Y-97534648D01*
X200867598Y-97524948D01*
X200918033Y-97504175D01*
X200978272Y-97493904D01*
X201041434Y-97493114D01*
X201100637Y-97500786D01*
X201149002Y-97515898D01*
X201179646Y-97537432D01*
X201185689Y-97564366D01*
X201182639Y-97571660D01*
X201160406Y-97601937D01*
X201125930Y-97639175D01*
X201119694Y-97645195D01*
X201086833Y-97672875D01*
X201058480Y-97681818D01*
X201018827Y-97675576D01*
X201002942Y-97671429D01*
X200953509Y-97661467D01*
X200918752Y-97665947D01*
X200889400Y-97681746D01*
X200862513Y-97702949D01*
X200842710Y-97729614D01*
X200828948Y-97766827D01*
X200820184Y-97819673D01*
X200815374Y-97893237D01*
X200813474Y-97992605D01*
X200813289Y-98052601D01*
X200813289Y-98310526D01*
X200646184Y-98310526D01*
X200646184Y-97491710D01*
X200729736Y-97491710D01*
X200779881Y-97493486D01*
G36*
X200779881Y-97493486D02*
G01*
X200804888Y-97500982D01*
X200812950Y-97517451D01*
X200813289Y-97524886D01*
X200814736Y-97545594D01*
X200824698Y-97548845D01*
X200851612Y-97534648D01*
X200867598Y-97524948D01*
X200918033Y-97504175D01*
X200978272Y-97493904D01*
X201041434Y-97493114D01*
X201100637Y-97500786D01*
X201149002Y-97515898D01*
X201179646Y-97537432D01*
X201185689Y-97564366D01*
X201182639Y-97571660D01*
X201160406Y-97601937D01*
X201125930Y-97639175D01*
X201119694Y-97645195D01*
X201086833Y-97672875D01*
X201058480Y-97681818D01*
X201018827Y-97675576D01*
X201002942Y-97671429D01*
X200953509Y-97661467D01*
X200918752Y-97665947D01*
X200889400Y-97681746D01*
X200862513Y-97702949D01*
X200842710Y-97729614D01*
X200828948Y-97766827D01*
X200820184Y-97819673D01*
X200815374Y-97893237D01*
X200813474Y-97992605D01*
X200813289Y-98052601D01*
X200813289Y-98310526D01*
X200646184Y-98310526D01*
X200646184Y-97491710D01*
X200729736Y-97491710D01*
X200779881Y-97493486D01*
G37*
X203420131Y-96498533D02*
X203421710Y-96621089D01*
X203427481Y-96714179D01*
X203438991Y-96781651D01*
X203457790Y-96827355D01*
X203485426Y-96855139D01*
X203523448Y-96868854D01*
X203570526Y-96872358D01*
X203619832Y-96868432D01*
X203657283Y-96854089D01*
X203684428Y-96825478D01*
X203702815Y-96778751D01*
X203713993Y-96710058D01*
X203719511Y-96615550D01*
X203720921Y-96498533D01*
X203720921Y-96238421D01*
X203904736Y-96238421D01*
X203904736Y-97040526D01*
X203812828Y-97040526D01*
X203757422Y-97038281D01*
X203728891Y-97030396D01*
X203720921Y-97015428D01*
X203716120Y-97002097D01*
X203697014Y-97004917D01*
X203658504Y-97023783D01*
X203570239Y-97052887D01*
X203476623Y-97050825D01*
X203386921Y-97019221D01*
X203344204Y-96994257D01*
X203311621Y-96967226D01*
X203287817Y-96933405D01*
X203271439Y-96888068D01*
X203261131Y-96826489D01*
X203255541Y-96743943D01*
X203253312Y-96635705D01*
X203253026Y-96552004D01*
X203253026Y-96238421D01*
X203420131Y-96238421D01*
X203420131Y-96498533D01*
G36*
X203420131Y-96498533D02*
G01*
X203421710Y-96621089D01*
X203427481Y-96714179D01*
X203438991Y-96781651D01*
X203457790Y-96827355D01*
X203485426Y-96855139D01*
X203523448Y-96868854D01*
X203570526Y-96872358D01*
X203619832Y-96868432D01*
X203657283Y-96854089D01*
X203684428Y-96825478D01*
X203702815Y-96778751D01*
X203713993Y-96710058D01*
X203719511Y-96615550D01*
X203720921Y-96498533D01*
X203720921Y-96238421D01*
X203904736Y-96238421D01*
X203904736Y-97040526D01*
X203812828Y-97040526D01*
X203757422Y-97038281D01*
X203728891Y-97030396D01*
X203720921Y-97015428D01*
X203716120Y-97002097D01*
X203697014Y-97004917D01*
X203658504Y-97023783D01*
X203570239Y-97052887D01*
X203476623Y-97050825D01*
X203386921Y-97019221D01*
X203344204Y-96994257D01*
X203311621Y-96967226D01*
X203287817Y-96933405D01*
X203271439Y-96888068D01*
X203261131Y-96826489D01*
X203255541Y-96743943D01*
X203253312Y-96635705D01*
X203253026Y-96552004D01*
X203253026Y-96238421D01*
X203420131Y-96238421D01*
X203420131Y-96498533D01*
G37*
X201097957Y-96252226D02*
X201139546Y-96272090D01*
X201179825Y-96300784D01*
X201210510Y-96333809D01*
X201232861Y-96375931D01*
X201248136Y-96431915D01*
X201257592Y-96506528D01*
X201262487Y-96604535D01*
X201264081Y-96730702D01*
X201264106Y-96743914D01*
X201264473Y-97040526D01*
X201080657Y-97040526D01*
X201080657Y-96767081D01*
X201080527Y-96665777D01*
X201079621Y-96592353D01*
X201077173Y-96541271D01*
X201072414Y-96506990D01*
X201064574Y-96483971D01*
X201052885Y-96466673D01*
X201036602Y-96449581D01*
X200979634Y-96412857D01*
X200917445Y-96406042D01*
X200858199Y-96429261D01*
X200837595Y-96446543D01*
X200822470Y-96462791D01*
X200811610Y-96480191D01*
X200804310Y-96504212D01*
X200799863Y-96540322D01*
X200797564Y-96593988D01*
X200796704Y-96670680D01*
X200796578Y-96764043D01*
X200796578Y-97040526D01*
X200612763Y-97040526D01*
X200612763Y-96238421D01*
X200704671Y-96238421D01*
X200759851Y-96240603D01*
X200788320Y-96248351D01*
X200796575Y-96263468D01*
X200796578Y-96263916D01*
X200800408Y-96278720D01*
X200817301Y-96277040D01*
X200850888Y-96260773D01*
X200927063Y-96236840D01*
X201014200Y-96234178D01*
X201097957Y-96252226D01*
G36*
X201097957Y-96252226D02*
G01*
X201139546Y-96272090D01*
X201179825Y-96300784D01*
X201210510Y-96333809D01*
X201232861Y-96375931D01*
X201248136Y-96431915D01*
X201257592Y-96506528D01*
X201262487Y-96604535D01*
X201264081Y-96730702D01*
X201264106Y-96743914D01*
X201264473Y-97040526D01*
X201080657Y-97040526D01*
X201080657Y-96767081D01*
X201080527Y-96665777D01*
X201079621Y-96592353D01*
X201077173Y-96541271D01*
X201072414Y-96506990D01*
X201064574Y-96483971D01*
X201052885Y-96466673D01*
X201036602Y-96449581D01*
X200979634Y-96412857D01*
X200917445Y-96406042D01*
X200858199Y-96429261D01*
X200837595Y-96446543D01*
X200822470Y-96462791D01*
X200811610Y-96480191D01*
X200804310Y-96504212D01*
X200799863Y-96540322D01*
X200797564Y-96593988D01*
X200796704Y-96670680D01*
X200796578Y-96764043D01*
X200796578Y-97040526D01*
X200612763Y-97040526D01*
X200612763Y-96238421D01*
X200704671Y-96238421D01*
X200759851Y-96240603D01*
X200788320Y-96248351D01*
X200796575Y-96263468D01*
X200796578Y-96263916D01*
X200800408Y-96278720D01*
X200817301Y-96277040D01*
X200850888Y-96260773D01*
X200927063Y-96236840D01*
X201014200Y-96234178D01*
X201097957Y-96252226D01*
G37*
X205046576Y-96245419D02*
X205143395Y-96286549D01*
X205173890Y-96306571D01*
X205212865Y-96337340D01*
X205237331Y-96361533D01*
X205241578Y-96369413D01*
X205229584Y-96386899D01*
X205198887Y-96416570D01*
X205174312Y-96437279D01*
X205107046Y-96491336D01*
X205053930Y-96446642D01*
X205012884Y-96417789D01*
X204972863Y-96407829D01*
X204927059Y-96410261D01*
X204854324Y-96428345D01*
X204804256Y-96465881D01*
X204773829Y-96526562D01*
X204760017Y-96614081D01*
X204760013Y-96614136D01*
X204761208Y-96711958D01*
X204779772Y-96783730D01*
X204816804Y-96832595D01*
X204842050Y-96849143D01*
X204909097Y-96869749D01*
X204980709Y-96869762D01*
X205043015Y-96849768D01*
X205057763Y-96840000D01*
X205094750Y-96815047D01*
X205123668Y-96810958D01*
X205154856Y-96829530D01*
X205189336Y-96862887D01*
X205243912Y-96919196D01*
X205183318Y-96969142D01*
X205089698Y-97025513D01*
X204984125Y-97053293D01*
X204873798Y-97051282D01*
X204801343Y-97032862D01*
X204716656Y-96987310D01*
X204648927Y-96915650D01*
X204618157Y-96865066D01*
X204593236Y-96792488D01*
X204580766Y-96700569D01*
X204580670Y-96600948D01*
X204592870Y-96505267D01*
X204617290Y-96425169D01*
X204621136Y-96416956D01*
X204678093Y-96336413D01*
X204755209Y-96277771D01*
X204846390Y-96242247D01*
X204945543Y-96231057D01*
X205046576Y-96245419D01*
G36*
X205046576Y-96245419D02*
G01*
X205143395Y-96286549D01*
X205173890Y-96306571D01*
X205212865Y-96337340D01*
X205237331Y-96361533D01*
X205241578Y-96369413D01*
X205229584Y-96386899D01*
X205198887Y-96416570D01*
X205174312Y-96437279D01*
X205107046Y-96491336D01*
X205053930Y-96446642D01*
X205012884Y-96417789D01*
X204972863Y-96407829D01*
X204927059Y-96410261D01*
X204854324Y-96428345D01*
X204804256Y-96465881D01*
X204773829Y-96526562D01*
X204760017Y-96614081D01*
X204760013Y-96614136D01*
X204761208Y-96711958D01*
X204779772Y-96783730D01*
X204816804Y-96832595D01*
X204842050Y-96849143D01*
X204909097Y-96869749D01*
X204980709Y-96869762D01*
X205043015Y-96849768D01*
X205057763Y-96840000D01*
X205094750Y-96815047D01*
X205123668Y-96810958D01*
X205154856Y-96829530D01*
X205189336Y-96862887D01*
X205243912Y-96919196D01*
X205183318Y-96969142D01*
X205089698Y-97025513D01*
X204984125Y-97053293D01*
X204873798Y-97051282D01*
X204801343Y-97032862D01*
X204716656Y-96987310D01*
X204648927Y-96915650D01*
X204618157Y-96865066D01*
X204593236Y-96792488D01*
X204580766Y-96700569D01*
X204580670Y-96600948D01*
X204592870Y-96505267D01*
X204617290Y-96425169D01*
X204621136Y-96416956D01*
X204678093Y-96336413D01*
X204755209Y-96277771D01*
X204846390Y-96242247D01*
X204945543Y-96231057D01*
X205046576Y-96245419D01*
G37*
X202911669Y-96248310D02*
X202996192Y-96294340D01*
X203062321Y-96367006D01*
X203093478Y-96426106D01*
X203106855Y-96478305D01*
X203115522Y-96552719D01*
X203119237Y-96638442D01*
X203117754Y-96724569D01*
X203110831Y-96800193D01*
X203102745Y-96840584D01*
X203075465Y-96895840D01*
X203028220Y-96954530D01*
X202971282Y-97005852D01*
X202914924Y-97039005D01*
X202913550Y-97039531D01*
X202843616Y-97054018D01*
X202760737Y-97054377D01*
X202681977Y-97041188D01*
X202651566Y-97030617D01*
X202573239Y-96986201D01*
X202517143Y-96928007D01*
X202480286Y-96850965D01*
X202459680Y-96750001D01*
X202455018Y-96697116D01*
X202455613Y-96630663D01*
X202634736Y-96630663D01*
X202640770Y-96727630D01*
X202658138Y-96801523D01*
X202685740Y-96848736D01*
X202705404Y-96862237D01*
X202755787Y-96871651D01*
X202815673Y-96868864D01*
X202867449Y-96855316D01*
X202881027Y-96847862D01*
X202916849Y-96804451D01*
X202940493Y-96738014D01*
X202950558Y-96657161D01*
X202945642Y-96570502D01*
X202934655Y-96518349D01*
X202903109Y-96457951D01*
X202853311Y-96420197D01*
X202793337Y-96407143D01*
X202731264Y-96420849D01*
X202683582Y-96454372D01*
X202658525Y-96482031D01*
X202643900Y-96509294D01*
X202636929Y-96546190D01*
X202634833Y-96602750D01*
X202634736Y-96630663D01*
X202455613Y-96630663D01*
X202456282Y-96555994D01*
X202479265Y-96440271D01*
X202523972Y-96349941D01*
X202590405Y-96285000D01*
X202678565Y-96245445D01*
X202697495Y-96240858D01*
X202811266Y-96230090D01*
X202911669Y-96248310D01*
G36*
X202911669Y-96248310D02*
G01*
X202996192Y-96294340D01*
X203062321Y-96367006D01*
X203093478Y-96426106D01*
X203106855Y-96478305D01*
X203115522Y-96552719D01*
X203119237Y-96638442D01*
X203117754Y-96724569D01*
X203110831Y-96800193D01*
X203102745Y-96840584D01*
X203075465Y-96895840D01*
X203028220Y-96954530D01*
X202971282Y-97005852D01*
X202914924Y-97039005D01*
X202913550Y-97039531D01*
X202843616Y-97054018D01*
X202760737Y-97054377D01*
X202681977Y-97041188D01*
X202651566Y-97030617D01*
X202573239Y-96986201D01*
X202517143Y-96928007D01*
X202480286Y-96850965D01*
X202459680Y-96750001D01*
X202455018Y-96697116D01*
X202455613Y-96630663D01*
X202634736Y-96630663D01*
X202640770Y-96727630D01*
X202658138Y-96801523D01*
X202685740Y-96848736D01*
X202705404Y-96862237D01*
X202755787Y-96871651D01*
X202815673Y-96868864D01*
X202867449Y-96855316D01*
X202881027Y-96847862D01*
X202916849Y-96804451D01*
X202940493Y-96738014D01*
X202950558Y-96657161D01*
X202945642Y-96570502D01*
X202934655Y-96518349D01*
X202903109Y-96457951D01*
X202853311Y-96420197D01*
X202793337Y-96407143D01*
X202731264Y-96420849D01*
X202683582Y-96454372D01*
X202658525Y-96482031D01*
X202643900Y-96509294D01*
X202636929Y-96546190D01*
X202634833Y-96602750D01*
X202634736Y-96630663D01*
X202455613Y-96630663D01*
X202456282Y-96555994D01*
X202479265Y-96440271D01*
X202523972Y-96349941D01*
X202590405Y-96285000D01*
X202678565Y-96245445D01*
X202697495Y-96240858D01*
X202811266Y-96230090D01*
X202911669Y-96248310D01*
G37*
X202474130Y-97495104D02*
X202540220Y-97500066D01*
X202626626Y-97759079D01*
X202713031Y-98018092D01*
X202740124Y-97926184D01*
X202756428Y-97869384D01*
X202777875Y-97792625D01*
X202801035Y-97708251D01*
X202813280Y-97662993D01*
X202859344Y-97491710D01*
X203049387Y-97491710D01*
X202992582Y-97671349D01*
X202964607Y-97759704D01*
X202930813Y-97866281D01*
X202895520Y-97977454D01*
X202864013Y-98076579D01*
X202792250Y-98302171D01*
X202637286Y-98312253D01*
X202595270Y-98173528D01*
X202569359Y-98087351D01*
X202541083Y-97992347D01*
X202516369Y-97908441D01*
X202515394Y-97905102D01*
X202496935Y-97848248D01*
X202480649Y-97809456D01*
X202469242Y-97794787D01*
X202466898Y-97796483D01*
X202458671Y-97819225D01*
X202443038Y-97867940D01*
X202421904Y-97936502D01*
X202397170Y-98018785D01*
X202383787Y-98064046D01*
X202311311Y-98310526D01*
X202157495Y-98310526D01*
X202034531Y-97922006D01*
X201999988Y-97813022D01*
X201968521Y-97714048D01*
X201941616Y-97629736D01*
X201920759Y-97564734D01*
X201907438Y-97523692D01*
X201903388Y-97511701D01*
X201906594Y-97499423D01*
X201931765Y-97494046D01*
X201984146Y-97494584D01*
X201992345Y-97494990D01*
X202089482Y-97500066D01*
X202153100Y-97734013D01*
X202176484Y-97819333D01*
X202197381Y-97894335D01*
X202213951Y-97952507D01*
X202224354Y-97987337D01*
X202226276Y-97993016D01*
X202234241Y-97986486D01*
X202250304Y-97952654D01*
X202272621Y-97896127D01*
X202299345Y-97821510D01*
X202321937Y-97754107D01*
X202408041Y-97490143D01*
X202474130Y-97495104D01*
G36*
X202474130Y-97495104D02*
G01*
X202540220Y-97500066D01*
X202626626Y-97759079D01*
X202713031Y-98018092D01*
X202740124Y-97926184D01*
X202756428Y-97869384D01*
X202777875Y-97792625D01*
X202801035Y-97708251D01*
X202813280Y-97662993D01*
X202859344Y-97491710D01*
X203049387Y-97491710D01*
X202992582Y-97671349D01*
X202964607Y-97759704D01*
X202930813Y-97866281D01*
X202895520Y-97977454D01*
X202864013Y-98076579D01*
X202792250Y-98302171D01*
X202637286Y-98312253D01*
X202595270Y-98173528D01*
X202569359Y-98087351D01*
X202541083Y-97992347D01*
X202516369Y-97908441D01*
X202515394Y-97905102D01*
X202496935Y-97848248D01*
X202480649Y-97809456D01*
X202469242Y-97794787D01*
X202466898Y-97796483D01*
X202458671Y-97819225D01*
X202443038Y-97867940D01*
X202421904Y-97936502D01*
X202397170Y-98018785D01*
X202383787Y-98064046D01*
X202311311Y-98310526D01*
X202157495Y-98310526D01*
X202034531Y-97922006D01*
X201999988Y-97813022D01*
X201968521Y-97714048D01*
X201941616Y-97629736D01*
X201920759Y-97564734D01*
X201907438Y-97523692D01*
X201903388Y-97511701D01*
X201906594Y-97499423D01*
X201931765Y-97494046D01*
X201984146Y-97494584D01*
X201992345Y-97494990D01*
X202089482Y-97500066D01*
X202153100Y-97734013D01*
X202176484Y-97819333D01*
X202197381Y-97894335D01*
X202213951Y-97952507D01*
X202224354Y-97987337D01*
X202226276Y-97993016D01*
X202234241Y-97986486D01*
X202250304Y-97952654D01*
X202272621Y-97896127D01*
X202299345Y-97821510D01*
X202321937Y-97754107D01*
X202408041Y-97490143D01*
X202474130Y-97495104D01*
G37*
X198726784Y-96247104D02*
X198814205Y-96285754D01*
X198880570Y-96350290D01*
X198925976Y-96440812D01*
X198950518Y-96557418D01*
X198952277Y-96575624D01*
X198953656Y-96703984D01*
X198935784Y-96816496D01*
X198899750Y-96907688D01*
X198880455Y-96937022D01*
X198813245Y-96999106D01*
X198727650Y-97039316D01*
X198631890Y-97056003D01*
X198534187Y-97047517D01*
X198459917Y-97021380D01*
X198396047Y-96977335D01*
X198343846Y-96919587D01*
X198342943Y-96918236D01*
X198321744Y-96882593D01*
X198307967Y-96846752D01*
X198299624Y-96801519D01*
X198294727Y-96737701D01*
X198292569Y-96685368D01*
X198291671Y-96637910D01*
X198458743Y-96637910D01*
X198460376Y-96685154D01*
X198466304Y-96748046D01*
X198476761Y-96788407D01*
X198495619Y-96817122D01*
X198513281Y-96833896D01*
X198575894Y-96869016D01*
X198641408Y-96873710D01*
X198702421Y-96848440D01*
X198732928Y-96820124D01*
X198754911Y-96791589D01*
X198767769Y-96764284D01*
X198773412Y-96728750D01*
X198773751Y-96675524D01*
X198772012Y-96626506D01*
X198768271Y-96556482D01*
X198762341Y-96511064D01*
X198751653Y-96481440D01*
X198733639Y-96458797D01*
X198719363Y-96445855D01*
X198659651Y-96411860D01*
X198595234Y-96410165D01*
X198541219Y-96430301D01*
X198495140Y-96472352D01*
X198467689Y-96541428D01*
X198458743Y-96637910D01*
X198291671Y-96637910D01*
X198290599Y-96581299D01*
X198293964Y-96503468D01*
X198304045Y-96444930D01*
X198322226Y-96398737D01*
X198349890Y-96357942D01*
X198360146Y-96345828D01*
X198424278Y-96285474D01*
X198493066Y-96250220D01*
X198577189Y-96235450D01*
X198618209Y-96234243D01*
X198726784Y-96247104D01*
G36*
X198726784Y-96247104D02*
G01*
X198814205Y-96285754D01*
X198880570Y-96350290D01*
X198925976Y-96440812D01*
X198950518Y-96557418D01*
X198952277Y-96575624D01*
X198953656Y-96703984D01*
X198935784Y-96816496D01*
X198899750Y-96907688D01*
X198880455Y-96937022D01*
X198813245Y-96999106D01*
X198727650Y-97039316D01*
X198631890Y-97056003D01*
X198534187Y-97047517D01*
X198459917Y-97021380D01*
X198396047Y-96977335D01*
X198343846Y-96919587D01*
X198342943Y-96918236D01*
X198321744Y-96882593D01*
X198307967Y-96846752D01*
X198299624Y-96801519D01*
X198294727Y-96737701D01*
X198292569Y-96685368D01*
X198291671Y-96637910D01*
X198458743Y-96637910D01*
X198460376Y-96685154D01*
X198466304Y-96748046D01*
X198476761Y-96788407D01*
X198495619Y-96817122D01*
X198513281Y-96833896D01*
X198575894Y-96869016D01*
X198641408Y-96873710D01*
X198702421Y-96848440D01*
X198732928Y-96820124D01*
X198754911Y-96791589D01*
X198767769Y-96764284D01*
X198773412Y-96728750D01*
X198773751Y-96675524D01*
X198772012Y-96626506D01*
X198768271Y-96556482D01*
X198762341Y-96511064D01*
X198751653Y-96481440D01*
X198733639Y-96458797D01*
X198719363Y-96445855D01*
X198659651Y-96411860D01*
X198595234Y-96410165D01*
X198541219Y-96430301D01*
X198495140Y-96472352D01*
X198467689Y-96541428D01*
X198458743Y-96637910D01*
X198291671Y-96637910D01*
X198290599Y-96581299D01*
X198293964Y-96503468D01*
X198304045Y-96444930D01*
X198322226Y-96398737D01*
X198349890Y-96357942D01*
X198360146Y-96345828D01*
X198424278Y-96285474D01*
X198493066Y-96250220D01*
X198577189Y-96235450D01*
X198618209Y-96234243D01*
X198726784Y-96247104D01*
G37*
X201832631Y-98310526D02*
X201740723Y-98310526D01*
X201687377Y-98308962D01*
X201659593Y-98302485D01*
X201649590Y-98288418D01*
X201648815Y-98278906D01*
X201647128Y-98259832D01*
X201636490Y-98256174D01*
X201608535Y-98267932D01*
X201586795Y-98278906D01*
X201503332Y-98304911D01*
X201412604Y-98306416D01*
X201338842Y-98287021D01*
X201270154Y-98240165D01*
X201217794Y-98171004D01*
X201189122Y-98089427D01*
X201188392Y-98084866D01*
X201184132Y-98035101D01*
X201182014Y-97963659D01*
X201182184Y-97909626D01*
X201364720Y-97909626D01*
X201368949Y-97981441D01*
X201378568Y-98040634D01*
X201391590Y-98074060D01*
X201440856Y-98119740D01*
X201499350Y-98136115D01*
X201559671Y-98122873D01*
X201611217Y-98083373D01*
X201630738Y-98056807D01*
X201642152Y-98025106D01*
X201647498Y-97978832D01*
X201648815Y-97909328D01*
X201646458Y-97840499D01*
X201640233Y-97780026D01*
X201631408Y-97739556D01*
X201629937Y-97735929D01*
X201594347Y-97692802D01*
X201542400Y-97669124D01*
X201484278Y-97665301D01*
X201430160Y-97681738D01*
X201390226Y-97718840D01*
X201386083Y-97726222D01*
X201373116Y-97771239D01*
X201366052Y-97835967D01*
X201364720Y-97909626D01*
X201182184Y-97909626D01*
X201182271Y-97882230D01*
X201183472Y-97838405D01*
X201191645Y-97729988D01*
X201208630Y-97648588D01*
X201236887Y-97588412D01*
X201278872Y-97543666D01*
X201319632Y-97517400D01*
X201376581Y-97498935D01*
X201447411Y-97492602D01*
X201519941Y-97497760D01*
X201581986Y-97513769D01*
X201614768Y-97532920D01*
X201648815Y-97563732D01*
X201648815Y-97174210D01*
X201832631Y-97174210D01*
X201832631Y-98310526D01*
G36*
X201832631Y-98310526D02*
G01*
X201740723Y-98310526D01*
X201687377Y-98308962D01*
X201659593Y-98302485D01*
X201649590Y-98288418D01*
X201648815Y-98278906D01*
X201647128Y-98259832D01*
X201636490Y-98256174D01*
X201608535Y-98267932D01*
X201586795Y-98278906D01*
X201503332Y-98304911D01*
X201412604Y-98306416D01*
X201338842Y-98287021D01*
X201270154Y-98240165D01*
X201217794Y-98171004D01*
X201189122Y-98089427D01*
X201188392Y-98084866D01*
X201184132Y-98035101D01*
X201182014Y-97963659D01*
X201182184Y-97909626D01*
X201364720Y-97909626D01*
X201368949Y-97981441D01*
X201378568Y-98040634D01*
X201391590Y-98074060D01*
X201440856Y-98119740D01*
X201499350Y-98136115D01*
X201559671Y-98122873D01*
X201611217Y-98083373D01*
X201630738Y-98056807D01*
X201642152Y-98025106D01*
X201647498Y-97978832D01*
X201648815Y-97909328D01*
X201646458Y-97840499D01*
X201640233Y-97780026D01*
X201631408Y-97739556D01*
X201629937Y-97735929D01*
X201594347Y-97692802D01*
X201542400Y-97669124D01*
X201484278Y-97665301D01*
X201430160Y-97681738D01*
X201390226Y-97718840D01*
X201386083Y-97726222D01*
X201373116Y-97771239D01*
X201366052Y-97835967D01*
X201364720Y-97909626D01*
X201182184Y-97909626D01*
X201182271Y-97882230D01*
X201183472Y-97838405D01*
X201191645Y-97729988D01*
X201208630Y-97648588D01*
X201236887Y-97588412D01*
X201278872Y-97543666D01*
X201319632Y-97517400D01*
X201376581Y-97498935D01*
X201447411Y-97492602D01*
X201519941Y-97497760D01*
X201581986Y-97513769D01*
X201614768Y-97532920D01*
X201648815Y-97563732D01*
X201648815Y-97174210D01*
X201832631Y-97174210D01*
X201832631Y-98310526D01*
G37*
X205658784Y-96235554D02*
X205701574Y-96245949D01*
X205783609Y-96284013D01*
X205853757Y-96342149D01*
X205902305Y-96411852D01*
X205908975Y-96427502D01*
X205918124Y-96468496D01*
X205924529Y-96529138D01*
X205926710Y-96590430D01*
X205926710Y-96706316D01*
X205684407Y-96706316D01*
X205584471Y-96706693D01*
X205514069Y-96708987D01*
X205469313Y-96714938D01*
X205446315Y-96726285D01*
X205441189Y-96744771D01*
X205450048Y-96772136D01*
X205465917Y-96804155D01*
X205510184Y-96857592D01*
X205571699Y-96884215D01*
X205646885Y-96883347D01*
X205732053Y-96854371D01*
X205805659Y-96818611D01*
X205866734Y-96866904D01*
X205927810Y-96915197D01*
X205870351Y-96968285D01*
X205793641Y-97018445D01*
X205699302Y-97048688D01*
X205597827Y-97057151D01*
X205499711Y-97041974D01*
X205483881Y-97036824D01*
X205397647Y-96991791D01*
X205333501Y-96924652D01*
X205290091Y-96833405D01*
X205266064Y-96716044D01*
X205265784Y-96713529D01*
X205263633Y-96585627D01*
X205272329Y-96539997D01*
X205442105Y-96539997D01*
X205457697Y-96547013D01*
X205500029Y-96552388D01*
X205562434Y-96555457D01*
X205601981Y-96555921D01*
X205675728Y-96555630D01*
X205721840Y-96553783D01*
X205746100Y-96548912D01*
X205754294Y-96539555D01*
X205752206Y-96524245D01*
X205750455Y-96518322D01*
X205720560Y-96462668D01*
X205673542Y-96417815D01*
X205632049Y-96398105D01*
X205576926Y-96399295D01*
X205521068Y-96423875D01*
X205474212Y-96464570D01*
X205446094Y-96514108D01*
X205442105Y-96539997D01*
X205272329Y-96539997D01*
X205285074Y-96473133D01*
X205327611Y-96378727D01*
X205388747Y-96305088D01*
X205465985Y-96254893D01*
X205556830Y-96230822D01*
X205658784Y-96235554D01*
G36*
X205658784Y-96235554D02*
G01*
X205701574Y-96245949D01*
X205783609Y-96284013D01*
X205853757Y-96342149D01*
X205902305Y-96411852D01*
X205908975Y-96427502D01*
X205918124Y-96468496D01*
X205924529Y-96529138D01*
X205926710Y-96590430D01*
X205926710Y-96706316D01*
X205684407Y-96706316D01*
X205584471Y-96706693D01*
X205514069Y-96708987D01*
X205469313Y-96714938D01*
X205446315Y-96726285D01*
X205441189Y-96744771D01*
X205450048Y-96772136D01*
X205465917Y-96804155D01*
X205510184Y-96857592D01*
X205571699Y-96884215D01*
X205646885Y-96883347D01*
X205732053Y-96854371D01*
X205805659Y-96818611D01*
X205866734Y-96866904D01*
X205927810Y-96915197D01*
X205870351Y-96968285D01*
X205793641Y-97018445D01*
X205699302Y-97048688D01*
X205597827Y-97057151D01*
X205499711Y-97041974D01*
X205483881Y-97036824D01*
X205397647Y-96991791D01*
X205333501Y-96924652D01*
X205290091Y-96833405D01*
X205266064Y-96716044D01*
X205265784Y-96713529D01*
X205263633Y-96585627D01*
X205272329Y-96539997D01*
X205442105Y-96539997D01*
X205457697Y-96547013D01*
X205500029Y-96552388D01*
X205562434Y-96555457D01*
X205601981Y-96555921D01*
X205675728Y-96555630D01*
X205721840Y-96553783D01*
X205746100Y-96548912D01*
X205754294Y-96539555D01*
X205752206Y-96524245D01*
X205750455Y-96518322D01*
X205720560Y-96462668D01*
X205673542Y-96417815D01*
X205632049Y-96398105D01*
X205576926Y-96399295D01*
X205521068Y-96423875D01*
X205474212Y-96464570D01*
X205446094Y-96514108D01*
X205442105Y-96539997D01*
X205272329Y-96539997D01*
X205285074Y-96473133D01*
X205327611Y-96378727D01*
X205388747Y-96305088D01*
X205465985Y-96254893D01*
X205556830Y-96230822D01*
X205658784Y-96235554D01*
G37*
X202118628Y-96235547D02*
X202181908Y-96247548D01*
X202247557Y-96272648D01*
X202254572Y-96275848D01*
X202304356Y-96302026D01*
X202338834Y-96326353D01*
X202349978Y-96341937D01*
X202339366Y-96367353D01*
X202313588Y-96404853D01*
X202302146Y-96418852D01*
X202254992Y-96473954D01*
X202194201Y-96438086D01*
X202136347Y-96414192D01*
X202069500Y-96401420D01*
X202005394Y-96400613D01*
X201955764Y-96412615D01*
X201943854Y-96420105D01*
X201921172Y-96454450D01*
X201918416Y-96494013D01*
X201935388Y-96524920D01*
X201945427Y-96530913D01*
X201975510Y-96538357D01*
X202028389Y-96547106D01*
X202093575Y-96555467D01*
X202105600Y-96556778D01*
X202210297Y-96574888D01*
X202286232Y-96605651D01*
X202336592Y-96651907D01*
X202364564Y-96716497D01*
X202373278Y-96795387D01*
X202361240Y-96885065D01*
X202322151Y-96955486D01*
X202255855Y-97006777D01*
X202162194Y-97039067D01*
X202058223Y-97051807D01*
X201973438Y-97051654D01*
X201904665Y-97040083D01*
X201857697Y-97024109D01*
X201798350Y-96996275D01*
X201743506Y-96963973D01*
X201724013Y-96949755D01*
X201673881Y-96908835D01*
X201794803Y-96786477D01*
X201863543Y-96831967D01*
X201932488Y-96866133D01*
X202006111Y-96884004D01*
X202076883Y-96885889D01*
X202137274Y-96872101D01*
X202179757Y-96842949D01*
X202193474Y-96818352D01*
X202191417Y-96778904D01*
X202157330Y-96748737D01*
X202091308Y-96727906D01*
X202018974Y-96718279D01*
X201907652Y-96699910D01*
X201824952Y-96665254D01*
X201769765Y-96613297D01*
X201740988Y-96543023D01*
X201737001Y-96459707D01*
X201756693Y-96372681D01*
X201801589Y-96306902D01*
X201872091Y-96262068D01*
X201968601Y-96237879D01*
X202040100Y-96233137D01*
X202118628Y-96235547D01*
G36*
X202118628Y-96235547D02*
G01*
X202181908Y-96247548D01*
X202247557Y-96272648D01*
X202254572Y-96275848D01*
X202304356Y-96302026D01*
X202338834Y-96326353D01*
X202349978Y-96341937D01*
X202339366Y-96367353D01*
X202313588Y-96404853D01*
X202302146Y-96418852D01*
X202254992Y-96473954D01*
X202194201Y-96438086D01*
X202136347Y-96414192D01*
X202069500Y-96401420D01*
X202005394Y-96400613D01*
X201955764Y-96412615D01*
X201943854Y-96420105D01*
X201921172Y-96454450D01*
X201918416Y-96494013D01*
X201935388Y-96524920D01*
X201945427Y-96530913D01*
X201975510Y-96538357D01*
X202028389Y-96547106D01*
X202093575Y-96555467D01*
X202105600Y-96556778D01*
X202210297Y-96574888D01*
X202286232Y-96605651D01*
X202336592Y-96651907D01*
X202364564Y-96716497D01*
X202373278Y-96795387D01*
X202361240Y-96885065D01*
X202322151Y-96955486D01*
X202255855Y-97006777D01*
X202162194Y-97039067D01*
X202058223Y-97051807D01*
X201973438Y-97051654D01*
X201904665Y-97040083D01*
X201857697Y-97024109D01*
X201798350Y-96996275D01*
X201743506Y-96963973D01*
X201724013Y-96949755D01*
X201673881Y-96908835D01*
X201794803Y-96786477D01*
X201863543Y-96831967D01*
X201932488Y-96866133D01*
X202006111Y-96884004D01*
X202076883Y-96885889D01*
X202137274Y-96872101D01*
X202179757Y-96842949D01*
X202193474Y-96818352D01*
X202191417Y-96778904D01*
X202157330Y-96748737D01*
X202091308Y-96727906D01*
X202018974Y-96718279D01*
X201907652Y-96699910D01*
X201824952Y-96665254D01*
X201769765Y-96613297D01*
X201740988Y-96543023D01*
X201737001Y-96459707D01*
X201756693Y-96372681D01*
X201801589Y-96306902D01*
X201872091Y-96262068D01*
X201968601Y-96237879D01*
X202040100Y-96233137D01*
X202118628Y-96235547D01*
G37*
X204801193Y-97496078D02*
X204881068Y-97516845D01*
X204947962Y-97559705D01*
X204980351Y-97591723D01*
X205033445Y-97667413D01*
X205063873Y-97755216D01*
X205074327Y-97863150D01*
X205074380Y-97871875D01*
X205074473Y-97959605D01*
X204569534Y-97959605D01*
X204580298Y-98005559D01*
X204599732Y-98047178D01*
X204633745Y-98090544D01*
X204640860Y-98097467D01*
X204702003Y-98134935D01*
X204771729Y-98141289D01*
X204851987Y-98116638D01*
X204865592Y-98110000D01*
X204907319Y-98089819D01*
X204935268Y-98078321D01*
X204940145Y-98077258D01*
X204957168Y-98087583D01*
X204989633Y-98112845D01*
X205006114Y-98126650D01*
X205040264Y-98158361D01*
X205051478Y-98179299D01*
X205043695Y-98198560D01*
X205039535Y-98203827D01*
X205011357Y-98226878D01*
X204964862Y-98254892D01*
X204932434Y-98271246D01*
X204840385Y-98300059D01*
X204738476Y-98309395D01*
X204641963Y-98298332D01*
X204614934Y-98290412D01*
X204531276Y-98245581D01*
X204469266Y-98176598D01*
X204428545Y-98082794D01*
X204408755Y-97963498D01*
X204406582Y-97901118D01*
X204412926Y-97810298D01*
X204573157Y-97810298D01*
X204588655Y-97817012D01*
X204630312Y-97822280D01*
X204690876Y-97825389D01*
X204731907Y-97825921D01*
X204805711Y-97825408D01*
X204852293Y-97823006D01*
X204877848Y-97817422D01*
X204888569Y-97807361D01*
X204890657Y-97792763D01*
X204876331Y-97747796D01*
X204840262Y-97703353D01*
X204792815Y-97669242D01*
X204745349Y-97655288D01*
X204680879Y-97667666D01*
X204625070Y-97703452D01*
X204586374Y-97755033D01*
X204573157Y-97810298D01*
X204412926Y-97810298D01*
X204415821Y-97768866D01*
X204444336Y-97663498D01*
X204492729Y-97584178D01*
X204561604Y-97530071D01*
X204651565Y-97500343D01*
X204700300Y-97494618D01*
X204801193Y-97496078D01*
G36*
X204801193Y-97496078D02*
G01*
X204881068Y-97516845D01*
X204947962Y-97559705D01*
X204980351Y-97591723D01*
X205033445Y-97667413D01*
X205063873Y-97755216D01*
X205074327Y-97863150D01*
X205074380Y-97871875D01*
X205074473Y-97959605D01*
X204569534Y-97959605D01*
X204580298Y-98005559D01*
X204599732Y-98047178D01*
X204633745Y-98090544D01*
X204640860Y-98097467D01*
X204702003Y-98134935D01*
X204771729Y-98141289D01*
X204851987Y-98116638D01*
X204865592Y-98110000D01*
X204907319Y-98089819D01*
X204935268Y-98078321D01*
X204940145Y-98077258D01*
X204957168Y-98087583D01*
X204989633Y-98112845D01*
X205006114Y-98126650D01*
X205040264Y-98158361D01*
X205051478Y-98179299D01*
X205043695Y-98198560D01*
X205039535Y-98203827D01*
X205011357Y-98226878D01*
X204964862Y-98254892D01*
X204932434Y-98271246D01*
X204840385Y-98300059D01*
X204738476Y-98309395D01*
X204641963Y-98298332D01*
X204614934Y-98290412D01*
X204531276Y-98245581D01*
X204469266Y-98176598D01*
X204428545Y-98082794D01*
X204408755Y-97963498D01*
X204406582Y-97901118D01*
X204412926Y-97810298D01*
X204573157Y-97810298D01*
X204588655Y-97817012D01*
X204630312Y-97822280D01*
X204690876Y-97825389D01*
X204731907Y-97825921D01*
X204805711Y-97825408D01*
X204852293Y-97823006D01*
X204877848Y-97817422D01*
X204888569Y-97807361D01*
X204890657Y-97792763D01*
X204876331Y-97747796D01*
X204840262Y-97703353D01*
X204792815Y-97669242D01*
X204745349Y-97655288D01*
X204680879Y-97667666D01*
X204625070Y-97703452D01*
X204586374Y-97755033D01*
X204573157Y-97810298D01*
X204412926Y-97810298D01*
X204415821Y-97768866D01*
X204444336Y-97663498D01*
X204492729Y-97584178D01*
X204561604Y-97530071D01*
X204651565Y-97500343D01*
X204700300Y-97494618D01*
X204801193Y-97496078D01*
G37*
X200297018Y-96257027D02*
X200313670Y-96264866D01*
X200371305Y-96307086D01*
X200425805Y-96368700D01*
X200466499Y-96436543D01*
X200478074Y-96467734D01*
X200488634Y-96523449D01*
X200494931Y-96590781D01*
X200495696Y-96618585D01*
X200495789Y-96706316D01*
X199990850Y-96706316D01*
X200001613Y-96752270D01*
X200028033Y-96806620D01*
X200074222Y-96853591D01*
X200129172Y-96883848D01*
X200164189Y-96890131D01*
X200211677Y-96882506D01*
X200268335Y-96863383D01*
X200287582Y-96854584D01*
X200358759Y-96819036D01*
X200419502Y-96865367D01*
X200454552Y-96896703D01*
X200473202Y-96922567D01*
X200474147Y-96930158D01*
X200457485Y-96948556D01*
X200420970Y-96976515D01*
X200387828Y-96998327D01*
X200298393Y-97037537D01*
X200198129Y-97055285D01*
X200098754Y-97050670D01*
X200019539Y-97026551D01*
X199937880Y-96974884D01*
X199879849Y-96906856D01*
X199843546Y-96818843D01*
X199827072Y-96707216D01*
X199825611Y-96656138D01*
X199831457Y-96539091D01*
X199832175Y-96535686D01*
X199999489Y-96535686D01*
X200004097Y-96546662D01*
X200023036Y-96552715D01*
X200062098Y-96555310D01*
X200127077Y-96555910D01*
X200152097Y-96555921D01*
X200228221Y-96555014D01*
X200276496Y-96551720D01*
X200302460Y-96545181D01*
X200311648Y-96534537D01*
X200311973Y-96531119D01*
X200301487Y-96503956D01*
X200275242Y-96465903D01*
X200263959Y-96452579D01*
X200222072Y-96414896D01*
X200178409Y-96400080D01*
X200154885Y-96398842D01*
X200091243Y-96414329D01*
X200037873Y-96455930D01*
X200004019Y-96516353D01*
X200003419Y-96518322D01*
X199999489Y-96535686D01*
X199832175Y-96535686D01*
X199850899Y-96446928D01*
X199885922Y-96373190D01*
X199928756Y-96320848D01*
X200007948Y-96264092D01*
X200101040Y-96233762D01*
X200200055Y-96231021D01*
X200297018Y-96257027D01*
G36*
X200297018Y-96257027D02*
G01*
X200313670Y-96264866D01*
X200371305Y-96307086D01*
X200425805Y-96368700D01*
X200466499Y-96436543D01*
X200478074Y-96467734D01*
X200488634Y-96523449D01*
X200494931Y-96590781D01*
X200495696Y-96618585D01*
X200495789Y-96706316D01*
X199990850Y-96706316D01*
X200001613Y-96752270D01*
X200028033Y-96806620D01*
X200074222Y-96853591D01*
X200129172Y-96883848D01*
X200164189Y-96890131D01*
X200211677Y-96882506D01*
X200268335Y-96863383D01*
X200287582Y-96854584D01*
X200358759Y-96819036D01*
X200419502Y-96865367D01*
X200454552Y-96896703D01*
X200473202Y-96922567D01*
X200474147Y-96930158D01*
X200457485Y-96948556D01*
X200420970Y-96976515D01*
X200387828Y-96998327D01*
X200298393Y-97037537D01*
X200198129Y-97055285D01*
X200098754Y-97050670D01*
X200019539Y-97026551D01*
X199937880Y-96974884D01*
X199879849Y-96906856D01*
X199843546Y-96818843D01*
X199827072Y-96707216D01*
X199825611Y-96656138D01*
X199831457Y-96539091D01*
X199832175Y-96535686D01*
X199999489Y-96535686D01*
X200004097Y-96546662D01*
X200023036Y-96552715D01*
X200062098Y-96555310D01*
X200127077Y-96555910D01*
X200152097Y-96555921D01*
X200228221Y-96555014D01*
X200276496Y-96551720D01*
X200302460Y-96545181D01*
X200311648Y-96534537D01*
X200311973Y-96531119D01*
X200301487Y-96503956D01*
X200275242Y-96465903D01*
X200263959Y-96452579D01*
X200222072Y-96414896D01*
X200178409Y-96400080D01*
X200154885Y-96398842D01*
X200091243Y-96414329D01*
X200037873Y-96455930D01*
X200004019Y-96516353D01*
X200003419Y-96518322D01*
X199999489Y-96535686D01*
X199832175Y-96535686D01*
X199850899Y-96446928D01*
X199885922Y-96373190D01*
X199928756Y-96320848D01*
X200007948Y-96264092D01*
X200101040Y-96233762D01*
X200200055Y-96231021D01*
X200297018Y-96257027D01*
G37*
X203479992Y-97496673D02*
X203550427Y-97513780D01*
X203570787Y-97522844D01*
X203610253Y-97546583D01*
X203640541Y-97573321D01*
X203662952Y-97607699D01*
X203678786Y-97654360D01*
X203689343Y-97717946D01*
X203695924Y-97803099D01*
X203699828Y-97914462D01*
X203701310Y-97988849D01*
X203706765Y-98310526D01*
X203613580Y-98310526D01*
X203557047Y-98308156D01*
X203527922Y-98300055D01*
X203520394Y-98286451D01*
X203516420Y-98271741D01*
X203498652Y-98274554D01*
X203474440Y-98286348D01*
X203413828Y-98304427D01*
X203335929Y-98309299D01*
X203253995Y-98301330D01*
X203181281Y-98280889D01*
X203174759Y-98278051D01*
X203108302Y-98231365D01*
X203064491Y-98166464D01*
X203044332Y-98090600D01*
X203045872Y-98063344D01*
X203210345Y-98063344D01*
X203224837Y-98100024D01*
X203267805Y-98126309D01*
X203337129Y-98140417D01*
X203374177Y-98142290D01*
X203435919Y-98137494D01*
X203476960Y-98118858D01*
X203486973Y-98110000D01*
X203514100Y-98061806D01*
X203520394Y-98018092D01*
X203520394Y-97959605D01*
X203438930Y-97959605D01*
X203344234Y-97964432D01*
X203277813Y-97979613D01*
X203235846Y-98006200D01*
X203226449Y-98018052D01*
X203210345Y-98063344D01*
X203045872Y-98063344D01*
X203048829Y-98011026D01*
X203078985Y-97934995D01*
X203120131Y-97883612D01*
X203145052Y-97861397D01*
X203169448Y-97846798D01*
X203201191Y-97837897D01*
X203248152Y-97832775D01*
X203318204Y-97829515D01*
X203345990Y-97828577D01*
X203520394Y-97822879D01*
X203520138Y-97770091D01*
X203513384Y-97714603D01*
X203488964Y-97681052D01*
X203439630Y-97659618D01*
X203438306Y-97659236D01*
X203368360Y-97650808D01*
X203299914Y-97661816D01*
X203249047Y-97688585D01*
X203228637Y-97701803D01*
X203206654Y-97699974D01*
X203172826Y-97680824D01*
X203152961Y-97667308D01*
X203114106Y-97638432D01*
X203090038Y-97616786D01*
X203086176Y-97610589D01*
X203102079Y-97578519D01*
X203149065Y-97540219D01*
X203169473Y-97527297D01*
X203228143Y-97505041D01*
X203307212Y-97492432D01*
X203395041Y-97489600D01*
X203479992Y-97496673D01*
G36*
X203479992Y-97496673D02*
G01*
X203550427Y-97513780D01*
X203570787Y-97522844D01*
X203610253Y-97546583D01*
X203640541Y-97573321D01*
X203662952Y-97607699D01*
X203678786Y-97654360D01*
X203689343Y-97717946D01*
X203695924Y-97803099D01*
X203699828Y-97914462D01*
X203701310Y-97988849D01*
X203706765Y-98310526D01*
X203613580Y-98310526D01*
X203557047Y-98308156D01*
X203527922Y-98300055D01*
X203520394Y-98286451D01*
X203516420Y-98271741D01*
X203498652Y-98274554D01*
X203474440Y-98286348D01*
X203413828Y-98304427D01*
X203335929Y-98309299D01*
X203253995Y-98301330D01*
X203181281Y-98280889D01*
X203174759Y-98278051D01*
X203108302Y-98231365D01*
X203064491Y-98166464D01*
X203044332Y-98090600D01*
X203045872Y-98063344D01*
X203210345Y-98063344D01*
X203224837Y-98100024D01*
X203267805Y-98126309D01*
X203337129Y-98140417D01*
X203374177Y-98142290D01*
X203435919Y-98137494D01*
X203476960Y-98118858D01*
X203486973Y-98110000D01*
X203514100Y-98061806D01*
X203520394Y-98018092D01*
X203520394Y-97959605D01*
X203438930Y-97959605D01*
X203344234Y-97964432D01*
X203277813Y-97979613D01*
X203235846Y-98006200D01*
X203226449Y-98018052D01*
X203210345Y-98063344D01*
X203045872Y-98063344D01*
X203048829Y-98011026D01*
X203078985Y-97934995D01*
X203120131Y-97883612D01*
X203145052Y-97861397D01*
X203169448Y-97846798D01*
X203201191Y-97837897D01*
X203248152Y-97832775D01*
X203318204Y-97829515D01*
X203345990Y-97828577D01*
X203520394Y-97822879D01*
X203520138Y-97770091D01*
X203513384Y-97714603D01*
X203488964Y-97681052D01*
X203439630Y-97659618D01*
X203438306Y-97659236D01*
X203368360Y-97650808D01*
X203299914Y-97661816D01*
X203249047Y-97688585D01*
X203228637Y-97701803D01*
X203206654Y-97699974D01*
X203172826Y-97680824D01*
X203152961Y-97667308D01*
X203114106Y-97638432D01*
X203090038Y-97616786D01*
X203086176Y-97610589D01*
X203102079Y-97578519D01*
X203149065Y-97540219D01*
X203169473Y-97527297D01*
X203228143Y-97505041D01*
X203307212Y-97492432D01*
X203395041Y-97489600D01*
X203479992Y-97496673D01*
G37*
X200260457Y-97498184D02*
X200339070Y-97519160D01*
X200398916Y-97557180D01*
X200441147Y-97606978D01*
X200454275Y-97628230D01*
X200463968Y-97650492D01*
X200470744Y-97678970D01*
X200475123Y-97718871D01*
X200477624Y-97775401D01*
X200478768Y-97853767D01*
X200479072Y-97959176D01*
X200479078Y-97987142D01*
X200479078Y-98310526D01*
X200398868Y-98310526D01*
X200347706Y-98306943D01*
X200309877Y-98297866D01*
X200300399Y-98292268D01*
X200274488Y-98282606D01*
X200248024Y-98292268D01*
X200204452Y-98304330D01*
X200141160Y-98309185D01*
X200071010Y-98307078D01*
X200006860Y-98298256D01*
X199969407Y-98286937D01*
X199896933Y-98240412D01*
X199851640Y-98175846D01*
X199831278Y-98090000D01*
X199831088Y-98087796D01*
X199832875Y-98049713D01*
X199994473Y-98049713D01*
X200008601Y-98093030D01*
X200031612Y-98117408D01*
X200077804Y-98135845D01*
X200138775Y-98143205D01*
X200200949Y-98139583D01*
X200250751Y-98125074D01*
X200264703Y-98115765D01*
X200289085Y-98072753D01*
X200295263Y-98023857D01*
X200295263Y-97959605D01*
X200202818Y-97959605D01*
X200114995Y-97966366D01*
X200048418Y-97985520D01*
X200007002Y-98015376D01*
X199994473Y-98049713D01*
X199832875Y-98049713D01*
X199835490Y-97994004D01*
X199866424Y-97919847D01*
X199924581Y-97863767D01*
X199932620Y-97858665D01*
X199967163Y-97842055D01*
X200009918Y-97831996D01*
X200069686Y-97827107D01*
X200140690Y-97825983D01*
X200295263Y-97825921D01*
X200295263Y-97761125D01*
X200288706Y-97710850D01*
X200271975Y-97677169D01*
X200270016Y-97675376D01*
X200232783Y-97660642D01*
X200176580Y-97654931D01*
X200114467Y-97657737D01*
X200059510Y-97668556D01*
X200026899Y-97684782D01*
X200009228Y-97697780D01*
X199990569Y-97700262D01*
X199964819Y-97689613D01*
X199925873Y-97663218D01*
X199867630Y-97618465D01*
X199862284Y-97614273D01*
X199865023Y-97598760D01*
X199887876Y-97572960D01*
X199922609Y-97544289D01*
X199960990Y-97520166D01*
X199973048Y-97514470D01*
X200017034Y-97503103D01*
X200081487Y-97494995D01*
X200153497Y-97491743D01*
X200156864Y-97491736D01*
X200260457Y-97498184D01*
G36*
X200260457Y-97498184D02*
G01*
X200339070Y-97519160D01*
X200398916Y-97557180D01*
X200441147Y-97606978D01*
X200454275Y-97628230D01*
X200463968Y-97650492D01*
X200470744Y-97678970D01*
X200475123Y-97718871D01*
X200477624Y-97775401D01*
X200478768Y-97853767D01*
X200479072Y-97959176D01*
X200479078Y-97987142D01*
X200479078Y-98310526D01*
X200398868Y-98310526D01*
X200347706Y-98306943D01*
X200309877Y-98297866D01*
X200300399Y-98292268D01*
X200274488Y-98282606D01*
X200248024Y-98292268D01*
X200204452Y-98304330D01*
X200141160Y-98309185D01*
X200071010Y-98307078D01*
X200006860Y-98298256D01*
X199969407Y-98286937D01*
X199896933Y-98240412D01*
X199851640Y-98175846D01*
X199831278Y-98090000D01*
X199831088Y-98087796D01*
X199832875Y-98049713D01*
X199994473Y-98049713D01*
X200008601Y-98093030D01*
X200031612Y-98117408D01*
X200077804Y-98135845D01*
X200138775Y-98143205D01*
X200200949Y-98139583D01*
X200250751Y-98125074D01*
X200264703Y-98115765D01*
X200289085Y-98072753D01*
X200295263Y-98023857D01*
X200295263Y-97959605D01*
X200202818Y-97959605D01*
X200114995Y-97966366D01*
X200048418Y-97985520D01*
X200007002Y-98015376D01*
X199994473Y-98049713D01*
X199832875Y-98049713D01*
X199835490Y-97994004D01*
X199866424Y-97919847D01*
X199924581Y-97863767D01*
X199932620Y-97858665D01*
X199967163Y-97842055D01*
X200009918Y-97831996D01*
X200069686Y-97827107D01*
X200140690Y-97825983D01*
X200295263Y-97825921D01*
X200295263Y-97761125D01*
X200288706Y-97710850D01*
X200271975Y-97677169D01*
X200270016Y-97675376D01*
X200232783Y-97660642D01*
X200176580Y-97654931D01*
X200114467Y-97657737D01*
X200059510Y-97668556D01*
X200026899Y-97684782D01*
X200009228Y-97697780D01*
X199990569Y-97700262D01*
X199964819Y-97689613D01*
X199925873Y-97663218D01*
X199867630Y-97618465D01*
X199862284Y-97614273D01*
X199865023Y-97598760D01*
X199887876Y-97572960D01*
X199922609Y-97544289D01*
X199960990Y-97520166D01*
X199973048Y-97514470D01*
X200017034Y-97503103D01*
X200081487Y-97494995D01*
X200153497Y-97491743D01*
X200156864Y-97491736D01*
X200260457Y-97498184D01*
G37*
X199563360Y-96252468D02*
X199598592Y-96269874D01*
X199642040Y-96300206D01*
X199673706Y-96333283D01*
X199695394Y-96374817D01*
X199708903Y-96430522D01*
X199716038Y-96506111D01*
X199718600Y-96607296D01*
X199718750Y-96650797D01*
X199718312Y-96746135D01*
X199716496Y-96814271D01*
X199712545Y-96861418D01*
X199705702Y-96893790D01*
X199695211Y-96917600D01*
X199684296Y-96933843D01*
X199614619Y-97002952D01*
X199532566Y-97044521D01*
X199444050Y-97057023D01*
X199354981Y-97038934D01*
X199326763Y-97026142D01*
X199259210Y-96990931D01*
X199259210Y-97542700D01*
X199308512Y-97517205D01*
X199373473Y-97497480D01*
X199453320Y-97492427D01*
X199533052Y-97501756D01*
X199593265Y-97522714D01*
X199643208Y-97562627D01*
X199685881Y-97619741D01*
X199689090Y-97625605D01*
X199702622Y-97653227D01*
X199712505Y-97681068D01*
X199719309Y-97714794D01*
X199723601Y-97760071D01*
X199725951Y-97822562D01*
X199726928Y-97907935D01*
X199727105Y-98004010D01*
X199727105Y-98310526D01*
X199543289Y-98310526D01*
X199543289Y-97745339D01*
X199491875Y-97702077D01*
X199438466Y-97667472D01*
X199387888Y-97661180D01*
X199337030Y-97677372D01*
X199309925Y-97693227D01*
X199289751Y-97715810D01*
X199275403Y-97749940D01*
X199265776Y-97800434D01*
X199259763Y-97872111D01*
X199256260Y-97969788D01*
X199255026Y-98034802D01*
X199250855Y-98302171D01*
X199163125Y-98307222D01*
X199075394Y-98312273D01*
X199075394Y-96653101D01*
X199259210Y-96653101D01*
X199263896Y-96745600D01*
X199279688Y-96809809D01*
X199309183Y-96849759D01*
X199354980Y-96869480D01*
X199401250Y-96873421D01*
X199453628Y-96868892D01*
X199488390Y-96851069D01*
X199510128Y-96827519D01*
X199527240Y-96802189D01*
X199537427Y-96773969D01*
X199541960Y-96734431D01*
X199542109Y-96675142D01*
X199540584Y-96625498D01*
X199537081Y-96550710D01*
X199531867Y-96501611D01*
X199523087Y-96470467D01*
X199508886Y-96449545D01*
X199495484Y-96437452D01*
X199439487Y-96411081D01*
X199373211Y-96406822D01*
X199335156Y-96415906D01*
X199297477Y-96448196D01*
X199272519Y-96511006D01*
X199260422Y-96603894D01*
X199259210Y-96653101D01*
X199075394Y-96653101D01*
X199075394Y-96238421D01*
X199167302Y-96238421D01*
X199222483Y-96240603D01*
X199250952Y-96248351D01*
X199259206Y-96263468D01*
X199259210Y-96263916D01*
X199263040Y-96278720D01*
X199279933Y-96277039D01*
X199313519Y-96260772D01*
X199391778Y-96235887D01*
X199479827Y-96233271D01*
X199563360Y-96252468D01*
G36*
X199563360Y-96252468D02*
G01*
X199598592Y-96269874D01*
X199642040Y-96300206D01*
X199673706Y-96333283D01*
X199695394Y-96374817D01*
X199708903Y-96430522D01*
X199716038Y-96506111D01*
X199718600Y-96607296D01*
X199718750Y-96650797D01*
X199718312Y-96746135D01*
X199716496Y-96814271D01*
X199712545Y-96861418D01*
X199705702Y-96893790D01*
X199695211Y-96917600D01*
X199684296Y-96933843D01*
X199614619Y-97002952D01*
X199532566Y-97044521D01*
X199444050Y-97057023D01*
X199354981Y-97038934D01*
X199326763Y-97026142D01*
X199259210Y-96990931D01*
X199259210Y-97542700D01*
X199308512Y-97517205D01*
X199373473Y-97497480D01*
X199453320Y-97492427D01*
X199533052Y-97501756D01*
X199593265Y-97522714D01*
X199643208Y-97562627D01*
X199685881Y-97619741D01*
X199689090Y-97625605D01*
X199702622Y-97653227D01*
X199712505Y-97681068D01*
X199719309Y-97714794D01*
X199723601Y-97760071D01*
X199725951Y-97822562D01*
X199726928Y-97907935D01*
X199727105Y-98004010D01*
X199727105Y-98310526D01*
X199543289Y-98310526D01*
X199543289Y-97745339D01*
X199491875Y-97702077D01*
X199438466Y-97667472D01*
X199387888Y-97661180D01*
X199337030Y-97677372D01*
X199309925Y-97693227D01*
X199289751Y-97715810D01*
X199275403Y-97749940D01*
X199265776Y-97800434D01*
X199259763Y-97872111D01*
X199256260Y-97969788D01*
X199255026Y-98034802D01*
X199250855Y-98302171D01*
X199163125Y-98307222D01*
X199075394Y-98312273D01*
X199075394Y-96653101D01*
X199259210Y-96653101D01*
X199263896Y-96745600D01*
X199279688Y-96809809D01*
X199309183Y-96849759D01*
X199354980Y-96869480D01*
X199401250Y-96873421D01*
X199453628Y-96868892D01*
X199488390Y-96851069D01*
X199510128Y-96827519D01*
X199527240Y-96802189D01*
X199537427Y-96773969D01*
X199541960Y-96734431D01*
X199542109Y-96675142D01*
X199540584Y-96625498D01*
X199537081Y-96550710D01*
X199531867Y-96501611D01*
X199523087Y-96470467D01*
X199508886Y-96449545D01*
X199495484Y-96437452D01*
X199439487Y-96411081D01*
X199373211Y-96406822D01*
X199335156Y-96415906D01*
X199297477Y-96448196D01*
X199272519Y-96511006D01*
X199260422Y-96603894D01*
X199259210Y-96653101D01*
X199075394Y-96653101D01*
X199075394Y-96238421D01*
X199167302Y-96238421D01*
X199222483Y-96240603D01*
X199250952Y-96248351D01*
X199259206Y-96263468D01*
X199259210Y-96263916D01*
X199263040Y-96278720D01*
X199279933Y-96277039D01*
X199313519Y-96260772D01*
X199391778Y-96235887D01*
X199479827Y-96233271D01*
X199563360Y-96252468D01*
G37*
X202600964Y-90698576D02*
X202676513Y-91099322D01*
X203234041Y-91329154D01*
X203568465Y-91101748D01*
X203662122Y-91038431D01*
X203746782Y-90981896D01*
X203818495Y-90934727D01*
X203873311Y-90899502D01*
X203907280Y-90878805D01*
X203916530Y-90874342D01*
X203933195Y-90885820D01*
X203968806Y-90917551D01*
X204019371Y-90965483D01*
X204080900Y-91025562D01*
X204149399Y-91093733D01*
X204220879Y-91165945D01*
X204291347Y-91238142D01*
X204356811Y-91306273D01*
X204413280Y-91366283D01*
X204456763Y-91414119D01*
X204483268Y-91445727D01*
X204489605Y-91456305D01*
X204480486Y-91475806D01*
X204454920Y-91518531D01*
X204415597Y-91580298D01*
X204365203Y-91656931D01*
X204306427Y-91744248D01*
X204272368Y-91794052D01*
X204210289Y-91884993D01*
X204155126Y-91967059D01*
X204109554Y-92036163D01*
X204076250Y-92088222D01*
X204057890Y-92119150D01*
X204055131Y-92125650D01*
X204061385Y-92144121D01*
X204078434Y-92187172D01*
X204103703Y-92248749D01*
X204134622Y-92322799D01*
X204168618Y-92403270D01*
X204203118Y-92484107D01*
X204235551Y-92559258D01*
X204263343Y-92622671D01*
X204283923Y-92668293D01*
X204294719Y-92690069D01*
X204295356Y-92690926D01*
X204312307Y-92695084D01*
X204357451Y-92704361D01*
X204426110Y-92717844D01*
X204513602Y-92734621D01*
X204615250Y-92753781D01*
X204674556Y-92764830D01*
X204783172Y-92785510D01*
X204881277Y-92805189D01*
X204963909Y-92822789D01*
X205026104Y-92837233D01*
X205062899Y-92847446D01*
X205070296Y-92850686D01*
X205077540Y-92872617D01*
X205083385Y-92922147D01*
X205087835Y-92993485D01*
X205090893Y-93080839D01*
X205092565Y-93178417D01*
X205092853Y-93280426D01*
X205091761Y-93381075D01*
X205089294Y-93474572D01*
X205085456Y-93555125D01*
X205080250Y-93616942D01*
X205073681Y-93654230D01*
X205069741Y-93661993D01*
X205046188Y-93671298D01*
X204996282Y-93684600D01*
X204926623Y-93700337D01*
X204843813Y-93716946D01*
X204814905Y-93722319D01*
X204675531Y-93747848D01*
X204565436Y-93768408D01*
X204480982Y-93784815D01*
X204418530Y-93797887D01*
X204374444Y-93808441D01*
X204345085Y-93817294D01*
X204326815Y-93825263D01*
X204315998Y-93833165D01*
X204314485Y-93834727D01*
X204299377Y-93859886D01*
X204276329Y-93908850D01*
X204247644Y-93975621D01*
X204215622Y-94054205D01*
X204182565Y-94138607D01*
X204150773Y-94222830D01*
X204122549Y-94300879D01*
X204100193Y-94366759D01*
X204086007Y-94414473D01*
X204082293Y-94438027D01*
X204082602Y-94438852D01*
X204095189Y-94458104D01*
X204123744Y-94500463D01*
X204165267Y-94561521D01*
X204216756Y-94636868D01*
X204275211Y-94722096D01*
X204291858Y-94746315D01*
X204351215Y-94834123D01*
X204403447Y-94914238D01*
X204445708Y-94982062D01*
X204475153Y-95032993D01*
X204488937Y-95062431D01*
X204489605Y-95066048D01*
X204478024Y-95085057D01*
X204446024Y-95122714D01*
X204397718Y-95174973D01*
X204337220Y-95237786D01*
X204268644Y-95307106D01*
X204196104Y-95378885D01*
X204123712Y-95449077D01*
X204055584Y-95513635D01*
X203995832Y-95568510D01*
X203948571Y-95609656D01*
X203917913Y-95633026D01*
X203909432Y-95636842D01*
X203889691Y-95627855D01*
X203849274Y-95603616D01*
X203794763Y-95568209D01*
X203752823Y-95539711D01*
X203676829Y-95487418D01*
X203586834Y-95425845D01*
X203496564Y-95364370D01*
X203448032Y-95331469D01*
X203283762Y-95220359D01*
X203145869Y-95294916D01*
X203083049Y-95327578D01*
X203029629Y-95352966D01*
X202993484Y-95367446D01*
X202984284Y-95369460D01*
X202973221Y-95354584D01*
X202951394Y-95312547D01*
X202920434Y-95247227D01*
X202881970Y-95162500D01*
X202837632Y-95062245D01*
X202789047Y-94950339D01*
X202737846Y-94830659D01*
X202685659Y-94707084D01*
X202634113Y-94583491D01*
X202584840Y-94463757D01*
X202539467Y-94351759D01*
X202499625Y-94251377D01*
X202466942Y-94166486D01*
X202443049Y-94100965D01*
X202429574Y-94058690D01*
X202427406Y-94044172D01*
X202444583Y-94025653D01*
X202482190Y-93995590D01*
X202532366Y-93960232D01*
X202536578Y-93957434D01*
X202666264Y-93853625D01*
X202770834Y-93732515D01*
X202849381Y-93597976D01*
X202900999Y-93453882D01*
X202924782Y-93304105D01*
X202919823Y-93152517D01*
X202885217Y-93002992D01*
X202820057Y-92859400D01*
X202800886Y-92827984D01*
X202701174Y-92701125D01*
X202583377Y-92599255D01*
X202451571Y-92522904D01*
X202309833Y-92472602D01*
X202162242Y-92448879D01*
X202012873Y-92452265D01*
X201865803Y-92483288D01*
X201725111Y-92542480D01*
X201594873Y-92630369D01*
X201554586Y-92666042D01*
X201452055Y-92777706D01*
X201377341Y-92895257D01*
X201326090Y-93027020D01*
X201297546Y-93157507D01*
X201290500Y-93304216D01*
X201313996Y-93451653D01*
X201365649Y-93594834D01*
X201443071Y-93728777D01*
X201543875Y-93848498D01*
X201665676Y-93949014D01*
X201681684Y-93959609D01*
X201732398Y-93994306D01*
X201770950Y-94024370D01*
X201789381Y-94043565D01*
X201789649Y-94044172D01*
X201785692Y-94064936D01*
X201770007Y-94112062D01*
X201744222Y-94181673D01*
X201709969Y-94269893D01*
X201668877Y-94372844D01*
X201622576Y-94486650D01*
X201572696Y-94607435D01*
X201520867Y-94731321D01*
X201468719Y-94854432D01*
X201417882Y-94972891D01*
X201369987Y-95082823D01*
X201326662Y-95180349D01*
X201289538Y-95261593D01*
X201260244Y-95322679D01*
X201240412Y-95359730D01*
X201232426Y-95369460D01*
X201208021Y-95361883D01*
X201162358Y-95341560D01*
X201103310Y-95312125D01*
X201070840Y-95294916D01*
X200932947Y-95220359D01*
X200768677Y-95331469D01*
X200684821Y-95388390D01*
X200593013Y-95451030D01*
X200506980Y-95510011D01*
X200463887Y-95539711D01*
X200403277Y-95580410D01*
X200351955Y-95612663D01*
X200316615Y-95632384D01*
X200305137Y-95636554D01*
X200288430Y-95625307D01*
X200251454Y-95593911D01*
X200197795Y-95545624D01*
X200131038Y-95483708D01*
X200054766Y-95411421D01*
X200006527Y-95365008D01*
X199922133Y-95282087D01*
X199849197Y-95207920D01*
X199790669Y-95145680D01*
X199749497Y-95098541D01*
X199728628Y-95069673D01*
X199726626Y-95063815D01*
X199735917Y-95041532D01*
X199761591Y-94996477D01*
X199800800Y-94933211D01*
X199850697Y-94856295D01*
X199908433Y-94770292D01*
X199924851Y-94746315D01*
X199984677Y-94659170D01*
X200038350Y-94580710D01*
X200082870Y-94515345D01*
X200115235Y-94467484D01*
X200132445Y-94441535D01*
X200134107Y-94438852D01*
X200131621Y-94418172D01*
X200118423Y-94372704D01*
X200096814Y-94308444D01*
X200069096Y-94231387D01*
X200037570Y-94147529D01*
X200004537Y-94062866D01*
X199972299Y-93983392D01*
X199943157Y-93915104D01*
X199919412Y-93863997D01*
X199903365Y-93836067D01*
X199902225Y-93834727D01*
X199892412Y-93826745D01*
X199875839Y-93818851D01*
X199848868Y-93810229D01*
X199807861Y-93800062D01*
X199749180Y-93787531D01*
X199669187Y-93771821D01*
X199564245Y-93752113D01*
X199430715Y-93727592D01*
X199401804Y-93722319D01*
X199316118Y-93705764D01*
X199241418Y-93689569D01*
X199184306Y-93675296D01*
X199151383Y-93664508D01*
X199146969Y-93661993D01*
X199139694Y-93639696D01*
X199133781Y-93589869D01*
X199129234Y-93518304D01*
X199126055Y-93430793D01*
X199124251Y-93333128D01*
X199123823Y-93231101D01*
X199124777Y-93130503D01*
X199127116Y-93037127D01*
X199130844Y-92956765D01*
X199135966Y-92895209D01*
X199142484Y-92858250D01*
X199146414Y-92850686D01*
X199168292Y-92843056D01*
X199218109Y-92830642D01*
X199290903Y-92814522D01*
X199381711Y-92795773D01*
X199485569Y-92775471D01*
X199542154Y-92764830D01*
X199649514Y-92744760D01*
X199745254Y-92726580D01*
X199824694Y-92711199D01*
X199883154Y-92699531D01*
X199915955Y-92692488D01*
X199921354Y-92690926D01*
X199930478Y-92673322D01*
X199949765Y-92630918D01*
X199976645Y-92569772D01*
X200008546Y-92495943D01*
X200042898Y-92415489D01*
X200077129Y-92334468D01*
X200108669Y-92258937D01*
X200134946Y-92194955D01*
X200153389Y-92148580D01*
X200161429Y-92125869D01*
X200161578Y-92124876D01*
X200152465Y-92106961D01*
X200126914Y-92065733D01*
X200087612Y-92005291D01*
X200037243Y-91929731D01*
X199978494Y-91843152D01*
X199944342Y-91793421D01*
X199882110Y-91702236D01*
X199826836Y-91619449D01*
X199781218Y-91549249D01*
X199747952Y-91495824D01*
X199729736Y-91463361D01*
X199727105Y-91456083D01*
X199738414Y-91439145D01*
X199769681Y-91402978D01*
X199816910Y-91351635D01*
X199876108Y-91289167D01*
X199943281Y-91219626D01*
X200014434Y-91147065D01*
X200085574Y-91075535D01*
X200152707Y-91009087D01*
X200211839Y-90951774D01*
X200258975Y-90907647D01*
X200290123Y-90880759D01*
X200300543Y-90874342D01*
X200317509Y-90883365D01*
X200358089Y-90908715D01*
X200418337Y-90947810D01*
X200494307Y-90998071D01*
X200582054Y-91056917D01*
X200648244Y-91101748D01*
X200982668Y-91329154D01*
X201261433Y-91214238D01*
X201540197Y-91099322D01*
X201615746Y-90698576D01*
X201691294Y-90297829D01*
X202525415Y-90297829D01*
X202600964Y-90698576D01*
G36*
X202600964Y-90698576D02*
G01*
X202676513Y-91099322D01*
X203234041Y-91329154D01*
X203568465Y-91101748D01*
X203662122Y-91038431D01*
X203746782Y-90981896D01*
X203818495Y-90934727D01*
X203873311Y-90899502D01*
X203907280Y-90878805D01*
X203916530Y-90874342D01*
X203933195Y-90885820D01*
X203968806Y-90917551D01*
X204019371Y-90965483D01*
X204080900Y-91025562D01*
X204149399Y-91093733D01*
X204220879Y-91165945D01*
X204291347Y-91238142D01*
X204356811Y-91306273D01*
X204413280Y-91366283D01*
X204456763Y-91414119D01*
X204483268Y-91445727D01*
X204489605Y-91456305D01*
X204480486Y-91475806D01*
X204454920Y-91518531D01*
X204415597Y-91580298D01*
X204365203Y-91656931D01*
X204306427Y-91744248D01*
X204272368Y-91794052D01*
X204210289Y-91884993D01*
X204155126Y-91967059D01*
X204109554Y-92036163D01*
X204076250Y-92088222D01*
X204057890Y-92119150D01*
X204055131Y-92125650D01*
X204061385Y-92144121D01*
X204078434Y-92187172D01*
X204103703Y-92248749D01*
X204134622Y-92322799D01*
X204168618Y-92403270D01*
X204203118Y-92484107D01*
X204235551Y-92559258D01*
X204263343Y-92622671D01*
X204283923Y-92668293D01*
X204294719Y-92690069D01*
X204295356Y-92690926D01*
X204312307Y-92695084D01*
X204357451Y-92704361D01*
X204426110Y-92717844D01*
X204513602Y-92734621D01*
X204615250Y-92753781D01*
X204674556Y-92764830D01*
X204783172Y-92785510D01*
X204881277Y-92805189D01*
X204963909Y-92822789D01*
X205026104Y-92837233D01*
X205062899Y-92847446D01*
X205070296Y-92850686D01*
X205077540Y-92872617D01*
X205083385Y-92922147D01*
X205087835Y-92993485D01*
X205090893Y-93080839D01*
X205092565Y-93178417D01*
X205092853Y-93280426D01*
X205091761Y-93381075D01*
X205089294Y-93474572D01*
X205085456Y-93555125D01*
X205080250Y-93616942D01*
X205073681Y-93654230D01*
X205069741Y-93661993D01*
X205046188Y-93671298D01*
X204996282Y-93684600D01*
X204926623Y-93700337D01*
X204843813Y-93716946D01*
X204814905Y-93722319D01*
X204675531Y-93747848D01*
X204565436Y-93768408D01*
X204480982Y-93784815D01*
X204418530Y-93797887D01*
X204374444Y-93808441D01*
X204345085Y-93817294D01*
X204326815Y-93825263D01*
X204315998Y-93833165D01*
X204314485Y-93834727D01*
X204299377Y-93859886D01*
X204276329Y-93908850D01*
X204247644Y-93975621D01*
X204215622Y-94054205D01*
X204182565Y-94138607D01*
X204150773Y-94222830D01*
X204122549Y-94300879D01*
X204100193Y-94366759D01*
X204086007Y-94414473D01*
X204082293Y-94438027D01*
X204082602Y-94438852D01*
X204095189Y-94458104D01*
X204123744Y-94500463D01*
X204165267Y-94561521D01*
X204216756Y-94636868D01*
X204275211Y-94722096D01*
X204291858Y-94746315D01*
X204351215Y-94834123D01*
X204403447Y-94914238D01*
X204445708Y-94982062D01*
X204475153Y-95032993D01*
X204488937Y-95062431D01*
X204489605Y-95066048D01*
X204478024Y-95085057D01*
X204446024Y-95122714D01*
X204397718Y-95174973D01*
X204337220Y-95237786D01*
X204268644Y-95307106D01*
X204196104Y-95378885D01*
X204123712Y-95449077D01*
X204055584Y-95513635D01*
X203995832Y-95568510D01*
X203948571Y-95609656D01*
X203917913Y-95633026D01*
X203909432Y-95636842D01*
X203889691Y-95627855D01*
X203849274Y-95603616D01*
X203794763Y-95568209D01*
X203752823Y-95539711D01*
X203676829Y-95487418D01*
X203586834Y-95425845D01*
X203496564Y-95364370D01*
X203448032Y-95331469D01*
X203283762Y-95220359D01*
X203145869Y-95294916D01*
X203083049Y-95327578D01*
X203029629Y-95352966D01*
X202993484Y-95367446D01*
X202984284Y-95369460D01*
X202973221Y-95354584D01*
X202951394Y-95312547D01*
X202920434Y-95247227D01*
X202881970Y-95162500D01*
X202837632Y-95062245D01*
X202789047Y-94950339D01*
X202737846Y-94830659D01*
X202685659Y-94707084D01*
X202634113Y-94583491D01*
X202584840Y-94463757D01*
X202539467Y-94351759D01*
X202499625Y-94251377D01*
X202466942Y-94166486D01*
X202443049Y-94100965D01*
X202429574Y-94058690D01*
X202427406Y-94044172D01*
X202444583Y-94025653D01*
X202482190Y-93995590D01*
X202532366Y-93960232D01*
X202536578Y-93957434D01*
X202666264Y-93853625D01*
X202770834Y-93732515D01*
X202849381Y-93597976D01*
X202900999Y-93453882D01*
X202924782Y-93304105D01*
X202919823Y-93152517D01*
X202885217Y-93002992D01*
X202820057Y-92859400D01*
X202800886Y-92827984D01*
X202701174Y-92701125D01*
X202583377Y-92599255D01*
X202451571Y-92522904D01*
X202309833Y-92472602D01*
X202162242Y-92448879D01*
X202012873Y-92452265D01*
X201865803Y-92483288D01*
X201725111Y-92542480D01*
X201594873Y-92630369D01*
X201554586Y-92666042D01*
X201452055Y-92777706D01*
X201377341Y-92895257D01*
X201326090Y-93027020D01*
X201297546Y-93157507D01*
X201290500Y-93304216D01*
X201313996Y-93451653D01*
X201365649Y-93594834D01*
X201443071Y-93728777D01*
X201543875Y-93848498D01*
X201665676Y-93949014D01*
X201681684Y-93959609D01*
X201732398Y-93994306D01*
X201770950Y-94024370D01*
X201789381Y-94043565D01*
X201789649Y-94044172D01*
X201785692Y-94064936D01*
X201770007Y-94112062D01*
X201744222Y-94181673D01*
X201709969Y-94269893D01*
X201668877Y-94372844D01*
X201622576Y-94486650D01*
X201572696Y-94607435D01*
X201520867Y-94731321D01*
X201468719Y-94854432D01*
X201417882Y-94972891D01*
X201369987Y-95082823D01*
X201326662Y-95180349D01*
X201289538Y-95261593D01*
X201260244Y-95322679D01*
X201240412Y-95359730D01*
X201232426Y-95369460D01*
X201208021Y-95361883D01*
X201162358Y-95341560D01*
X201103310Y-95312125D01*
X201070840Y-95294916D01*
X200932947Y-95220359D01*
X200768677Y-95331469D01*
X200684821Y-95388390D01*
X200593013Y-95451030D01*
X200506980Y-95510011D01*
X200463887Y-95539711D01*
X200403277Y-95580410D01*
X200351955Y-95612663D01*
X200316615Y-95632384D01*
X200305137Y-95636554D01*
X200288430Y-95625307D01*
X200251454Y-95593911D01*
X200197795Y-95545624D01*
X200131038Y-95483708D01*
X200054766Y-95411421D01*
X200006527Y-95365008D01*
X199922133Y-95282087D01*
X199849197Y-95207920D01*
X199790669Y-95145680D01*
X199749497Y-95098541D01*
X199728628Y-95069673D01*
X199726626Y-95063815D01*
X199735917Y-95041532D01*
X199761591Y-94996477D01*
X199800800Y-94933211D01*
X199850697Y-94856295D01*
X199908433Y-94770292D01*
X199924851Y-94746315D01*
X199984677Y-94659170D01*
X200038350Y-94580710D01*
X200082870Y-94515345D01*
X200115235Y-94467484D01*
X200132445Y-94441535D01*
X200134107Y-94438852D01*
X200131621Y-94418172D01*
X200118423Y-94372704D01*
X200096814Y-94308444D01*
X200069096Y-94231387D01*
X200037570Y-94147529D01*
X200004537Y-94062866D01*
X199972299Y-93983392D01*
X199943157Y-93915104D01*
X199919412Y-93863997D01*
X199903365Y-93836067D01*
X199902225Y-93834727D01*
X199892412Y-93826745D01*
X199875839Y-93818851D01*
X199848868Y-93810229D01*
X199807861Y-93800062D01*
X199749180Y-93787531D01*
X199669187Y-93771821D01*
X199564245Y-93752113D01*
X199430715Y-93727592D01*
X199401804Y-93722319D01*
X199316118Y-93705764D01*
X199241418Y-93689569D01*
X199184306Y-93675296D01*
X199151383Y-93664508D01*
X199146969Y-93661993D01*
X199139694Y-93639696D01*
X199133781Y-93589869D01*
X199129234Y-93518304D01*
X199126055Y-93430793D01*
X199124251Y-93333128D01*
X199123823Y-93231101D01*
X199124777Y-93130503D01*
X199127116Y-93037127D01*
X199130844Y-92956765D01*
X199135966Y-92895209D01*
X199142484Y-92858250D01*
X199146414Y-92850686D01*
X199168292Y-92843056D01*
X199218109Y-92830642D01*
X199290903Y-92814522D01*
X199381711Y-92795773D01*
X199485569Y-92775471D01*
X199542154Y-92764830D01*
X199649514Y-92744760D01*
X199745254Y-92726580D01*
X199824694Y-92711199D01*
X199883154Y-92699531D01*
X199915955Y-92692488D01*
X199921354Y-92690926D01*
X199930478Y-92673322D01*
X199949765Y-92630918D01*
X199976645Y-92569772D01*
X200008546Y-92495943D01*
X200042898Y-92415489D01*
X200077129Y-92334468D01*
X200108669Y-92258937D01*
X200134946Y-92194955D01*
X200153389Y-92148580D01*
X200161429Y-92125869D01*
X200161578Y-92124876D01*
X200152465Y-92106961D01*
X200126914Y-92065733D01*
X200087612Y-92005291D01*
X200037243Y-91929731D01*
X199978494Y-91843152D01*
X199944342Y-91793421D01*
X199882110Y-91702236D01*
X199826836Y-91619449D01*
X199781218Y-91549249D01*
X199747952Y-91495824D01*
X199729736Y-91463361D01*
X199727105Y-91456083D01*
X199738414Y-91439145D01*
X199769681Y-91402978D01*
X199816910Y-91351635D01*
X199876108Y-91289167D01*
X199943281Y-91219626D01*
X200014434Y-91147065D01*
X200085574Y-91075535D01*
X200152707Y-91009087D01*
X200211839Y-90951774D01*
X200258975Y-90907647D01*
X200290123Y-90880759D01*
X200300543Y-90874342D01*
X200317509Y-90883365D01*
X200358089Y-90908715D01*
X200418337Y-90947810D01*
X200494307Y-90998071D01*
X200582054Y-91056917D01*
X200648244Y-91101748D01*
X200982668Y-91329154D01*
X201261433Y-91214238D01*
X201540197Y-91099322D01*
X201615746Y-90698576D01*
X201691294Y-90297829D01*
X202525415Y-90297829D01*
X202600964Y-90698576D01*
G37*
D13*
%TO.C,C31*%
X203730000Y-104780000D02*
X206470000Y-104780000D01*
X203730000Y-112220000D02*
X203730000Y-104780000D01*
X203730000Y-112220000D02*
X206470000Y-112220000D01*
X206470000Y-112220000D02*
X206470000Y-104780000D01*
%TO.C,C28*%
X197687661Y-103813756D02*
X198253346Y-104379442D01*
X198253346Y-103813756D02*
X197687661Y-104379442D01*
X198943269Y-109814051D02*
X196838212Y-111919108D01*
X198971553Y-109842335D02*
X196871446Y-111942442D01*
X198999837Y-109870619D02*
X196905387Y-111965070D01*
X199028122Y-109898904D02*
X196939328Y-111987697D01*
X199056406Y-109927188D02*
X196973976Y-112009617D01*
X199084690Y-109955472D02*
X197008625Y-112031538D01*
X199112974Y-109983757D02*
X197043273Y-112053458D01*
X199141259Y-110012041D02*
X197078628Y-112074671D01*
X199169543Y-110040325D02*
X197113984Y-112095884D01*
X199197827Y-110068609D02*
X197150046Y-112116391D01*
X199226112Y-110096894D02*
X197186108Y-112136897D01*
X199254396Y-110125178D02*
X197222171Y-112157403D01*
X199282680Y-110153462D02*
X197258940Y-112177202D01*
X199310964Y-110181746D02*
X197296417Y-112196294D01*
X199339249Y-110210031D02*
X197333187Y-112216093D01*
X199367533Y-110238315D02*
X197371370Y-112234477D01*
X199395817Y-110266599D02*
X197408847Y-112253569D01*
X199424101Y-110294884D02*
X197447738Y-112271247D01*
X199452386Y-110323168D02*
X197485922Y-112289632D01*
X199480670Y-110351452D02*
X197525520Y-112306602D01*
X199508954Y-110379736D02*
X197564411Y-112324280D01*
X199537239Y-110408021D02*
X197604009Y-112341251D01*
X199565523Y-110436305D02*
X197644314Y-112357514D01*
X199593807Y-110464589D02*
X197684619Y-112373777D01*
X199622091Y-110492873D02*
X197725631Y-112389334D01*
X199650376Y-110521158D02*
X197766643Y-112404890D01*
X199678660Y-110549442D02*
X197807655Y-112420447D01*
X199706944Y-110577726D02*
X197850082Y-112434589D01*
X199735228Y-110606011D02*
X197891801Y-112449438D01*
X199763513Y-110634295D02*
X197934227Y-112463580D01*
X199791797Y-110662579D02*
X197977361Y-112477015D01*
X199820081Y-110690863D02*
X198021202Y-112489743D01*
X199848365Y-110719148D02*
X198065042Y-112502471D01*
X199876650Y-110747432D02*
X198108883Y-112515199D01*
X199904934Y-110775716D02*
X198153431Y-112527220D01*
X199933218Y-110804000D02*
X198198685Y-112538533D01*
X199961503Y-110832285D02*
X198243940Y-112549847D01*
X199989787Y-110860569D02*
X198289902Y-112560454D01*
X200018071Y-110888853D02*
X198336571Y-112570353D01*
X200046355Y-110917137D02*
X198383240Y-112580253D01*
X200074640Y-110945422D02*
X198430616Y-112589445D01*
X200102924Y-110973706D02*
X198477993Y-112598637D01*
X200131208Y-111001990D02*
X198526783Y-112606416D01*
X200159492Y-111030275D02*
X198575573Y-112614194D01*
X200187777Y-111058559D02*
X198625071Y-112621265D01*
X200216061Y-111086843D02*
X198674568Y-112628336D01*
X200244345Y-111115127D02*
X198724773Y-112634700D01*
X200272630Y-111143412D02*
X198776392Y-112639650D01*
X200300914Y-111171696D02*
X198827303Y-112645306D01*
X200329198Y-111199980D02*
X198879629Y-112649549D01*
X200357482Y-111228264D02*
X198932662Y-112653085D01*
X200385767Y-111256549D02*
X198986402Y-112655913D01*
X202053832Y-105683840D02*
X196283840Y-111453832D01*
X202082116Y-105712124D02*
X196312124Y-111482116D01*
X202110400Y-105740409D02*
X196340409Y-111510400D01*
X202137977Y-105769400D02*
X196369400Y-111537977D01*
X202164847Y-105799099D02*
X196399099Y-111564847D01*
X202192424Y-105828090D02*
X196428090Y-111592424D01*
X202219295Y-105857788D02*
X196457788Y-111619295D01*
X202245457Y-105888194D02*
X196488194Y-111645457D01*
X202271620Y-105918600D02*
X196518600Y-111671620D01*
X202297783Y-105949005D02*
X196549005Y-111697783D01*
X202323239Y-105980118D02*
X196580118Y-111723239D01*
X202348695Y-106011231D02*
X196611231Y-111748695D01*
X202373444Y-106043050D02*
X196643050Y-111773444D01*
X202398900Y-106074163D02*
X196674163Y-111798900D01*
X202422941Y-106106690D02*
X196706690Y-111822941D01*
X202431427Y-111077651D02*
X201677651Y-111831427D01*
X202447690Y-106138510D02*
X196738510Y-111847690D01*
X202471025Y-106171744D02*
X196771744Y-111871025D01*
X202495066Y-106204271D02*
X196804271Y-111895066D01*
X202519108Y-106238212D02*
X200414051Y-108343269D01*
X202542442Y-106271446D02*
X200442335Y-108371553D01*
X202565070Y-106305387D02*
X200470619Y-108399837D01*
X202569312Y-110883196D02*
X201483196Y-111969312D01*
X202587697Y-106339328D02*
X200498904Y-108428122D01*
X202609617Y-106373976D02*
X200527188Y-108456406D01*
X202631538Y-106408625D02*
X200555472Y-108484690D01*
X202653458Y-106443273D02*
X200583757Y-108512974D01*
X202668307Y-110727633D02*
X201327633Y-112068307D01*
X202674671Y-106478628D02*
X200612041Y-108541259D01*
X202695884Y-106513984D02*
X200640325Y-108569543D01*
X202716391Y-106550046D02*
X200668609Y-108597827D01*
X202736897Y-106586108D02*
X200696894Y-108626112D01*
X202746089Y-110593283D02*
X201193283Y-112146089D01*
X202757403Y-106622171D02*
X200725178Y-108654396D01*
X202777202Y-106658940D02*
X200753462Y-108682680D01*
X202796294Y-106696417D02*
X200781746Y-108710964D01*
X202810436Y-110472367D02*
X201072367Y-112210436D01*
X202816093Y-106733187D02*
X200810031Y-108739249D01*
X202834477Y-106771370D02*
X200838315Y-108767533D01*
X202853569Y-106808847D02*
X200866599Y-108795817D01*
X202864883Y-110361352D02*
X200961352Y-112264883D01*
X202871247Y-106847738D02*
X200894884Y-108824101D01*
X202889632Y-106885922D02*
X200923168Y-108852386D01*
X202906602Y-106925520D02*
X200951452Y-108880670D01*
X202912259Y-110257407D02*
X200857407Y-112312259D01*
X202924280Y-106964411D02*
X200979736Y-108908954D01*
X202941251Y-107004009D02*
X201008021Y-108937239D01*
X202953978Y-110159119D02*
X200759119Y-112353978D01*
X202957514Y-107044314D02*
X201036305Y-108965523D01*
X202973777Y-107084619D02*
X201064589Y-108993807D01*
X202989334Y-107125631D02*
X201092873Y-109022091D01*
X202991455Y-110065074D02*
X200665074Y-112391455D01*
X203004890Y-107166643D02*
X201121158Y-109050376D01*
X203020447Y-107207655D02*
X201149442Y-109078660D01*
X203023982Y-109975978D02*
X200575978Y-112423982D01*
X203034589Y-107250082D02*
X201177726Y-109106944D01*
X203049438Y-107291801D02*
X201206011Y-109135228D01*
X203053681Y-109889711D02*
X200489711Y-112453681D01*
X203063580Y-107334227D02*
X201234295Y-109163513D01*
X203077015Y-107377361D02*
X201262579Y-109191797D01*
X203079843Y-109806980D02*
X200406980Y-112479843D01*
X203089743Y-107421202D02*
X201290863Y-109220081D01*
X203102471Y-107465042D02*
X201319148Y-109248365D01*
X203103885Y-109726370D02*
X200326370Y-112503885D01*
X203115199Y-107508883D02*
X201347432Y-109276650D01*
X203125098Y-109648588D02*
X200248588Y-112525098D01*
X203127220Y-107553431D02*
X201375716Y-109304934D01*
X203138533Y-107598685D02*
X201404000Y-109333218D01*
X203144897Y-109572220D02*
X200172220Y-112544897D01*
X203149847Y-107643940D02*
X201432285Y-109361503D01*
X203160454Y-107689902D02*
X201460569Y-109389787D01*
X203161868Y-109498681D02*
X200098681Y-112561868D01*
X203170353Y-107736571D02*
X201488853Y-109418071D01*
X203177424Y-109426556D02*
X200026556Y-112577424D01*
X203180253Y-107783240D02*
X201517137Y-109446355D01*
X203189445Y-107830616D02*
X201545422Y-109474640D01*
X203190859Y-109356553D02*
X199956553Y-112590859D01*
X203198637Y-107877993D02*
X201573706Y-109502924D01*
X203203587Y-109287256D02*
X199887256Y-112603587D01*
X203206416Y-107926783D02*
X201601990Y-109531208D01*
X203214194Y-107975573D02*
X201630275Y-109559492D01*
X203214194Y-109220081D02*
X199820081Y-112614194D01*
X203221265Y-108025071D02*
X201658559Y-109587777D01*
X203224093Y-109153613D02*
X199753613Y-112624093D01*
X203228336Y-108074568D02*
X201686843Y-109616061D01*
X203231871Y-109089266D02*
X199689266Y-112631871D01*
X203234700Y-108124773D02*
X201715127Y-109644345D01*
X203239650Y-108176392D02*
X201743412Y-109672630D01*
X203239650Y-109024920D02*
X199624920Y-112639650D01*
X203245306Y-108227303D02*
X201771696Y-109700914D01*
X203245306Y-108962694D02*
X199562694Y-112645306D01*
X203249549Y-108279629D02*
X201799980Y-109729198D01*
X203250256Y-108901176D02*
X199501176Y-112650256D01*
X203253085Y-108332662D02*
X201828264Y-109757482D01*
X203254499Y-108840365D02*
X199440365Y-112654499D01*
X203255913Y-108386402D02*
X201856549Y-109785767D01*
X203257327Y-108780968D02*
X199380968Y-112657327D01*
X203258741Y-108440142D02*
X199040142Y-112658741D01*
X203259449Y-108722278D02*
X199322278Y-112659449D01*
X203260156Y-108495297D02*
X199095297Y-112660156D01*
X203260863Y-108664295D02*
X199264295Y-112660863D01*
X203261570Y-108550451D02*
X199150451Y-112661570D01*
X203261570Y-108607020D02*
X199207020Y-112661570D01*
X203288836Y-108568836D02*
G75*
G02*
X195048836Y-108568836I-4120000J0D01*
G01*
X195048836Y-108568836D02*
G75*
G02*
X203288836Y-108568836I4120000J0D01*
G01*
%TO.C,L4*%
X213869999Y-118300000D02*
G75*
G02*
X203130001Y-118300000I-5369999J0D01*
G01*
X203130001Y-118300000D02*
G75*
G02*
X213869999Y-118300000I5369999J0D01*
G01*
%TO.C,L2*%
X189869999Y-118300000D02*
G75*
G02*
X179130001Y-118300000I-5369999J0D01*
G01*
X179130001Y-118300000D02*
G75*
G02*
X189869999Y-118300000I5369999J0D01*
G01*
D14*
%TO.C,J1*%
X206897500Y-132800000D02*
X206897500Y-142000000D01*
X206897500Y-132800000D02*
X207597500Y-132800000D01*
X206897500Y-142000000D02*
X215097500Y-142000000D01*
X214397500Y-132800000D02*
X215097500Y-132800000D01*
X215097500Y-142000000D02*
X215097500Y-132800000D01*
D11*
X206127500Y-134000000D02*
G75*
G02*
X205927500Y-134000000I-100000J0D01*
G01*
X205927500Y-134000000D02*
G75*
G02*
X206127500Y-134000000I100000J0D01*
G01*
D14*
%TO.C,J2*%
X165947500Y-132800000D02*
X165947500Y-142000000D01*
X165947500Y-132800000D02*
X166647500Y-132800000D01*
X165947500Y-142000000D02*
X177647500Y-142000000D01*
X176947500Y-132800000D02*
X177647500Y-132800000D01*
X177647500Y-142000000D02*
X177647500Y-132800000D01*
D11*
X165177500Y-134000000D02*
G75*
G02*
X164977500Y-134000000I-100000J0D01*
G01*
X164977500Y-134000000D02*
G75*
G02*
X165177500Y-134000000I100000J0D01*
G01*
%TD*%
%LPC*%
D16*
X184500000Y-98500000D02*
X196500000Y-98500000D01*
X196500000Y-104600000D01*
X184500000Y-104600000D01*
X184500000Y-98500000D01*
G36*
X184500000Y-98500000D02*
G01*
X196500000Y-98500000D01*
X196500000Y-104600000D01*
X184500000Y-104600000D01*
X184500000Y-98500000D01*
G37*
D17*
%TO.C,D4*%
X179030000Y-134530000D03*
X181570000Y-134530000D03*
X179030000Y-137070000D03*
X181570000Y-137070000D03*
%TD*%
D18*
%TO.C,L3*%
X196500000Y-115800000D03*
X196500000Y-120800000D03*
%TD*%
%TO.C,L1*%
X172500000Y-115800000D03*
X172500000Y-120800000D03*
%TD*%
D19*
%TO.C,C30*%
X175900000Y-111000000D03*
X175900000Y-106000000D03*
%TD*%
D20*
%TO.C,C27*%
X183068601Y-107331399D03*
D19*
X180593727Y-109806273D03*
%TD*%
%TO.C,C29*%
X172900000Y-106000000D03*
X172900000Y-111000000D03*
%TD*%
%TO.C,C32*%
X208100000Y-106000000D03*
X208100000Y-111000000D03*
%TD*%
D21*
%TO.C,RV1*%
X205000000Y-135375000D03*
X202500000Y-137875000D03*
X200000000Y-135375000D03*
%TD*%
D22*
%TO.C,J4*%
X185247500Y-134000000D03*
D23*
X188747500Y-134000000D03*
X192247499Y-134000000D03*
X195747500Y-134000000D03*
%TD*%
D24*
%TO.C,J3*%
X211225000Y-95675000D03*
D25*
X213765000Y-95675000D03*
X211225000Y-98215000D03*
X213765000Y-98215000D03*
X211225000Y-100755000D03*
X213765000Y-100755000D03*
X211225000Y-103295000D03*
X213765000Y-103295000D03*
X211225000Y-105835000D03*
X213765000Y-105835000D03*
X211225000Y-108375000D03*
X213765000Y-108375000D03*
X211225000Y-110915000D03*
X213765000Y-110915000D03*
%TD*%
D26*
%TO.C,H3*%
X203200000Y-101600000D03*
%TD*%
%TO.C,H1*%
X177800000Y-101600000D03*
%TD*%
D19*
%TO.C,C31*%
X205100000Y-111000000D03*
X205100000Y-106000000D03*
%TD*%
D27*
%TO.C,C28*%
X197931399Y-107331399D03*
D19*
X200406273Y-109806273D03*
%TD*%
D26*
%TO.C,H4*%
X203200000Y-127000000D03*
%TD*%
D18*
%TO.C,L4*%
X208500000Y-115800000D03*
X208500000Y-120800000D03*
%TD*%
D26*
%TO.C,H2*%
X177800000Y-127000000D03*
%TD*%
D18*
%TO.C,L2*%
X184500000Y-115800000D03*
X184500000Y-120800000D03*
%TD*%
D22*
%TO.C,J1*%
X209247500Y-134000000D03*
D23*
X212747500Y-134000000D03*
%TD*%
D22*
%TO.C,J2*%
X168297500Y-134000000D03*
D23*
X171797500Y-134000000D03*
X175297500Y-134000000D03*
%TD*%
%LPD*%
M02*
