%TF.GenerationSoftware,KiCad,Pcbnew,8.0.8*%
%TF.CreationDate,2025-03-09T17:21:17+01:00*%
%TF.ProjectId,02-PWM_switch,30322d50-574d-45f7-9377-697463682e6b,rev?*%
%TF.SameCoordinates,Original*%
%TF.FileFunction,Copper,L1,Top*%
%TF.FilePolarity,Positive*%
%FSLAX46Y46*%
G04 Gerber Fmt 4.6, Leading zero omitted, Abs format (unit mm)*
G04 Created by KiCad (PCBNEW 8.0.8) date 2025-03-09 17:21:17*
%MOMM*%
%LPD*%
G01*
G04 APERTURE LIST*
%TA.AperFunction,ComponentPad*%
%ADD10R,2.550000X2.550000*%
%TD*%
%TA.AperFunction,ComponentPad*%
%ADD11C,2.550000*%
%TD*%
%TA.AperFunction,ComponentPad*%
%ADD12R,2.100000X2.100000*%
%TD*%
%TA.AperFunction,ComponentPad*%
%ADD13C,2.100000*%
%TD*%
%TA.AperFunction,ComponentPad*%
%ADD14C,5.600000*%
%TD*%
%TA.AperFunction,ViaPad*%
%ADD15C,0.600000*%
%TD*%
G04 APERTURE END LIST*
D10*
%TO.P,J3,1,Pin_1*%
%TO.N,Net-(D2-A)*%
X182000000Y-132700000D03*
D11*
%TO.P,J3,2,Pin_2*%
%TO.N,+24V*%
X187000000Y-132700000D03*
%TD*%
D12*
%TO.P,J2,1,Pin_1*%
%TO.N,Net-(J2-Pin_1)*%
X168397500Y-134700000D03*
D13*
%TO.P,J2,2,Pin_2*%
%TO.N,Net-(J2-Pin_2)*%
X171897500Y-134700000D03*
%TO.P,J2,3,Pin_3*%
%TO.N,Net-(J2-Pin_3)*%
X175397500Y-134700000D03*
%TD*%
D10*
%TO.P,J4,1,Pin_1*%
%TO.N,Net-(D3-A)*%
X194400000Y-132700000D03*
D11*
%TO.P,J4,2,Pin_2*%
%TO.N,+24V*%
X199400000Y-132700000D03*
%TD*%
D10*
%TO.P,J1,1,Pin_1*%
%TO.N,GND*%
X206800000Y-132700000D03*
D11*
%TO.P,J1,2,Pin_2*%
%TO.N,+24V*%
X211800000Y-132700000D03*
%TD*%
D14*
%TO.P,H4,1,1*%
%TO.N,GND*%
X203200000Y-127000000D03*
%TD*%
%TO.P,H2,1,1*%
%TO.N,GND*%
X177800000Y-127000000D03*
%TD*%
D15*
%TO.N,GND*%
X201700000Y-120700000D03*
X189100000Y-120700000D03*
%TD*%
%TA.AperFunction,Conductor*%
%TO.N,+24V*%
G36*
X214858691Y-130518907D02*
G01*
X214894655Y-130568407D01*
X214899500Y-130599000D01*
X214899500Y-138600500D01*
X214880593Y-138658691D01*
X214831093Y-138694655D01*
X214800500Y-138699500D01*
X178799000Y-138699500D01*
X178740809Y-138680593D01*
X178704845Y-138631093D01*
X178700000Y-138600500D01*
X178700000Y-131405253D01*
X180524500Y-131405253D01*
X180524500Y-133994746D01*
X180524501Y-133994758D01*
X180536132Y-134053227D01*
X180536134Y-134053233D01*
X180580445Y-134119548D01*
X180580448Y-134119552D01*
X180646769Y-134163867D01*
X180691231Y-134172711D01*
X180705241Y-134175498D01*
X180705246Y-134175498D01*
X180705252Y-134175500D01*
X180705253Y-134175500D01*
X183294747Y-134175500D01*
X183294748Y-134175500D01*
X183353231Y-134163867D01*
X183419552Y-134119552D01*
X183463867Y-134053231D01*
X183475500Y-133994748D01*
X183475500Y-132700000D01*
X185519945Y-132700000D01*
X185540130Y-132943607D01*
X185600138Y-133180573D01*
X185698329Y-133404427D01*
X185698332Y-133404432D01*
X185822567Y-133594587D01*
X186273891Y-133143262D01*
X186339762Y-133241844D01*
X186458156Y-133360238D01*
X186556734Y-133426105D01*
X186107994Y-133874845D01*
X186107995Y-133874846D01*
X186190483Y-133939049D01*
X186190486Y-133939051D01*
X186405465Y-134055393D01*
X186636669Y-134134766D01*
X186877778Y-134175000D01*
X187122222Y-134175000D01*
X187363330Y-134134766D01*
X187594534Y-134055393D01*
X187809513Y-133939051D01*
X187809517Y-133939048D01*
X187892003Y-133874846D01*
X187443263Y-133426106D01*
X187541844Y-133360238D01*
X187660238Y-133241844D01*
X187726107Y-133143263D01*
X188177431Y-133594587D01*
X188301667Y-133404432D01*
X188301670Y-133404427D01*
X188399861Y-133180573D01*
X188459869Y-132943607D01*
X188480054Y-132700000D01*
X188459869Y-132456392D01*
X188399861Y-132219426D01*
X188301670Y-131995572D01*
X188301667Y-131995567D01*
X188177431Y-131805411D01*
X187726106Y-132256735D01*
X187660238Y-132158156D01*
X187541844Y-132039762D01*
X187443262Y-131973892D01*
X187892003Y-131525152D01*
X187809516Y-131460950D01*
X187809513Y-131460948D01*
X187706599Y-131405253D01*
X192924500Y-131405253D01*
X192924500Y-133994746D01*
X192924501Y-133994758D01*
X192936132Y-134053227D01*
X192936134Y-134053233D01*
X192980445Y-134119548D01*
X192980448Y-134119552D01*
X193046769Y-134163867D01*
X193091231Y-134172711D01*
X193105241Y-134175498D01*
X193105246Y-134175498D01*
X193105252Y-134175500D01*
X193105253Y-134175500D01*
X195694747Y-134175500D01*
X195694748Y-134175500D01*
X195753231Y-134163867D01*
X195819552Y-134119552D01*
X195863867Y-134053231D01*
X195875500Y-133994748D01*
X195875500Y-132700000D01*
X197919945Y-132700000D01*
X197940130Y-132943607D01*
X198000138Y-133180573D01*
X198098329Y-133404427D01*
X198098332Y-133404432D01*
X198222567Y-133594587D01*
X198673891Y-133143262D01*
X198739762Y-133241844D01*
X198858156Y-133360238D01*
X198956734Y-133426105D01*
X198507994Y-133874845D01*
X198507995Y-133874846D01*
X198590483Y-133939049D01*
X198590486Y-133939051D01*
X198805465Y-134055393D01*
X199036669Y-134134766D01*
X199277778Y-134175000D01*
X199522222Y-134175000D01*
X199763330Y-134134766D01*
X199994534Y-134055393D01*
X200209513Y-133939051D01*
X200209517Y-133939048D01*
X200292003Y-133874846D01*
X199843263Y-133426106D01*
X199941844Y-133360238D01*
X200060238Y-133241844D01*
X200126107Y-133143263D01*
X200577431Y-133594587D01*
X200701667Y-133404432D01*
X200701670Y-133404427D01*
X200799861Y-133180573D01*
X200859869Y-132943607D01*
X200880054Y-132700000D01*
X200859869Y-132456392D01*
X200799861Y-132219426D01*
X200701670Y-131995572D01*
X200701667Y-131995567D01*
X200577431Y-131805411D01*
X200126106Y-132256735D01*
X200060238Y-132158156D01*
X199941844Y-132039762D01*
X199843262Y-131973892D01*
X200292003Y-131525152D01*
X200209516Y-131460950D01*
X200209513Y-131460948D01*
X200106599Y-131405253D01*
X205324500Y-131405253D01*
X205324500Y-133994746D01*
X205324501Y-133994758D01*
X205336132Y-134053227D01*
X205336134Y-134053233D01*
X205380445Y-134119548D01*
X205380448Y-134119552D01*
X205446769Y-134163867D01*
X205491231Y-134172711D01*
X205505241Y-134175498D01*
X205505246Y-134175498D01*
X205505252Y-134175500D01*
X205505253Y-134175500D01*
X208094747Y-134175500D01*
X208094748Y-134175500D01*
X208153231Y-134163867D01*
X208219552Y-134119552D01*
X208263867Y-134053231D01*
X208275500Y-133994748D01*
X208275500Y-132700000D01*
X210319945Y-132700000D01*
X210340130Y-132943607D01*
X210400138Y-133180573D01*
X210498329Y-133404427D01*
X210498332Y-133404432D01*
X210622567Y-133594587D01*
X211073891Y-133143262D01*
X211139762Y-133241844D01*
X211258156Y-133360238D01*
X211356734Y-133426105D01*
X210907994Y-133874845D01*
X210907995Y-133874846D01*
X210990483Y-133939049D01*
X210990486Y-133939051D01*
X211205465Y-134055393D01*
X211436669Y-134134766D01*
X211677778Y-134175000D01*
X211922222Y-134175000D01*
X212163330Y-134134766D01*
X212394534Y-134055393D01*
X212609513Y-133939051D01*
X212609517Y-133939048D01*
X212692003Y-133874846D01*
X212243263Y-133426106D01*
X212341844Y-133360238D01*
X212460238Y-133241844D01*
X212526107Y-133143263D01*
X212977431Y-133594587D01*
X213101667Y-133404432D01*
X213101670Y-133404427D01*
X213199861Y-133180573D01*
X213259869Y-132943607D01*
X213280054Y-132700000D01*
X213259869Y-132456392D01*
X213199861Y-132219426D01*
X213101670Y-131995572D01*
X213101667Y-131995567D01*
X212977431Y-131805411D01*
X212526106Y-132256735D01*
X212460238Y-132158156D01*
X212341844Y-132039762D01*
X212243262Y-131973892D01*
X212692003Y-131525152D01*
X212609516Y-131460950D01*
X212609513Y-131460948D01*
X212394534Y-131344606D01*
X212163330Y-131265233D01*
X211922222Y-131225000D01*
X211677778Y-131225000D01*
X211436669Y-131265233D01*
X211205465Y-131344606D01*
X210990489Y-131460947D01*
X210907995Y-131525152D01*
X211356736Y-131973892D01*
X211258156Y-132039762D01*
X211139762Y-132158156D01*
X211073892Y-132256736D01*
X210622568Y-131805412D01*
X210498329Y-131995574D01*
X210400138Y-132219426D01*
X210340130Y-132456392D01*
X210319945Y-132700000D01*
X208275500Y-132700000D01*
X208275500Y-131405252D01*
X208263867Y-131346769D01*
X208219552Y-131280448D01*
X208196782Y-131265233D01*
X208153233Y-131236134D01*
X208153231Y-131236133D01*
X208153228Y-131236132D01*
X208153227Y-131236132D01*
X208094758Y-131224501D01*
X208094748Y-131224500D01*
X205505252Y-131224500D01*
X205505251Y-131224500D01*
X205505241Y-131224501D01*
X205446772Y-131236132D01*
X205446766Y-131236134D01*
X205380451Y-131280445D01*
X205380445Y-131280451D01*
X205336134Y-131346766D01*
X205336132Y-131346772D01*
X205324501Y-131405241D01*
X205324500Y-131405253D01*
X200106599Y-131405253D01*
X199994534Y-131344606D01*
X199763330Y-131265233D01*
X199522222Y-131225000D01*
X199277778Y-131225000D01*
X199036669Y-131265233D01*
X198805465Y-131344606D01*
X198590489Y-131460947D01*
X198507995Y-131525152D01*
X198956736Y-131973892D01*
X198858156Y-132039762D01*
X198739762Y-132158156D01*
X198673892Y-132256736D01*
X198222568Y-131805412D01*
X198098329Y-131995574D01*
X198000138Y-132219426D01*
X197940130Y-132456392D01*
X197919945Y-132700000D01*
X195875500Y-132700000D01*
X195875500Y-131405252D01*
X195863867Y-131346769D01*
X195819552Y-131280448D01*
X195796782Y-131265233D01*
X195753233Y-131236134D01*
X195753231Y-131236133D01*
X195753228Y-131236132D01*
X195753227Y-131236132D01*
X195694758Y-131224501D01*
X195694748Y-131224500D01*
X193105252Y-131224500D01*
X193105251Y-131224500D01*
X193105241Y-131224501D01*
X193046772Y-131236132D01*
X193046766Y-131236134D01*
X192980451Y-131280445D01*
X192980445Y-131280451D01*
X192936134Y-131346766D01*
X192936132Y-131346772D01*
X192924501Y-131405241D01*
X192924500Y-131405253D01*
X187706599Y-131405253D01*
X187594534Y-131344606D01*
X187363330Y-131265233D01*
X187122222Y-131225000D01*
X186877778Y-131225000D01*
X186636669Y-131265233D01*
X186405465Y-131344606D01*
X186190489Y-131460947D01*
X186107995Y-131525152D01*
X186556736Y-131973892D01*
X186458156Y-132039762D01*
X186339762Y-132158156D01*
X186273892Y-132256736D01*
X185822568Y-131805412D01*
X185698329Y-131995574D01*
X185600138Y-132219426D01*
X185540130Y-132456392D01*
X185519945Y-132700000D01*
X183475500Y-132700000D01*
X183475500Y-131405252D01*
X183463867Y-131346769D01*
X183419552Y-131280448D01*
X183396782Y-131265233D01*
X183353233Y-131236134D01*
X183353231Y-131236133D01*
X183353228Y-131236132D01*
X183353227Y-131236132D01*
X183294758Y-131224501D01*
X183294748Y-131224500D01*
X180705252Y-131224500D01*
X180705251Y-131224500D01*
X180705241Y-131224501D01*
X180646772Y-131236132D01*
X180646766Y-131236134D01*
X180580451Y-131280445D01*
X180580445Y-131280451D01*
X180536134Y-131346766D01*
X180536132Y-131346772D01*
X180524501Y-131405241D01*
X180524500Y-131405253D01*
X178700000Y-131405253D01*
X178700000Y-130599000D01*
X178718907Y-130540809D01*
X178768407Y-130504845D01*
X178799000Y-130500000D01*
X214800500Y-130500000D01*
X214858691Y-130518907D01*
G37*
%TD.AperFunction*%
%TD*%
%TA.AperFunction,Conductor*%
%TO.N,GND*%
G36*
X214858691Y-115319407D02*
G01*
X214894655Y-115368907D01*
X214899500Y-115399500D01*
X214899500Y-130195500D01*
X214880593Y-130253691D01*
X214831093Y-130289655D01*
X214800500Y-130294500D01*
X178799000Y-130294500D01*
X178766856Y-130297030D01*
X178736206Y-130301883D01*
X178731718Y-130302646D01*
X178731713Y-130302647D01*
X178647617Y-130338591D01*
X178598118Y-130374555D01*
X178570372Y-130398797D01*
X178523464Y-130477307D01*
X178523462Y-130477310D01*
X178504556Y-130535499D01*
X178494500Y-130598996D01*
X178494500Y-138600500D01*
X178475593Y-138658691D01*
X178426093Y-138694655D01*
X178395500Y-138699500D01*
X166199500Y-138699500D01*
X166141309Y-138680593D01*
X166105345Y-138631093D01*
X166100500Y-138600500D01*
X166100500Y-136869418D01*
X166119407Y-136811227D01*
X166168907Y-136775263D01*
X166230093Y-136775263D01*
X166275044Y-136805434D01*
X166282850Y-136814650D01*
X166331990Y-136856270D01*
X166472603Y-136975364D01*
X166472608Y-136975367D01*
X166686221Y-137102653D01*
X166686224Y-137102654D01*
X166686227Y-137102656D01*
X166917886Y-137193050D01*
X167161263Y-137244081D01*
X167264658Y-137250500D01*
X167264669Y-137250500D01*
X169530331Y-137250500D01*
X169530342Y-137250500D01*
X169633737Y-137244081D01*
X169877114Y-137193050D01*
X170108773Y-137102656D01*
X170322394Y-136975366D01*
X170435640Y-136879450D01*
X170492263Y-136856270D01*
X170547316Y-136868241D01*
X170711473Y-136958486D01*
X170809403Y-137012324D01*
X170809404Y-137012324D01*
X170809409Y-137012327D01*
X170961072Y-137072374D01*
X171107794Y-137130466D01*
X171418639Y-137210277D01*
X171737036Y-137250500D01*
X172057964Y-137250500D01*
X172376361Y-137210277D01*
X172687206Y-137130466D01*
X172934188Y-137032678D01*
X172985595Y-137012325D01*
X172985597Y-137012324D01*
X173266828Y-136857716D01*
X173526464Y-136669080D01*
X173579730Y-136619059D01*
X173635092Y-136593009D01*
X173695194Y-136604474D01*
X173715269Y-136619059D01*
X173768536Y-136669080D01*
X174028172Y-136857716D01*
X174028179Y-136857719D01*
X174028182Y-136857722D01*
X174309401Y-137012323D01*
X174309404Y-137012325D01*
X174458598Y-137071395D01*
X174607794Y-137130466D01*
X174918639Y-137210277D01*
X175237036Y-137250500D01*
X175557964Y-137250500D01*
X175876361Y-137210277D01*
X176187206Y-137130466D01*
X176434188Y-137032678D01*
X176485595Y-137012325D01*
X176485597Y-137012324D01*
X176766828Y-136857716D01*
X177026464Y-136669080D01*
X177260411Y-136449390D01*
X177464978Y-136202110D01*
X177636939Y-135931142D01*
X177773584Y-135640758D01*
X177872756Y-135335538D01*
X177932892Y-135020294D01*
X177953043Y-134700000D01*
X177932892Y-134379706D01*
X177872756Y-134064462D01*
X177773584Y-133759242D01*
X177636939Y-133468858D01*
X177636935Y-133468853D01*
X177636931Y-133468844D01*
X177464978Y-133197890D01*
X177260416Y-132950616D01*
X177260406Y-132950605D01*
X177026466Y-132730922D01*
X177026464Y-132730920D01*
X176766828Y-132542284D01*
X176766822Y-132542280D01*
X176766817Y-132542277D01*
X176485598Y-132387676D01*
X176485595Y-132387674D01*
X176187206Y-132269534D01*
X175876361Y-132189723D01*
X175876354Y-132189722D01*
X175876358Y-132189722D01*
X175557964Y-132149500D01*
X175237036Y-132149500D01*
X174918643Y-132189722D01*
X174607793Y-132269534D01*
X174309404Y-132387674D01*
X174309401Y-132387676D01*
X174028182Y-132542277D01*
X174028173Y-132542283D01*
X174028172Y-132542284D01*
X173968897Y-132585350D01*
X173768533Y-132730922D01*
X173715270Y-132780939D01*
X173659907Y-132806990D01*
X173599806Y-132795525D01*
X173579730Y-132780939D01*
X173526466Y-132730922D01*
X173526464Y-132730920D01*
X173266828Y-132542284D01*
X173266822Y-132542280D01*
X173266817Y-132542277D01*
X172985598Y-132387676D01*
X172985595Y-132387674D01*
X172687206Y-132269534D01*
X172376361Y-132189723D01*
X172376354Y-132189722D01*
X172376358Y-132189722D01*
X172057964Y-132149500D01*
X171737036Y-132149500D01*
X171418643Y-132189722D01*
X171107793Y-132269534D01*
X170809409Y-132387672D01*
X170547317Y-132531758D01*
X170487216Y-132543222D01*
X170435640Y-132520548D01*
X170322396Y-132424635D01*
X170322391Y-132424632D01*
X170108778Y-132297346D01*
X170108764Y-132297340D01*
X169877116Y-132206950D01*
X169633736Y-132155918D01*
X169530351Y-132149500D01*
X169530342Y-132149500D01*
X167264658Y-132149500D01*
X167264648Y-132149500D01*
X167161263Y-132155918D01*
X166917883Y-132206950D01*
X166686235Y-132297340D01*
X166686221Y-132297346D01*
X166472608Y-132424632D01*
X166472603Y-132424635D01*
X166282855Y-132585345D01*
X166282843Y-132585357D01*
X166275044Y-132594566D01*
X166223007Y-132626750D01*
X166161991Y-132622200D01*
X166115302Y-132582655D01*
X166100500Y-132530581D01*
X166100500Y-127000000D01*
X174794916Y-127000000D01*
X174815235Y-127348871D01*
X174875917Y-127693015D01*
X174976144Y-128027798D01*
X174976145Y-128027800D01*
X175114556Y-128348672D01*
X175114559Y-128348679D01*
X175289288Y-128651319D01*
X175289290Y-128651322D01*
X175497969Y-128931626D01*
X175497973Y-128931632D01*
X175540474Y-128976680D01*
X176535502Y-127981651D01*
X176579588Y-128042330D01*
X176757670Y-128220412D01*
X176818346Y-128264495D01*
X175824370Y-129258472D01*
X176005493Y-129410451D01*
X176297452Y-129602476D01*
X176609744Y-129759315D01*
X176609748Y-129759316D01*
X176938136Y-129878840D01*
X177278162Y-129959428D01*
X177625273Y-130000000D01*
X177974727Y-130000000D01*
X178321837Y-129959428D01*
X178661863Y-129878840D01*
X178990251Y-129759316D01*
X178990255Y-129759315D01*
X179302547Y-129602476D01*
X179594509Y-129410449D01*
X179594514Y-129410445D01*
X179775628Y-129258472D01*
X178781652Y-128264496D01*
X178842330Y-128220412D01*
X179020412Y-128042330D01*
X179064496Y-127981652D01*
X180059524Y-128976680D01*
X180102025Y-128931633D01*
X180102030Y-128931627D01*
X180310709Y-128651322D01*
X180310711Y-128651319D01*
X180485440Y-128348679D01*
X180485443Y-128348672D01*
X180623854Y-128027800D01*
X180623855Y-128027798D01*
X180724082Y-127693015D01*
X180784764Y-127348871D01*
X180805083Y-127000000D01*
X200194916Y-127000000D01*
X200215235Y-127348871D01*
X200275917Y-127693015D01*
X200376144Y-128027798D01*
X200376145Y-128027800D01*
X200514556Y-128348672D01*
X200514559Y-128348679D01*
X200689288Y-128651319D01*
X200689290Y-128651322D01*
X200897969Y-128931626D01*
X200897973Y-128931632D01*
X200940474Y-128976680D01*
X201935502Y-127981651D01*
X201979588Y-128042330D01*
X202157670Y-128220412D01*
X202218346Y-128264495D01*
X201224370Y-129258472D01*
X201405493Y-129410451D01*
X201697452Y-129602476D01*
X202009744Y-129759315D01*
X202009748Y-129759316D01*
X202338136Y-129878840D01*
X202678162Y-129959428D01*
X203025273Y-130000000D01*
X203374727Y-130000000D01*
X203721837Y-129959428D01*
X204061863Y-129878840D01*
X204390251Y-129759316D01*
X204390255Y-129759315D01*
X204702547Y-129602476D01*
X204994509Y-129410449D01*
X204994514Y-129410445D01*
X205175628Y-129258472D01*
X204181652Y-128264496D01*
X204242330Y-128220412D01*
X204420412Y-128042330D01*
X204464496Y-127981652D01*
X205459524Y-128976680D01*
X205502025Y-128931633D01*
X205502030Y-128931627D01*
X205710709Y-128651322D01*
X205710711Y-128651319D01*
X205885440Y-128348679D01*
X205885443Y-128348672D01*
X206023854Y-128027800D01*
X206023855Y-128027798D01*
X206124082Y-127693015D01*
X206184764Y-127348871D01*
X206205083Y-127000000D01*
X206184764Y-126651128D01*
X206124082Y-126306984D01*
X206023855Y-125972201D01*
X206023854Y-125972199D01*
X205885443Y-125651327D01*
X205885440Y-125651320D01*
X205710711Y-125348680D01*
X205710709Y-125348677D01*
X205502030Y-125068373D01*
X205502026Y-125068367D01*
X205459524Y-125023318D01*
X204464495Y-126018346D01*
X204420412Y-125957670D01*
X204242330Y-125779588D01*
X204181651Y-125735502D01*
X205175628Y-124741526D01*
X204994506Y-124589548D01*
X204702547Y-124397523D01*
X204390255Y-124240684D01*
X204390251Y-124240683D01*
X204061863Y-124121159D01*
X203721837Y-124040571D01*
X203374727Y-124000000D01*
X203025273Y-124000000D01*
X202678162Y-124040571D01*
X202338136Y-124121159D01*
X202009748Y-124240683D01*
X202009744Y-124240684D01*
X201697452Y-124397523D01*
X201405493Y-124589548D01*
X201224370Y-124741526D01*
X202218347Y-125735503D01*
X202157670Y-125779588D01*
X201979588Y-125957670D01*
X201935503Y-126018347D01*
X200940474Y-125023318D01*
X200897974Y-125068366D01*
X200897968Y-125068374D01*
X200689290Y-125348677D01*
X200689288Y-125348680D01*
X200514559Y-125651320D01*
X200514556Y-125651327D01*
X200376145Y-125972199D01*
X200376144Y-125972201D01*
X200275917Y-126306984D01*
X200215235Y-126651128D01*
X200194916Y-127000000D01*
X180805083Y-127000000D01*
X180784764Y-126651128D01*
X180724082Y-126306984D01*
X180623855Y-125972201D01*
X180623854Y-125972199D01*
X180485443Y-125651327D01*
X180485440Y-125651320D01*
X180310711Y-125348680D01*
X180310709Y-125348677D01*
X180102030Y-125068373D01*
X180102026Y-125068367D01*
X180059524Y-125023318D01*
X179064495Y-126018346D01*
X179020412Y-125957670D01*
X178842330Y-125779588D01*
X178781651Y-125735502D01*
X179775628Y-124741526D01*
X179594506Y-124589548D01*
X179302547Y-124397523D01*
X178990255Y-124240684D01*
X178990251Y-124240683D01*
X178661863Y-124121159D01*
X178321837Y-124040571D01*
X177974727Y-124000000D01*
X177625273Y-124000000D01*
X177278162Y-124040571D01*
X176938136Y-124121159D01*
X176609748Y-124240683D01*
X176609744Y-124240684D01*
X176297452Y-124397523D01*
X176005493Y-124589548D01*
X175824370Y-124741526D01*
X176818347Y-125735503D01*
X176757670Y-125779588D01*
X176579588Y-125957670D01*
X176535503Y-126018347D01*
X175540474Y-125023318D01*
X175497974Y-125068366D01*
X175497968Y-125068374D01*
X175289290Y-125348677D01*
X175289288Y-125348680D01*
X175114559Y-125651320D01*
X175114556Y-125651327D01*
X174976145Y-125972199D01*
X174976144Y-125972201D01*
X174875917Y-126306984D01*
X174815235Y-126651128D01*
X174794916Y-127000000D01*
X166100500Y-127000000D01*
X166100500Y-115399500D01*
X166119407Y-115341309D01*
X166168907Y-115305345D01*
X166199500Y-115300500D01*
X214800500Y-115300500D01*
X214858691Y-115319407D01*
G37*
%TD.AperFunction*%
%TD*%
M02*
