%TF.GenerationSoftware,KiCad,Pcbnew,8.0.8*%
%TF.CreationDate,2025-03-09T17:21:17+01:00*%
%TF.ProjectId,02-PWM_switch,30322d50-574d-45f7-9377-697463682e6b,rev?*%
%TF.SameCoordinates,Original*%
%TF.FileFunction,Legend,Top*%
%TF.FilePolarity,Positive*%
%FSLAX46Y46*%
G04 Gerber Fmt 4.6, Leading zero omitted, Abs format (unit mm)*
G04 Created by KiCad (PCBNEW 8.0.8) date 2025-03-09 17:21:17*
%MOMM*%
%LPD*%
G01*
G04 APERTURE LIST*
G04 Aperture macros list*
%AMRoundRect*
0 Rectangle with rounded corners*
0 $1 Rounding radius*
0 $2 $3 $4 $5 $6 $7 $8 $9 X,Y pos of 4 corners*
0 Add a 4 corners polygon primitive as box body*
4,1,4,$2,$3,$4,$5,$6,$7,$8,$9,$2,$3,0*
0 Add four circle primitives for the rounded corners*
1,1,$1+$1,$2,$3*
1,1,$1+$1,$4,$5*
1,1,$1+$1,$6,$7*
1,1,$1+$1,$8,$9*
0 Add four rect primitives between the rounded corners*
20,1,$1+$1,$2,$3,$4,$5,0*
20,1,$1+$1,$4,$5,$6,$7,0*
20,1,$1+$1,$6,$7,$8,$9,0*
20,1,$1+$1,$8,$9,$2,$3,0*%
G04 Aperture macros list end*
%ADD10C,0.200000*%
%ADD11C,0.300000*%
%ADD12C,0.127000*%
%ADD13C,0.010000*%
%ADD14RoundRect,0.102000X-1.275000X-1.275000X1.275000X-1.275000X1.275000X1.275000X-1.275000X1.275000X0*%
%ADD15C,2.754000*%
%ADD16RoundRect,0.102000X-1.050000X-1.050000X1.050000X-1.050000X1.050000X1.050000X-1.050000X1.050000X0*%
%ADD17C,2.304000*%
%ADD18C,5.600000*%
G04 APERTURE END LIST*
D10*
X169852381Y-129547247D02*
X169852381Y-128547247D01*
X170328571Y-128880580D02*
X170328571Y-129547247D01*
X170328571Y-128975818D02*
X170376190Y-128928199D01*
X170376190Y-128928199D02*
X170471428Y-128880580D01*
X170471428Y-128880580D02*
X170614285Y-128880580D01*
X170614285Y-128880580D02*
X170709523Y-128928199D01*
X170709523Y-128928199D02*
X170757142Y-129023437D01*
X170757142Y-129023437D02*
X170757142Y-129547247D01*
X171233333Y-128880580D02*
X171233333Y-129880580D01*
X171233333Y-128928199D02*
X171328571Y-128880580D01*
X171328571Y-128880580D02*
X171519047Y-128880580D01*
X171519047Y-128880580D02*
X171614285Y-128928199D01*
X171614285Y-128928199D02*
X171661904Y-128975818D01*
X171661904Y-128975818D02*
X171709523Y-129071056D01*
X171709523Y-129071056D02*
X171709523Y-129356770D01*
X171709523Y-129356770D02*
X171661904Y-129452008D01*
X171661904Y-129452008D02*
X171614285Y-129499628D01*
X171614285Y-129499628D02*
X171519047Y-129547247D01*
X171519047Y-129547247D02*
X171328571Y-129547247D01*
X171328571Y-129547247D02*
X171233333Y-129499628D01*
X172566666Y-128880580D02*
X172566666Y-129547247D01*
X172138095Y-128880580D02*
X172138095Y-129404389D01*
X172138095Y-129404389D02*
X172185714Y-129499628D01*
X172185714Y-129499628D02*
X172280952Y-129547247D01*
X172280952Y-129547247D02*
X172423809Y-129547247D01*
X172423809Y-129547247D02*
X172519047Y-129499628D01*
X172519047Y-129499628D02*
X172566666Y-129452008D01*
X172900000Y-128880580D02*
X173280952Y-128880580D01*
X173042857Y-128547247D02*
X173042857Y-129404389D01*
X173042857Y-129404389D02*
X173090476Y-129499628D01*
X173090476Y-129499628D02*
X173185714Y-129547247D01*
X173185714Y-129547247D02*
X173280952Y-129547247D01*
X173566667Y-129499628D02*
X173661905Y-129547247D01*
X173661905Y-129547247D02*
X173852381Y-129547247D01*
X173852381Y-129547247D02*
X173947619Y-129499628D01*
X173947619Y-129499628D02*
X173995238Y-129404389D01*
X173995238Y-129404389D02*
X173995238Y-129356770D01*
X173995238Y-129356770D02*
X173947619Y-129261532D01*
X173947619Y-129261532D02*
X173852381Y-129213913D01*
X173852381Y-129213913D02*
X173709524Y-129213913D01*
X173709524Y-129213913D02*
X173614286Y-129166294D01*
X173614286Y-129166294D02*
X173566667Y-129071056D01*
X173566667Y-129071056D02*
X173566667Y-129023437D01*
X173566667Y-129023437D02*
X173614286Y-128928199D01*
X173614286Y-128928199D02*
X173709524Y-128880580D01*
X173709524Y-128880580D02*
X173852381Y-128880580D01*
X173852381Y-128880580D02*
X173947619Y-128928199D01*
X168328571Y-130157191D02*
X168423809Y-130157191D01*
X168423809Y-130157191D02*
X168519047Y-130204810D01*
X168519047Y-130204810D02*
X168566666Y-130252429D01*
X168566666Y-130252429D02*
X168614285Y-130347667D01*
X168614285Y-130347667D02*
X168661904Y-130538143D01*
X168661904Y-130538143D02*
X168661904Y-130776238D01*
X168661904Y-130776238D02*
X168614285Y-130966714D01*
X168614285Y-130966714D02*
X168566666Y-131061952D01*
X168566666Y-131061952D02*
X168519047Y-131109572D01*
X168519047Y-131109572D02*
X168423809Y-131157191D01*
X168423809Y-131157191D02*
X168328571Y-131157191D01*
X168328571Y-131157191D02*
X168233333Y-131109572D01*
X168233333Y-131109572D02*
X168185714Y-131061952D01*
X168185714Y-131061952D02*
X168138095Y-130966714D01*
X168138095Y-130966714D02*
X168090476Y-130776238D01*
X168090476Y-130776238D02*
X168090476Y-130538143D01*
X168090476Y-130538143D02*
X168138095Y-130347667D01*
X168138095Y-130347667D02*
X168185714Y-130252429D01*
X168185714Y-130252429D02*
X168233333Y-130204810D01*
X168233333Y-130204810D02*
X168328571Y-130157191D01*
X171138095Y-131157191D02*
X170566667Y-131157191D01*
X170852381Y-131157191D02*
X170852381Y-130157191D01*
X170852381Y-130157191D02*
X170757143Y-130300048D01*
X170757143Y-130300048D02*
X170661905Y-130395286D01*
X170661905Y-130395286D02*
X170566667Y-130442905D01*
X173614286Y-130204810D02*
X173519048Y-130157191D01*
X173519048Y-130157191D02*
X173376191Y-130157191D01*
X173376191Y-130157191D02*
X173233334Y-130204810D01*
X173233334Y-130204810D02*
X173138096Y-130300048D01*
X173138096Y-130300048D02*
X173090477Y-130395286D01*
X173090477Y-130395286D02*
X173042858Y-130585762D01*
X173042858Y-130585762D02*
X173042858Y-130728619D01*
X173042858Y-130728619D02*
X173090477Y-130919095D01*
X173090477Y-130919095D02*
X173138096Y-131014333D01*
X173138096Y-131014333D02*
X173233334Y-131109572D01*
X173233334Y-131109572D02*
X173376191Y-131157191D01*
X173376191Y-131157191D02*
X173471429Y-131157191D01*
X173471429Y-131157191D02*
X173614286Y-131109572D01*
X173614286Y-131109572D02*
X173661905Y-131061952D01*
X173661905Y-131061952D02*
X173661905Y-130728619D01*
X173661905Y-130728619D02*
X173471429Y-130728619D01*
X174090477Y-131157191D02*
X174090477Y-130157191D01*
X174090477Y-130157191D02*
X174661905Y-131157191D01*
X174661905Y-131157191D02*
X174661905Y-130157191D01*
X175138096Y-131157191D02*
X175138096Y-130157191D01*
X175138096Y-130157191D02*
X175376191Y-130157191D01*
X175376191Y-130157191D02*
X175519048Y-130204810D01*
X175519048Y-130204810D02*
X175614286Y-130300048D01*
X175614286Y-130300048D02*
X175661905Y-130395286D01*
X175661905Y-130395286D02*
X175709524Y-130585762D01*
X175709524Y-130585762D02*
X175709524Y-130728619D01*
X175709524Y-130728619D02*
X175661905Y-130919095D01*
X175661905Y-130919095D02*
X175614286Y-131014333D01*
X175614286Y-131014333D02*
X175519048Y-131109572D01*
X175519048Y-131109572D02*
X175376191Y-131157191D01*
X175376191Y-131157191D02*
X175138096Y-131157191D01*
X195209523Y-126547247D02*
X195399999Y-126547247D01*
X195399999Y-126547247D02*
X195495237Y-126594866D01*
X195495237Y-126594866D02*
X195590475Y-126690104D01*
X195590475Y-126690104D02*
X195638094Y-126880580D01*
X195638094Y-126880580D02*
X195638094Y-127213913D01*
X195638094Y-127213913D02*
X195590475Y-127404389D01*
X195590475Y-127404389D02*
X195495237Y-127499628D01*
X195495237Y-127499628D02*
X195399999Y-127547247D01*
X195399999Y-127547247D02*
X195209523Y-127547247D01*
X195209523Y-127547247D02*
X195114285Y-127499628D01*
X195114285Y-127499628D02*
X195019047Y-127404389D01*
X195019047Y-127404389D02*
X194971428Y-127213913D01*
X194971428Y-127213913D02*
X194971428Y-126880580D01*
X194971428Y-126880580D02*
X195019047Y-126690104D01*
X195019047Y-126690104D02*
X195114285Y-126594866D01*
X195114285Y-126594866D02*
X195209523Y-126547247D01*
X196495237Y-126880580D02*
X196495237Y-127547247D01*
X196066666Y-126880580D02*
X196066666Y-127404389D01*
X196066666Y-127404389D02*
X196114285Y-127499628D01*
X196114285Y-127499628D02*
X196209523Y-127547247D01*
X196209523Y-127547247D02*
X196352380Y-127547247D01*
X196352380Y-127547247D02*
X196447618Y-127499628D01*
X196447618Y-127499628D02*
X196495237Y-127452008D01*
X196828571Y-126880580D02*
X197209523Y-126880580D01*
X196971428Y-126547247D02*
X196971428Y-127404389D01*
X196971428Y-127404389D02*
X197019047Y-127499628D01*
X197019047Y-127499628D02*
X197114285Y-127547247D01*
X197114285Y-127547247D02*
X197209523Y-127547247D01*
X198828571Y-127547247D02*
X198257143Y-127547247D01*
X198542857Y-127547247D02*
X198542857Y-126547247D01*
X198542857Y-126547247D02*
X198447619Y-126690104D01*
X198447619Y-126690104D02*
X198352381Y-126785342D01*
X198352381Y-126785342D02*
X198257143Y-126832961D01*
X194757143Y-128776238D02*
X195519048Y-128776238D01*
X198280953Y-128776238D02*
X199042858Y-128776238D01*
X198661905Y-129157191D02*
X198661905Y-128395286D01*
D11*
X181533332Y-118159144D02*
X181533332Y-116759144D01*
X181533332Y-116759144D02*
X182066665Y-116759144D01*
X182066665Y-116759144D02*
X182199999Y-116825811D01*
X182199999Y-116825811D02*
X182266665Y-116892478D01*
X182266665Y-116892478D02*
X182333332Y-117025811D01*
X182333332Y-117025811D02*
X182333332Y-117225811D01*
X182333332Y-117225811D02*
X182266665Y-117359144D01*
X182266665Y-117359144D02*
X182199999Y-117425811D01*
X182199999Y-117425811D02*
X182066665Y-117492478D01*
X182066665Y-117492478D02*
X181533332Y-117492478D01*
X183466665Y-118092478D02*
X183333332Y-118159144D01*
X183333332Y-118159144D02*
X183066665Y-118159144D01*
X183066665Y-118159144D02*
X182933332Y-118092478D01*
X182933332Y-118092478D02*
X182866665Y-117959144D01*
X182866665Y-117959144D02*
X182866665Y-117425811D01*
X182866665Y-117425811D02*
X182933332Y-117292478D01*
X182933332Y-117292478D02*
X183066665Y-117225811D01*
X183066665Y-117225811D02*
X183333332Y-117225811D01*
X183333332Y-117225811D02*
X183466665Y-117292478D01*
X183466665Y-117292478D02*
X183533332Y-117425811D01*
X183533332Y-117425811D02*
X183533332Y-117559144D01*
X183533332Y-117559144D02*
X182866665Y-117692478D01*
X184733332Y-117225811D02*
X184733332Y-118359144D01*
X184733332Y-118359144D02*
X184666665Y-118492478D01*
X184666665Y-118492478D02*
X184599999Y-118559144D01*
X184599999Y-118559144D02*
X184466665Y-118625811D01*
X184466665Y-118625811D02*
X184266665Y-118625811D01*
X184266665Y-118625811D02*
X184133332Y-118559144D01*
X184733332Y-118092478D02*
X184599999Y-118159144D01*
X184599999Y-118159144D02*
X184333332Y-118159144D01*
X184333332Y-118159144D02*
X184199999Y-118092478D01*
X184199999Y-118092478D02*
X184133332Y-118025811D01*
X184133332Y-118025811D02*
X184066665Y-117892478D01*
X184066665Y-117892478D02*
X184066665Y-117492478D01*
X184066665Y-117492478D02*
X184133332Y-117359144D01*
X184133332Y-117359144D02*
X184199999Y-117292478D01*
X184199999Y-117292478D02*
X184333332Y-117225811D01*
X184333332Y-117225811D02*
X184599999Y-117225811D01*
X184599999Y-117225811D02*
X184733332Y-117292478D01*
X185399999Y-118159144D02*
X185399999Y-116759144D01*
X185399999Y-117292478D02*
X185533332Y-117225811D01*
X185533332Y-117225811D02*
X185799999Y-117225811D01*
X185799999Y-117225811D02*
X185933332Y-117292478D01*
X185933332Y-117292478D02*
X185999999Y-117359144D01*
X185999999Y-117359144D02*
X186066666Y-117492478D01*
X186066666Y-117492478D02*
X186066666Y-117892478D01*
X186066666Y-117892478D02*
X185999999Y-118025811D01*
X185999999Y-118025811D02*
X185933332Y-118092478D01*
X185933332Y-118092478D02*
X185799999Y-118159144D01*
X185799999Y-118159144D02*
X185533332Y-118159144D01*
X185533332Y-118159144D02*
X185399999Y-118092478D01*
X186866666Y-118159144D02*
X186733333Y-118092478D01*
X186733333Y-118092478D02*
X186666666Y-118025811D01*
X186666666Y-118025811D02*
X186599999Y-117892478D01*
X186599999Y-117892478D02*
X186599999Y-117492478D01*
X186599999Y-117492478D02*
X186666666Y-117359144D01*
X186666666Y-117359144D02*
X186733333Y-117292478D01*
X186733333Y-117292478D02*
X186866666Y-117225811D01*
X186866666Y-117225811D02*
X187066666Y-117225811D01*
X187066666Y-117225811D02*
X187199999Y-117292478D01*
X187199999Y-117292478D02*
X187266666Y-117359144D01*
X187266666Y-117359144D02*
X187333333Y-117492478D01*
X187333333Y-117492478D02*
X187333333Y-117892478D01*
X187333333Y-117892478D02*
X187266666Y-118025811D01*
X187266666Y-118025811D02*
X187199999Y-118092478D01*
X187199999Y-118092478D02*
X187066666Y-118159144D01*
X187066666Y-118159144D02*
X186866666Y-118159144D01*
X188533333Y-118159144D02*
X188533333Y-117425811D01*
X188533333Y-117425811D02*
X188466666Y-117292478D01*
X188466666Y-117292478D02*
X188333333Y-117225811D01*
X188333333Y-117225811D02*
X188066666Y-117225811D01*
X188066666Y-117225811D02*
X187933333Y-117292478D01*
X188533333Y-118092478D02*
X188400000Y-118159144D01*
X188400000Y-118159144D02*
X188066666Y-118159144D01*
X188066666Y-118159144D02*
X187933333Y-118092478D01*
X187933333Y-118092478D02*
X187866666Y-117959144D01*
X187866666Y-117959144D02*
X187866666Y-117825811D01*
X187866666Y-117825811D02*
X187933333Y-117692478D01*
X187933333Y-117692478D02*
X188066666Y-117625811D01*
X188066666Y-117625811D02*
X188400000Y-117625811D01*
X188400000Y-117625811D02*
X188533333Y-117559144D01*
X189200000Y-118159144D02*
X189200000Y-117225811D01*
X189200000Y-117492478D02*
X189266667Y-117359144D01*
X189266667Y-117359144D02*
X189333333Y-117292478D01*
X189333333Y-117292478D02*
X189466667Y-117225811D01*
X189466667Y-117225811D02*
X189600000Y-117225811D01*
X190666667Y-118159144D02*
X190666667Y-116759144D01*
X190666667Y-118092478D02*
X190533334Y-118159144D01*
X190533334Y-118159144D02*
X190266667Y-118159144D01*
X190266667Y-118159144D02*
X190133334Y-118092478D01*
X190133334Y-118092478D02*
X190066667Y-118025811D01*
X190066667Y-118025811D02*
X190000000Y-117892478D01*
X190000000Y-117892478D02*
X190000000Y-117492478D01*
X190000000Y-117492478D02*
X190066667Y-117359144D01*
X190066667Y-117359144D02*
X190133334Y-117292478D01*
X190133334Y-117292478D02*
X190266667Y-117225811D01*
X190266667Y-117225811D02*
X190533334Y-117225811D01*
X190533334Y-117225811D02*
X190666667Y-117292478D01*
X192666668Y-116759144D02*
X192800001Y-116759144D01*
X192800001Y-116759144D02*
X192933334Y-116825811D01*
X192933334Y-116825811D02*
X193000001Y-116892478D01*
X193000001Y-116892478D02*
X193066668Y-117025811D01*
X193066668Y-117025811D02*
X193133334Y-117292478D01*
X193133334Y-117292478D02*
X193133334Y-117625811D01*
X193133334Y-117625811D02*
X193066668Y-117892478D01*
X193066668Y-117892478D02*
X193000001Y-118025811D01*
X193000001Y-118025811D02*
X192933334Y-118092478D01*
X192933334Y-118092478D02*
X192800001Y-118159144D01*
X192800001Y-118159144D02*
X192666668Y-118159144D01*
X192666668Y-118159144D02*
X192533334Y-118092478D01*
X192533334Y-118092478D02*
X192466668Y-118025811D01*
X192466668Y-118025811D02*
X192400001Y-117892478D01*
X192400001Y-117892478D02*
X192333334Y-117625811D01*
X192333334Y-117625811D02*
X192333334Y-117292478D01*
X192333334Y-117292478D02*
X192400001Y-117025811D01*
X192400001Y-117025811D02*
X192466668Y-116892478D01*
X192466668Y-116892478D02*
X192533334Y-116825811D01*
X192533334Y-116825811D02*
X192666668Y-116759144D01*
X193666667Y-116892478D02*
X193733334Y-116825811D01*
X193733334Y-116825811D02*
X193866667Y-116759144D01*
X193866667Y-116759144D02*
X194200001Y-116759144D01*
X194200001Y-116759144D02*
X194333334Y-116825811D01*
X194333334Y-116825811D02*
X194400001Y-116892478D01*
X194400001Y-116892478D02*
X194466667Y-117025811D01*
X194466667Y-117025811D02*
X194466667Y-117159144D01*
X194466667Y-117159144D02*
X194400001Y-117359144D01*
X194400001Y-117359144D02*
X193600001Y-118159144D01*
X193600001Y-118159144D02*
X194466667Y-118159144D01*
X196000001Y-117225811D02*
X196333334Y-118159144D01*
X196333334Y-118159144D02*
X196666667Y-117225811D01*
X197933334Y-118159144D02*
X197133334Y-118159144D01*
X197533334Y-118159144D02*
X197533334Y-116759144D01*
X197533334Y-116759144D02*
X197400001Y-116959144D01*
X197400001Y-116959144D02*
X197266668Y-117092478D01*
X197266668Y-117092478D02*
X197133334Y-117159144D01*
X198533334Y-118025811D02*
X198600001Y-118092478D01*
X198600001Y-118092478D02*
X198533334Y-118159144D01*
X198533334Y-118159144D02*
X198466667Y-118092478D01*
X198466667Y-118092478D02*
X198533334Y-118025811D01*
X198533334Y-118025811D02*
X198533334Y-118159144D01*
X199466668Y-116759144D02*
X199600001Y-116759144D01*
X199600001Y-116759144D02*
X199733334Y-116825811D01*
X199733334Y-116825811D02*
X199800001Y-116892478D01*
X199800001Y-116892478D02*
X199866668Y-117025811D01*
X199866668Y-117025811D02*
X199933334Y-117292478D01*
X199933334Y-117292478D02*
X199933334Y-117625811D01*
X199933334Y-117625811D02*
X199866668Y-117892478D01*
X199866668Y-117892478D02*
X199800001Y-118025811D01*
X199800001Y-118025811D02*
X199733334Y-118092478D01*
X199733334Y-118092478D02*
X199600001Y-118159144D01*
X199600001Y-118159144D02*
X199466668Y-118159144D01*
X199466668Y-118159144D02*
X199333334Y-118092478D01*
X199333334Y-118092478D02*
X199266668Y-118025811D01*
X199266668Y-118025811D02*
X199200001Y-117892478D01*
X199200001Y-117892478D02*
X199133334Y-117625811D01*
X199133334Y-117625811D02*
X199133334Y-117292478D01*
X199133334Y-117292478D02*
X199200001Y-117025811D01*
X199200001Y-117025811D02*
X199266668Y-116892478D01*
X199266668Y-116892478D02*
X199333334Y-116825811D01*
X199333334Y-116825811D02*
X199466668Y-116759144D01*
X177566664Y-120413066D02*
X177566664Y-119013066D01*
X177566664Y-119013066D02*
X177899997Y-119013066D01*
X177899997Y-119013066D02*
X178099997Y-119079733D01*
X178099997Y-119079733D02*
X178233331Y-119213066D01*
X178233331Y-119213066D02*
X178299997Y-119346400D01*
X178299997Y-119346400D02*
X178366664Y-119613066D01*
X178366664Y-119613066D02*
X178366664Y-119813066D01*
X178366664Y-119813066D02*
X178299997Y-120079733D01*
X178299997Y-120079733D02*
X178233331Y-120213066D01*
X178233331Y-120213066D02*
X178099997Y-120346400D01*
X178099997Y-120346400D02*
X177899997Y-120413066D01*
X177899997Y-120413066D02*
X177566664Y-120413066D01*
X179566664Y-119479733D02*
X179566664Y-120413066D01*
X178966664Y-119479733D02*
X178966664Y-120213066D01*
X178966664Y-120213066D02*
X179033331Y-120346400D01*
X179033331Y-120346400D02*
X179166664Y-120413066D01*
X179166664Y-120413066D02*
X179366664Y-120413066D01*
X179366664Y-120413066D02*
X179499997Y-120346400D01*
X179499997Y-120346400D02*
X179566664Y-120279733D01*
X180833331Y-120413066D02*
X180833331Y-119679733D01*
X180833331Y-119679733D02*
X180766664Y-119546400D01*
X180766664Y-119546400D02*
X180633331Y-119479733D01*
X180633331Y-119479733D02*
X180366664Y-119479733D01*
X180366664Y-119479733D02*
X180233331Y-119546400D01*
X180833331Y-120346400D02*
X180699998Y-120413066D01*
X180699998Y-120413066D02*
X180366664Y-120413066D01*
X180366664Y-120413066D02*
X180233331Y-120346400D01*
X180233331Y-120346400D02*
X180166664Y-120213066D01*
X180166664Y-120213066D02*
X180166664Y-120079733D01*
X180166664Y-120079733D02*
X180233331Y-119946400D01*
X180233331Y-119946400D02*
X180366664Y-119879733D01*
X180366664Y-119879733D02*
X180699998Y-119879733D01*
X180699998Y-119879733D02*
X180833331Y-119813066D01*
X181699998Y-120413066D02*
X181566665Y-120346400D01*
X181566665Y-120346400D02*
X181499998Y-120213066D01*
X181499998Y-120213066D02*
X181499998Y-119013066D01*
X183299998Y-120413066D02*
X183299998Y-119013066D01*
X183299998Y-119679733D02*
X184099998Y-119679733D01*
X184099998Y-120413066D02*
X184099998Y-119013066D01*
X184766665Y-120413066D02*
X184766665Y-119479733D01*
X184766665Y-119013066D02*
X184699998Y-119079733D01*
X184699998Y-119079733D02*
X184766665Y-119146400D01*
X184766665Y-119146400D02*
X184833332Y-119079733D01*
X184833332Y-119079733D02*
X184766665Y-119013066D01*
X184766665Y-119013066D02*
X184766665Y-119146400D01*
X186033332Y-119479733D02*
X186033332Y-120613066D01*
X186033332Y-120613066D02*
X185966665Y-120746400D01*
X185966665Y-120746400D02*
X185899999Y-120813066D01*
X185899999Y-120813066D02*
X185766665Y-120879733D01*
X185766665Y-120879733D02*
X185566665Y-120879733D01*
X185566665Y-120879733D02*
X185433332Y-120813066D01*
X186033332Y-120346400D02*
X185899999Y-120413066D01*
X185899999Y-120413066D02*
X185633332Y-120413066D01*
X185633332Y-120413066D02*
X185499999Y-120346400D01*
X185499999Y-120346400D02*
X185433332Y-120279733D01*
X185433332Y-120279733D02*
X185366665Y-120146400D01*
X185366665Y-120146400D02*
X185366665Y-119746400D01*
X185366665Y-119746400D02*
X185433332Y-119613066D01*
X185433332Y-119613066D02*
X185499999Y-119546400D01*
X185499999Y-119546400D02*
X185633332Y-119479733D01*
X185633332Y-119479733D02*
X185899999Y-119479733D01*
X185899999Y-119479733D02*
X186033332Y-119546400D01*
X186699999Y-120413066D02*
X186699999Y-119013066D01*
X187299999Y-120413066D02*
X187299999Y-119679733D01*
X187299999Y-119679733D02*
X187233332Y-119546400D01*
X187233332Y-119546400D02*
X187099999Y-119479733D01*
X187099999Y-119479733D02*
X186899999Y-119479733D01*
X186899999Y-119479733D02*
X186766666Y-119546400D01*
X186766666Y-119546400D02*
X186699999Y-119613066D01*
X189833333Y-120279733D02*
X189766666Y-120346400D01*
X189766666Y-120346400D02*
X189566666Y-120413066D01*
X189566666Y-120413066D02*
X189433333Y-120413066D01*
X189433333Y-120413066D02*
X189233333Y-120346400D01*
X189233333Y-120346400D02*
X189100000Y-120213066D01*
X189100000Y-120213066D02*
X189033333Y-120079733D01*
X189033333Y-120079733D02*
X188966666Y-119813066D01*
X188966666Y-119813066D02*
X188966666Y-119613066D01*
X188966666Y-119613066D02*
X189033333Y-119346400D01*
X189033333Y-119346400D02*
X189100000Y-119213066D01*
X189100000Y-119213066D02*
X189233333Y-119079733D01*
X189233333Y-119079733D02*
X189433333Y-119013066D01*
X189433333Y-119013066D02*
X189566666Y-119013066D01*
X189566666Y-119013066D02*
X189766666Y-119079733D01*
X189766666Y-119079733D02*
X189833333Y-119146400D01*
X191033333Y-119479733D02*
X191033333Y-120413066D01*
X190433333Y-119479733D02*
X190433333Y-120213066D01*
X190433333Y-120213066D02*
X190500000Y-120346400D01*
X190500000Y-120346400D02*
X190633333Y-120413066D01*
X190633333Y-120413066D02*
X190833333Y-120413066D01*
X190833333Y-120413066D02*
X190966666Y-120346400D01*
X190966666Y-120346400D02*
X191033333Y-120279733D01*
X191700000Y-120413066D02*
X191700000Y-119479733D01*
X191700000Y-119746400D02*
X191766667Y-119613066D01*
X191766667Y-119613066D02*
X191833333Y-119546400D01*
X191833333Y-119546400D02*
X191966667Y-119479733D01*
X191966667Y-119479733D02*
X192100000Y-119479733D01*
X192566667Y-120413066D02*
X192566667Y-119479733D01*
X192566667Y-119746400D02*
X192633334Y-119613066D01*
X192633334Y-119613066D02*
X192700000Y-119546400D01*
X192700000Y-119546400D02*
X192833334Y-119479733D01*
X192833334Y-119479733D02*
X192966667Y-119479733D01*
X193966667Y-120346400D02*
X193833334Y-120413066D01*
X193833334Y-120413066D02*
X193566667Y-120413066D01*
X193566667Y-120413066D02*
X193433334Y-120346400D01*
X193433334Y-120346400D02*
X193366667Y-120213066D01*
X193366667Y-120213066D02*
X193366667Y-119679733D01*
X193366667Y-119679733D02*
X193433334Y-119546400D01*
X193433334Y-119546400D02*
X193566667Y-119479733D01*
X193566667Y-119479733D02*
X193833334Y-119479733D01*
X193833334Y-119479733D02*
X193966667Y-119546400D01*
X193966667Y-119546400D02*
X194033334Y-119679733D01*
X194033334Y-119679733D02*
X194033334Y-119813066D01*
X194033334Y-119813066D02*
X193366667Y-119946400D01*
X194633334Y-119479733D02*
X194633334Y-120413066D01*
X194633334Y-119613066D02*
X194700001Y-119546400D01*
X194700001Y-119546400D02*
X194833334Y-119479733D01*
X194833334Y-119479733D02*
X195033334Y-119479733D01*
X195033334Y-119479733D02*
X195166667Y-119546400D01*
X195166667Y-119546400D02*
X195233334Y-119679733D01*
X195233334Y-119679733D02*
X195233334Y-120413066D01*
X195700001Y-119479733D02*
X196233334Y-119479733D01*
X195900001Y-119013066D02*
X195900001Y-120213066D01*
X195900001Y-120213066D02*
X195966668Y-120346400D01*
X195966668Y-120346400D02*
X196100001Y-120413066D01*
X196100001Y-120413066D02*
X196233334Y-120413066D01*
X197700001Y-120346400D02*
X197900001Y-120413066D01*
X197900001Y-120413066D02*
X198233335Y-120413066D01*
X198233335Y-120413066D02*
X198366668Y-120346400D01*
X198366668Y-120346400D02*
X198433335Y-120279733D01*
X198433335Y-120279733D02*
X198500001Y-120146400D01*
X198500001Y-120146400D02*
X198500001Y-120013066D01*
X198500001Y-120013066D02*
X198433335Y-119879733D01*
X198433335Y-119879733D02*
X198366668Y-119813066D01*
X198366668Y-119813066D02*
X198233335Y-119746400D01*
X198233335Y-119746400D02*
X197966668Y-119679733D01*
X197966668Y-119679733D02*
X197833335Y-119613066D01*
X197833335Y-119613066D02*
X197766668Y-119546400D01*
X197766668Y-119546400D02*
X197700001Y-119413066D01*
X197700001Y-119413066D02*
X197700001Y-119279733D01*
X197700001Y-119279733D02*
X197766668Y-119146400D01*
X197766668Y-119146400D02*
X197833335Y-119079733D01*
X197833335Y-119079733D02*
X197966668Y-119013066D01*
X197966668Y-119013066D02*
X198300001Y-119013066D01*
X198300001Y-119013066D02*
X198500001Y-119079733D01*
X198966668Y-119479733D02*
X199233334Y-120413066D01*
X199233334Y-120413066D02*
X199500001Y-119746400D01*
X199500001Y-119746400D02*
X199766668Y-120413066D01*
X199766668Y-120413066D02*
X200033334Y-119479733D01*
X200566668Y-120413066D02*
X200566668Y-119479733D01*
X200566668Y-119013066D02*
X200500001Y-119079733D01*
X200500001Y-119079733D02*
X200566668Y-119146400D01*
X200566668Y-119146400D02*
X200633335Y-119079733D01*
X200633335Y-119079733D02*
X200566668Y-119013066D01*
X200566668Y-119013066D02*
X200566668Y-119146400D01*
X201033335Y-119479733D02*
X201566668Y-119479733D01*
X201233335Y-119013066D02*
X201233335Y-120213066D01*
X201233335Y-120213066D02*
X201300002Y-120346400D01*
X201300002Y-120346400D02*
X201433335Y-120413066D01*
X201433335Y-120413066D02*
X201566668Y-120413066D01*
X202633335Y-120346400D02*
X202500002Y-120413066D01*
X202500002Y-120413066D02*
X202233335Y-120413066D01*
X202233335Y-120413066D02*
X202100002Y-120346400D01*
X202100002Y-120346400D02*
X202033335Y-120279733D01*
X202033335Y-120279733D02*
X201966668Y-120146400D01*
X201966668Y-120146400D02*
X201966668Y-119746400D01*
X201966668Y-119746400D02*
X202033335Y-119613066D01*
X202033335Y-119613066D02*
X202100002Y-119546400D01*
X202100002Y-119546400D02*
X202233335Y-119479733D01*
X202233335Y-119479733D02*
X202500002Y-119479733D01*
X202500002Y-119479733D02*
X202633335Y-119546400D01*
X203233335Y-120413066D02*
X203233335Y-119013066D01*
X203833335Y-120413066D02*
X203833335Y-119679733D01*
X203833335Y-119679733D02*
X203766668Y-119546400D01*
X203766668Y-119546400D02*
X203633335Y-119479733D01*
X203633335Y-119479733D02*
X203433335Y-119479733D01*
X203433335Y-119479733D02*
X203300002Y-119546400D01*
X203300002Y-119546400D02*
X203233335Y-119613066D01*
D10*
X207595238Y-127547247D02*
X207595238Y-126547247D01*
X207595238Y-126547247D02*
X207833333Y-126547247D01*
X207833333Y-126547247D02*
X207976190Y-126594866D01*
X207976190Y-126594866D02*
X208071428Y-126690104D01*
X208071428Y-126690104D02*
X208119047Y-126785342D01*
X208119047Y-126785342D02*
X208166666Y-126975818D01*
X208166666Y-126975818D02*
X208166666Y-127118675D01*
X208166666Y-127118675D02*
X208119047Y-127309151D01*
X208119047Y-127309151D02*
X208071428Y-127404389D01*
X208071428Y-127404389D02*
X207976190Y-127499628D01*
X207976190Y-127499628D02*
X207833333Y-127547247D01*
X207833333Y-127547247D02*
X207595238Y-127547247D01*
X209166666Y-127452008D02*
X209119047Y-127499628D01*
X209119047Y-127499628D02*
X208976190Y-127547247D01*
X208976190Y-127547247D02*
X208880952Y-127547247D01*
X208880952Y-127547247D02*
X208738095Y-127499628D01*
X208738095Y-127499628D02*
X208642857Y-127404389D01*
X208642857Y-127404389D02*
X208595238Y-127309151D01*
X208595238Y-127309151D02*
X208547619Y-127118675D01*
X208547619Y-127118675D02*
X208547619Y-126975818D01*
X208547619Y-126975818D02*
X208595238Y-126785342D01*
X208595238Y-126785342D02*
X208642857Y-126690104D01*
X208642857Y-126690104D02*
X208738095Y-126594866D01*
X208738095Y-126594866D02*
X208880952Y-126547247D01*
X208880952Y-126547247D02*
X208976190Y-126547247D01*
X208976190Y-126547247D02*
X209119047Y-126594866D01*
X209119047Y-126594866D02*
X209166666Y-126642485D01*
X210357143Y-127547247D02*
X210357143Y-126547247D01*
X210833333Y-127547247D02*
X210833333Y-126547247D01*
X210833333Y-126547247D02*
X211404761Y-127547247D01*
X211404761Y-127547247D02*
X211404761Y-126547247D01*
X207357143Y-128776238D02*
X208119048Y-128776238D01*
X210880953Y-128776238D02*
X211642858Y-128776238D01*
X211261905Y-129157191D02*
X211261905Y-128395286D01*
X182809523Y-126547247D02*
X182999999Y-126547247D01*
X182999999Y-126547247D02*
X183095237Y-126594866D01*
X183095237Y-126594866D02*
X183190475Y-126690104D01*
X183190475Y-126690104D02*
X183238094Y-126880580D01*
X183238094Y-126880580D02*
X183238094Y-127213913D01*
X183238094Y-127213913D02*
X183190475Y-127404389D01*
X183190475Y-127404389D02*
X183095237Y-127499628D01*
X183095237Y-127499628D02*
X182999999Y-127547247D01*
X182999999Y-127547247D02*
X182809523Y-127547247D01*
X182809523Y-127547247D02*
X182714285Y-127499628D01*
X182714285Y-127499628D02*
X182619047Y-127404389D01*
X182619047Y-127404389D02*
X182571428Y-127213913D01*
X182571428Y-127213913D02*
X182571428Y-126880580D01*
X182571428Y-126880580D02*
X182619047Y-126690104D01*
X182619047Y-126690104D02*
X182714285Y-126594866D01*
X182714285Y-126594866D02*
X182809523Y-126547247D01*
X184095237Y-126880580D02*
X184095237Y-127547247D01*
X183666666Y-126880580D02*
X183666666Y-127404389D01*
X183666666Y-127404389D02*
X183714285Y-127499628D01*
X183714285Y-127499628D02*
X183809523Y-127547247D01*
X183809523Y-127547247D02*
X183952380Y-127547247D01*
X183952380Y-127547247D02*
X184047618Y-127499628D01*
X184047618Y-127499628D02*
X184095237Y-127452008D01*
X184428571Y-126880580D02*
X184809523Y-126880580D01*
X184571428Y-126547247D02*
X184571428Y-127404389D01*
X184571428Y-127404389D02*
X184619047Y-127499628D01*
X184619047Y-127499628D02*
X184714285Y-127547247D01*
X184714285Y-127547247D02*
X184809523Y-127547247D01*
X186095238Y-126547247D02*
X186190476Y-126547247D01*
X186190476Y-126547247D02*
X186285714Y-126594866D01*
X186285714Y-126594866D02*
X186333333Y-126642485D01*
X186333333Y-126642485D02*
X186380952Y-126737723D01*
X186380952Y-126737723D02*
X186428571Y-126928199D01*
X186428571Y-126928199D02*
X186428571Y-127166294D01*
X186428571Y-127166294D02*
X186380952Y-127356770D01*
X186380952Y-127356770D02*
X186333333Y-127452008D01*
X186333333Y-127452008D02*
X186285714Y-127499628D01*
X186285714Y-127499628D02*
X186190476Y-127547247D01*
X186190476Y-127547247D02*
X186095238Y-127547247D01*
X186095238Y-127547247D02*
X186000000Y-127499628D01*
X186000000Y-127499628D02*
X185952381Y-127452008D01*
X185952381Y-127452008D02*
X185904762Y-127356770D01*
X185904762Y-127356770D02*
X185857143Y-127166294D01*
X185857143Y-127166294D02*
X185857143Y-126928199D01*
X185857143Y-126928199D02*
X185904762Y-126737723D01*
X185904762Y-126737723D02*
X185952381Y-126642485D01*
X185952381Y-126642485D02*
X186000000Y-126594866D01*
X186000000Y-126594866D02*
X186095238Y-126547247D01*
X182357143Y-128776238D02*
X183119048Y-128776238D01*
X185880953Y-128776238D02*
X186642858Y-128776238D01*
X186261905Y-129157191D02*
X186261905Y-128395286D01*
D12*
%TO.C,J3*%
X178800000Y-142700000D02*
X178800000Y-130700000D01*
X178800000Y-130700000D02*
X190200000Y-130700000D01*
X190200000Y-130700000D02*
X190200000Y-142700000D01*
X190200000Y-142700000D02*
X178800000Y-142700000D01*
D10*
X182100000Y-129700000D02*
G75*
G02*
X181900000Y-129700000I-100000J0D01*
G01*
X181900000Y-129700000D02*
G75*
G02*
X182100000Y-129700000I100000J0D01*
G01*
D12*
%TO.C,J2*%
X166047500Y-133500000D02*
X166047500Y-142700000D01*
X166047500Y-133500000D02*
X166747500Y-133500000D01*
X166047500Y-142700000D02*
X177747500Y-142700000D01*
X177047500Y-133500000D02*
X177747500Y-133500000D01*
X177747500Y-142700000D02*
X177747500Y-133500000D01*
D10*
X165277500Y-134700000D02*
G75*
G02*
X165077500Y-134700000I-100000J0D01*
G01*
X165077500Y-134700000D02*
G75*
G02*
X165277500Y-134700000I100000J0D01*
G01*
D12*
%TO.C,J4*%
X191200000Y-142700000D02*
X191200000Y-130700000D01*
X191200000Y-130700000D02*
X202600000Y-130700000D01*
X202600000Y-130700000D02*
X202600000Y-142700000D01*
X202600000Y-142700000D02*
X191200000Y-142700000D01*
D10*
X194500000Y-129700000D02*
G75*
G02*
X194300000Y-129700000I-100000J0D01*
G01*
X194300000Y-129700000D02*
G75*
G02*
X194500000Y-129700000I100000J0D01*
G01*
D12*
%TO.C,J1*%
X203600000Y-142700000D02*
X203600000Y-130700000D01*
X203600000Y-130700000D02*
X215000000Y-130700000D01*
X215000000Y-130700000D02*
X215000000Y-142700000D01*
X215000000Y-142700000D02*
X203600000Y-142700000D01*
D10*
X206900000Y-129700000D02*
G75*
G02*
X206700000Y-129700000I-100000J0D01*
G01*
X206700000Y-129700000D02*
G75*
G02*
X206900000Y-129700000I100000J0D01*
G01*
D13*
%TO.C,SYM1*%
X213091388Y-121937645D02*
X213148865Y-121955206D01*
X213185872Y-121977395D01*
X213197927Y-121994942D01*
X213194609Y-122015742D01*
X213173079Y-122048419D01*
X213154874Y-122071562D01*
X213117344Y-122113402D01*
X213089148Y-122131005D01*
X213065111Y-122129856D01*
X212993808Y-122111710D01*
X212941442Y-122112534D01*
X212898918Y-122133098D01*
X212884642Y-122145134D01*
X212838947Y-122187483D01*
X212838947Y-122740526D01*
X212655131Y-122740526D01*
X212655131Y-121938421D01*
X212747039Y-121938421D01*
X212802219Y-121940603D01*
X212830688Y-121948351D01*
X212838943Y-121963468D01*
X212838947Y-121963916D01*
X212842845Y-121979749D01*
X212860474Y-121977684D01*
X212884901Y-121966261D01*
X212935350Y-121945005D01*
X212976316Y-121932216D01*
X213029028Y-121928938D01*
X213091388Y-121937645D01*
G36*
X213091388Y-121937645D02*
G01*
X213148865Y-121955206D01*
X213185872Y-121977395D01*
X213197927Y-121994942D01*
X213194609Y-122015742D01*
X213173079Y-122048419D01*
X213154874Y-122071562D01*
X213117344Y-122113402D01*
X213089148Y-122131005D01*
X213065111Y-122129856D01*
X212993808Y-122111710D01*
X212941442Y-122112534D01*
X212898918Y-122133098D01*
X212884642Y-122145134D01*
X212838947Y-122187483D01*
X212838947Y-122740526D01*
X212655131Y-122740526D01*
X212655131Y-121938421D01*
X212747039Y-121938421D01*
X212802219Y-121940603D01*
X212830688Y-121948351D01*
X212838943Y-121963468D01*
X212838947Y-121963916D01*
X212842845Y-121979749D01*
X212860474Y-121977684D01*
X212884901Y-121966261D01*
X212935350Y-121945005D01*
X212976316Y-121932216D01*
X213029028Y-121928938D01*
X213091388Y-121937645D01*
G37*
X212873167Y-123191447D02*
X212937408Y-123204112D01*
X212973980Y-123222864D01*
X213012453Y-123254017D01*
X212957717Y-123323127D01*
X212923969Y-123364979D01*
X212901053Y-123385398D01*
X212878279Y-123388517D01*
X212844956Y-123378472D01*
X212829314Y-123372789D01*
X212765542Y-123364404D01*
X212707140Y-123382378D01*
X212664264Y-123422982D01*
X212657299Y-123435929D01*
X212649713Y-123470224D01*
X212643859Y-123533427D01*
X212640011Y-123621060D01*
X212638443Y-123728640D01*
X212638421Y-123743944D01*
X212638421Y-124010526D01*
X212454605Y-124010526D01*
X212454605Y-123191710D01*
X212546513Y-123191710D01*
X212599507Y-123193094D01*
X212627115Y-123199252D01*
X212637324Y-123213194D01*
X212638421Y-123226344D01*
X212638421Y-123260978D01*
X212682450Y-123226344D01*
X212732937Y-123202716D01*
X212800760Y-123191033D01*
X212873167Y-123191447D01*
G36*
X212873167Y-123191447D02*
G01*
X212937408Y-123204112D01*
X212973980Y-123222864D01*
X213012453Y-123254017D01*
X212957717Y-123323127D01*
X212923969Y-123364979D01*
X212901053Y-123385398D01*
X212878279Y-123388517D01*
X212844956Y-123378472D01*
X212829314Y-123372789D01*
X212765542Y-123364404D01*
X212707140Y-123382378D01*
X212664264Y-123422982D01*
X212657299Y-123435929D01*
X212649713Y-123470224D01*
X212643859Y-123533427D01*
X212640011Y-123621060D01*
X212638443Y-123728640D01*
X212638421Y-123743944D01*
X212638421Y-124010526D01*
X212454605Y-124010526D01*
X212454605Y-123191710D01*
X212546513Y-123191710D01*
X212599507Y-123193094D01*
X212627115Y-123199252D01*
X212637324Y-123213194D01*
X212638421Y-123226344D01*
X212638421Y-123260978D01*
X212682450Y-123226344D01*
X212732937Y-123202716D01*
X212800760Y-123191033D01*
X212873167Y-123191447D01*
G37*
X209379881Y-123193486D02*
X209404888Y-123200982D01*
X209412950Y-123217451D01*
X209413289Y-123224886D01*
X209414736Y-123245594D01*
X209424698Y-123248845D01*
X209451612Y-123234648D01*
X209467598Y-123224948D01*
X209518033Y-123204175D01*
X209578272Y-123193904D01*
X209641434Y-123193114D01*
X209700637Y-123200786D01*
X209749002Y-123215898D01*
X209779646Y-123237432D01*
X209785689Y-123264366D01*
X209782639Y-123271660D01*
X209760406Y-123301937D01*
X209725930Y-123339175D01*
X209719694Y-123345195D01*
X209686833Y-123372875D01*
X209658480Y-123381818D01*
X209618827Y-123375576D01*
X209602942Y-123371429D01*
X209553509Y-123361467D01*
X209518752Y-123365947D01*
X209489400Y-123381746D01*
X209462513Y-123402949D01*
X209442710Y-123429614D01*
X209428948Y-123466827D01*
X209420184Y-123519673D01*
X209415374Y-123593237D01*
X209413474Y-123692605D01*
X209413289Y-123752601D01*
X209413289Y-124010526D01*
X209246184Y-124010526D01*
X209246184Y-123191710D01*
X209329736Y-123191710D01*
X209379881Y-123193486D01*
G36*
X209379881Y-123193486D02*
G01*
X209404888Y-123200982D01*
X209412950Y-123217451D01*
X209413289Y-123224886D01*
X209414736Y-123245594D01*
X209424698Y-123248845D01*
X209451612Y-123234648D01*
X209467598Y-123224948D01*
X209518033Y-123204175D01*
X209578272Y-123193904D01*
X209641434Y-123193114D01*
X209700637Y-123200786D01*
X209749002Y-123215898D01*
X209779646Y-123237432D01*
X209785689Y-123264366D01*
X209782639Y-123271660D01*
X209760406Y-123301937D01*
X209725930Y-123339175D01*
X209719694Y-123345195D01*
X209686833Y-123372875D01*
X209658480Y-123381818D01*
X209618827Y-123375576D01*
X209602942Y-123371429D01*
X209553509Y-123361467D01*
X209518752Y-123365947D01*
X209489400Y-123381746D01*
X209462513Y-123402949D01*
X209442710Y-123429614D01*
X209428948Y-123466827D01*
X209420184Y-123519673D01*
X209415374Y-123593237D01*
X209413474Y-123692605D01*
X209413289Y-123752601D01*
X209413289Y-124010526D01*
X209246184Y-124010526D01*
X209246184Y-123191710D01*
X209329736Y-123191710D01*
X209379881Y-123193486D01*
G37*
X212020131Y-122198533D02*
X212021710Y-122321089D01*
X212027481Y-122414179D01*
X212038991Y-122481651D01*
X212057790Y-122527355D01*
X212085426Y-122555139D01*
X212123448Y-122568854D01*
X212170526Y-122572358D01*
X212219832Y-122568432D01*
X212257283Y-122554089D01*
X212284428Y-122525478D01*
X212302815Y-122478751D01*
X212313993Y-122410058D01*
X212319511Y-122315550D01*
X212320921Y-122198533D01*
X212320921Y-121938421D01*
X212504736Y-121938421D01*
X212504736Y-122740526D01*
X212412828Y-122740526D01*
X212357422Y-122738281D01*
X212328891Y-122730396D01*
X212320921Y-122715428D01*
X212316120Y-122702097D01*
X212297014Y-122704917D01*
X212258504Y-122723783D01*
X212170239Y-122752887D01*
X212076623Y-122750825D01*
X211986921Y-122719221D01*
X211944204Y-122694257D01*
X211911621Y-122667226D01*
X211887817Y-122633405D01*
X211871439Y-122588068D01*
X211861131Y-122526489D01*
X211855541Y-122443943D01*
X211853312Y-122335705D01*
X211853026Y-122252004D01*
X211853026Y-121938421D01*
X212020131Y-121938421D01*
X212020131Y-122198533D01*
G36*
X212020131Y-122198533D02*
G01*
X212021710Y-122321089D01*
X212027481Y-122414179D01*
X212038991Y-122481651D01*
X212057790Y-122527355D01*
X212085426Y-122555139D01*
X212123448Y-122568854D01*
X212170526Y-122572358D01*
X212219832Y-122568432D01*
X212257283Y-122554089D01*
X212284428Y-122525478D01*
X212302815Y-122478751D01*
X212313993Y-122410058D01*
X212319511Y-122315550D01*
X212320921Y-122198533D01*
X212320921Y-121938421D01*
X212504736Y-121938421D01*
X212504736Y-122740526D01*
X212412828Y-122740526D01*
X212357422Y-122738281D01*
X212328891Y-122730396D01*
X212320921Y-122715428D01*
X212316120Y-122702097D01*
X212297014Y-122704917D01*
X212258504Y-122723783D01*
X212170239Y-122752887D01*
X212076623Y-122750825D01*
X211986921Y-122719221D01*
X211944204Y-122694257D01*
X211911621Y-122667226D01*
X211887817Y-122633405D01*
X211871439Y-122588068D01*
X211861131Y-122526489D01*
X211855541Y-122443943D01*
X211853312Y-122335705D01*
X211853026Y-122252004D01*
X211853026Y-121938421D01*
X212020131Y-121938421D01*
X212020131Y-122198533D01*
G37*
X209697957Y-121952226D02*
X209739546Y-121972090D01*
X209779825Y-122000784D01*
X209810510Y-122033809D01*
X209832861Y-122075931D01*
X209848136Y-122131915D01*
X209857592Y-122206528D01*
X209862487Y-122304535D01*
X209864081Y-122430702D01*
X209864106Y-122443914D01*
X209864473Y-122740526D01*
X209680657Y-122740526D01*
X209680657Y-122467081D01*
X209680527Y-122365777D01*
X209679621Y-122292353D01*
X209677173Y-122241271D01*
X209672414Y-122206990D01*
X209664574Y-122183971D01*
X209652885Y-122166673D01*
X209636602Y-122149581D01*
X209579634Y-122112857D01*
X209517445Y-122106042D01*
X209458199Y-122129261D01*
X209437595Y-122146543D01*
X209422470Y-122162791D01*
X209411610Y-122180191D01*
X209404310Y-122204212D01*
X209399863Y-122240322D01*
X209397564Y-122293988D01*
X209396704Y-122370680D01*
X209396578Y-122464043D01*
X209396578Y-122740526D01*
X209212763Y-122740526D01*
X209212763Y-121938421D01*
X209304671Y-121938421D01*
X209359851Y-121940603D01*
X209388320Y-121948351D01*
X209396575Y-121963468D01*
X209396578Y-121963916D01*
X209400408Y-121978720D01*
X209417301Y-121977040D01*
X209450888Y-121960773D01*
X209527063Y-121936840D01*
X209614200Y-121934178D01*
X209697957Y-121952226D01*
G36*
X209697957Y-121952226D02*
G01*
X209739546Y-121972090D01*
X209779825Y-122000784D01*
X209810510Y-122033809D01*
X209832861Y-122075931D01*
X209848136Y-122131915D01*
X209857592Y-122206528D01*
X209862487Y-122304535D01*
X209864081Y-122430702D01*
X209864106Y-122443914D01*
X209864473Y-122740526D01*
X209680657Y-122740526D01*
X209680657Y-122467081D01*
X209680527Y-122365777D01*
X209679621Y-122292353D01*
X209677173Y-122241271D01*
X209672414Y-122206990D01*
X209664574Y-122183971D01*
X209652885Y-122166673D01*
X209636602Y-122149581D01*
X209579634Y-122112857D01*
X209517445Y-122106042D01*
X209458199Y-122129261D01*
X209437595Y-122146543D01*
X209422470Y-122162791D01*
X209411610Y-122180191D01*
X209404310Y-122204212D01*
X209399863Y-122240322D01*
X209397564Y-122293988D01*
X209396704Y-122370680D01*
X209396578Y-122464043D01*
X209396578Y-122740526D01*
X209212763Y-122740526D01*
X209212763Y-121938421D01*
X209304671Y-121938421D01*
X209359851Y-121940603D01*
X209388320Y-121948351D01*
X209396575Y-121963468D01*
X209396578Y-121963916D01*
X209400408Y-121978720D01*
X209417301Y-121977040D01*
X209450888Y-121960773D01*
X209527063Y-121936840D01*
X209614200Y-121934178D01*
X209697957Y-121952226D01*
G37*
X213646576Y-121945419D02*
X213743395Y-121986549D01*
X213773890Y-122006571D01*
X213812865Y-122037340D01*
X213837331Y-122061533D01*
X213841578Y-122069413D01*
X213829584Y-122086899D01*
X213798887Y-122116570D01*
X213774312Y-122137279D01*
X213707046Y-122191336D01*
X213653930Y-122146642D01*
X213612884Y-122117789D01*
X213572863Y-122107829D01*
X213527059Y-122110261D01*
X213454324Y-122128345D01*
X213404256Y-122165881D01*
X213373829Y-122226562D01*
X213360017Y-122314081D01*
X213360013Y-122314136D01*
X213361208Y-122411958D01*
X213379772Y-122483730D01*
X213416804Y-122532595D01*
X213442050Y-122549143D01*
X213509097Y-122569749D01*
X213580709Y-122569762D01*
X213643015Y-122549768D01*
X213657763Y-122540000D01*
X213694750Y-122515047D01*
X213723668Y-122510958D01*
X213754856Y-122529530D01*
X213789336Y-122562887D01*
X213843912Y-122619196D01*
X213783318Y-122669142D01*
X213689698Y-122725513D01*
X213584125Y-122753293D01*
X213473798Y-122751282D01*
X213401343Y-122732862D01*
X213316656Y-122687310D01*
X213248927Y-122615650D01*
X213218157Y-122565066D01*
X213193236Y-122492488D01*
X213180766Y-122400569D01*
X213180670Y-122300948D01*
X213192870Y-122205267D01*
X213217290Y-122125169D01*
X213221136Y-122116956D01*
X213278093Y-122036413D01*
X213355209Y-121977771D01*
X213446390Y-121942247D01*
X213545543Y-121931057D01*
X213646576Y-121945419D01*
G36*
X213646576Y-121945419D02*
G01*
X213743395Y-121986549D01*
X213773890Y-122006571D01*
X213812865Y-122037340D01*
X213837331Y-122061533D01*
X213841578Y-122069413D01*
X213829584Y-122086899D01*
X213798887Y-122116570D01*
X213774312Y-122137279D01*
X213707046Y-122191336D01*
X213653930Y-122146642D01*
X213612884Y-122117789D01*
X213572863Y-122107829D01*
X213527059Y-122110261D01*
X213454324Y-122128345D01*
X213404256Y-122165881D01*
X213373829Y-122226562D01*
X213360017Y-122314081D01*
X213360013Y-122314136D01*
X213361208Y-122411958D01*
X213379772Y-122483730D01*
X213416804Y-122532595D01*
X213442050Y-122549143D01*
X213509097Y-122569749D01*
X213580709Y-122569762D01*
X213643015Y-122549768D01*
X213657763Y-122540000D01*
X213694750Y-122515047D01*
X213723668Y-122510958D01*
X213754856Y-122529530D01*
X213789336Y-122562887D01*
X213843912Y-122619196D01*
X213783318Y-122669142D01*
X213689698Y-122725513D01*
X213584125Y-122753293D01*
X213473798Y-122751282D01*
X213401343Y-122732862D01*
X213316656Y-122687310D01*
X213248927Y-122615650D01*
X213218157Y-122565066D01*
X213193236Y-122492488D01*
X213180766Y-122400569D01*
X213180670Y-122300948D01*
X213192870Y-122205267D01*
X213217290Y-122125169D01*
X213221136Y-122116956D01*
X213278093Y-122036413D01*
X213355209Y-121977771D01*
X213446390Y-121942247D01*
X213545543Y-121931057D01*
X213646576Y-121945419D01*
G37*
X211511669Y-121948310D02*
X211596192Y-121994340D01*
X211662321Y-122067006D01*
X211693478Y-122126106D01*
X211706855Y-122178305D01*
X211715522Y-122252719D01*
X211719237Y-122338442D01*
X211717754Y-122424569D01*
X211710831Y-122500193D01*
X211702745Y-122540584D01*
X211675465Y-122595840D01*
X211628220Y-122654530D01*
X211571282Y-122705852D01*
X211514924Y-122739005D01*
X211513550Y-122739531D01*
X211443616Y-122754018D01*
X211360737Y-122754377D01*
X211281977Y-122741188D01*
X211251566Y-122730617D01*
X211173239Y-122686201D01*
X211117143Y-122628007D01*
X211080286Y-122550965D01*
X211059680Y-122450001D01*
X211055018Y-122397116D01*
X211055613Y-122330663D01*
X211234736Y-122330663D01*
X211240770Y-122427630D01*
X211258138Y-122501523D01*
X211285740Y-122548736D01*
X211305404Y-122562237D01*
X211355787Y-122571651D01*
X211415673Y-122568864D01*
X211467449Y-122555316D01*
X211481027Y-122547862D01*
X211516849Y-122504451D01*
X211540493Y-122438014D01*
X211550558Y-122357161D01*
X211545642Y-122270502D01*
X211534655Y-122218349D01*
X211503109Y-122157951D01*
X211453311Y-122120197D01*
X211393337Y-122107143D01*
X211331264Y-122120849D01*
X211283582Y-122154372D01*
X211258525Y-122182031D01*
X211243900Y-122209294D01*
X211236929Y-122246190D01*
X211234833Y-122302750D01*
X211234736Y-122330663D01*
X211055613Y-122330663D01*
X211056282Y-122255994D01*
X211079265Y-122140271D01*
X211123972Y-122049941D01*
X211190405Y-121985000D01*
X211278565Y-121945445D01*
X211297495Y-121940858D01*
X211411266Y-121930090D01*
X211511669Y-121948310D01*
G36*
X211511669Y-121948310D02*
G01*
X211596192Y-121994340D01*
X211662321Y-122067006D01*
X211693478Y-122126106D01*
X211706855Y-122178305D01*
X211715522Y-122252719D01*
X211719237Y-122338442D01*
X211717754Y-122424569D01*
X211710831Y-122500193D01*
X211702745Y-122540584D01*
X211675465Y-122595840D01*
X211628220Y-122654530D01*
X211571282Y-122705852D01*
X211514924Y-122739005D01*
X211513550Y-122739531D01*
X211443616Y-122754018D01*
X211360737Y-122754377D01*
X211281977Y-122741188D01*
X211251566Y-122730617D01*
X211173239Y-122686201D01*
X211117143Y-122628007D01*
X211080286Y-122550965D01*
X211059680Y-122450001D01*
X211055018Y-122397116D01*
X211055613Y-122330663D01*
X211234736Y-122330663D01*
X211240770Y-122427630D01*
X211258138Y-122501523D01*
X211285740Y-122548736D01*
X211305404Y-122562237D01*
X211355787Y-122571651D01*
X211415673Y-122568864D01*
X211467449Y-122555316D01*
X211481027Y-122547862D01*
X211516849Y-122504451D01*
X211540493Y-122438014D01*
X211550558Y-122357161D01*
X211545642Y-122270502D01*
X211534655Y-122218349D01*
X211503109Y-122157951D01*
X211453311Y-122120197D01*
X211393337Y-122107143D01*
X211331264Y-122120849D01*
X211283582Y-122154372D01*
X211258525Y-122182031D01*
X211243900Y-122209294D01*
X211236929Y-122246190D01*
X211234833Y-122302750D01*
X211234736Y-122330663D01*
X211055613Y-122330663D01*
X211056282Y-122255994D01*
X211079265Y-122140271D01*
X211123972Y-122049941D01*
X211190405Y-121985000D01*
X211278565Y-121945445D01*
X211297495Y-121940858D01*
X211411266Y-121930090D01*
X211511669Y-121948310D01*
G37*
X211074130Y-123195104D02*
X211140220Y-123200066D01*
X211226626Y-123459079D01*
X211313031Y-123718092D01*
X211340124Y-123626184D01*
X211356428Y-123569384D01*
X211377875Y-123492625D01*
X211401035Y-123408251D01*
X211413280Y-123362993D01*
X211459344Y-123191710D01*
X211649387Y-123191710D01*
X211592582Y-123371349D01*
X211564607Y-123459704D01*
X211530813Y-123566281D01*
X211495520Y-123677454D01*
X211464013Y-123776579D01*
X211392250Y-124002171D01*
X211237286Y-124012253D01*
X211195270Y-123873528D01*
X211169359Y-123787351D01*
X211141083Y-123692347D01*
X211116369Y-123608441D01*
X211115394Y-123605102D01*
X211096935Y-123548248D01*
X211080649Y-123509456D01*
X211069242Y-123494787D01*
X211066898Y-123496483D01*
X211058671Y-123519225D01*
X211043038Y-123567940D01*
X211021904Y-123636502D01*
X210997170Y-123718785D01*
X210983787Y-123764046D01*
X210911311Y-124010526D01*
X210757495Y-124010526D01*
X210634531Y-123622006D01*
X210599988Y-123513022D01*
X210568521Y-123414048D01*
X210541616Y-123329736D01*
X210520759Y-123264734D01*
X210507438Y-123223692D01*
X210503388Y-123211701D01*
X210506594Y-123199423D01*
X210531765Y-123194046D01*
X210584146Y-123194584D01*
X210592345Y-123194990D01*
X210689482Y-123200066D01*
X210753100Y-123434013D01*
X210776484Y-123519333D01*
X210797381Y-123594335D01*
X210813951Y-123652507D01*
X210824354Y-123687337D01*
X210826276Y-123693016D01*
X210834241Y-123686486D01*
X210850304Y-123652654D01*
X210872621Y-123596127D01*
X210899345Y-123521510D01*
X210921937Y-123454107D01*
X211008041Y-123190143D01*
X211074130Y-123195104D01*
G36*
X211074130Y-123195104D02*
G01*
X211140220Y-123200066D01*
X211226626Y-123459079D01*
X211313031Y-123718092D01*
X211340124Y-123626184D01*
X211356428Y-123569384D01*
X211377875Y-123492625D01*
X211401035Y-123408251D01*
X211413280Y-123362993D01*
X211459344Y-123191710D01*
X211649387Y-123191710D01*
X211592582Y-123371349D01*
X211564607Y-123459704D01*
X211530813Y-123566281D01*
X211495520Y-123677454D01*
X211464013Y-123776579D01*
X211392250Y-124002171D01*
X211237286Y-124012253D01*
X211195270Y-123873528D01*
X211169359Y-123787351D01*
X211141083Y-123692347D01*
X211116369Y-123608441D01*
X211115394Y-123605102D01*
X211096935Y-123548248D01*
X211080649Y-123509456D01*
X211069242Y-123494787D01*
X211066898Y-123496483D01*
X211058671Y-123519225D01*
X211043038Y-123567940D01*
X211021904Y-123636502D01*
X210997170Y-123718785D01*
X210983787Y-123764046D01*
X210911311Y-124010526D01*
X210757495Y-124010526D01*
X210634531Y-123622006D01*
X210599988Y-123513022D01*
X210568521Y-123414048D01*
X210541616Y-123329736D01*
X210520759Y-123264734D01*
X210507438Y-123223692D01*
X210503388Y-123211701D01*
X210506594Y-123199423D01*
X210531765Y-123194046D01*
X210584146Y-123194584D01*
X210592345Y-123194990D01*
X210689482Y-123200066D01*
X210753100Y-123434013D01*
X210776484Y-123519333D01*
X210797381Y-123594335D01*
X210813951Y-123652507D01*
X210824354Y-123687337D01*
X210826276Y-123693016D01*
X210834241Y-123686486D01*
X210850304Y-123652654D01*
X210872621Y-123596127D01*
X210899345Y-123521510D01*
X210921937Y-123454107D01*
X211008041Y-123190143D01*
X211074130Y-123195104D01*
G37*
X207326784Y-121947104D02*
X207414205Y-121985754D01*
X207480570Y-122050290D01*
X207525976Y-122140812D01*
X207550518Y-122257418D01*
X207552277Y-122275624D01*
X207553656Y-122403984D01*
X207535784Y-122516496D01*
X207499750Y-122607688D01*
X207480455Y-122637022D01*
X207413245Y-122699106D01*
X207327650Y-122739316D01*
X207231890Y-122756003D01*
X207134187Y-122747517D01*
X207059917Y-122721380D01*
X206996047Y-122677335D01*
X206943846Y-122619587D01*
X206942943Y-122618236D01*
X206921744Y-122582593D01*
X206907967Y-122546752D01*
X206899624Y-122501519D01*
X206894727Y-122437701D01*
X206892569Y-122385368D01*
X206891671Y-122337910D01*
X207058743Y-122337910D01*
X207060376Y-122385154D01*
X207066304Y-122448046D01*
X207076761Y-122488407D01*
X207095619Y-122517122D01*
X207113281Y-122533896D01*
X207175894Y-122569016D01*
X207241408Y-122573710D01*
X207302421Y-122548440D01*
X207332928Y-122520124D01*
X207354911Y-122491589D01*
X207367769Y-122464284D01*
X207373412Y-122428750D01*
X207373751Y-122375524D01*
X207372012Y-122326506D01*
X207368271Y-122256482D01*
X207362341Y-122211064D01*
X207351653Y-122181440D01*
X207333639Y-122158797D01*
X207319363Y-122145855D01*
X207259651Y-122111860D01*
X207195234Y-122110165D01*
X207141219Y-122130301D01*
X207095140Y-122172352D01*
X207067689Y-122241428D01*
X207058743Y-122337910D01*
X206891671Y-122337910D01*
X206890599Y-122281299D01*
X206893964Y-122203468D01*
X206904045Y-122144930D01*
X206922226Y-122098737D01*
X206949890Y-122057942D01*
X206960146Y-122045828D01*
X207024278Y-121985474D01*
X207093066Y-121950220D01*
X207177189Y-121935450D01*
X207218209Y-121934243D01*
X207326784Y-121947104D01*
G36*
X207326784Y-121947104D02*
G01*
X207414205Y-121985754D01*
X207480570Y-122050290D01*
X207525976Y-122140812D01*
X207550518Y-122257418D01*
X207552277Y-122275624D01*
X207553656Y-122403984D01*
X207535784Y-122516496D01*
X207499750Y-122607688D01*
X207480455Y-122637022D01*
X207413245Y-122699106D01*
X207327650Y-122739316D01*
X207231890Y-122756003D01*
X207134187Y-122747517D01*
X207059917Y-122721380D01*
X206996047Y-122677335D01*
X206943846Y-122619587D01*
X206942943Y-122618236D01*
X206921744Y-122582593D01*
X206907967Y-122546752D01*
X206899624Y-122501519D01*
X206894727Y-122437701D01*
X206892569Y-122385368D01*
X206891671Y-122337910D01*
X207058743Y-122337910D01*
X207060376Y-122385154D01*
X207066304Y-122448046D01*
X207076761Y-122488407D01*
X207095619Y-122517122D01*
X207113281Y-122533896D01*
X207175894Y-122569016D01*
X207241408Y-122573710D01*
X207302421Y-122548440D01*
X207332928Y-122520124D01*
X207354911Y-122491589D01*
X207367769Y-122464284D01*
X207373412Y-122428750D01*
X207373751Y-122375524D01*
X207372012Y-122326506D01*
X207368271Y-122256482D01*
X207362341Y-122211064D01*
X207351653Y-122181440D01*
X207333639Y-122158797D01*
X207319363Y-122145855D01*
X207259651Y-122111860D01*
X207195234Y-122110165D01*
X207141219Y-122130301D01*
X207095140Y-122172352D01*
X207067689Y-122241428D01*
X207058743Y-122337910D01*
X206891671Y-122337910D01*
X206890599Y-122281299D01*
X206893964Y-122203468D01*
X206904045Y-122144930D01*
X206922226Y-122098737D01*
X206949890Y-122057942D01*
X206960146Y-122045828D01*
X207024278Y-121985474D01*
X207093066Y-121950220D01*
X207177189Y-121935450D01*
X207218209Y-121934243D01*
X207326784Y-121947104D01*
G37*
X210432631Y-124010526D02*
X210340723Y-124010526D01*
X210287377Y-124008962D01*
X210259593Y-124002485D01*
X210249590Y-123988418D01*
X210248815Y-123978906D01*
X210247128Y-123959832D01*
X210236490Y-123956174D01*
X210208535Y-123967932D01*
X210186795Y-123978906D01*
X210103332Y-124004911D01*
X210012604Y-124006416D01*
X209938842Y-123987021D01*
X209870154Y-123940165D01*
X209817794Y-123871004D01*
X209789122Y-123789427D01*
X209788392Y-123784866D01*
X209784132Y-123735101D01*
X209782014Y-123663659D01*
X209782184Y-123609626D01*
X209964720Y-123609626D01*
X209968949Y-123681441D01*
X209978568Y-123740634D01*
X209991590Y-123774060D01*
X210040856Y-123819740D01*
X210099350Y-123836115D01*
X210159671Y-123822873D01*
X210211217Y-123783373D01*
X210230738Y-123756807D01*
X210242152Y-123725106D01*
X210247498Y-123678832D01*
X210248815Y-123609328D01*
X210246458Y-123540499D01*
X210240233Y-123480026D01*
X210231408Y-123439556D01*
X210229937Y-123435929D01*
X210194347Y-123392802D01*
X210142400Y-123369124D01*
X210084278Y-123365301D01*
X210030160Y-123381738D01*
X209990226Y-123418840D01*
X209986083Y-123426222D01*
X209973116Y-123471239D01*
X209966052Y-123535967D01*
X209964720Y-123609626D01*
X209782184Y-123609626D01*
X209782271Y-123582230D01*
X209783472Y-123538405D01*
X209791645Y-123429988D01*
X209808630Y-123348588D01*
X209836887Y-123288412D01*
X209878872Y-123243666D01*
X209919632Y-123217400D01*
X209976581Y-123198935D01*
X210047411Y-123192602D01*
X210119941Y-123197760D01*
X210181986Y-123213769D01*
X210214768Y-123232920D01*
X210248815Y-123263732D01*
X210248815Y-122874210D01*
X210432631Y-122874210D01*
X210432631Y-124010526D01*
G36*
X210432631Y-124010526D02*
G01*
X210340723Y-124010526D01*
X210287377Y-124008962D01*
X210259593Y-124002485D01*
X210249590Y-123988418D01*
X210248815Y-123978906D01*
X210247128Y-123959832D01*
X210236490Y-123956174D01*
X210208535Y-123967932D01*
X210186795Y-123978906D01*
X210103332Y-124004911D01*
X210012604Y-124006416D01*
X209938842Y-123987021D01*
X209870154Y-123940165D01*
X209817794Y-123871004D01*
X209789122Y-123789427D01*
X209788392Y-123784866D01*
X209784132Y-123735101D01*
X209782014Y-123663659D01*
X209782184Y-123609626D01*
X209964720Y-123609626D01*
X209968949Y-123681441D01*
X209978568Y-123740634D01*
X209991590Y-123774060D01*
X210040856Y-123819740D01*
X210099350Y-123836115D01*
X210159671Y-123822873D01*
X210211217Y-123783373D01*
X210230738Y-123756807D01*
X210242152Y-123725106D01*
X210247498Y-123678832D01*
X210248815Y-123609328D01*
X210246458Y-123540499D01*
X210240233Y-123480026D01*
X210231408Y-123439556D01*
X210229937Y-123435929D01*
X210194347Y-123392802D01*
X210142400Y-123369124D01*
X210084278Y-123365301D01*
X210030160Y-123381738D01*
X209990226Y-123418840D01*
X209986083Y-123426222D01*
X209973116Y-123471239D01*
X209966052Y-123535967D01*
X209964720Y-123609626D01*
X209782184Y-123609626D01*
X209782271Y-123582230D01*
X209783472Y-123538405D01*
X209791645Y-123429988D01*
X209808630Y-123348588D01*
X209836887Y-123288412D01*
X209878872Y-123243666D01*
X209919632Y-123217400D01*
X209976581Y-123198935D01*
X210047411Y-123192602D01*
X210119941Y-123197760D01*
X210181986Y-123213769D01*
X210214768Y-123232920D01*
X210248815Y-123263732D01*
X210248815Y-122874210D01*
X210432631Y-122874210D01*
X210432631Y-124010526D01*
G37*
X214258784Y-121935554D02*
X214301574Y-121945949D01*
X214383609Y-121984013D01*
X214453757Y-122042149D01*
X214502305Y-122111852D01*
X214508975Y-122127502D01*
X214518124Y-122168496D01*
X214524529Y-122229138D01*
X214526710Y-122290430D01*
X214526710Y-122406316D01*
X214284407Y-122406316D01*
X214184471Y-122406693D01*
X214114069Y-122408987D01*
X214069313Y-122414938D01*
X214046315Y-122426285D01*
X214041189Y-122444771D01*
X214050048Y-122472136D01*
X214065917Y-122504155D01*
X214110184Y-122557592D01*
X214171699Y-122584215D01*
X214246885Y-122583347D01*
X214332053Y-122554371D01*
X214405659Y-122518611D01*
X214466734Y-122566904D01*
X214527810Y-122615197D01*
X214470351Y-122668285D01*
X214393641Y-122718445D01*
X214299302Y-122748688D01*
X214197827Y-122757151D01*
X214099711Y-122741974D01*
X214083881Y-122736824D01*
X213997647Y-122691791D01*
X213933501Y-122624652D01*
X213890091Y-122533405D01*
X213866064Y-122416044D01*
X213865784Y-122413529D01*
X213863633Y-122285627D01*
X213872329Y-122239997D01*
X214042105Y-122239997D01*
X214057697Y-122247013D01*
X214100029Y-122252388D01*
X214162434Y-122255457D01*
X214201981Y-122255921D01*
X214275728Y-122255630D01*
X214321840Y-122253783D01*
X214346100Y-122248912D01*
X214354294Y-122239555D01*
X214352206Y-122224245D01*
X214350455Y-122218322D01*
X214320560Y-122162668D01*
X214273542Y-122117815D01*
X214232049Y-122098105D01*
X214176926Y-122099295D01*
X214121068Y-122123875D01*
X214074212Y-122164570D01*
X214046094Y-122214108D01*
X214042105Y-122239997D01*
X213872329Y-122239997D01*
X213885074Y-122173133D01*
X213927611Y-122078727D01*
X213988747Y-122005088D01*
X214065985Y-121954893D01*
X214156830Y-121930822D01*
X214258784Y-121935554D01*
G36*
X214258784Y-121935554D02*
G01*
X214301574Y-121945949D01*
X214383609Y-121984013D01*
X214453757Y-122042149D01*
X214502305Y-122111852D01*
X214508975Y-122127502D01*
X214518124Y-122168496D01*
X214524529Y-122229138D01*
X214526710Y-122290430D01*
X214526710Y-122406316D01*
X214284407Y-122406316D01*
X214184471Y-122406693D01*
X214114069Y-122408987D01*
X214069313Y-122414938D01*
X214046315Y-122426285D01*
X214041189Y-122444771D01*
X214050048Y-122472136D01*
X214065917Y-122504155D01*
X214110184Y-122557592D01*
X214171699Y-122584215D01*
X214246885Y-122583347D01*
X214332053Y-122554371D01*
X214405659Y-122518611D01*
X214466734Y-122566904D01*
X214527810Y-122615197D01*
X214470351Y-122668285D01*
X214393641Y-122718445D01*
X214299302Y-122748688D01*
X214197827Y-122757151D01*
X214099711Y-122741974D01*
X214083881Y-122736824D01*
X213997647Y-122691791D01*
X213933501Y-122624652D01*
X213890091Y-122533405D01*
X213866064Y-122416044D01*
X213865784Y-122413529D01*
X213863633Y-122285627D01*
X213872329Y-122239997D01*
X214042105Y-122239997D01*
X214057697Y-122247013D01*
X214100029Y-122252388D01*
X214162434Y-122255457D01*
X214201981Y-122255921D01*
X214275728Y-122255630D01*
X214321840Y-122253783D01*
X214346100Y-122248912D01*
X214354294Y-122239555D01*
X214352206Y-122224245D01*
X214350455Y-122218322D01*
X214320560Y-122162668D01*
X214273542Y-122117815D01*
X214232049Y-122098105D01*
X214176926Y-122099295D01*
X214121068Y-122123875D01*
X214074212Y-122164570D01*
X214046094Y-122214108D01*
X214042105Y-122239997D01*
X213872329Y-122239997D01*
X213885074Y-122173133D01*
X213927611Y-122078727D01*
X213988747Y-122005088D01*
X214065985Y-121954893D01*
X214156830Y-121930822D01*
X214258784Y-121935554D01*
G37*
X210718628Y-121935547D02*
X210781908Y-121947548D01*
X210847557Y-121972648D01*
X210854572Y-121975848D01*
X210904356Y-122002026D01*
X210938834Y-122026353D01*
X210949978Y-122041937D01*
X210939366Y-122067353D01*
X210913588Y-122104853D01*
X210902146Y-122118852D01*
X210854992Y-122173954D01*
X210794201Y-122138086D01*
X210736347Y-122114192D01*
X210669500Y-122101420D01*
X210605394Y-122100613D01*
X210555764Y-122112615D01*
X210543854Y-122120105D01*
X210521172Y-122154450D01*
X210518416Y-122194013D01*
X210535388Y-122224920D01*
X210545427Y-122230913D01*
X210575510Y-122238357D01*
X210628389Y-122247106D01*
X210693575Y-122255467D01*
X210705600Y-122256778D01*
X210810297Y-122274888D01*
X210886232Y-122305651D01*
X210936592Y-122351907D01*
X210964564Y-122416497D01*
X210973278Y-122495387D01*
X210961240Y-122585065D01*
X210922151Y-122655486D01*
X210855855Y-122706777D01*
X210762194Y-122739067D01*
X210658223Y-122751807D01*
X210573438Y-122751654D01*
X210504665Y-122740083D01*
X210457697Y-122724109D01*
X210398350Y-122696275D01*
X210343506Y-122663973D01*
X210324013Y-122649755D01*
X210273881Y-122608835D01*
X210394803Y-122486477D01*
X210463543Y-122531967D01*
X210532488Y-122566133D01*
X210606111Y-122584004D01*
X210676883Y-122585889D01*
X210737274Y-122572101D01*
X210779757Y-122542949D01*
X210793474Y-122518352D01*
X210791417Y-122478904D01*
X210757330Y-122448737D01*
X210691308Y-122427906D01*
X210618974Y-122418279D01*
X210507652Y-122399910D01*
X210424952Y-122365254D01*
X210369765Y-122313297D01*
X210340988Y-122243023D01*
X210337001Y-122159707D01*
X210356693Y-122072681D01*
X210401589Y-122006902D01*
X210472091Y-121962068D01*
X210568601Y-121937879D01*
X210640100Y-121933137D01*
X210718628Y-121935547D01*
G36*
X210718628Y-121935547D02*
G01*
X210781908Y-121947548D01*
X210847557Y-121972648D01*
X210854572Y-121975848D01*
X210904356Y-122002026D01*
X210938834Y-122026353D01*
X210949978Y-122041937D01*
X210939366Y-122067353D01*
X210913588Y-122104853D01*
X210902146Y-122118852D01*
X210854992Y-122173954D01*
X210794201Y-122138086D01*
X210736347Y-122114192D01*
X210669500Y-122101420D01*
X210605394Y-122100613D01*
X210555764Y-122112615D01*
X210543854Y-122120105D01*
X210521172Y-122154450D01*
X210518416Y-122194013D01*
X210535388Y-122224920D01*
X210545427Y-122230913D01*
X210575510Y-122238357D01*
X210628389Y-122247106D01*
X210693575Y-122255467D01*
X210705600Y-122256778D01*
X210810297Y-122274888D01*
X210886232Y-122305651D01*
X210936592Y-122351907D01*
X210964564Y-122416497D01*
X210973278Y-122495387D01*
X210961240Y-122585065D01*
X210922151Y-122655486D01*
X210855855Y-122706777D01*
X210762194Y-122739067D01*
X210658223Y-122751807D01*
X210573438Y-122751654D01*
X210504665Y-122740083D01*
X210457697Y-122724109D01*
X210398350Y-122696275D01*
X210343506Y-122663973D01*
X210324013Y-122649755D01*
X210273881Y-122608835D01*
X210394803Y-122486477D01*
X210463543Y-122531967D01*
X210532488Y-122566133D01*
X210606111Y-122584004D01*
X210676883Y-122585889D01*
X210737274Y-122572101D01*
X210779757Y-122542949D01*
X210793474Y-122518352D01*
X210791417Y-122478904D01*
X210757330Y-122448737D01*
X210691308Y-122427906D01*
X210618974Y-122418279D01*
X210507652Y-122399910D01*
X210424952Y-122365254D01*
X210369765Y-122313297D01*
X210340988Y-122243023D01*
X210337001Y-122159707D01*
X210356693Y-122072681D01*
X210401589Y-122006902D01*
X210472091Y-121962068D01*
X210568601Y-121937879D01*
X210640100Y-121933137D01*
X210718628Y-121935547D01*
G37*
X213401193Y-123196078D02*
X213481068Y-123216845D01*
X213547962Y-123259705D01*
X213580351Y-123291723D01*
X213633445Y-123367413D01*
X213663873Y-123455216D01*
X213674327Y-123563150D01*
X213674380Y-123571875D01*
X213674473Y-123659605D01*
X213169534Y-123659605D01*
X213180298Y-123705559D01*
X213199732Y-123747178D01*
X213233745Y-123790544D01*
X213240860Y-123797467D01*
X213302003Y-123834935D01*
X213371729Y-123841289D01*
X213451987Y-123816638D01*
X213465592Y-123810000D01*
X213507319Y-123789819D01*
X213535268Y-123778321D01*
X213540145Y-123777258D01*
X213557168Y-123787583D01*
X213589633Y-123812845D01*
X213606114Y-123826650D01*
X213640264Y-123858361D01*
X213651478Y-123879299D01*
X213643695Y-123898560D01*
X213639535Y-123903827D01*
X213611357Y-123926878D01*
X213564862Y-123954892D01*
X213532434Y-123971246D01*
X213440385Y-124000059D01*
X213338476Y-124009395D01*
X213241963Y-123998332D01*
X213214934Y-123990412D01*
X213131276Y-123945581D01*
X213069266Y-123876598D01*
X213028545Y-123782794D01*
X213008755Y-123663498D01*
X213006582Y-123601118D01*
X213012926Y-123510298D01*
X213173157Y-123510298D01*
X213188655Y-123517012D01*
X213230312Y-123522280D01*
X213290876Y-123525389D01*
X213331907Y-123525921D01*
X213405711Y-123525408D01*
X213452293Y-123523006D01*
X213477848Y-123517422D01*
X213488569Y-123507361D01*
X213490657Y-123492763D01*
X213476331Y-123447796D01*
X213440262Y-123403353D01*
X213392815Y-123369242D01*
X213345349Y-123355288D01*
X213280879Y-123367666D01*
X213225070Y-123403452D01*
X213186374Y-123455033D01*
X213173157Y-123510298D01*
X213012926Y-123510298D01*
X213015821Y-123468866D01*
X213044336Y-123363498D01*
X213092729Y-123284178D01*
X213161604Y-123230071D01*
X213251565Y-123200343D01*
X213300300Y-123194618D01*
X213401193Y-123196078D01*
G36*
X213401193Y-123196078D02*
G01*
X213481068Y-123216845D01*
X213547962Y-123259705D01*
X213580351Y-123291723D01*
X213633445Y-123367413D01*
X213663873Y-123455216D01*
X213674327Y-123563150D01*
X213674380Y-123571875D01*
X213674473Y-123659605D01*
X213169534Y-123659605D01*
X213180298Y-123705559D01*
X213199732Y-123747178D01*
X213233745Y-123790544D01*
X213240860Y-123797467D01*
X213302003Y-123834935D01*
X213371729Y-123841289D01*
X213451987Y-123816638D01*
X213465592Y-123810000D01*
X213507319Y-123789819D01*
X213535268Y-123778321D01*
X213540145Y-123777258D01*
X213557168Y-123787583D01*
X213589633Y-123812845D01*
X213606114Y-123826650D01*
X213640264Y-123858361D01*
X213651478Y-123879299D01*
X213643695Y-123898560D01*
X213639535Y-123903827D01*
X213611357Y-123926878D01*
X213564862Y-123954892D01*
X213532434Y-123971246D01*
X213440385Y-124000059D01*
X213338476Y-124009395D01*
X213241963Y-123998332D01*
X213214934Y-123990412D01*
X213131276Y-123945581D01*
X213069266Y-123876598D01*
X213028545Y-123782794D01*
X213008755Y-123663498D01*
X213006582Y-123601118D01*
X213012926Y-123510298D01*
X213173157Y-123510298D01*
X213188655Y-123517012D01*
X213230312Y-123522280D01*
X213290876Y-123525389D01*
X213331907Y-123525921D01*
X213405711Y-123525408D01*
X213452293Y-123523006D01*
X213477848Y-123517422D01*
X213488569Y-123507361D01*
X213490657Y-123492763D01*
X213476331Y-123447796D01*
X213440262Y-123403353D01*
X213392815Y-123369242D01*
X213345349Y-123355288D01*
X213280879Y-123367666D01*
X213225070Y-123403452D01*
X213186374Y-123455033D01*
X213173157Y-123510298D01*
X213012926Y-123510298D01*
X213015821Y-123468866D01*
X213044336Y-123363498D01*
X213092729Y-123284178D01*
X213161604Y-123230071D01*
X213251565Y-123200343D01*
X213300300Y-123194618D01*
X213401193Y-123196078D01*
G37*
X208897018Y-121957027D02*
X208913670Y-121964866D01*
X208971305Y-122007086D01*
X209025805Y-122068700D01*
X209066499Y-122136543D01*
X209078074Y-122167734D01*
X209088634Y-122223449D01*
X209094931Y-122290781D01*
X209095696Y-122318585D01*
X209095789Y-122406316D01*
X208590850Y-122406316D01*
X208601613Y-122452270D01*
X208628033Y-122506620D01*
X208674222Y-122553591D01*
X208729172Y-122583848D01*
X208764189Y-122590131D01*
X208811677Y-122582506D01*
X208868335Y-122563383D01*
X208887582Y-122554584D01*
X208958759Y-122519036D01*
X209019502Y-122565367D01*
X209054552Y-122596703D01*
X209073202Y-122622567D01*
X209074147Y-122630158D01*
X209057485Y-122648556D01*
X209020970Y-122676515D01*
X208987828Y-122698327D01*
X208898393Y-122737537D01*
X208798129Y-122755285D01*
X208698754Y-122750670D01*
X208619539Y-122726551D01*
X208537880Y-122674884D01*
X208479849Y-122606856D01*
X208443546Y-122518843D01*
X208427072Y-122407216D01*
X208425611Y-122356138D01*
X208431457Y-122239091D01*
X208432175Y-122235686D01*
X208599489Y-122235686D01*
X208604097Y-122246662D01*
X208623036Y-122252715D01*
X208662098Y-122255310D01*
X208727077Y-122255910D01*
X208752097Y-122255921D01*
X208828221Y-122255014D01*
X208876496Y-122251720D01*
X208902460Y-122245181D01*
X208911648Y-122234537D01*
X208911973Y-122231119D01*
X208901487Y-122203956D01*
X208875242Y-122165903D01*
X208863959Y-122152579D01*
X208822072Y-122114896D01*
X208778409Y-122100080D01*
X208754885Y-122098842D01*
X208691243Y-122114329D01*
X208637873Y-122155930D01*
X208604019Y-122216353D01*
X208603419Y-122218322D01*
X208599489Y-122235686D01*
X208432175Y-122235686D01*
X208450899Y-122146928D01*
X208485922Y-122073190D01*
X208528756Y-122020848D01*
X208607948Y-121964092D01*
X208701040Y-121933762D01*
X208800055Y-121931021D01*
X208897018Y-121957027D01*
G36*
X208897018Y-121957027D02*
G01*
X208913670Y-121964866D01*
X208971305Y-122007086D01*
X209025805Y-122068700D01*
X209066499Y-122136543D01*
X209078074Y-122167734D01*
X209088634Y-122223449D01*
X209094931Y-122290781D01*
X209095696Y-122318585D01*
X209095789Y-122406316D01*
X208590850Y-122406316D01*
X208601613Y-122452270D01*
X208628033Y-122506620D01*
X208674222Y-122553591D01*
X208729172Y-122583848D01*
X208764189Y-122590131D01*
X208811677Y-122582506D01*
X208868335Y-122563383D01*
X208887582Y-122554584D01*
X208958759Y-122519036D01*
X209019502Y-122565367D01*
X209054552Y-122596703D01*
X209073202Y-122622567D01*
X209074147Y-122630158D01*
X209057485Y-122648556D01*
X209020970Y-122676515D01*
X208987828Y-122698327D01*
X208898393Y-122737537D01*
X208798129Y-122755285D01*
X208698754Y-122750670D01*
X208619539Y-122726551D01*
X208537880Y-122674884D01*
X208479849Y-122606856D01*
X208443546Y-122518843D01*
X208427072Y-122407216D01*
X208425611Y-122356138D01*
X208431457Y-122239091D01*
X208432175Y-122235686D01*
X208599489Y-122235686D01*
X208604097Y-122246662D01*
X208623036Y-122252715D01*
X208662098Y-122255310D01*
X208727077Y-122255910D01*
X208752097Y-122255921D01*
X208828221Y-122255014D01*
X208876496Y-122251720D01*
X208902460Y-122245181D01*
X208911648Y-122234537D01*
X208911973Y-122231119D01*
X208901487Y-122203956D01*
X208875242Y-122165903D01*
X208863959Y-122152579D01*
X208822072Y-122114896D01*
X208778409Y-122100080D01*
X208754885Y-122098842D01*
X208691243Y-122114329D01*
X208637873Y-122155930D01*
X208604019Y-122216353D01*
X208603419Y-122218322D01*
X208599489Y-122235686D01*
X208432175Y-122235686D01*
X208450899Y-122146928D01*
X208485922Y-122073190D01*
X208528756Y-122020848D01*
X208607948Y-121964092D01*
X208701040Y-121933762D01*
X208800055Y-121931021D01*
X208897018Y-121957027D01*
G37*
X212079992Y-123196673D02*
X212150427Y-123213780D01*
X212170787Y-123222844D01*
X212210253Y-123246583D01*
X212240541Y-123273321D01*
X212262952Y-123307699D01*
X212278786Y-123354360D01*
X212289343Y-123417946D01*
X212295924Y-123503099D01*
X212299828Y-123614462D01*
X212301310Y-123688849D01*
X212306765Y-124010526D01*
X212213580Y-124010526D01*
X212157047Y-124008156D01*
X212127922Y-124000055D01*
X212120394Y-123986451D01*
X212116420Y-123971741D01*
X212098652Y-123974554D01*
X212074440Y-123986348D01*
X212013828Y-124004427D01*
X211935929Y-124009299D01*
X211853995Y-124001330D01*
X211781281Y-123980889D01*
X211774759Y-123978051D01*
X211708302Y-123931365D01*
X211664491Y-123866464D01*
X211644332Y-123790600D01*
X211645872Y-123763344D01*
X211810345Y-123763344D01*
X211824837Y-123800024D01*
X211867805Y-123826309D01*
X211937129Y-123840417D01*
X211974177Y-123842290D01*
X212035919Y-123837494D01*
X212076960Y-123818858D01*
X212086973Y-123810000D01*
X212114100Y-123761806D01*
X212120394Y-123718092D01*
X212120394Y-123659605D01*
X212038930Y-123659605D01*
X211944234Y-123664432D01*
X211877813Y-123679613D01*
X211835846Y-123706200D01*
X211826449Y-123718052D01*
X211810345Y-123763344D01*
X211645872Y-123763344D01*
X211648829Y-123711026D01*
X211678985Y-123634995D01*
X211720131Y-123583612D01*
X211745052Y-123561397D01*
X211769448Y-123546798D01*
X211801191Y-123537897D01*
X211848152Y-123532775D01*
X211918204Y-123529515D01*
X211945990Y-123528577D01*
X212120394Y-123522879D01*
X212120138Y-123470091D01*
X212113384Y-123414603D01*
X212088964Y-123381052D01*
X212039630Y-123359618D01*
X212038306Y-123359236D01*
X211968360Y-123350808D01*
X211899914Y-123361816D01*
X211849047Y-123388585D01*
X211828637Y-123401803D01*
X211806654Y-123399974D01*
X211772826Y-123380824D01*
X211752961Y-123367308D01*
X211714106Y-123338432D01*
X211690038Y-123316786D01*
X211686176Y-123310589D01*
X211702079Y-123278519D01*
X211749065Y-123240219D01*
X211769473Y-123227297D01*
X211828143Y-123205041D01*
X211907212Y-123192432D01*
X211995041Y-123189600D01*
X212079992Y-123196673D01*
G36*
X212079992Y-123196673D02*
G01*
X212150427Y-123213780D01*
X212170787Y-123222844D01*
X212210253Y-123246583D01*
X212240541Y-123273321D01*
X212262952Y-123307699D01*
X212278786Y-123354360D01*
X212289343Y-123417946D01*
X212295924Y-123503099D01*
X212299828Y-123614462D01*
X212301310Y-123688849D01*
X212306765Y-124010526D01*
X212213580Y-124010526D01*
X212157047Y-124008156D01*
X212127922Y-124000055D01*
X212120394Y-123986451D01*
X212116420Y-123971741D01*
X212098652Y-123974554D01*
X212074440Y-123986348D01*
X212013828Y-124004427D01*
X211935929Y-124009299D01*
X211853995Y-124001330D01*
X211781281Y-123980889D01*
X211774759Y-123978051D01*
X211708302Y-123931365D01*
X211664491Y-123866464D01*
X211644332Y-123790600D01*
X211645872Y-123763344D01*
X211810345Y-123763344D01*
X211824837Y-123800024D01*
X211867805Y-123826309D01*
X211937129Y-123840417D01*
X211974177Y-123842290D01*
X212035919Y-123837494D01*
X212076960Y-123818858D01*
X212086973Y-123810000D01*
X212114100Y-123761806D01*
X212120394Y-123718092D01*
X212120394Y-123659605D01*
X212038930Y-123659605D01*
X211944234Y-123664432D01*
X211877813Y-123679613D01*
X211835846Y-123706200D01*
X211826449Y-123718052D01*
X211810345Y-123763344D01*
X211645872Y-123763344D01*
X211648829Y-123711026D01*
X211678985Y-123634995D01*
X211720131Y-123583612D01*
X211745052Y-123561397D01*
X211769448Y-123546798D01*
X211801191Y-123537897D01*
X211848152Y-123532775D01*
X211918204Y-123529515D01*
X211945990Y-123528577D01*
X212120394Y-123522879D01*
X212120138Y-123470091D01*
X212113384Y-123414603D01*
X212088964Y-123381052D01*
X212039630Y-123359618D01*
X212038306Y-123359236D01*
X211968360Y-123350808D01*
X211899914Y-123361816D01*
X211849047Y-123388585D01*
X211828637Y-123401803D01*
X211806654Y-123399974D01*
X211772826Y-123380824D01*
X211752961Y-123367308D01*
X211714106Y-123338432D01*
X211690038Y-123316786D01*
X211686176Y-123310589D01*
X211702079Y-123278519D01*
X211749065Y-123240219D01*
X211769473Y-123227297D01*
X211828143Y-123205041D01*
X211907212Y-123192432D01*
X211995041Y-123189600D01*
X212079992Y-123196673D01*
G37*
X208860457Y-123198184D02*
X208939070Y-123219160D01*
X208998916Y-123257180D01*
X209041147Y-123306978D01*
X209054275Y-123328230D01*
X209063968Y-123350492D01*
X209070744Y-123378970D01*
X209075123Y-123418871D01*
X209077624Y-123475401D01*
X209078768Y-123553767D01*
X209079072Y-123659176D01*
X209079078Y-123687142D01*
X209079078Y-124010526D01*
X208998868Y-124010526D01*
X208947706Y-124006943D01*
X208909877Y-123997866D01*
X208900399Y-123992268D01*
X208874488Y-123982606D01*
X208848024Y-123992268D01*
X208804452Y-124004330D01*
X208741160Y-124009185D01*
X208671010Y-124007078D01*
X208606860Y-123998256D01*
X208569407Y-123986937D01*
X208496933Y-123940412D01*
X208451640Y-123875846D01*
X208431278Y-123790000D01*
X208431088Y-123787796D01*
X208432875Y-123749713D01*
X208594473Y-123749713D01*
X208608601Y-123793030D01*
X208631612Y-123817408D01*
X208677804Y-123835845D01*
X208738775Y-123843205D01*
X208800949Y-123839583D01*
X208850751Y-123825074D01*
X208864703Y-123815765D01*
X208889085Y-123772753D01*
X208895263Y-123723857D01*
X208895263Y-123659605D01*
X208802818Y-123659605D01*
X208714995Y-123666366D01*
X208648418Y-123685520D01*
X208607002Y-123715376D01*
X208594473Y-123749713D01*
X208432875Y-123749713D01*
X208435490Y-123694004D01*
X208466424Y-123619847D01*
X208524581Y-123563767D01*
X208532620Y-123558665D01*
X208567163Y-123542055D01*
X208609918Y-123531996D01*
X208669686Y-123527107D01*
X208740690Y-123525983D01*
X208895263Y-123525921D01*
X208895263Y-123461125D01*
X208888706Y-123410850D01*
X208871975Y-123377169D01*
X208870016Y-123375376D01*
X208832783Y-123360642D01*
X208776580Y-123354931D01*
X208714467Y-123357737D01*
X208659510Y-123368556D01*
X208626899Y-123384782D01*
X208609228Y-123397780D01*
X208590569Y-123400262D01*
X208564819Y-123389613D01*
X208525873Y-123363218D01*
X208467630Y-123318465D01*
X208462284Y-123314273D01*
X208465023Y-123298760D01*
X208487876Y-123272960D01*
X208522609Y-123244289D01*
X208560990Y-123220166D01*
X208573048Y-123214470D01*
X208617034Y-123203103D01*
X208681487Y-123194995D01*
X208753497Y-123191743D01*
X208756864Y-123191736D01*
X208860457Y-123198184D01*
G36*
X208860457Y-123198184D02*
G01*
X208939070Y-123219160D01*
X208998916Y-123257180D01*
X209041147Y-123306978D01*
X209054275Y-123328230D01*
X209063968Y-123350492D01*
X209070744Y-123378970D01*
X209075123Y-123418871D01*
X209077624Y-123475401D01*
X209078768Y-123553767D01*
X209079072Y-123659176D01*
X209079078Y-123687142D01*
X209079078Y-124010526D01*
X208998868Y-124010526D01*
X208947706Y-124006943D01*
X208909877Y-123997866D01*
X208900399Y-123992268D01*
X208874488Y-123982606D01*
X208848024Y-123992268D01*
X208804452Y-124004330D01*
X208741160Y-124009185D01*
X208671010Y-124007078D01*
X208606860Y-123998256D01*
X208569407Y-123986937D01*
X208496933Y-123940412D01*
X208451640Y-123875846D01*
X208431278Y-123790000D01*
X208431088Y-123787796D01*
X208432875Y-123749713D01*
X208594473Y-123749713D01*
X208608601Y-123793030D01*
X208631612Y-123817408D01*
X208677804Y-123835845D01*
X208738775Y-123843205D01*
X208800949Y-123839583D01*
X208850751Y-123825074D01*
X208864703Y-123815765D01*
X208889085Y-123772753D01*
X208895263Y-123723857D01*
X208895263Y-123659605D01*
X208802818Y-123659605D01*
X208714995Y-123666366D01*
X208648418Y-123685520D01*
X208607002Y-123715376D01*
X208594473Y-123749713D01*
X208432875Y-123749713D01*
X208435490Y-123694004D01*
X208466424Y-123619847D01*
X208524581Y-123563767D01*
X208532620Y-123558665D01*
X208567163Y-123542055D01*
X208609918Y-123531996D01*
X208669686Y-123527107D01*
X208740690Y-123525983D01*
X208895263Y-123525921D01*
X208895263Y-123461125D01*
X208888706Y-123410850D01*
X208871975Y-123377169D01*
X208870016Y-123375376D01*
X208832783Y-123360642D01*
X208776580Y-123354931D01*
X208714467Y-123357737D01*
X208659510Y-123368556D01*
X208626899Y-123384782D01*
X208609228Y-123397780D01*
X208590569Y-123400262D01*
X208564819Y-123389613D01*
X208525873Y-123363218D01*
X208467630Y-123318465D01*
X208462284Y-123314273D01*
X208465023Y-123298760D01*
X208487876Y-123272960D01*
X208522609Y-123244289D01*
X208560990Y-123220166D01*
X208573048Y-123214470D01*
X208617034Y-123203103D01*
X208681487Y-123194995D01*
X208753497Y-123191743D01*
X208756864Y-123191736D01*
X208860457Y-123198184D01*
G37*
X208163360Y-121952468D02*
X208198592Y-121969874D01*
X208242040Y-122000206D01*
X208273706Y-122033283D01*
X208295394Y-122074817D01*
X208308903Y-122130522D01*
X208316038Y-122206111D01*
X208318600Y-122307296D01*
X208318750Y-122350797D01*
X208318312Y-122446135D01*
X208316496Y-122514271D01*
X208312545Y-122561418D01*
X208305702Y-122593790D01*
X208295211Y-122617600D01*
X208284296Y-122633843D01*
X208214619Y-122702952D01*
X208132566Y-122744521D01*
X208044050Y-122757023D01*
X207954981Y-122738934D01*
X207926763Y-122726142D01*
X207859210Y-122690931D01*
X207859210Y-123242700D01*
X207908512Y-123217205D01*
X207973473Y-123197480D01*
X208053320Y-123192427D01*
X208133052Y-123201756D01*
X208193265Y-123222714D01*
X208243208Y-123262627D01*
X208285881Y-123319741D01*
X208289090Y-123325605D01*
X208302622Y-123353227D01*
X208312505Y-123381068D01*
X208319309Y-123414794D01*
X208323601Y-123460071D01*
X208325951Y-123522562D01*
X208326928Y-123607935D01*
X208327105Y-123704010D01*
X208327105Y-124010526D01*
X208143289Y-124010526D01*
X208143289Y-123445339D01*
X208091875Y-123402077D01*
X208038466Y-123367472D01*
X207987888Y-123361180D01*
X207937030Y-123377372D01*
X207909925Y-123393227D01*
X207889751Y-123415810D01*
X207875403Y-123449940D01*
X207865776Y-123500434D01*
X207859763Y-123572111D01*
X207856260Y-123669788D01*
X207855026Y-123734802D01*
X207850855Y-124002171D01*
X207763125Y-124007222D01*
X207675394Y-124012273D01*
X207675394Y-122353101D01*
X207859210Y-122353101D01*
X207863896Y-122445600D01*
X207879688Y-122509809D01*
X207909183Y-122549759D01*
X207954980Y-122569480D01*
X208001250Y-122573421D01*
X208053628Y-122568892D01*
X208088390Y-122551069D01*
X208110128Y-122527519D01*
X208127240Y-122502189D01*
X208137427Y-122473969D01*
X208141960Y-122434431D01*
X208142109Y-122375142D01*
X208140584Y-122325498D01*
X208137081Y-122250710D01*
X208131867Y-122201611D01*
X208123087Y-122170467D01*
X208108886Y-122149545D01*
X208095484Y-122137452D01*
X208039487Y-122111081D01*
X207973211Y-122106822D01*
X207935156Y-122115906D01*
X207897477Y-122148196D01*
X207872519Y-122211006D01*
X207860422Y-122303894D01*
X207859210Y-122353101D01*
X207675394Y-122353101D01*
X207675394Y-121938421D01*
X207767302Y-121938421D01*
X207822483Y-121940603D01*
X207850952Y-121948351D01*
X207859206Y-121963468D01*
X207859210Y-121963916D01*
X207863040Y-121978720D01*
X207879933Y-121977039D01*
X207913519Y-121960772D01*
X207991778Y-121935887D01*
X208079827Y-121933271D01*
X208163360Y-121952468D01*
G36*
X208163360Y-121952468D02*
G01*
X208198592Y-121969874D01*
X208242040Y-122000206D01*
X208273706Y-122033283D01*
X208295394Y-122074817D01*
X208308903Y-122130522D01*
X208316038Y-122206111D01*
X208318600Y-122307296D01*
X208318750Y-122350797D01*
X208318312Y-122446135D01*
X208316496Y-122514271D01*
X208312545Y-122561418D01*
X208305702Y-122593790D01*
X208295211Y-122617600D01*
X208284296Y-122633843D01*
X208214619Y-122702952D01*
X208132566Y-122744521D01*
X208044050Y-122757023D01*
X207954981Y-122738934D01*
X207926763Y-122726142D01*
X207859210Y-122690931D01*
X207859210Y-123242700D01*
X207908512Y-123217205D01*
X207973473Y-123197480D01*
X208053320Y-123192427D01*
X208133052Y-123201756D01*
X208193265Y-123222714D01*
X208243208Y-123262627D01*
X208285881Y-123319741D01*
X208289090Y-123325605D01*
X208302622Y-123353227D01*
X208312505Y-123381068D01*
X208319309Y-123414794D01*
X208323601Y-123460071D01*
X208325951Y-123522562D01*
X208326928Y-123607935D01*
X208327105Y-123704010D01*
X208327105Y-124010526D01*
X208143289Y-124010526D01*
X208143289Y-123445339D01*
X208091875Y-123402077D01*
X208038466Y-123367472D01*
X207987888Y-123361180D01*
X207937030Y-123377372D01*
X207909925Y-123393227D01*
X207889751Y-123415810D01*
X207875403Y-123449940D01*
X207865776Y-123500434D01*
X207859763Y-123572111D01*
X207856260Y-123669788D01*
X207855026Y-123734802D01*
X207850855Y-124002171D01*
X207763125Y-124007222D01*
X207675394Y-124012273D01*
X207675394Y-122353101D01*
X207859210Y-122353101D01*
X207863896Y-122445600D01*
X207879688Y-122509809D01*
X207909183Y-122549759D01*
X207954980Y-122569480D01*
X208001250Y-122573421D01*
X208053628Y-122568892D01*
X208088390Y-122551069D01*
X208110128Y-122527519D01*
X208127240Y-122502189D01*
X208137427Y-122473969D01*
X208141960Y-122434431D01*
X208142109Y-122375142D01*
X208140584Y-122325498D01*
X208137081Y-122250710D01*
X208131867Y-122201611D01*
X208123087Y-122170467D01*
X208108886Y-122149545D01*
X208095484Y-122137452D01*
X208039487Y-122111081D01*
X207973211Y-122106822D01*
X207935156Y-122115906D01*
X207897477Y-122148196D01*
X207872519Y-122211006D01*
X207860422Y-122303894D01*
X207859210Y-122353101D01*
X207675394Y-122353101D01*
X207675394Y-121938421D01*
X207767302Y-121938421D01*
X207822483Y-121940603D01*
X207850952Y-121948351D01*
X207859206Y-121963468D01*
X207859210Y-121963916D01*
X207863040Y-121978720D01*
X207879933Y-121977039D01*
X207913519Y-121960772D01*
X207991778Y-121935887D01*
X208079827Y-121933271D01*
X208163360Y-121952468D01*
G37*
X211200964Y-116398576D02*
X211276513Y-116799322D01*
X211834041Y-117029154D01*
X212168465Y-116801748D01*
X212262122Y-116738431D01*
X212346782Y-116681896D01*
X212418495Y-116634727D01*
X212473311Y-116599502D01*
X212507280Y-116578805D01*
X212516530Y-116574342D01*
X212533195Y-116585820D01*
X212568806Y-116617551D01*
X212619371Y-116665483D01*
X212680900Y-116725562D01*
X212749399Y-116793733D01*
X212820879Y-116865945D01*
X212891347Y-116938142D01*
X212956811Y-117006273D01*
X213013280Y-117066283D01*
X213056763Y-117114119D01*
X213083268Y-117145727D01*
X213089605Y-117156305D01*
X213080486Y-117175806D01*
X213054920Y-117218531D01*
X213015597Y-117280298D01*
X212965203Y-117356931D01*
X212906427Y-117444248D01*
X212872368Y-117494052D01*
X212810289Y-117584993D01*
X212755126Y-117667059D01*
X212709554Y-117736163D01*
X212676250Y-117788222D01*
X212657890Y-117819150D01*
X212655131Y-117825650D01*
X212661385Y-117844121D01*
X212678434Y-117887172D01*
X212703703Y-117948749D01*
X212734622Y-118022799D01*
X212768618Y-118103270D01*
X212803118Y-118184107D01*
X212835551Y-118259258D01*
X212863343Y-118322671D01*
X212883923Y-118368293D01*
X212894719Y-118390069D01*
X212895356Y-118390926D01*
X212912307Y-118395084D01*
X212957451Y-118404361D01*
X213026110Y-118417844D01*
X213113602Y-118434621D01*
X213215250Y-118453781D01*
X213274556Y-118464830D01*
X213383172Y-118485510D01*
X213481277Y-118505189D01*
X213563909Y-118522789D01*
X213626104Y-118537233D01*
X213662899Y-118547446D01*
X213670296Y-118550686D01*
X213677540Y-118572617D01*
X213683385Y-118622147D01*
X213687835Y-118693485D01*
X213690893Y-118780839D01*
X213692565Y-118878417D01*
X213692853Y-118980426D01*
X213691761Y-119081075D01*
X213689294Y-119174572D01*
X213685456Y-119255125D01*
X213680250Y-119316942D01*
X213673681Y-119354230D01*
X213669741Y-119361993D01*
X213646188Y-119371298D01*
X213596282Y-119384600D01*
X213526623Y-119400337D01*
X213443813Y-119416946D01*
X213414905Y-119422319D01*
X213275531Y-119447848D01*
X213165436Y-119468408D01*
X213080982Y-119484815D01*
X213018530Y-119497887D01*
X212974444Y-119508441D01*
X212945085Y-119517294D01*
X212926815Y-119525263D01*
X212915998Y-119533165D01*
X212914485Y-119534727D01*
X212899377Y-119559886D01*
X212876329Y-119608850D01*
X212847644Y-119675621D01*
X212815622Y-119754205D01*
X212782565Y-119838607D01*
X212750773Y-119922830D01*
X212722549Y-120000879D01*
X212700193Y-120066759D01*
X212686007Y-120114473D01*
X212682293Y-120138027D01*
X212682602Y-120138852D01*
X212695189Y-120158104D01*
X212723744Y-120200463D01*
X212765267Y-120261521D01*
X212816756Y-120336868D01*
X212875211Y-120422096D01*
X212891858Y-120446315D01*
X212951215Y-120534123D01*
X213003447Y-120614238D01*
X213045708Y-120682062D01*
X213075153Y-120732993D01*
X213088937Y-120762431D01*
X213089605Y-120766048D01*
X213078024Y-120785057D01*
X213046024Y-120822714D01*
X212997718Y-120874973D01*
X212937220Y-120937786D01*
X212868644Y-121007106D01*
X212796104Y-121078885D01*
X212723712Y-121149077D01*
X212655584Y-121213635D01*
X212595832Y-121268510D01*
X212548571Y-121309656D01*
X212517913Y-121333026D01*
X212509432Y-121336842D01*
X212489691Y-121327855D01*
X212449274Y-121303616D01*
X212394763Y-121268209D01*
X212352823Y-121239711D01*
X212276829Y-121187418D01*
X212186834Y-121125845D01*
X212096564Y-121064370D01*
X212048032Y-121031469D01*
X211883762Y-120920359D01*
X211745869Y-120994916D01*
X211683049Y-121027578D01*
X211629629Y-121052966D01*
X211593484Y-121067446D01*
X211584284Y-121069460D01*
X211573221Y-121054584D01*
X211551394Y-121012547D01*
X211520434Y-120947227D01*
X211481970Y-120862500D01*
X211437632Y-120762245D01*
X211389047Y-120650339D01*
X211337846Y-120530659D01*
X211285659Y-120407084D01*
X211234113Y-120283491D01*
X211184840Y-120163757D01*
X211139467Y-120051759D01*
X211099625Y-119951377D01*
X211066942Y-119866486D01*
X211043049Y-119800965D01*
X211029574Y-119758690D01*
X211027406Y-119744172D01*
X211044583Y-119725653D01*
X211082190Y-119695590D01*
X211132366Y-119660232D01*
X211136578Y-119657434D01*
X211266264Y-119553625D01*
X211370834Y-119432515D01*
X211449381Y-119297976D01*
X211500999Y-119153882D01*
X211524782Y-119004105D01*
X211519823Y-118852517D01*
X211485217Y-118702992D01*
X211420057Y-118559400D01*
X211400886Y-118527984D01*
X211301174Y-118401125D01*
X211183377Y-118299255D01*
X211051571Y-118222904D01*
X210909833Y-118172602D01*
X210762242Y-118148879D01*
X210612873Y-118152265D01*
X210465803Y-118183288D01*
X210325111Y-118242480D01*
X210194873Y-118330369D01*
X210154586Y-118366042D01*
X210052055Y-118477706D01*
X209977341Y-118595257D01*
X209926090Y-118727020D01*
X209897546Y-118857507D01*
X209890500Y-119004216D01*
X209913996Y-119151653D01*
X209965649Y-119294834D01*
X210043071Y-119428777D01*
X210143875Y-119548498D01*
X210265676Y-119649014D01*
X210281684Y-119659609D01*
X210332398Y-119694306D01*
X210370950Y-119724370D01*
X210389381Y-119743565D01*
X210389649Y-119744172D01*
X210385692Y-119764936D01*
X210370007Y-119812062D01*
X210344222Y-119881673D01*
X210309969Y-119969893D01*
X210268877Y-120072844D01*
X210222576Y-120186650D01*
X210172696Y-120307435D01*
X210120867Y-120431321D01*
X210068719Y-120554432D01*
X210017882Y-120672891D01*
X209969987Y-120782823D01*
X209926662Y-120880349D01*
X209889538Y-120961593D01*
X209860244Y-121022679D01*
X209840412Y-121059730D01*
X209832426Y-121069460D01*
X209808021Y-121061883D01*
X209762358Y-121041560D01*
X209703310Y-121012125D01*
X209670840Y-120994916D01*
X209532947Y-120920359D01*
X209368677Y-121031469D01*
X209284821Y-121088390D01*
X209193013Y-121151030D01*
X209106980Y-121210011D01*
X209063887Y-121239711D01*
X209003277Y-121280410D01*
X208951955Y-121312663D01*
X208916615Y-121332384D01*
X208905137Y-121336554D01*
X208888430Y-121325307D01*
X208851454Y-121293911D01*
X208797795Y-121245624D01*
X208731038Y-121183708D01*
X208654766Y-121111421D01*
X208606527Y-121065008D01*
X208522133Y-120982087D01*
X208449197Y-120907920D01*
X208390669Y-120845680D01*
X208349497Y-120798541D01*
X208328628Y-120769673D01*
X208326626Y-120763815D01*
X208335917Y-120741532D01*
X208361591Y-120696477D01*
X208400800Y-120633211D01*
X208450697Y-120556295D01*
X208508433Y-120470292D01*
X208524851Y-120446315D01*
X208584677Y-120359170D01*
X208638350Y-120280710D01*
X208682870Y-120215345D01*
X208715235Y-120167484D01*
X208732445Y-120141535D01*
X208734107Y-120138852D01*
X208731621Y-120118172D01*
X208718423Y-120072704D01*
X208696814Y-120008444D01*
X208669096Y-119931387D01*
X208637570Y-119847529D01*
X208604537Y-119762866D01*
X208572299Y-119683392D01*
X208543157Y-119615104D01*
X208519412Y-119563997D01*
X208503365Y-119536067D01*
X208502225Y-119534727D01*
X208492412Y-119526745D01*
X208475839Y-119518851D01*
X208448868Y-119510229D01*
X208407861Y-119500062D01*
X208349180Y-119487531D01*
X208269187Y-119471821D01*
X208164245Y-119452113D01*
X208030715Y-119427592D01*
X208001804Y-119422319D01*
X207916118Y-119405764D01*
X207841418Y-119389569D01*
X207784306Y-119375296D01*
X207751383Y-119364508D01*
X207746969Y-119361993D01*
X207739694Y-119339696D01*
X207733781Y-119289869D01*
X207729234Y-119218304D01*
X207726055Y-119130793D01*
X207724251Y-119033128D01*
X207723823Y-118931101D01*
X207724777Y-118830503D01*
X207727116Y-118737127D01*
X207730844Y-118656765D01*
X207735966Y-118595209D01*
X207742484Y-118558250D01*
X207746414Y-118550686D01*
X207768292Y-118543056D01*
X207818109Y-118530642D01*
X207890903Y-118514522D01*
X207981711Y-118495773D01*
X208085569Y-118475471D01*
X208142154Y-118464830D01*
X208249514Y-118444760D01*
X208345254Y-118426580D01*
X208424694Y-118411199D01*
X208483154Y-118399531D01*
X208515955Y-118392488D01*
X208521354Y-118390926D01*
X208530478Y-118373322D01*
X208549765Y-118330918D01*
X208576645Y-118269772D01*
X208608546Y-118195943D01*
X208642898Y-118115489D01*
X208677129Y-118034468D01*
X208708669Y-117958937D01*
X208734946Y-117894955D01*
X208753389Y-117848580D01*
X208761429Y-117825869D01*
X208761578Y-117824876D01*
X208752465Y-117806961D01*
X208726914Y-117765733D01*
X208687612Y-117705291D01*
X208637243Y-117629731D01*
X208578494Y-117543152D01*
X208544342Y-117493421D01*
X208482110Y-117402236D01*
X208426836Y-117319449D01*
X208381218Y-117249249D01*
X208347952Y-117195824D01*
X208329736Y-117163361D01*
X208327105Y-117156083D01*
X208338414Y-117139145D01*
X208369681Y-117102978D01*
X208416910Y-117051635D01*
X208476108Y-116989167D01*
X208543281Y-116919626D01*
X208614434Y-116847065D01*
X208685574Y-116775535D01*
X208752707Y-116709087D01*
X208811839Y-116651774D01*
X208858975Y-116607647D01*
X208890123Y-116580759D01*
X208900543Y-116574342D01*
X208917509Y-116583365D01*
X208958089Y-116608715D01*
X209018337Y-116647810D01*
X209094307Y-116698071D01*
X209182054Y-116756917D01*
X209248244Y-116801748D01*
X209582668Y-117029154D01*
X209861433Y-116914238D01*
X210140197Y-116799322D01*
X210215746Y-116398576D01*
X210291294Y-115997829D01*
X211125415Y-115997829D01*
X211200964Y-116398576D01*
G36*
X211200964Y-116398576D02*
G01*
X211276513Y-116799322D01*
X211834041Y-117029154D01*
X212168465Y-116801748D01*
X212262122Y-116738431D01*
X212346782Y-116681896D01*
X212418495Y-116634727D01*
X212473311Y-116599502D01*
X212507280Y-116578805D01*
X212516530Y-116574342D01*
X212533195Y-116585820D01*
X212568806Y-116617551D01*
X212619371Y-116665483D01*
X212680900Y-116725562D01*
X212749399Y-116793733D01*
X212820879Y-116865945D01*
X212891347Y-116938142D01*
X212956811Y-117006273D01*
X213013280Y-117066283D01*
X213056763Y-117114119D01*
X213083268Y-117145727D01*
X213089605Y-117156305D01*
X213080486Y-117175806D01*
X213054920Y-117218531D01*
X213015597Y-117280298D01*
X212965203Y-117356931D01*
X212906427Y-117444248D01*
X212872368Y-117494052D01*
X212810289Y-117584993D01*
X212755126Y-117667059D01*
X212709554Y-117736163D01*
X212676250Y-117788222D01*
X212657890Y-117819150D01*
X212655131Y-117825650D01*
X212661385Y-117844121D01*
X212678434Y-117887172D01*
X212703703Y-117948749D01*
X212734622Y-118022799D01*
X212768618Y-118103270D01*
X212803118Y-118184107D01*
X212835551Y-118259258D01*
X212863343Y-118322671D01*
X212883923Y-118368293D01*
X212894719Y-118390069D01*
X212895356Y-118390926D01*
X212912307Y-118395084D01*
X212957451Y-118404361D01*
X213026110Y-118417844D01*
X213113602Y-118434621D01*
X213215250Y-118453781D01*
X213274556Y-118464830D01*
X213383172Y-118485510D01*
X213481277Y-118505189D01*
X213563909Y-118522789D01*
X213626104Y-118537233D01*
X213662899Y-118547446D01*
X213670296Y-118550686D01*
X213677540Y-118572617D01*
X213683385Y-118622147D01*
X213687835Y-118693485D01*
X213690893Y-118780839D01*
X213692565Y-118878417D01*
X213692853Y-118980426D01*
X213691761Y-119081075D01*
X213689294Y-119174572D01*
X213685456Y-119255125D01*
X213680250Y-119316942D01*
X213673681Y-119354230D01*
X213669741Y-119361993D01*
X213646188Y-119371298D01*
X213596282Y-119384600D01*
X213526623Y-119400337D01*
X213443813Y-119416946D01*
X213414905Y-119422319D01*
X213275531Y-119447848D01*
X213165436Y-119468408D01*
X213080982Y-119484815D01*
X213018530Y-119497887D01*
X212974444Y-119508441D01*
X212945085Y-119517294D01*
X212926815Y-119525263D01*
X212915998Y-119533165D01*
X212914485Y-119534727D01*
X212899377Y-119559886D01*
X212876329Y-119608850D01*
X212847644Y-119675621D01*
X212815622Y-119754205D01*
X212782565Y-119838607D01*
X212750773Y-119922830D01*
X212722549Y-120000879D01*
X212700193Y-120066759D01*
X212686007Y-120114473D01*
X212682293Y-120138027D01*
X212682602Y-120138852D01*
X212695189Y-120158104D01*
X212723744Y-120200463D01*
X212765267Y-120261521D01*
X212816756Y-120336868D01*
X212875211Y-120422096D01*
X212891858Y-120446315D01*
X212951215Y-120534123D01*
X213003447Y-120614238D01*
X213045708Y-120682062D01*
X213075153Y-120732993D01*
X213088937Y-120762431D01*
X213089605Y-120766048D01*
X213078024Y-120785057D01*
X213046024Y-120822714D01*
X212997718Y-120874973D01*
X212937220Y-120937786D01*
X212868644Y-121007106D01*
X212796104Y-121078885D01*
X212723712Y-121149077D01*
X212655584Y-121213635D01*
X212595832Y-121268510D01*
X212548571Y-121309656D01*
X212517913Y-121333026D01*
X212509432Y-121336842D01*
X212489691Y-121327855D01*
X212449274Y-121303616D01*
X212394763Y-121268209D01*
X212352823Y-121239711D01*
X212276829Y-121187418D01*
X212186834Y-121125845D01*
X212096564Y-121064370D01*
X212048032Y-121031469D01*
X211883762Y-120920359D01*
X211745869Y-120994916D01*
X211683049Y-121027578D01*
X211629629Y-121052966D01*
X211593484Y-121067446D01*
X211584284Y-121069460D01*
X211573221Y-121054584D01*
X211551394Y-121012547D01*
X211520434Y-120947227D01*
X211481970Y-120862500D01*
X211437632Y-120762245D01*
X211389047Y-120650339D01*
X211337846Y-120530659D01*
X211285659Y-120407084D01*
X211234113Y-120283491D01*
X211184840Y-120163757D01*
X211139467Y-120051759D01*
X211099625Y-119951377D01*
X211066942Y-119866486D01*
X211043049Y-119800965D01*
X211029574Y-119758690D01*
X211027406Y-119744172D01*
X211044583Y-119725653D01*
X211082190Y-119695590D01*
X211132366Y-119660232D01*
X211136578Y-119657434D01*
X211266264Y-119553625D01*
X211370834Y-119432515D01*
X211449381Y-119297976D01*
X211500999Y-119153882D01*
X211524782Y-119004105D01*
X211519823Y-118852517D01*
X211485217Y-118702992D01*
X211420057Y-118559400D01*
X211400886Y-118527984D01*
X211301174Y-118401125D01*
X211183377Y-118299255D01*
X211051571Y-118222904D01*
X210909833Y-118172602D01*
X210762242Y-118148879D01*
X210612873Y-118152265D01*
X210465803Y-118183288D01*
X210325111Y-118242480D01*
X210194873Y-118330369D01*
X210154586Y-118366042D01*
X210052055Y-118477706D01*
X209977341Y-118595257D01*
X209926090Y-118727020D01*
X209897546Y-118857507D01*
X209890500Y-119004216D01*
X209913996Y-119151653D01*
X209965649Y-119294834D01*
X210043071Y-119428777D01*
X210143875Y-119548498D01*
X210265676Y-119649014D01*
X210281684Y-119659609D01*
X210332398Y-119694306D01*
X210370950Y-119724370D01*
X210389381Y-119743565D01*
X210389649Y-119744172D01*
X210385692Y-119764936D01*
X210370007Y-119812062D01*
X210344222Y-119881673D01*
X210309969Y-119969893D01*
X210268877Y-120072844D01*
X210222576Y-120186650D01*
X210172696Y-120307435D01*
X210120867Y-120431321D01*
X210068719Y-120554432D01*
X210017882Y-120672891D01*
X209969987Y-120782823D01*
X209926662Y-120880349D01*
X209889538Y-120961593D01*
X209860244Y-121022679D01*
X209840412Y-121059730D01*
X209832426Y-121069460D01*
X209808021Y-121061883D01*
X209762358Y-121041560D01*
X209703310Y-121012125D01*
X209670840Y-120994916D01*
X209532947Y-120920359D01*
X209368677Y-121031469D01*
X209284821Y-121088390D01*
X209193013Y-121151030D01*
X209106980Y-121210011D01*
X209063887Y-121239711D01*
X209003277Y-121280410D01*
X208951955Y-121312663D01*
X208916615Y-121332384D01*
X208905137Y-121336554D01*
X208888430Y-121325307D01*
X208851454Y-121293911D01*
X208797795Y-121245624D01*
X208731038Y-121183708D01*
X208654766Y-121111421D01*
X208606527Y-121065008D01*
X208522133Y-120982087D01*
X208449197Y-120907920D01*
X208390669Y-120845680D01*
X208349497Y-120798541D01*
X208328628Y-120769673D01*
X208326626Y-120763815D01*
X208335917Y-120741532D01*
X208361591Y-120696477D01*
X208400800Y-120633211D01*
X208450697Y-120556295D01*
X208508433Y-120470292D01*
X208524851Y-120446315D01*
X208584677Y-120359170D01*
X208638350Y-120280710D01*
X208682870Y-120215345D01*
X208715235Y-120167484D01*
X208732445Y-120141535D01*
X208734107Y-120138852D01*
X208731621Y-120118172D01*
X208718423Y-120072704D01*
X208696814Y-120008444D01*
X208669096Y-119931387D01*
X208637570Y-119847529D01*
X208604537Y-119762866D01*
X208572299Y-119683392D01*
X208543157Y-119615104D01*
X208519412Y-119563997D01*
X208503365Y-119536067D01*
X208502225Y-119534727D01*
X208492412Y-119526745D01*
X208475839Y-119518851D01*
X208448868Y-119510229D01*
X208407861Y-119500062D01*
X208349180Y-119487531D01*
X208269187Y-119471821D01*
X208164245Y-119452113D01*
X208030715Y-119427592D01*
X208001804Y-119422319D01*
X207916118Y-119405764D01*
X207841418Y-119389569D01*
X207784306Y-119375296D01*
X207751383Y-119364508D01*
X207746969Y-119361993D01*
X207739694Y-119339696D01*
X207733781Y-119289869D01*
X207729234Y-119218304D01*
X207726055Y-119130793D01*
X207724251Y-119033128D01*
X207723823Y-118931101D01*
X207724777Y-118830503D01*
X207727116Y-118737127D01*
X207730844Y-118656765D01*
X207735966Y-118595209D01*
X207742484Y-118558250D01*
X207746414Y-118550686D01*
X207768292Y-118543056D01*
X207818109Y-118530642D01*
X207890903Y-118514522D01*
X207981711Y-118495773D01*
X208085569Y-118475471D01*
X208142154Y-118464830D01*
X208249514Y-118444760D01*
X208345254Y-118426580D01*
X208424694Y-118411199D01*
X208483154Y-118399531D01*
X208515955Y-118392488D01*
X208521354Y-118390926D01*
X208530478Y-118373322D01*
X208549765Y-118330918D01*
X208576645Y-118269772D01*
X208608546Y-118195943D01*
X208642898Y-118115489D01*
X208677129Y-118034468D01*
X208708669Y-117958937D01*
X208734946Y-117894955D01*
X208753389Y-117848580D01*
X208761429Y-117825869D01*
X208761578Y-117824876D01*
X208752465Y-117806961D01*
X208726914Y-117765733D01*
X208687612Y-117705291D01*
X208637243Y-117629731D01*
X208578494Y-117543152D01*
X208544342Y-117493421D01*
X208482110Y-117402236D01*
X208426836Y-117319449D01*
X208381218Y-117249249D01*
X208347952Y-117195824D01*
X208329736Y-117163361D01*
X208327105Y-117156083D01*
X208338414Y-117139145D01*
X208369681Y-117102978D01*
X208416910Y-117051635D01*
X208476108Y-116989167D01*
X208543281Y-116919626D01*
X208614434Y-116847065D01*
X208685574Y-116775535D01*
X208752707Y-116709087D01*
X208811839Y-116651774D01*
X208858975Y-116607647D01*
X208890123Y-116580759D01*
X208900543Y-116574342D01*
X208917509Y-116583365D01*
X208958089Y-116608715D01*
X209018337Y-116647810D01*
X209094307Y-116698071D01*
X209182054Y-116756917D01*
X209248244Y-116801748D01*
X209582668Y-117029154D01*
X209861433Y-116914238D01*
X210140197Y-116799322D01*
X210215746Y-116398576D01*
X210291294Y-115997829D01*
X211125415Y-115997829D01*
X211200964Y-116398576D01*
G37*
%TD*%
%LPC*%
D14*
%TO.C,J3*%
X182000000Y-132700000D03*
D15*
X187000000Y-132700000D03*
%TD*%
D16*
%TO.C,J2*%
X168397500Y-134700000D03*
D17*
X171897500Y-134700000D03*
X175397500Y-134700000D03*
%TD*%
D14*
%TO.C,J4*%
X194400000Y-132700000D03*
D15*
X199400000Y-132700000D03*
%TD*%
D14*
%TO.C,J1*%
X206800000Y-132700000D03*
D15*
X211800000Y-132700000D03*
%TD*%
D18*
%TO.C,H4*%
X203200000Y-127000000D03*
%TD*%
%TO.C,H2*%
X177800000Y-127000000D03*
%TD*%
%LPD*%
M02*
