%TF.GenerationSoftware,KiCad,Pcbnew,8.0.8*%
%TF.CreationDate,2025-03-09T17:27:28+01:00*%
%TF.ProjectId,02-dual-high-current-switch,30322d64-7561-46c2-9d68-6967682d6375,rev?*%
%TF.SameCoordinates,Original*%
%TF.FileFunction,Copper,L2,Bot*%
%TF.FilePolarity,Positive*%
%FSLAX46Y46*%
G04 Gerber Fmt 4.6, Leading zero omitted, Abs format (unit mm)*
G04 Created by KiCad (PCBNEW 8.0.8) date 2025-03-09 17:27:28*
%MOMM*%
%LPD*%
G01*
G04 APERTURE LIST*
G04 Aperture macros list*
%AMRoundRect*
0 Rectangle with rounded corners*
0 $1 Rounding radius*
0 $2 $3 $4 $5 $6 $7 $8 $9 X,Y pos of 4 corners*
0 Add a 4 corners polygon primitive as box body*
4,1,4,$2,$3,$4,$5,$6,$7,$8,$9,$2,$3,0*
0 Add four circle primitives for the rounded corners*
1,1,$1+$1,$2,$3*
1,1,$1+$1,$4,$5*
1,1,$1+$1,$6,$7*
1,1,$1+$1,$8,$9*
0 Add four rect primitives between the rounded corners*
20,1,$1+$1,$2,$3,$4,$5,0*
20,1,$1+$1,$4,$5,$6,$7,0*
20,1,$1+$1,$6,$7,$8,$9,0*
20,1,$1+$1,$8,$9,$2,$3,0*%
%AMFreePoly0*
4,1,9,3.862500,-0.866500,0.737500,-0.866500,0.737500,-0.450000,-0.737500,-0.450000,-0.737500,0.450000,0.737500,0.450000,0.737500,0.866500,3.862500,0.866500,3.862500,-0.866500,3.862500,-0.866500,$1*%
G04 Aperture macros list end*
%TA.AperFunction,ComponentPad*%
%ADD10R,2.550000X2.550000*%
%TD*%
%TA.AperFunction,ComponentPad*%
%ADD11C,2.550000*%
%TD*%
%TA.AperFunction,ComponentPad*%
%ADD12R,2.100000X2.100000*%
%TD*%
%TA.AperFunction,ComponentPad*%
%ADD13C,2.100000*%
%TD*%
%TA.AperFunction,ComponentPad*%
%ADD14C,5.600000*%
%TD*%
%TA.AperFunction,SMDPad,CuDef*%
%ADD15RoundRect,0.200000X-0.200000X-0.275000X0.200000X-0.275000X0.200000X0.275000X-0.200000X0.275000X0*%
%TD*%
%TA.AperFunction,SMDPad,CuDef*%
%ADD16RoundRect,0.250000X1.000000X0.900000X-1.000000X0.900000X-1.000000X-0.900000X1.000000X-0.900000X0*%
%TD*%
%TA.AperFunction,SMDPad,CuDef*%
%ADD17RoundRect,0.200000X-0.275000X0.200000X-0.275000X-0.200000X0.275000X-0.200000X0.275000X0.200000X0*%
%TD*%
%TA.AperFunction,SMDPad,CuDef*%
%ADD18RoundRect,0.137500X0.137500X-0.662500X0.137500X0.662500X-0.137500X0.662500X-0.137500X-0.662500X0*%
%TD*%
%TA.AperFunction,SMDPad,CuDef*%
%ADD19RoundRect,0.150000X-0.150000X0.825000X-0.150000X-0.825000X0.150000X-0.825000X0.150000X0.825000X0*%
%TD*%
%TA.AperFunction,SMDPad,CuDef*%
%ADD20RoundRect,0.150000X-0.512500X-0.150000X0.512500X-0.150000X0.512500X0.150000X-0.512500X0.150000X0*%
%TD*%
%TA.AperFunction,SMDPad,CuDef*%
%ADD21RoundRect,0.225000X0.425000X0.225000X-0.425000X0.225000X-0.425000X-0.225000X0.425000X-0.225000X0*%
%TD*%
%TA.AperFunction,SMDPad,CuDef*%
%ADD22FreePoly0,180.000000*%
%TD*%
%TA.AperFunction,SMDPad,CuDef*%
%ADD23RoundRect,0.225000X0.225000X0.250000X-0.225000X0.250000X-0.225000X-0.250000X0.225000X-0.250000X0*%
%TD*%
%TA.AperFunction,SMDPad,CuDef*%
%ADD24RoundRect,0.225000X0.250000X-0.225000X0.250000X0.225000X-0.250000X0.225000X-0.250000X-0.225000X0*%
%TD*%
%TA.AperFunction,ViaPad*%
%ADD25C,0.600000*%
%TD*%
%TA.AperFunction,Conductor*%
%ADD26C,0.200000*%
%TD*%
%TA.AperFunction,Conductor*%
%ADD27C,0.400000*%
%TD*%
%TA.AperFunction,Conductor*%
%ADD28C,2.000000*%
%TD*%
G04 APERTURE END LIST*
D10*
%TO.P,J4,1,Pin_1*%
%TO.N,Net-(D3-A)*%
X194400000Y-132700000D03*
D11*
%TO.P,J4,2,Pin_2*%
%TO.N,+24V*%
X199400000Y-132700000D03*
%TD*%
D10*
%TO.P,J1,1,Pin_1*%
%TO.N,GND*%
X206800000Y-132700000D03*
D11*
%TO.P,J1,2,Pin_2*%
%TO.N,+24V*%
X211800000Y-132700000D03*
%TD*%
D10*
%TO.P,J3,1,Pin_1*%
%TO.N,Net-(D2-A)*%
X182000000Y-132700000D03*
D11*
%TO.P,J3,2,Pin_2*%
%TO.N,+24V*%
X187000000Y-132700000D03*
%TD*%
D12*
%TO.P,J2,1,Pin_1*%
%TO.N,Net-(J2-Pin_1)*%
X168397500Y-134700000D03*
D13*
%TO.P,J2,2,Pin_2*%
%TO.N,Net-(J2-Pin_2)*%
X171897500Y-134700000D03*
%TO.P,J2,3,Pin_3*%
%TO.N,Net-(J2-Pin_3)*%
X175397500Y-134700000D03*
%TD*%
D14*
%TO.P,H4,1,1*%
%TO.N,GND*%
X203200000Y-127000000D03*
%TD*%
%TO.P,H2,1,1*%
%TO.N,GND*%
X177800000Y-127000000D03*
%TD*%
D15*
%TO.P,R6,1*%
%TO.N,GND*%
X208075000Y-123900000D03*
%TO.P,R6,2*%
%TO.N,Net-(U3-ADJ)*%
X209725000Y-123900000D03*
%TD*%
D16*
%TO.P,D3,1,K*%
%TO.N,+24V*%
X199250000Y-136300000D03*
%TO.P,D3,2,A*%
%TO.N,Net-(D3-A)*%
X194950000Y-136300000D03*
%TD*%
D17*
%TO.P,R4,1*%
%TO.N,Net-(U5-IN)*%
X194900000Y-120675000D03*
%TO.P,R4,2*%
%TO.N,GND*%
X194900000Y-122325000D03*
%TD*%
D18*
%TO.P,U1,1*%
%TO.N,Net-(R1-Pad2)*%
X169535000Y-131550000D03*
%TO.P,U1,2*%
%TO.N,Net-(J2-Pin_3)*%
X168265000Y-131550000D03*
%TO.P,U1,3*%
%TO.N,Net-(U4-IN)*%
X168265000Y-125050000D03*
%TO.P,U1,4*%
%TO.N,+12V*%
X169535000Y-125050000D03*
%TD*%
D15*
%TO.P,R2,1*%
%TO.N,Net-(J2-Pin_2)*%
X171075000Y-136700000D03*
%TO.P,R2,2*%
%TO.N,Net-(R2-Pad2)*%
X172725000Y-136700000D03*
%TD*%
D19*
%TO.P,Q1,1,S*%
%TO.N,GND*%
X182595000Y-124425000D03*
%TO.P,Q1,2,S*%
X183865000Y-124425000D03*
%TO.P,Q1,3,S*%
X185135000Y-124425000D03*
%TO.P,Q1,4,G*%
%TO.N,Net-(Q1-G)*%
X186405000Y-124425000D03*
%TO.P,Q1,5,D*%
%TO.N,Net-(D2-A)*%
X186405000Y-129375000D03*
%TO.P,Q1,6,D*%
X185135000Y-129375000D03*
%TO.P,Q1,7,D*%
X183865000Y-129375000D03*
%TO.P,Q1,8,D*%
X182595000Y-129375000D03*
%TD*%
D17*
%TO.P,R3,1*%
%TO.N,Net-(U4-IN)*%
X182300000Y-120675000D03*
%TO.P,R3,2*%
%TO.N,GND*%
X182300000Y-122325000D03*
%TD*%
D18*
%TO.P,U2,1*%
%TO.N,Net-(R2-Pad2)*%
X173135000Y-131550000D03*
%TO.P,U2,2*%
%TO.N,Net-(J2-Pin_3)*%
X171865000Y-131550000D03*
%TO.P,U2,3*%
%TO.N,Net-(U5-IN)*%
X171865000Y-125050000D03*
%TO.P,U2,4*%
%TO.N,+12V*%
X173135000Y-125050000D03*
%TD*%
D16*
%TO.P,D1,1,A1*%
%TO.N,+24V*%
X211450000Y-136300000D03*
%TO.P,D1,2,A2*%
%TO.N,GND*%
X207150000Y-136300000D03*
%TD*%
D20*
%TO.P,U5,1,NC*%
%TO.N,unconnected-(U5-NC-Pad1)*%
X196562500Y-122449999D03*
%TO.P,U5,2,Vdd*%
%TO.N,+12V*%
X196562500Y-121500000D03*
%TO.P,U5,3,IN*%
%TO.N,Net-(U5-IN)*%
X196562500Y-120550001D03*
%TO.P,U5,4,GND*%
%TO.N,GND*%
X198837500Y-120550001D03*
%TO.P,U5,5,OUT*%
%TO.N,Net-(Q2-G)*%
X198837500Y-122449999D03*
%TD*%
D15*
%TO.P,R1,1*%
%TO.N,Net-(J2-Pin_1)*%
X167475000Y-136700000D03*
%TO.P,R1,2*%
%TO.N,Net-(R1-Pad2)*%
X169125000Y-136700000D03*
%TD*%
D20*
%TO.P,U4,1,NC*%
%TO.N,unconnected-(U4-NC-Pad1)*%
X183962500Y-122449999D03*
%TO.P,U4,2,Vdd*%
%TO.N,+12V*%
X183962500Y-121500000D03*
%TO.P,U4,3,IN*%
%TO.N,Net-(U4-IN)*%
X183962500Y-120550001D03*
%TO.P,U4,4,GND*%
%TO.N,GND*%
X186237500Y-120550001D03*
%TO.P,U4,5,OUT*%
%TO.N,Net-(Q1-G)*%
X186237500Y-122449999D03*
%TD*%
D21*
%TO.P,U3,1,ADJ*%
%TO.N,Net-(U3-ADJ)*%
X211750000Y-125637500D03*
D22*
%TO.P,U3,2,VO*%
%TO.N,+12V*%
X211662500Y-127137500D03*
D21*
%TO.P,U3,3,VI*%
%TO.N,+24V*%
X211750000Y-128637500D03*
%TD*%
D23*
%TO.P,C1,1*%
%TO.N,+12V*%
X211275000Y-122300000D03*
%TO.P,C1,2*%
%TO.N,GND*%
X209725000Y-122300000D03*
%TD*%
D24*
%TO.P,C2,1*%
%TO.N,+12V*%
X187900000Y-122275000D03*
%TO.P,C2,2*%
%TO.N,GND*%
X187900000Y-120725000D03*
%TD*%
D19*
%TO.P,Q2,1,S*%
%TO.N,GND*%
X195195000Y-124425000D03*
%TO.P,Q2,2,S*%
X196465000Y-124425000D03*
%TO.P,Q2,3,S*%
X197735000Y-124425000D03*
%TO.P,Q2,4,G*%
%TO.N,Net-(Q2-G)*%
X199005000Y-124425000D03*
%TO.P,Q2,5,D*%
%TO.N,Net-(D3-A)*%
X199005000Y-129375000D03*
%TO.P,Q2,6,D*%
X197735000Y-129375000D03*
%TO.P,Q2,7,D*%
X196465000Y-129375000D03*
%TO.P,Q2,8,D*%
X195195000Y-129375000D03*
%TD*%
D24*
%TO.P,C3,1*%
%TO.N,+12V*%
X200500000Y-122275000D03*
%TO.P,C3,2*%
%TO.N,GND*%
X200500000Y-120725000D03*
%TD*%
D16*
%TO.P,D2,1,K*%
%TO.N,+24V*%
X186650000Y-136237500D03*
%TO.P,D2,2,A*%
%TO.N,Net-(D2-A)*%
X182350000Y-136237500D03*
%TD*%
D15*
%TO.P,R5,1*%
%TO.N,Net-(U3-ADJ)*%
X211275000Y-123900000D03*
%TO.P,R5,2*%
%TO.N,+12V*%
X212925000Y-123900000D03*
%TD*%
D25*
%TO.N,GND*%
X201700000Y-120700000D03*
X189100000Y-120700000D03*
%TD*%
D26*
%TO.N,GND*%
X200325001Y-120550001D02*
X200500000Y-120725000D01*
X189075000Y-120725000D02*
X189100000Y-120700000D01*
X186237500Y-120550001D02*
X187725001Y-120550001D01*
X201675000Y-120725000D02*
X201700000Y-120700000D01*
X187725001Y-120550001D02*
X187900000Y-120725000D01*
X198837500Y-120550001D02*
X200325001Y-120550001D01*
X194900000Y-122325000D02*
X195195000Y-122620000D01*
X195195000Y-122620000D02*
X195195000Y-124425000D01*
X187900000Y-120725000D02*
X189075000Y-120725000D01*
X200500000Y-120725000D02*
X201675000Y-120725000D01*
%TO.N,+12V*%
X187900000Y-121500000D02*
X196562500Y-121500000D01*
X173135000Y-125050000D02*
X173135000Y-121535000D01*
X169535000Y-124465000D02*
X172500000Y-121500000D01*
X200500000Y-121500000D02*
X210475000Y-121500000D01*
X212925000Y-123900000D02*
X212925000Y-126275000D01*
X169535000Y-125050000D02*
X169535000Y-124465000D01*
X172500000Y-121500000D02*
X173100000Y-121500000D01*
X211325000Y-122300000D02*
X212925000Y-123900000D01*
X173100000Y-121500000D02*
X178300000Y-121500000D01*
X173135000Y-121535000D02*
X173100000Y-121500000D01*
X210475000Y-121500000D02*
X211275000Y-122300000D01*
X169535000Y-125050000D02*
X169535000Y-125735000D01*
X212062500Y-127137500D02*
X211662500Y-127137500D01*
X187900000Y-122275000D02*
X187900000Y-121500000D01*
X183962500Y-121500000D02*
X187900000Y-121500000D01*
X196562500Y-121500000D02*
X200500000Y-121500000D01*
X211275000Y-122300000D02*
X211325000Y-122300000D01*
X200500000Y-122275000D02*
X200500000Y-121500000D01*
X212925000Y-126275000D02*
X212062500Y-127137500D01*
X178300000Y-121500000D02*
X183962500Y-121500000D01*
D27*
%TO.N,+24V*%
X211800000Y-132700000D02*
X211800000Y-128687500D01*
D28*
X211450000Y-136300000D02*
X211450000Y-133050000D01*
X199250000Y-132850000D02*
X199400000Y-132700000D01*
D27*
X211800000Y-128687500D02*
X211750000Y-128637500D01*
D28*
X211450000Y-133050000D02*
X211800000Y-132700000D01*
X199250000Y-136300000D02*
X199250000Y-132850000D01*
X186650000Y-133050000D02*
X187000000Y-132700000D01*
X186650000Y-136237500D02*
X186650000Y-133050000D01*
D26*
%TO.N,Net-(R2-Pad2)*%
X173700000Y-133300000D02*
X173700000Y-135725000D01*
X173135000Y-132735000D02*
X173700000Y-133300000D01*
X173700000Y-135725000D02*
X172725000Y-136700000D01*
X173135000Y-131550000D02*
X173135000Y-132735000D01*
%TO.N,Net-(U4-IN)*%
X168265000Y-125050000D02*
X168265000Y-124535000D01*
X182424999Y-120550001D02*
X182300000Y-120675000D01*
X172125000Y-120675000D02*
X182300000Y-120675000D01*
X183962500Y-120550001D02*
X182424999Y-120550001D01*
X168265000Y-124535000D02*
X172125000Y-120675000D01*
%TO.N,Net-(Q2-G)*%
X199005000Y-122617499D02*
X198837500Y-122449999D01*
X199005000Y-124425000D02*
X199005000Y-122617499D01*
%TO.N,Net-(R1-Pad2)*%
X169535000Y-132535000D02*
X170100000Y-133100000D01*
X170100000Y-135725000D02*
X169125000Y-136700000D01*
X170100000Y-133100000D02*
X170100000Y-135725000D01*
X169535000Y-131550000D02*
X169535000Y-132535000D01*
%TO.N,Net-(U5-IN)*%
X195024999Y-120550001D02*
X194900000Y-120675000D01*
X171865000Y-125050000D02*
X171865000Y-125535000D01*
X167300000Y-125900000D02*
X167300000Y-124300000D01*
X167900000Y-126500000D02*
X167300000Y-125900000D01*
X193925000Y-119700000D02*
X194900000Y-120675000D01*
X171865000Y-125535000D02*
X170900000Y-126500000D01*
X170900000Y-126500000D02*
X167900000Y-126500000D01*
X171900000Y-119700000D02*
X193925000Y-119700000D01*
X196562500Y-120550001D02*
X195024999Y-120550001D01*
X167300000Y-124300000D02*
X171900000Y-119700000D01*
%TO.N,Net-(Q1-G)*%
X186405000Y-124425000D02*
X186405000Y-122617499D01*
X186405000Y-122617499D02*
X186237500Y-122449999D01*
%TO.N,Net-(J2-Pin_1)*%
X168397500Y-135777500D02*
X167475000Y-136700000D01*
X168397500Y-134700000D02*
X168397500Y-135777500D01*
%TO.N,Net-(J2-Pin_2)*%
X171897500Y-134700000D02*
X171897500Y-135877500D01*
X171897500Y-135877500D02*
X171075000Y-136700000D01*
%TO.N,Net-(J2-Pin_3)*%
X174300000Y-130100000D02*
X171900000Y-130100000D01*
X175397500Y-134700000D02*
X175397500Y-131197500D01*
X168265000Y-131135000D02*
X169300000Y-130100000D01*
X171865000Y-131550000D02*
X171865000Y-130135000D01*
X171865000Y-130135000D02*
X171900000Y-130100000D01*
X171900000Y-130100000D02*
X169300000Y-130100000D01*
X168265000Y-131550000D02*
X168265000Y-131135000D01*
X175397500Y-131197500D02*
X174300000Y-130100000D01*
%TO.N,Net-(U3-ADJ)*%
X211275000Y-123900000D02*
X211275000Y-125162500D01*
X209725000Y-123900000D02*
X211275000Y-123900000D01*
X211275000Y-125162500D02*
X211750000Y-125637500D01*
%TD*%
%TA.AperFunction,Conductor*%
%TO.N,GND*%
G36*
X193817712Y-120019407D02*
G01*
X193829525Y-120029496D01*
X194195504Y-120395475D01*
X194223281Y-120449992D01*
X194224500Y-120465479D01*
X194224500Y-120906520D01*
X194224501Y-120906523D01*
X194239352Y-121000299D01*
X194239353Y-121000302D01*
X194267506Y-121055555D01*
X194277077Y-121115987D01*
X194249300Y-121170503D01*
X194194783Y-121198281D01*
X194179296Y-121199500D01*
X184853365Y-121199500D01*
X184795174Y-121180593D01*
X184769389Y-121149891D01*
X184768965Y-121150194D01*
X184765115Y-121144802D01*
X184764423Y-121143978D01*
X184764198Y-121143518D01*
X184764198Y-121143517D01*
X184715682Y-121095001D01*
X184687907Y-121040487D01*
X184697478Y-120980055D01*
X184715682Y-120954999D01*
X184764198Y-120906484D01*
X184815573Y-120801394D01*
X184825500Y-120733261D01*
X184825500Y-120366741D01*
X184815573Y-120298608D01*
X184764198Y-120193518D01*
X184740181Y-120169501D01*
X184712406Y-120114987D01*
X184721977Y-120054555D01*
X184765242Y-120011290D01*
X184810187Y-120000500D01*
X193759521Y-120000500D01*
X193817712Y-120019407D01*
G37*
%TD.AperFunction*%
%TA.AperFunction,Conductor*%
G36*
X214858691Y-115319407D02*
G01*
X214894655Y-115368907D01*
X214899500Y-115399500D01*
X214899500Y-138600500D01*
X214880593Y-138658691D01*
X214831093Y-138694655D01*
X214800500Y-138699500D01*
X173699441Y-138699500D01*
X173641250Y-138680593D01*
X173605286Y-138631093D01*
X173605286Y-138569907D01*
X173641250Y-138520407D01*
X173653815Y-138512640D01*
X173824466Y-138424036D01*
X174035119Y-138269751D01*
X174219751Y-138085119D01*
X174374036Y-137874466D01*
X174494357Y-137642730D01*
X174577893Y-137395343D01*
X174604943Y-137240001D01*
X174633552Y-137185918D01*
X174688488Y-137158979D01*
X174727089Y-137161095D01*
X174918639Y-137210277D01*
X175237036Y-137250500D01*
X175557964Y-137250500D01*
X175876361Y-137210277D01*
X176187206Y-137130466D01*
X176434188Y-137032678D01*
X176485595Y-137012325D01*
X176485597Y-137012324D01*
X176766828Y-136857716D01*
X177026464Y-136669080D01*
X177260411Y-136449390D01*
X177464978Y-136202110D01*
X177636939Y-135931142D01*
X177773584Y-135640758D01*
X177872756Y-135335538D01*
X177932892Y-135020294D01*
X177953043Y-134700000D01*
X177932892Y-134379706D01*
X177872756Y-134064462D01*
X177773584Y-133759242D01*
X177636939Y-133468858D01*
X177636935Y-133468853D01*
X177636931Y-133468844D01*
X177464978Y-133197890D01*
X177260416Y-132950616D01*
X177260406Y-132950605D01*
X177179247Y-132874392D01*
X177029229Y-132733516D01*
X176999754Y-132679901D01*
X176998000Y-132661350D01*
X176998000Y-131071534D01*
X176958591Y-130822719D01*
X176896125Y-130630469D01*
X176880741Y-130583121D01*
X176766370Y-130358655D01*
X176723755Y-130300000D01*
X179500000Y-130300000D01*
X179501180Y-130298819D01*
X179494500Y-130341004D01*
X179494500Y-130341008D01*
X179494500Y-132294500D01*
X179494500Y-137401000D01*
X179497030Y-137433143D01*
X179501883Y-137463793D01*
X179502646Y-137468281D01*
X179502647Y-137468286D01*
X179538591Y-137552382D01*
X179538592Y-137552383D01*
X179574556Y-137601883D01*
X179598797Y-137629628D01*
X179677307Y-137676536D01*
X179735498Y-137695443D01*
X179748198Y-137697454D01*
X179798996Y-137705500D01*
X179799000Y-137705500D01*
X185161992Y-137705500D01*
X185179623Y-137704741D01*
X185179635Y-137704740D01*
X185196581Y-137703279D01*
X185274950Y-137680226D01*
X185329045Y-137651637D01*
X185359940Y-137631575D01*
X185390725Y-137593561D01*
X185442039Y-137560239D01*
X185500356Y-137562420D01*
X185565301Y-137585146D01*
X185595725Y-137587999D01*
X185595727Y-137588000D01*
X185595734Y-137588000D01*
X187704273Y-137588000D01*
X187704273Y-137587999D01*
X187734699Y-137585146D01*
X187862882Y-137540293D01*
X187972150Y-137459650D01*
X188052793Y-137350382D01*
X188097646Y-137222199D01*
X188100499Y-137191773D01*
X188100500Y-137191773D01*
X188100500Y-135283227D01*
X188100499Y-135283225D01*
X188097646Y-135252805D01*
X188097646Y-135252801D01*
X188052793Y-135124618D01*
X187973918Y-135017746D01*
X187972154Y-135015355D01*
X187972152Y-135015353D01*
X187972150Y-135015350D01*
X187941696Y-134992874D01*
X187890712Y-134955246D01*
X187855119Y-134905479D01*
X187850500Y-134875591D01*
X187850500Y-133956183D01*
X187869407Y-133897992D01*
X187888693Y-133878058D01*
X188002754Y-133789281D01*
X188168368Y-133609377D01*
X188302111Y-133404667D01*
X188400336Y-133180736D01*
X188460364Y-132943692D01*
X188480557Y-132700000D01*
X188460364Y-132456308D01*
X188400336Y-132219264D01*
X188302111Y-131995333D01*
X188168368Y-131790623D01*
X188002754Y-131610719D01*
X188002753Y-131610718D01*
X187809789Y-131460527D01*
X187808960Y-131459986D01*
X187808736Y-131459708D01*
X187806557Y-131458012D01*
X187806956Y-131457498D01*
X187770587Y-131412330D01*
X187767554Y-131351219D01*
X187774751Y-131334279D01*
X187774238Y-131334046D01*
X187776532Y-131328993D01*
X187776536Y-131328988D01*
X187795443Y-131270797D01*
X187799465Y-131245396D01*
X187805500Y-131207298D01*
X187805500Y-130541004D01*
X191694500Y-130541004D01*
X191694500Y-130541008D01*
X191694500Y-132294500D01*
X191694500Y-137401000D01*
X191697030Y-137433143D01*
X191701883Y-137463793D01*
X191702646Y-137468281D01*
X191702647Y-137468286D01*
X191738591Y-137552382D01*
X191738592Y-137552383D01*
X191774556Y-137601883D01*
X191798797Y-137629628D01*
X191877307Y-137676536D01*
X191935498Y-137695443D01*
X191948198Y-137697454D01*
X191998996Y-137705500D01*
X191999000Y-137705500D01*
X197738249Y-137705500D01*
X197740331Y-137705488D01*
X197740362Y-137705487D01*
X197740476Y-137705487D01*
X197742698Y-137705462D01*
X197808257Y-137693943D01*
X197866009Y-137673735D01*
X197899557Y-137658497D01*
X197938049Y-137623312D01*
X197993755Y-137598008D01*
X198037540Y-137602941D01*
X198095761Y-137623313D01*
X198165301Y-137647646D01*
X198195725Y-137650499D01*
X198195727Y-137650500D01*
X198195734Y-137650500D01*
X200304273Y-137650500D01*
X200304273Y-137650499D01*
X200334699Y-137647646D01*
X200462882Y-137602793D01*
X200572150Y-137522150D01*
X200652793Y-137412882D01*
X200697646Y-137284699D01*
X200700499Y-137254273D01*
X200700500Y-137254273D01*
X200700500Y-135345727D01*
X200700499Y-135345725D01*
X200697646Y-135315305D01*
X200697646Y-135315301D01*
X200652793Y-135187118D01*
X200606666Y-135124618D01*
X200572154Y-135077855D01*
X200572152Y-135077853D01*
X200572150Y-135077850D01*
X200490712Y-135017746D01*
X200455119Y-134967979D01*
X200450500Y-134938091D01*
X200450500Y-133776044D01*
X200469407Y-133717853D01*
X200476664Y-133708993D01*
X200568368Y-133609377D01*
X200702111Y-133404667D01*
X200800336Y-133180736D01*
X200860364Y-132943692D01*
X200880557Y-132700000D01*
X200860364Y-132456308D01*
X200800336Y-132219264D01*
X200702111Y-131995333D01*
X200568368Y-131790623D01*
X200402754Y-131610719D01*
X200209788Y-131460527D01*
X200107736Y-131405299D01*
X205325000Y-131405299D01*
X205325000Y-132499999D01*
X205325001Y-132500000D01*
X205973130Y-132500000D01*
X205950000Y-132616282D01*
X205950000Y-132783718D01*
X205973130Y-132900000D01*
X205325001Y-132900000D01*
X205325000Y-132900001D01*
X205325000Y-133994700D01*
X205336603Y-134053036D01*
X205380806Y-134119189D01*
X205380810Y-134119193D01*
X205446963Y-134163396D01*
X205505299Y-134174999D01*
X205505303Y-134175000D01*
X206599999Y-134175000D01*
X206600000Y-134174999D01*
X206600000Y-133526870D01*
X206716282Y-133550000D01*
X206883718Y-133550000D01*
X207000000Y-133526870D01*
X207000000Y-134174999D01*
X207000001Y-134175000D01*
X208094697Y-134175000D01*
X208094700Y-134174999D01*
X208153036Y-134163396D01*
X208219189Y-134119193D01*
X208219193Y-134119189D01*
X208263396Y-134053036D01*
X208274999Y-133994700D01*
X208275000Y-133994697D01*
X208275000Y-132900001D01*
X208274999Y-132900000D01*
X207626870Y-132900000D01*
X207650000Y-132783718D01*
X207650000Y-132616282D01*
X207626870Y-132500000D01*
X208274999Y-132500000D01*
X208275000Y-132499999D01*
X208275000Y-131405302D01*
X208274999Y-131405299D01*
X208263396Y-131346963D01*
X208219193Y-131280810D01*
X208219189Y-131280806D01*
X208153036Y-131236603D01*
X208094700Y-131225000D01*
X207000001Y-131225000D01*
X207000000Y-131225001D01*
X207000000Y-131873129D01*
X206883718Y-131850000D01*
X206716282Y-131850000D01*
X206600000Y-131873129D01*
X206600000Y-131225001D01*
X206599999Y-131225000D01*
X205505299Y-131225000D01*
X205446963Y-131236603D01*
X205380810Y-131280806D01*
X205380806Y-131280810D01*
X205336603Y-131346963D01*
X205325000Y-131405299D01*
X200107736Y-131405299D01*
X200077672Y-131389029D01*
X200035495Y-131344706D01*
X200027425Y-131284055D01*
X200030638Y-131271369D01*
X200045442Y-131225806D01*
X200045443Y-131225800D01*
X200048374Y-131207298D01*
X200055500Y-131162300D01*
X200055500Y-130244081D01*
X200068124Y-130195706D01*
X200076535Y-130180687D01*
X200086713Y-130149362D01*
X200095443Y-130122494D01*
X200105500Y-130058992D01*
X200105500Y-128705500D01*
X201700000Y-130300000D01*
X204900000Y-130300000D01*
X206500000Y-128700000D01*
X206500000Y-125500000D01*
X204700000Y-123700000D01*
X201700000Y-123700000D01*
X199900000Y-125500000D01*
X199900000Y-127916090D01*
X199864499Y-127904556D01*
X199864500Y-127904556D01*
X199801003Y-127894500D01*
X199801000Y-127894500D01*
X194341008Y-127894500D01*
X194330258Y-127894922D01*
X194324876Y-127895134D01*
X194311331Y-127896200D01*
X194309396Y-127896353D01*
X194309393Y-127896353D01*
X194309392Y-127896354D01*
X194232230Y-127918115D01*
X194232224Y-127918117D01*
X194177708Y-127945894D01*
X194125699Y-127983681D01*
X191783666Y-130325714D01*
X191772739Y-130337534D01*
X191762645Y-130349353D01*
X191762639Y-130349362D01*
X191723464Y-130419314D01*
X191704556Y-130477507D01*
X191694500Y-130541004D01*
X187805500Y-130541004D01*
X187805500Y-127999006D01*
X187805500Y-127999000D01*
X187802970Y-127966856D01*
X187798125Y-127936263D01*
X187798116Y-127936206D01*
X187797353Y-127931718D01*
X187797352Y-127931713D01*
X187761408Y-127847617D01*
X187754844Y-127838583D01*
X187725444Y-127798117D01*
X187701203Y-127770372D01*
X187622693Y-127723464D01*
X187622691Y-127723463D01*
X187622689Y-127723462D01*
X187564499Y-127704556D01*
X187564500Y-127704556D01*
X187501003Y-127694500D01*
X187501000Y-127694500D01*
X182141008Y-127694500D01*
X182130258Y-127694922D01*
X182124876Y-127695134D01*
X182111331Y-127696200D01*
X182109396Y-127696353D01*
X182109393Y-127696353D01*
X182109392Y-127696354D01*
X182032230Y-127718115D01*
X182032224Y-127718117D01*
X181977708Y-127745894D01*
X181925699Y-127783681D01*
X181100000Y-128609380D01*
X181100000Y-125500000D01*
X179300000Y-123700000D01*
X176300000Y-123700000D01*
X174500000Y-125500000D01*
X174500000Y-128500000D01*
X174513338Y-128513338D01*
X174425965Y-128499500D01*
X174425962Y-128499500D01*
X172025962Y-128499500D01*
X169174038Y-128499500D01*
X169174035Y-128499500D01*
X168925219Y-128538908D01*
X168685620Y-128616759D01*
X168461155Y-128731129D01*
X168461151Y-128731131D01*
X168308433Y-128842088D01*
X168257345Y-128879205D01*
X167892077Y-129244472D01*
X167845185Y-129270733D01*
X167619763Y-129324852D01*
X167381566Y-129423516D01*
X167381554Y-129423522D01*
X167161738Y-129558226D01*
X167161732Y-129558231D01*
X166965681Y-129725675D01*
X166965675Y-129725681D01*
X166798231Y-129921732D01*
X166798226Y-129921738D01*
X166663522Y-130141554D01*
X166663516Y-130141566D01*
X166564852Y-130379763D01*
X166504663Y-130630469D01*
X166494638Y-130757857D01*
X166489534Y-130822719D01*
X166489500Y-130823150D01*
X166489500Y-132276850D01*
X166495369Y-132351441D01*
X166481084Y-132410936D01*
X166460658Y-132434752D01*
X166282856Y-132585344D01*
X166282843Y-132585357D01*
X166275044Y-132594566D01*
X166223007Y-132626750D01*
X166161991Y-132622200D01*
X166115302Y-132582655D01*
X166100500Y-132530581D01*
X166100500Y-124260435D01*
X166999500Y-124260435D01*
X166999500Y-125939564D01*
X167019978Y-126015988D01*
X167034564Y-126041250D01*
X167039904Y-126050500D01*
X167059540Y-126084511D01*
X167659540Y-126684511D01*
X167659539Y-126684511D01*
X167715489Y-126740460D01*
X167784007Y-126780019D01*
X167784011Y-126780021D01*
X167860435Y-126800499D01*
X167860437Y-126800500D01*
X167860438Y-126800500D01*
X170939563Y-126800500D01*
X170939563Y-126800499D01*
X171015989Y-126780021D01*
X171084511Y-126740460D01*
X171140460Y-126684511D01*
X171745475Y-126079494D01*
X171799992Y-126051718D01*
X171815479Y-126050499D01*
X172042099Y-126050499D01*
X172042102Y-126050499D01*
X172091330Y-126044019D01*
X172199359Y-125993644D01*
X172283644Y-125909359D01*
X172334019Y-125801330D01*
X172340500Y-125752103D01*
X172340499Y-124347898D01*
X172334019Y-124298670D01*
X172291050Y-124206523D01*
X172283645Y-124190643D01*
X172283644Y-124190642D01*
X172283644Y-124190641D01*
X172199359Y-124106356D01*
X172199357Y-124106355D01*
X172199356Y-124106354D01*
X172091335Y-124055983D01*
X172091333Y-124055982D01*
X172091330Y-124055981D01*
X172042103Y-124049500D01*
X172042101Y-124049500D01*
X171687900Y-124049500D01*
X171687892Y-124049501D01*
X171638670Y-124055980D01*
X171530643Y-124106354D01*
X171446354Y-124190643D01*
X171395983Y-124298664D01*
X171395981Y-124298668D01*
X171395981Y-124298670D01*
X171395767Y-124300300D01*
X171389500Y-124347898D01*
X171389500Y-125544520D01*
X171370593Y-125602711D01*
X171360504Y-125614524D01*
X170804525Y-126170504D01*
X170750008Y-126198281D01*
X170734521Y-126199500D01*
X169874460Y-126199500D01*
X169816269Y-126180593D01*
X169780305Y-126131093D01*
X169780305Y-126069907D01*
X169816269Y-126020407D01*
X169832620Y-126010776D01*
X169846344Y-126004375D01*
X169869359Y-125993644D01*
X169953644Y-125909359D01*
X170004019Y-125801330D01*
X170010500Y-125752103D01*
X170010499Y-124455477D01*
X170029406Y-124397287D01*
X170039489Y-124385480D01*
X172595475Y-121829496D01*
X172649992Y-121801719D01*
X172665479Y-121800500D01*
X172735500Y-121800500D01*
X172793691Y-121819407D01*
X172829655Y-121868907D01*
X172834500Y-121899500D01*
X172834500Y-124031490D01*
X172815593Y-124089681D01*
X172805504Y-124101494D01*
X172800642Y-124106355D01*
X172800641Y-124106356D01*
X172722990Y-124184007D01*
X172716354Y-124190643D01*
X172665983Y-124298664D01*
X172665981Y-124298668D01*
X172665981Y-124298670D01*
X172665767Y-124300300D01*
X172659500Y-124347898D01*
X172659500Y-125752098D01*
X172659501Y-125752108D01*
X172665980Y-125801329D01*
X172716354Y-125909356D01*
X172716355Y-125909357D01*
X172716356Y-125909359D01*
X172800641Y-125993644D01*
X172908670Y-126044019D01*
X172957897Y-126050500D01*
X173312102Y-126050499D01*
X173361330Y-126044019D01*
X173469359Y-125993644D01*
X173553644Y-125909359D01*
X173604019Y-125801330D01*
X173610500Y-125752103D01*
X173610499Y-124347898D01*
X173604019Y-124298670D01*
X173561050Y-124206523D01*
X173553645Y-124190643D01*
X173553644Y-124190642D01*
X173553644Y-124190641D01*
X173469359Y-124106356D01*
X173469357Y-124106355D01*
X173464496Y-124101494D01*
X173436719Y-124046977D01*
X173435500Y-124031490D01*
X173435500Y-121899500D01*
X173454407Y-121841309D01*
X173503907Y-121805345D01*
X173534500Y-121800500D01*
X178260438Y-121800500D01*
X183071635Y-121800500D01*
X183129826Y-121819407D01*
X183155610Y-121850108D01*
X183156035Y-121849806D01*
X183159884Y-121855197D01*
X183160576Y-121856020D01*
X183160802Y-121856483D01*
X183209316Y-121904997D01*
X183237092Y-121959512D01*
X183227521Y-122019944D01*
X183209315Y-122045002D01*
X183160803Y-122093514D01*
X183160801Y-122093517D01*
X183109427Y-122198603D01*
X183109427Y-122198606D01*
X183099500Y-122266739D01*
X183099500Y-122633259D01*
X183100518Y-122640243D01*
X183109427Y-122701394D01*
X183159206Y-122803217D01*
X183160802Y-122806482D01*
X183243517Y-122889197D01*
X183285490Y-122909716D01*
X183348604Y-122940571D01*
X183348605Y-122940571D01*
X183348607Y-122940572D01*
X183416740Y-122950499D01*
X183416743Y-122950499D01*
X184508257Y-122950499D01*
X184508260Y-122950499D01*
X184576393Y-122940572D01*
X184681483Y-122889197D01*
X184764198Y-122806482D01*
X184815573Y-122701392D01*
X184825500Y-122633259D01*
X184825500Y-122266739D01*
X184815573Y-122198606D01*
X184764198Y-122093516D01*
X184715682Y-122045000D01*
X184687907Y-121990486D01*
X184697478Y-121930054D01*
X184715682Y-121904998D01*
X184764198Y-121856483D01*
X184764423Y-121856021D01*
X184764819Y-121855612D01*
X184768965Y-121849806D01*
X184769835Y-121850427D01*
X184806965Y-121812047D01*
X184853365Y-121800500D01*
X185520775Y-121800500D01*
X185578966Y-121819407D01*
X185614930Y-121868907D01*
X185614930Y-121930093D01*
X185578966Y-121979593D01*
X185564258Y-121988439D01*
X185518517Y-122010801D01*
X185435801Y-122093517D01*
X185384427Y-122198603D01*
X185384427Y-122198606D01*
X185374500Y-122266739D01*
X185374500Y-122633259D01*
X185375518Y-122640243D01*
X185384427Y-122701394D01*
X185434206Y-122803217D01*
X185435802Y-122806482D01*
X185518517Y-122889197D01*
X185560490Y-122909716D01*
X185623604Y-122940571D01*
X185623605Y-122940571D01*
X185623607Y-122940572D01*
X185691740Y-122950499D01*
X186005500Y-122950499D01*
X186063691Y-122969406D01*
X186099655Y-123018906D01*
X186104500Y-123049499D01*
X186104500Y-123221635D01*
X186085593Y-123279826D01*
X186054889Y-123305612D01*
X186055192Y-123306036D01*
X186049817Y-123309873D01*
X186048982Y-123310574D01*
X186048800Y-123310663D01*
X186048518Y-123310801D01*
X185965801Y-123393518D01*
X185914427Y-123498604D01*
X185909694Y-123531093D01*
X185904500Y-123566740D01*
X185904500Y-125283260D01*
X185911118Y-125328682D01*
X185914427Y-125351395D01*
X185938189Y-125400000D01*
X185965802Y-125456483D01*
X186048517Y-125539198D01*
X186102285Y-125565483D01*
X186153604Y-125590572D01*
X186153605Y-125590572D01*
X186153607Y-125590573D01*
X186221740Y-125600500D01*
X186221743Y-125600500D01*
X186588257Y-125600500D01*
X186588260Y-125600500D01*
X186656393Y-125590573D01*
X186761483Y-125539198D01*
X186844198Y-125456483D01*
X186895573Y-125351393D01*
X186905500Y-125283260D01*
X186905500Y-123566740D01*
X186895573Y-123498607D01*
X186844198Y-123393517D01*
X186761483Y-123310802D01*
X186761017Y-123310574D01*
X186760603Y-123310173D01*
X186754808Y-123306036D01*
X186755428Y-123305167D01*
X186717045Y-123268031D01*
X186705500Y-123221635D01*
X186705500Y-123047449D01*
X186724407Y-122989258D01*
X186773907Y-122953294D01*
X186790216Y-122949485D01*
X186851393Y-122940572D01*
X186956483Y-122889197D01*
X187039198Y-122806482D01*
X187090573Y-122701392D01*
X187090573Y-122701391D01*
X187093802Y-122694787D01*
X187136345Y-122650813D01*
X187196611Y-122640243D01*
X187251579Y-122667115D01*
X187270952Y-122693322D01*
X187271698Y-122694787D01*
X187301472Y-122753220D01*
X187396780Y-122848528D01*
X187396782Y-122848529D01*
X187516867Y-122909716D01*
X187516869Y-122909716D01*
X187516874Y-122909719D01*
X187592541Y-122921703D01*
X187616510Y-122925500D01*
X187616512Y-122925500D01*
X188183490Y-122925500D01*
X188204885Y-122922111D01*
X188283126Y-122909719D01*
X188403220Y-122848528D01*
X188498528Y-122753220D01*
X188559719Y-122633126D01*
X188575500Y-122533488D01*
X188575500Y-122016512D01*
X188574595Y-122010801D01*
X188559420Y-121914987D01*
X188568991Y-121854555D01*
X188612256Y-121811291D01*
X188657201Y-121800500D01*
X195671635Y-121800500D01*
X195729826Y-121819407D01*
X195755610Y-121850108D01*
X195756035Y-121849806D01*
X195759884Y-121855197D01*
X195760576Y-121856020D01*
X195760802Y-121856483D01*
X195809316Y-121904997D01*
X195837092Y-121959512D01*
X195827521Y-122019944D01*
X195809315Y-122045002D01*
X195760803Y-122093514D01*
X195760801Y-122093517D01*
X195709427Y-122198603D01*
X195709427Y-122198606D01*
X195699500Y-122266739D01*
X195699500Y-122633259D01*
X195700518Y-122640243D01*
X195709427Y-122701394D01*
X195759206Y-122803217D01*
X195760802Y-122806482D01*
X195843517Y-122889197D01*
X195885490Y-122909716D01*
X195948604Y-122940571D01*
X195948605Y-122940571D01*
X195948607Y-122940572D01*
X196016740Y-122950499D01*
X196016743Y-122950499D01*
X197108257Y-122950499D01*
X197108260Y-122950499D01*
X197176393Y-122940572D01*
X197281483Y-122889197D01*
X197364198Y-122806482D01*
X197415573Y-122701392D01*
X197425500Y-122633259D01*
X197425500Y-122266739D01*
X197415573Y-122198606D01*
X197364198Y-122093516D01*
X197315682Y-122045000D01*
X197287907Y-121990486D01*
X197297478Y-121930054D01*
X197315682Y-121904998D01*
X197364198Y-121856483D01*
X197364423Y-121856021D01*
X197364819Y-121855612D01*
X197368965Y-121849806D01*
X197369835Y-121850427D01*
X197406965Y-121812047D01*
X197453365Y-121800500D01*
X198120775Y-121800500D01*
X198178966Y-121819407D01*
X198214930Y-121868907D01*
X198214930Y-121930093D01*
X198178966Y-121979593D01*
X198164258Y-121988439D01*
X198118517Y-122010801D01*
X198035801Y-122093517D01*
X197984427Y-122198603D01*
X197984427Y-122198606D01*
X197974500Y-122266739D01*
X197974500Y-122633259D01*
X197975518Y-122640243D01*
X197984427Y-122701394D01*
X198034206Y-122803217D01*
X198035802Y-122806482D01*
X198118517Y-122889197D01*
X198160490Y-122909716D01*
X198223604Y-122940571D01*
X198223605Y-122940571D01*
X198223607Y-122940572D01*
X198291740Y-122950499D01*
X198605500Y-122950499D01*
X198663691Y-122969406D01*
X198699655Y-123018906D01*
X198704500Y-123049499D01*
X198704500Y-123221635D01*
X198685593Y-123279826D01*
X198654889Y-123305612D01*
X198655192Y-123306036D01*
X198649817Y-123309873D01*
X198648982Y-123310574D01*
X198648800Y-123310663D01*
X198648518Y-123310801D01*
X198565801Y-123393518D01*
X198514427Y-123498604D01*
X198509694Y-123531093D01*
X198504500Y-123566740D01*
X198504500Y-125283260D01*
X198511118Y-125328682D01*
X198514427Y-125351395D01*
X198538189Y-125400000D01*
X198565802Y-125456483D01*
X198648517Y-125539198D01*
X198702285Y-125565483D01*
X198753604Y-125590572D01*
X198753605Y-125590572D01*
X198753607Y-125590573D01*
X198821740Y-125600500D01*
X198821743Y-125600500D01*
X199188257Y-125600500D01*
X199188260Y-125600500D01*
X199256393Y-125590573D01*
X199361483Y-125539198D01*
X199444198Y-125456483D01*
X199495573Y-125351393D01*
X199505500Y-125283260D01*
X199505500Y-123566740D01*
X199495573Y-123498607D01*
X199444198Y-123393517D01*
X199361483Y-123310802D01*
X199361017Y-123310574D01*
X199360603Y-123310173D01*
X199354808Y-123306036D01*
X199355428Y-123305167D01*
X199317045Y-123268031D01*
X199305500Y-123221635D01*
X199305500Y-123047449D01*
X199324407Y-122989258D01*
X199373907Y-122953294D01*
X199390216Y-122949485D01*
X199451393Y-122940572D01*
X199556483Y-122889197D01*
X199639198Y-122806482D01*
X199690573Y-122701392D01*
X199690573Y-122701391D01*
X199693802Y-122694787D01*
X199736345Y-122650813D01*
X199796611Y-122640243D01*
X199851579Y-122667115D01*
X199870952Y-122693322D01*
X199871698Y-122694787D01*
X199901472Y-122753220D01*
X199996780Y-122848528D01*
X199996782Y-122848529D01*
X200116867Y-122909716D01*
X200116869Y-122909716D01*
X200116874Y-122909719D01*
X200192541Y-122921703D01*
X200216510Y-122925500D01*
X200216512Y-122925500D01*
X200783490Y-122925500D01*
X200804885Y-122922111D01*
X200883126Y-122909719D01*
X201003220Y-122848528D01*
X201098528Y-122753220D01*
X201159719Y-122633126D01*
X201175500Y-122533488D01*
X201175500Y-122016512D01*
X201174595Y-122010801D01*
X201159420Y-121914987D01*
X201168991Y-121854555D01*
X201212256Y-121811291D01*
X201257201Y-121800500D01*
X210309521Y-121800500D01*
X210367712Y-121819407D01*
X210379525Y-121829496D01*
X210595504Y-122045475D01*
X210623281Y-122099992D01*
X210624500Y-122115479D01*
X210624500Y-122583489D01*
X210640281Y-122683125D01*
X210640283Y-122683132D01*
X210701470Y-122803217D01*
X210701472Y-122803220D01*
X210796780Y-122898528D01*
X210796782Y-122898529D01*
X210916867Y-122959716D01*
X210916869Y-122959716D01*
X210916874Y-122959719D01*
X210992541Y-122971703D01*
X211016510Y-122975500D01*
X211534521Y-122975500D01*
X211592712Y-122994407D01*
X211604525Y-123004496D01*
X211668926Y-123068897D01*
X211696703Y-123123414D01*
X211687132Y-123183846D01*
X211643867Y-123227111D01*
X211583435Y-123236682D01*
X211506522Y-123224500D01*
X211043479Y-123224500D01*
X211043476Y-123224501D01*
X210949700Y-123239352D01*
X210949695Y-123239354D01*
X210836659Y-123296949D01*
X210746949Y-123386659D01*
X210689354Y-123499695D01*
X210686774Y-123515986D01*
X210658997Y-123570503D01*
X210604481Y-123598281D01*
X210588993Y-123599500D01*
X210411008Y-123599500D01*
X210352817Y-123580593D01*
X210316853Y-123531093D01*
X210313227Y-123515987D01*
X210310647Y-123499699D01*
X210310646Y-123499697D01*
X210310646Y-123499696D01*
X210253050Y-123386658D01*
X210163342Y-123296950D01*
X210050304Y-123239354D01*
X210050305Y-123239354D01*
X209956522Y-123224500D01*
X209493479Y-123224500D01*
X209493476Y-123224501D01*
X209399700Y-123239352D01*
X209399695Y-123239354D01*
X209286659Y-123296949D01*
X209196949Y-123386659D01*
X209139354Y-123499695D01*
X209124500Y-123593477D01*
X209124500Y-124206520D01*
X209124501Y-124206523D01*
X209139352Y-124300299D01*
X209139354Y-124300304D01*
X209196950Y-124413342D01*
X209286658Y-124503050D01*
X209399696Y-124560646D01*
X209493481Y-124575500D01*
X209956518Y-124575499D01*
X209956520Y-124575499D01*
X209956521Y-124575498D01*
X210025502Y-124564574D01*
X210050299Y-124560647D01*
X210050299Y-124560646D01*
X210050304Y-124560646D01*
X210163342Y-124503050D01*
X210253050Y-124413342D01*
X210310646Y-124300304D01*
X210313226Y-124284013D01*
X210341003Y-124229497D01*
X210395519Y-124201719D01*
X210411007Y-124200500D01*
X210588992Y-124200500D01*
X210647183Y-124219407D01*
X210683147Y-124268907D01*
X210686773Y-124284013D01*
X210689352Y-124300300D01*
X210689354Y-124300304D01*
X210746950Y-124413342D01*
X210836658Y-124503050D01*
X210920446Y-124545742D01*
X210963710Y-124589006D01*
X210974500Y-124633951D01*
X210974500Y-125139381D01*
X210963710Y-125184326D01*
X210915281Y-125279372D01*
X210915281Y-125279374D01*
X210899500Y-125379010D01*
X210899500Y-125895989D01*
X210908215Y-125951012D01*
X210898644Y-126011444D01*
X210855380Y-126054709D01*
X210810434Y-126065500D01*
X207799998Y-126065500D01*
X207754272Y-126070651D01*
X207671872Y-126110334D01*
X207614850Y-126181837D01*
X207594500Y-126271000D01*
X207594500Y-128004000D01*
X207599651Y-128049727D01*
X207639334Y-128132127D01*
X207710837Y-128189149D01*
X207800000Y-128209500D01*
X210810434Y-128209500D01*
X210868625Y-128228407D01*
X210904589Y-128277907D01*
X210908215Y-128323988D01*
X210899500Y-128379010D01*
X210899500Y-128895989D01*
X210915281Y-128995625D01*
X210915283Y-128995632D01*
X210976470Y-129115717D01*
X210976472Y-129115720D01*
X211071780Y-129211028D01*
X211071782Y-129211029D01*
X211191867Y-129272216D01*
X211191869Y-129272216D01*
X211191874Y-129272219D01*
X211267541Y-129284203D01*
X211291510Y-129288000D01*
X211291512Y-129288000D01*
X211300500Y-129288000D01*
X211358691Y-129306907D01*
X211394655Y-129356407D01*
X211399500Y-129387000D01*
X211399500Y-131206780D01*
X211380593Y-131264971D01*
X211332646Y-131300415D01*
X211205267Y-131344145D01*
X211205265Y-131344145D01*
X211205262Y-131344147D01*
X210990211Y-131460527D01*
X210990208Y-131460529D01*
X210797246Y-131610718D01*
X210631632Y-131790623D01*
X210497889Y-131995333D01*
X210426469Y-132158156D01*
X210399664Y-132219265D01*
X210339635Y-132456309D01*
X210326555Y-132614159D01*
X210322048Y-132636575D01*
X210279059Y-132768884D01*
X210249500Y-132955515D01*
X210249500Y-134938091D01*
X210230593Y-134996282D01*
X210209288Y-135017746D01*
X210127854Y-135077846D01*
X210127845Y-135077855D01*
X210047207Y-135187116D01*
X210002355Y-135315296D01*
X210002353Y-135315305D01*
X209999500Y-135345725D01*
X209999500Y-137254274D01*
X210002353Y-137284694D01*
X210002355Y-137284703D01*
X210047207Y-137412883D01*
X210127845Y-137522144D01*
X210127847Y-137522146D01*
X210127850Y-137522150D01*
X210127853Y-137522152D01*
X210127855Y-137522154D01*
X210237116Y-137602792D01*
X210237117Y-137602792D01*
X210237118Y-137602793D01*
X210365301Y-137647646D01*
X210395725Y-137650499D01*
X210395727Y-137650500D01*
X210395734Y-137650500D01*
X212504273Y-137650500D01*
X212504273Y-137650499D01*
X212534699Y-137647646D01*
X212662882Y-137602793D01*
X212772150Y-137522150D01*
X212852793Y-137412882D01*
X212897646Y-137284699D01*
X212900499Y-137254273D01*
X212900500Y-137254273D01*
X212900500Y-135345727D01*
X212900499Y-135345725D01*
X212897646Y-135315305D01*
X212897646Y-135315301D01*
X212852793Y-135187118D01*
X212806666Y-135124618D01*
X212772154Y-135077855D01*
X212772152Y-135077853D01*
X212772150Y-135077850D01*
X212690712Y-135017746D01*
X212655119Y-134967979D01*
X212650500Y-134938091D01*
X212650500Y-133956183D01*
X212669407Y-133897992D01*
X212688693Y-133878058D01*
X212802754Y-133789281D01*
X212968368Y-133609377D01*
X213102111Y-133404667D01*
X213200336Y-133180736D01*
X213260364Y-132943692D01*
X213280557Y-132700000D01*
X213260364Y-132456308D01*
X213200336Y-132219264D01*
X213102111Y-131995333D01*
X212968368Y-131790623D01*
X212802754Y-131610719D01*
X212609788Y-131460527D01*
X212604191Y-131457498D01*
X212394737Y-131344147D01*
X212394736Y-131344146D01*
X212394733Y-131344145D01*
X212267353Y-131300415D01*
X212218456Y-131263638D01*
X212200500Y-131206780D01*
X212200500Y-129373819D01*
X212219407Y-129315628D01*
X212268907Y-129279664D01*
X212284011Y-129276038D01*
X212308126Y-129272219D01*
X212311043Y-129270733D01*
X212319849Y-129266245D01*
X212428220Y-129211028D01*
X212523528Y-129115720D01*
X212584719Y-128995626D01*
X212600500Y-128895988D01*
X212600500Y-128379012D01*
X212584719Y-128279374D01*
X212584716Y-128279369D01*
X212584716Y-128279367D01*
X212523529Y-128159282D01*
X212523528Y-128159280D01*
X212428220Y-128063972D01*
X212428217Y-128063970D01*
X212308132Y-128002783D01*
X212308127Y-128002781D01*
X212308126Y-128002781D01*
X212272987Y-127997215D01*
X212226048Y-127989781D01*
X212171532Y-127962003D01*
X212143755Y-127907486D01*
X212153327Y-127847054D01*
X212196591Y-127803790D01*
X212241536Y-127793000D01*
X212399999Y-127793000D01*
X212400000Y-127793000D01*
X212445728Y-127787848D01*
X212528127Y-127748166D01*
X212585149Y-127676663D01*
X212605500Y-127587500D01*
X212605500Y-127060478D01*
X212624407Y-127002287D01*
X212634490Y-126990480D01*
X213165460Y-126459511D01*
X213205021Y-126390989D01*
X213225500Y-126314562D01*
X213225500Y-124633951D01*
X213244407Y-124575760D01*
X213279552Y-124545742D01*
X213363342Y-124503050D01*
X213453050Y-124413342D01*
X213510646Y-124300304D01*
X213525500Y-124206519D01*
X213525499Y-123593482D01*
X213525498Y-123593478D01*
X213525498Y-123593476D01*
X213510647Y-123499700D01*
X213510646Y-123499698D01*
X213510646Y-123499696D01*
X213453050Y-123386658D01*
X213363342Y-123296950D01*
X213250304Y-123239354D01*
X213250305Y-123239354D01*
X213156522Y-123224500D01*
X212715479Y-123224500D01*
X212657288Y-123205593D01*
X212645475Y-123195504D01*
X211954496Y-122504525D01*
X211926719Y-122450008D01*
X211925500Y-122434521D01*
X211925500Y-122016510D01*
X211921054Y-121988441D01*
X211909719Y-121916874D01*
X211909716Y-121916869D01*
X211909716Y-121916867D01*
X211848529Y-121796782D01*
X211848528Y-121796780D01*
X211753220Y-121701472D01*
X211753217Y-121701470D01*
X211633132Y-121640283D01*
X211633127Y-121640281D01*
X211633126Y-121640281D01*
X211599913Y-121635020D01*
X211533490Y-121624500D01*
X211533488Y-121624500D01*
X211065479Y-121624500D01*
X211007288Y-121605593D01*
X210995476Y-121595504D01*
X210659511Y-121259540D01*
X210616139Y-121234499D01*
X210616138Y-121234499D01*
X210590988Y-121219978D01*
X210514564Y-121199500D01*
X210514562Y-121199500D01*
X200539562Y-121199500D01*
X197453365Y-121199500D01*
X197395174Y-121180593D01*
X197369389Y-121149891D01*
X197368965Y-121150194D01*
X197365115Y-121144802D01*
X197364423Y-121143978D01*
X197364198Y-121143518D01*
X197364198Y-121143517D01*
X197315682Y-121095001D01*
X197287907Y-121040487D01*
X197297478Y-120980055D01*
X197315682Y-120954999D01*
X197364198Y-120906484D01*
X197415573Y-120801394D01*
X197425500Y-120733261D01*
X197425500Y-120366741D01*
X197415573Y-120298608D01*
X197364198Y-120193518D01*
X197281483Y-120110803D01*
X197281481Y-120110802D01*
X197176395Y-120059428D01*
X197149139Y-120055457D01*
X197108260Y-120049501D01*
X196016740Y-120049501D01*
X195982673Y-120054464D01*
X195948604Y-120059428D01*
X195843518Y-120110802D01*
X195760801Y-120193519D01*
X195760577Y-120193979D01*
X195760180Y-120194388D01*
X195756035Y-120200195D01*
X195755164Y-120199573D01*
X195718035Y-120237954D01*
X195671635Y-120249501D01*
X195556900Y-120249501D01*
X195498709Y-120230594D01*
X195486902Y-120220510D01*
X195413342Y-120146950D01*
X195300304Y-120089354D01*
X195300305Y-120089354D01*
X195206522Y-120074500D01*
X195206519Y-120074500D01*
X194765479Y-120074500D01*
X194707288Y-120055593D01*
X194695475Y-120045504D01*
X194650471Y-120000500D01*
X194109511Y-119459540D01*
X194109508Y-119459538D01*
X194040992Y-119419980D01*
X194040988Y-119419978D01*
X193964564Y-119399500D01*
X193964562Y-119399500D01*
X171860438Y-119399500D01*
X171860435Y-119399500D01*
X171784011Y-119419978D01*
X171784007Y-119419980D01*
X171715491Y-119459538D01*
X167115489Y-124059540D01*
X167115488Y-124059539D01*
X167059539Y-124115489D01*
X167019980Y-124184007D01*
X167019978Y-124184011D01*
X166999500Y-124260435D01*
X166100500Y-124260435D01*
X166100500Y-115399500D01*
X166119407Y-115341309D01*
X166168907Y-115305345D01*
X166199500Y-115300500D01*
X214800500Y-115300500D01*
X214858691Y-115319407D01*
G37*
%TD.AperFunction*%
%TD*%
%TA.AperFunction,Conductor*%
%TO.N,GND*%
G36*
X206500000Y-125500000D02*
G01*
X206500000Y-128700000D01*
X204900000Y-130300000D01*
X201700000Y-130300000D01*
X200105500Y-128705500D01*
X200105500Y-128199006D01*
X200105500Y-128199000D01*
X200102970Y-128166856D01*
X200098125Y-128136263D01*
X200098116Y-128136206D01*
X200097353Y-128131718D01*
X200097352Y-128131713D01*
X200061408Y-128047617D01*
X200029718Y-128004000D01*
X200025444Y-127998117D01*
X200001203Y-127970372D01*
X199922693Y-127923464D01*
X199922691Y-127923463D01*
X199922689Y-127923462D01*
X199900000Y-127916090D01*
X199900000Y-125500000D01*
X201700000Y-123700000D01*
X204700000Y-123700000D01*
X206500000Y-125500000D01*
G37*
%TD.AperFunction*%
%TD*%
%TA.AperFunction,Conductor*%
%TO.N,Net-(D3-A)*%
G36*
X199859191Y-128118907D02*
G01*
X199895155Y-128168407D01*
X199900000Y-128199000D01*
X199900000Y-130058992D01*
X199881093Y-130117183D01*
X199871005Y-130128995D01*
X199850000Y-130150000D01*
X199850000Y-131162300D01*
X199831093Y-131220491D01*
X199781593Y-131256455D01*
X199734705Y-131259950D01*
X199522263Y-131224500D01*
X199277737Y-131224500D01*
X199036542Y-131264748D01*
X198805263Y-131344146D01*
X198590211Y-131460527D01*
X198590208Y-131460529D01*
X198397246Y-131610718D01*
X198231632Y-131790623D01*
X198097889Y-131995333D01*
X198026469Y-132158156D01*
X197999664Y-132219265D01*
X197939635Y-132456309D01*
X197919443Y-132700000D01*
X197939635Y-132943690D01*
X197999665Y-133180739D01*
X198041161Y-133275339D01*
X198049500Y-133315107D01*
X198049500Y-134938091D01*
X198030593Y-134996282D01*
X198009288Y-135017746D01*
X197927854Y-135077846D01*
X197927845Y-135077855D01*
X197847207Y-135187116D01*
X197802355Y-135315296D01*
X197802353Y-135315305D01*
X197799500Y-135345725D01*
X197799500Y-137254274D01*
X197802353Y-137284694D01*
X197802355Y-137284703D01*
X197831608Y-137368302D01*
X197832981Y-137429472D01*
X197798138Y-137479767D01*
X197740386Y-137499975D01*
X197738164Y-137500000D01*
X191999000Y-137500000D01*
X191940809Y-137481093D01*
X191904845Y-137431593D01*
X191900000Y-137401000D01*
X191900000Y-131405299D01*
X192925000Y-131405299D01*
X192925000Y-132499999D01*
X192925001Y-132500000D01*
X193573130Y-132500000D01*
X193550000Y-132616282D01*
X193550000Y-132783718D01*
X193573130Y-132900000D01*
X192925001Y-132900000D01*
X192925000Y-132900001D01*
X192925000Y-133994700D01*
X192936603Y-134053036D01*
X192980806Y-134119189D01*
X192980810Y-134119193D01*
X193046963Y-134163396D01*
X193105299Y-134174999D01*
X193105303Y-134175000D01*
X194199999Y-134175000D01*
X194200000Y-134174999D01*
X194200000Y-133526870D01*
X194316282Y-133550000D01*
X194483718Y-133550000D01*
X194600000Y-133526870D01*
X194600000Y-134174999D01*
X194600001Y-134175000D01*
X195694697Y-134175000D01*
X195694700Y-134174999D01*
X195753036Y-134163396D01*
X195819189Y-134119193D01*
X195819193Y-134119189D01*
X195863396Y-134053036D01*
X195874999Y-133994700D01*
X195875000Y-133994697D01*
X195875000Y-132900001D01*
X195874999Y-132900000D01*
X195226870Y-132900000D01*
X195250000Y-132783718D01*
X195250000Y-132616282D01*
X195226870Y-132500000D01*
X195874999Y-132500000D01*
X195875000Y-132499999D01*
X195875000Y-131405302D01*
X195874999Y-131405299D01*
X195863396Y-131346963D01*
X195819193Y-131280810D01*
X195819189Y-131280806D01*
X195753036Y-131236603D01*
X195694700Y-131225000D01*
X194600001Y-131225000D01*
X194600000Y-131225001D01*
X194600000Y-131873129D01*
X194483718Y-131850000D01*
X194316282Y-131850000D01*
X194200000Y-131873129D01*
X194200000Y-131225001D01*
X194199999Y-131225000D01*
X193105299Y-131225000D01*
X193046963Y-131236603D01*
X192980810Y-131280806D01*
X192980806Y-131280810D01*
X192936603Y-131346963D01*
X192925000Y-131405299D01*
X191900000Y-131405299D01*
X191900000Y-130541008D01*
X191918907Y-130482817D01*
X191928996Y-130471004D01*
X194271004Y-128128996D01*
X194325521Y-128101219D01*
X194341008Y-128100000D01*
X199801000Y-128100000D01*
X199859191Y-128118907D01*
G37*
%TD.AperFunction*%
%TD*%
%TA.AperFunction,Conductor*%
%TO.N,GND*%
G36*
X181100000Y-125500000D02*
G01*
X181100000Y-128609380D01*
X179583667Y-130125713D01*
X179572739Y-130137534D01*
X179562645Y-130149353D01*
X179562639Y-130149362D01*
X179523464Y-130219314D01*
X179504556Y-130277507D01*
X179501180Y-130298819D01*
X179500000Y-130300000D01*
X176723755Y-130300000D01*
X176618293Y-130154844D01*
X176589143Y-130125694D01*
X176440156Y-129976706D01*
X176440156Y-129976707D01*
X175342656Y-128879207D01*
X175138845Y-128731130D01*
X175138844Y-128731129D01*
X175138842Y-128731128D01*
X174914379Y-128616759D01*
X174674780Y-128538908D01*
X174513338Y-128513338D01*
X174500000Y-128500000D01*
X174500000Y-125500000D01*
X176300000Y-123700000D01*
X179300000Y-123700000D01*
X181100000Y-125500000D01*
G37*
%TD.AperFunction*%
%TD*%
%TA.AperFunction,Conductor*%
%TO.N,Net-(D2-A)*%
G36*
X187559191Y-127918907D02*
G01*
X187595155Y-127968407D01*
X187600000Y-127999000D01*
X187600000Y-131207295D01*
X187581093Y-131265486D01*
X187531593Y-131301450D01*
X187470407Y-131301450D01*
X187468855Y-131300931D01*
X187363457Y-131264748D01*
X187122263Y-131224500D01*
X186877737Y-131224500D01*
X186636542Y-131264748D01*
X186405263Y-131344146D01*
X186190211Y-131460527D01*
X186190208Y-131460529D01*
X185997246Y-131610718D01*
X185831632Y-131790623D01*
X185697889Y-131995333D01*
X185626469Y-132158156D01*
X185599664Y-132219265D01*
X185539635Y-132456309D01*
X185526555Y-132614159D01*
X185522048Y-132636575D01*
X185479059Y-132768884D01*
X185449500Y-132955515D01*
X185449500Y-134875591D01*
X185430593Y-134933782D01*
X185409288Y-134955246D01*
X185327854Y-135015346D01*
X185327845Y-135015355D01*
X185247207Y-135124616D01*
X185202355Y-135252796D01*
X185202353Y-135252805D01*
X185199500Y-135283225D01*
X185199500Y-137191774D01*
X185202353Y-137222194D01*
X185202353Y-137222198D01*
X185202354Y-137222199D01*
X185247207Y-137350382D01*
X185247211Y-137350387D01*
X185249512Y-137354742D01*
X185259985Y-137415025D01*
X185233024Y-137469950D01*
X185178929Y-137498539D01*
X185161983Y-137500000D01*
X179799000Y-137500000D01*
X179740809Y-137481093D01*
X179704845Y-137431593D01*
X179700000Y-137401000D01*
X179700000Y-131405299D01*
X180525000Y-131405299D01*
X180525000Y-132499999D01*
X180525001Y-132500000D01*
X181173130Y-132500000D01*
X181150000Y-132616282D01*
X181150000Y-132783718D01*
X181173130Y-132900000D01*
X180525001Y-132900000D01*
X180525000Y-132900001D01*
X180525000Y-133994700D01*
X180536603Y-134053036D01*
X180580806Y-134119189D01*
X180580810Y-134119193D01*
X180646963Y-134163396D01*
X180705299Y-134174999D01*
X180705303Y-134175000D01*
X181799999Y-134175000D01*
X181800000Y-134174999D01*
X181800000Y-133526870D01*
X181916282Y-133550000D01*
X182083718Y-133550000D01*
X182200000Y-133526870D01*
X182200000Y-134174999D01*
X182200001Y-134175000D01*
X183294697Y-134175000D01*
X183294700Y-134174999D01*
X183353036Y-134163396D01*
X183419189Y-134119193D01*
X183419193Y-134119189D01*
X183463396Y-134053036D01*
X183474999Y-133994700D01*
X183475000Y-133994697D01*
X183475000Y-132900001D01*
X183474999Y-132900000D01*
X182826870Y-132900000D01*
X182850000Y-132783718D01*
X182850000Y-132616282D01*
X182826870Y-132500000D01*
X183474999Y-132500000D01*
X183475000Y-132499999D01*
X183475000Y-131405302D01*
X183474999Y-131405299D01*
X183463396Y-131346963D01*
X183419193Y-131280810D01*
X183419189Y-131280806D01*
X183353036Y-131236603D01*
X183294700Y-131225000D01*
X182200001Y-131225000D01*
X182200000Y-131225001D01*
X182200000Y-131873129D01*
X182083718Y-131850000D01*
X181916282Y-131850000D01*
X181800000Y-131873129D01*
X181800000Y-131225001D01*
X181799999Y-131225000D01*
X180705299Y-131225000D01*
X180646963Y-131236603D01*
X180580810Y-131280806D01*
X180580806Y-131280810D01*
X180536603Y-131346963D01*
X180525000Y-131405299D01*
X179700000Y-131405299D01*
X179700000Y-130341008D01*
X179718907Y-130282817D01*
X179728996Y-130271004D01*
X182071004Y-127928996D01*
X182125521Y-127901219D01*
X182141008Y-127900000D01*
X187501000Y-127900000D01*
X187559191Y-127918907D01*
G37*
%TD.AperFunction*%
%TD*%
M02*
