%TF.GenerationSoftware,KiCad,Pcbnew,8.0.8*%
%TF.CreationDate,2025-03-09T17:27:28+01:00*%
%TF.ProjectId,02-dual-high-current-switch,30322d64-7561-46c2-9d68-6967682d6375,rev?*%
%TF.SameCoordinates,Original*%
%TF.FileFunction,Paste,Bot*%
%TF.FilePolarity,Positive*%
%FSLAX46Y46*%
G04 Gerber Fmt 4.6, Leading zero omitted, Abs format (unit mm)*
G04 Created by KiCad (PCBNEW 8.0.8) date 2025-03-09 17:27:28*
%MOMM*%
%LPD*%
G01*
G04 APERTURE LIST*
G04 Aperture macros list*
%AMRoundRect*
0 Rectangle with rounded corners*
0 $1 Rounding radius*
0 $2 $3 $4 $5 $6 $7 $8 $9 X,Y pos of 4 corners*
0 Add a 4 corners polygon primitive as box body*
4,1,4,$2,$3,$4,$5,$6,$7,$8,$9,$2,$3,0*
0 Add four circle primitives for the rounded corners*
1,1,$1+$1,$2,$3*
1,1,$1+$1,$4,$5*
1,1,$1+$1,$6,$7*
1,1,$1+$1,$8,$9*
0 Add four rect primitives between the rounded corners*
20,1,$1+$1,$2,$3,$4,$5,0*
20,1,$1+$1,$4,$5,$6,$7,0*
20,1,$1+$1,$6,$7,$8,$9,0*
20,1,$1+$1,$8,$9,$2,$3,0*%
%AMFreePoly0*
4,1,9,3.862500,-0.866500,0.737500,-0.866500,0.737500,-0.450000,-0.737500,-0.450000,-0.737500,0.450000,0.737500,0.450000,0.737500,0.866500,3.862500,0.866500,3.862500,-0.866500,3.862500,-0.866500,$1*%
G04 Aperture macros list end*
%ADD10RoundRect,0.200000X-0.200000X-0.275000X0.200000X-0.275000X0.200000X0.275000X-0.200000X0.275000X0*%
%ADD11RoundRect,0.250000X1.000000X0.900000X-1.000000X0.900000X-1.000000X-0.900000X1.000000X-0.900000X0*%
%ADD12RoundRect,0.200000X-0.275000X0.200000X-0.275000X-0.200000X0.275000X-0.200000X0.275000X0.200000X0*%
%ADD13RoundRect,0.137500X0.137500X-0.662500X0.137500X0.662500X-0.137500X0.662500X-0.137500X-0.662500X0*%
%ADD14RoundRect,0.150000X-0.150000X0.825000X-0.150000X-0.825000X0.150000X-0.825000X0.150000X0.825000X0*%
%ADD15RoundRect,0.150000X-0.512500X-0.150000X0.512500X-0.150000X0.512500X0.150000X-0.512500X0.150000X0*%
%ADD16RoundRect,0.225000X0.425000X0.225000X-0.425000X0.225000X-0.425000X-0.225000X0.425000X-0.225000X0*%
%ADD17FreePoly0,180.000000*%
%ADD18RoundRect,0.225000X0.225000X0.250000X-0.225000X0.250000X-0.225000X-0.250000X0.225000X-0.250000X0*%
%ADD19RoundRect,0.225000X0.250000X-0.225000X0.250000X0.225000X-0.250000X0.225000X-0.250000X-0.225000X0*%
G04 APERTURE END LIST*
D10*
%TO.C,R6*%
X208075000Y-123900000D03*
X209725000Y-123900000D03*
%TD*%
D11*
%TO.C,D3*%
X199250000Y-136300000D03*
X194950000Y-136300000D03*
%TD*%
D12*
%TO.C,R4*%
X194900000Y-120675000D03*
X194900000Y-122325000D03*
%TD*%
D13*
%TO.C,U1*%
X169535000Y-131550000D03*
X168265000Y-131550000D03*
X168265000Y-125050000D03*
X169535000Y-125050000D03*
%TD*%
D10*
%TO.C,R2*%
X171075000Y-136700000D03*
X172725000Y-136700000D03*
%TD*%
D14*
%TO.C,Q1*%
X182595000Y-124425000D03*
X183865000Y-124425000D03*
X185135000Y-124425000D03*
X186405000Y-124425000D03*
X186405000Y-129375000D03*
X185135000Y-129375000D03*
X183865000Y-129375000D03*
X182595000Y-129375000D03*
%TD*%
D12*
%TO.C,R3*%
X182300000Y-120675000D03*
X182300000Y-122325000D03*
%TD*%
D13*
%TO.C,U2*%
X173135000Y-131550000D03*
X171865000Y-131550000D03*
X171865000Y-125050000D03*
X173135000Y-125050000D03*
%TD*%
D11*
%TO.C,D1*%
X211450000Y-136300000D03*
X207150000Y-136300000D03*
%TD*%
D15*
%TO.C,U5*%
X196562500Y-122449999D03*
X196562500Y-121500000D03*
X196562500Y-120550001D03*
X198837500Y-120550001D03*
X198837500Y-122449999D03*
%TD*%
D10*
%TO.C,R1*%
X167475000Y-136700000D03*
X169125000Y-136700000D03*
%TD*%
D15*
%TO.C,U4*%
X183962500Y-122449999D03*
X183962500Y-121500000D03*
X183962500Y-120550001D03*
X186237500Y-120550001D03*
X186237500Y-122449999D03*
%TD*%
D16*
%TO.C,U3*%
X211750000Y-125637500D03*
D17*
X211662500Y-127137500D03*
D16*
X211750000Y-128637500D03*
%TD*%
D18*
%TO.C,C1*%
X211275000Y-122300000D03*
X209725000Y-122300000D03*
%TD*%
D19*
%TO.C,C2*%
X187900000Y-122275000D03*
X187900000Y-120725000D03*
%TD*%
D14*
%TO.C,Q2*%
X195195000Y-124425000D03*
X196465000Y-124425000D03*
X197735000Y-124425000D03*
X199005000Y-124425000D03*
X199005000Y-129375000D03*
X197735000Y-129375000D03*
X196465000Y-129375000D03*
X195195000Y-129375000D03*
%TD*%
D19*
%TO.C,C3*%
X200500000Y-122275000D03*
X200500000Y-120725000D03*
%TD*%
D11*
%TO.C,D2*%
X186650000Y-136237500D03*
X182350000Y-136237500D03*
%TD*%
D10*
%TO.C,R5*%
X211275000Y-123900000D03*
X212925000Y-123900000D03*
%TD*%
M02*
